<?xml version="1.0" encoding="utf-8"?>
<!-- Generator: Adobe Illustrator 19.2.1, SVG Export Plug-In . SVG Version: 6.00 Build 0)  -->
<svg version="1.1" id="Layer_1" xmlns="http://www.w3.org/2000/svg" xmlns:xlink="http://www.w3.org/1999/xlink" x="0px" y="0px"
	 viewBox="0 0 475.3 612.1" style="enable-background:new 0 0 475.3 612.1;" xml:space="preserve">
<style type="text/css">
	.st0{fill:#282561;}
	.st1{font-family:'FreightTextProBook-Regular';}
	.st2{font-size:27.3262px;}
	.st3{fill:#878787;}
	.st4{font-size:36.4349px;}
	.st5{font-size:18.2174px;}
	.st6{fill:#610061;}
	.st7{font-family:'FreightTextProMedium-Regular';}
	.st8{font-size:13.6631px;}
	.st9{fill:#006146;}
	.st10{fill:#612900;}
	.st11{fill:#0D0061;}
	.st12{fill:#116100;}
	.st13{fill:#2E0061;}
	.st14{fill:#006111;}
	.st15{fill:#61000B;}
	.st16{fill:#002961;}
	.st17{fill:#446100;}
	.st18{fill:#61002B;}
	.st19{fill:#004961;}
	.st20{fill:#615D00;}
	.st21{fill:#410061;}
	.st22{fill:#006125;}
	.st23{fill:none;stroke:#878787;stroke-width:2;stroke-linecap:round;stroke-miterlimit:10;stroke-dasharray:0.1,6;}
</style>
<g>
	<g>
		<g>
			<text transform="matrix(1 0 0 1 291.8858 317.6019)" class="st0 st1 st2">Where do I g</text>
			<text transform="matrix(1 0 0 1 435.8858 317.6019)" class="st0 st1 st2">o</text>
			<text transform="matrix(1 0 0 1 448.3858 317.6019)" class="st0 st1 st2">?</text>
		</g>
		<text transform="matrix(1 0 0 1 459.6701 321.3342)" class="st3 st1 st4">”</text>
	</g>
	<g>
		<text transform="matrix(1 0 0 1 85.1469 142.4119)" class="st0 st1 st5">software for a</text>
		<text transform="matrix(1 0 0 1 344.6022 142.4117)" class="st0 st1 st5">and</text>
		<g>
			<text transform="matrix(1 0 0 1 228.825 108.3292)" class="st6 st7 st8">business idea</text>
			<text transform="matrix(1 0 0 1 209.7249 124.7292)" class="st9 st7 st8">interactive art piece</text>
			<text transform="matrix(1 0 0 1 210.325 141.1292)" class="st10 st7 st8">open source project</text>
			<text transform="matrix(1 0 0 1 220.1249 157.5292)" class="st11 st7 st8">wild experiment</text>
			<text transform="matrix(1 0 0 1 231.0249 173.9292)" class="st12 st7 st8">labor of love</text>
			<g>
				<path class="st3" d="M196.8,138.1v-1.7c1.3-0.5,2.4-1.6,3.2-3.3c0.8-1.7,1.2-3.7,1.2-5.9c0-1.5-0.2-3.7-0.5-6.6
					c-0.3-2.7-0.5-5-0.5-7c0-4.3,0.7-8.1,2.1-11.3c1.4-3.2,3.2-5.1,5.3-5.7v1.6c-1.5,0.5-2.7,1.8-3.4,3.8c-0.8,2-1.1,4.2-1.1,6.6
					c0,1.8,0.1,4,0.4,6.5c0.3,3.1,0.4,5.5,0.4,7.4c0,3.5-0.5,6.4-1.6,8.9s-2.4,4.4-3.9,5.6c1.7,1.4,3.1,3.5,4.1,6.1
					c1,2.6,1.5,5.5,1.5,8.6c0,1.8-0.1,4.2-0.4,7.3c-0.2,2.6-0.4,4.8-0.4,6.5c0,5.5,1.5,9,4.5,10.7v1.5c-2.1-0.5-3.8-2.4-5.2-5.7
					c-1.4-3.3-2.1-7-2.1-11.2c0-2,0.1-4.2,0.4-6.8c0.3-3,0.5-5.2,0.5-6.7c0-2.1-0.4-4-1.1-5.8C199.4,139.8,198.3,138.6,196.8,138.1z
					"/>
			</g>
			<g>
				<path class="st3" d="M335.7,136.4v1.7c-1.3,0.5-2.4,1.6-3.2,3.3c-0.8,1.7-1.3,3.7-1.3,5.9c0,1.5,0.2,3.7,0.5,6.6
					c0.3,2.7,0.5,5,0.5,7c0,4.3-0.7,8.1-2.2,11.3c-1.4,3.2-3.2,5.1-5.2,5.7v-1.6c1.5-0.5,2.7-1.8,3.4-3.8c0.7-2,1.1-4.2,1.1-6.6
					c0-1.8-0.1-4-0.4-6.5c-0.3-3.1-0.4-5.5-0.4-7.4c0-3.4,0.5-6.4,1.6-8.9s2.4-4.4,3.9-5.6c-1.7-1.4-3.1-3.4-4.1-6.1
					c-1-2.6-1.5-5.5-1.5-8.7c0-1.8,0.1-4.2,0.4-7.3c0.2-2.6,0.4-4.8,0.4-6.5c0-5.5-1.5-9.1-4.5-10.7v-1.6c2.1,0.5,3.8,2.5,5.2,5.7
					c1.4,3.3,2.1,7,2.1,11.2c0,2-0.1,4.2-0.4,6.8c-0.3,3-0.5,5.2-0.5,6.6c0,2.1,0.4,4.1,1.1,5.9C333,134.6,334.2,135.8,335.7,136.4z
					"/>
			</g>
		</g>
	</g>
	<g>
		<text transform="matrix(1 0 0 1 194.649 45.0745)" class="st0 st1 st5">working on</text>
		<text transform="matrix(1 0 0 1 0 53.0237)" class="st3 st1 st4">“</text>
		<text transform="matrix(1 0 0 1 19.0635 45.0743)" class="st0 st1 st5">I’m a</text>
		<g>
			<text transform="matrix(1 0 0 1 90.2441 10.9919)" class="st13 st7 st8">programmer</text>
			<text transform="matrix(1 0 0 1 79.1441 27.3918)" class="st14 st7 st8">graphic designer</text>
			<text transform="matrix(1 0 0 1 84.2441 43.7919)" class="st15 st7 st8">communicator</text>
			<text transform="matrix(1 0 0 1 88.1441 60.1919)" class="st16 st7 st8">entrepreneur</text>
			<text transform="matrix(1 0 0 1 85.4441 76.5919)" class="st17 st7 st8">crazy dreamer</text>
			<g>
				<path class="st3" d="M65.1,40.7V39c1.3-0.5,2.4-1.6,3.2-3.2c0.8-1.7,1.2-3.6,1.2-5.8c0-1.5-0.2-3.6-0.5-6.5
					c-0.3-2.6-0.5-4.9-0.5-6.9c0-4.2,0.7-7.9,2.1-11.1c1.4-3.2,3.2-5,5.3-5.6v1.6c-1.5,0.5-2.7,1.8-3.4,3.8c-0.8,2-1.1,4.2-1.1,6.5
					c0,1.8,0.1,3.9,0.4,6.4c0.3,3,0.4,5.4,0.4,7.3c0,3.4-0.5,6.3-1.6,8.7c-1.1,2.4-2.4,4.3-3.9,5.5c1.7,1.4,3.1,3.4,4.1,6
					s1.5,5.4,1.5,8.5c0,1.7-0.1,4.1-0.4,7.1c-0.2,2.5-0.4,4.7-0.4,6.4c0,5.4,1.5,8.9,4.5,10.5v1.5c-2.1-0.5-3.8-2.4-5.2-5.6
					c-1.4-3.2-2.1-6.9-2.1-11c0-1.9,0.1-4.2,0.4-6.7c0.3-3,0.5-5.2,0.5-6.5c0-2-0.4-3.9-1.1-5.7C67.7,42.5,66.6,41.3,65.1,40.7z"/>
			</g>
			<g>
				<path class="st3" d="M186.4,39.1v1.7c-1.3,0.5-2.4,1.5-3.2,3.2s-1.3,3.6-1.3,5.8c0,1.5,0.2,3.6,0.5,6.5c0.3,2.6,0.5,4.9,0.5,6.9
					c0,4.2-0.7,7.9-2.2,11.1c-1.4,3.2-3.2,5-5.2,5.6v-1.6c1.5-0.5,2.7-1.8,3.4-3.8s1.1-4.2,1.1-6.5c0-1.8-0.1-3.9-0.4-6.4
					c-0.3-3-0.4-5.4-0.4-7.3c0-3.4,0.5-6.3,1.6-8.7c1.1-2.5,2.4-4.3,3.9-5.5c-1.7-1.4-3.1-3.4-4.1-6s-1.5-5.4-1.5-8.5
					c0-1.7,0.1-4.1,0.4-7.1c0.2-2.5,0.4-4.7,0.4-6.4c0-5.4-1.5-8.9-4.5-10.5V0c2.1,0.5,3.8,2.4,5.2,5.6s2.1,6.9,2.1,11
					c0,1.9-0.1,4.2-0.4,6.7c-0.3,3-0.5,5.1-0.5,6.5c0,2.1,0.4,4,1.1,5.8C183.8,37.3,184.9,38.5,186.4,39.1z"/>
			</g>
		</g>
	</g>
	<g>
		<text transform="matrix(1 0 0 1 294.6547 240.1675)" class="st0 st1 st5">I need</text>
		<text transform="matrix(1 0 0 1 462.4073 240.1672)" class="st0 st1 st5">.</text>
		<g>
			<text transform="matrix(1 0 0 1 363.8045 206.085)" class="st18 st7 st8">collaborators</text>
			<text transform="matrix(1 0 0 1 361.7045 222.4849)" class="st19 st7 st8">technical help</text>
			<text transform="matrix(1 0 0 1 366.9044 238.8849)" class="st20 st7 st8">design skills</text>
			<text transform="matrix(1 0 0 1 376.0044 255.2849)" class="st21 st7 st8">guidance</text>
			<text transform="matrix(1 0 0 1 370.0044 271.6849)" class="st22 st7 st8">motivation</text>
			<g>
				<path class="st3" d="M348.4,235.5v-1.7c1.3-0.5,2.4-1.6,3.2-3.3s1.2-3.6,1.2-5.8c0-1.5-0.2-3.7-0.5-6.6c-0.3-2.7-0.5-5-0.5-6.9
					c0-4.3,0.7-8,2.1-11.2c1.4-3.2,3.2-5.1,5.3-5.7v1.6c-1.5,0.5-2.7,1.8-3.4,3.8c-0.8,2-1.1,4.2-1.1,6.5c0,1.8,0.1,3.9,0.4,6.5
					c0.3,3,0.4,5.5,0.4,7.3c0,3.4-0.5,6.4-1.6,8.8c-1.1,2.5-2.4,4.3-3.9,5.6c1.7,1.4,3.1,3.4,4.1,6.1c1,2.6,1.5,5.5,1.5,8.5
					c0,1.7-0.1,4.1-0.4,7.2c-0.2,2.6-0.4,4.7-0.4,6.4c0,5.4,1.5,9,4.5,10.6v1.5c-2.1-0.5-3.8-2.4-5.2-5.7c-1.4-3.3-2.1-7-2.1-11.1
					c0-1.9,0.1-4.2,0.4-6.8c0.3-3,0.5-5.2,0.5-6.6c0-2.1-0.4-4-1.1-5.8C351,237.2,349.9,236.1,348.4,235.5z"/>
			</g>
			<g>
				<path class="st3" d="M454.1,233.8v1.7c-1.3,0.5-2.4,1.5-3.2,3.3c-0.8,1.7-1.3,3.7-1.3,5.8c0,1.5,0.2,3.7,0.5,6.6
					c0.3,2.7,0.5,5,0.5,6.9c0,4.3-0.7,8-2.2,11.2c-1.4,3.2-3.2,5.1-5.2,5.6v-1.6c1.5-0.5,2.7-1.8,3.4-3.8s1.1-4.2,1.1-6.5
					c0-1.8-0.1-3.9-0.4-6.5c-0.3-3-0.4-5.5-0.4-7.3c0-3.4,0.5-6.3,1.6-8.8s2.4-4.3,3.9-5.6c-1.7-1.4-3.1-3.4-4.1-6
					c-1-2.6-1.5-5.5-1.5-8.6c0-1.7,0.1-4.1,0.4-7.2c0.2-2.6,0.4-4.7,0.4-6.4c0-5.5-1.5-9-4.5-10.6v-1.6c2.1,0.5,3.8,2.4,5.2,5.7
					c1.4,3.3,2.1,6.9,2.1,11.1c0,1.9-0.1,4.2-0.4,6.8c-0.3,3-0.5,5.2-0.5,6.6c0,2.1,0.4,4,1.1,5.8
					C451.5,232.1,452.6,233.2,454.1,233.8z"/>
			</g>
		</g>
	</g>
</g>
<g>
	<g>
		<path class="st0" d="M149,570l0.3,3.8h9.3v-54h-9.5v15.9c-0.7-0.3-1.3-0.5-1.8-0.8c-0.6-0.2-1.1-0.4-1.8-0.5
			c-0.6-0.1-1.4-0.3-2.2-0.3c-0.8-0.1-1.8-0.1-3.1-0.1c-1,0-2,0.1-3.2,0.4c-1.3,0.3-2.5,0.6-3.9,1.3c-1.3,0.6-2.7,1.3-3.9,2.2
			c-1.3,0.9-2.5,2-3.6,3.3c-1.3,1.6-2.4,3.6-3.2,5.8c-0.9,2.3-1.3,5-1.3,8c0,3.2,0.5,6,1.5,8.6c1,2.5,2.2,4.6,3.8,6.3
			c1.6,1.7,3.4,3,5.4,3.9c2,0.9,4.1,1.3,6.1,1.3c1.5,0,2.8-0.2,3.9-0.5c1.1-0.3,2.2-0.8,3.2-1.3s1.8-1.1,2.5-1.7
			C147.9,571.1,148.5,570.5,149,570z M144.2,565.7c-1.1,0.6-2.5,1-4.1,1c-3.1,0-5.5-1.1-7-3.3c-1.7-2.2-2.4-5-2.4-8.3
			c0-1.6,0.3-3.1,0.7-4.6s1.1-2.7,1.9-3.9c1-1.2,2-2.2,3.2-2.9c1.3-0.8,2.8-1.1,4.7-1.1s3.4,0.1,4.7,0.4c1.2,0.3,2.3,0.8,3.2,1.6
			v11.9c0,1.1-0.2,2.3-0.5,3.4c-0.3,1.2-0.8,2.3-1.5,3.3C146.3,564.2,145.3,565,144.2,565.7z"/>
		<path class="st0" d="M200.6,568.1l-5.2-6c-0.3,0.3-0.8,0.8-1.4,1.3s-1.4,1-2.4,1.5c-1,0.4-2.2,0.9-3.6,1.3c-1.4,0.4-3,0.5-4.8,0.5
			c-1.3,0-2.5-0.2-3.8-0.6c-1.3-0.4-2.4-1.1-3.4-1.9s-1.8-1.8-2.4-3c-0.6-1.1-1-2.5-1-3.9H201v-1.4c0-2.8-0.3-5.5-1-8.1
			c-0.7-2.6-1.7-5-3.2-7.1c-1.5-2.1-3.4-3.8-5.8-5.1s-5.3-2-8.8-2c-2.9,0-5.5,0.5-7.9,1.6c-2.3,1.1-4.4,2.5-6.1,4.3s-3,4-4,6.4
			c-1,2.5-1.4,5.1-1.4,8c0,3.2,0.4,6,1.4,8.6s2.3,4.8,4.1,6.7s3.9,3.3,6.4,4.4c2.5,1.1,5.3,1.6,8.3,1.6s5.5-0.3,7.7-1
			c2.2-0.6,3.9-1.4,5.3-2.2c1.4-0.8,2.4-1.6,3.2-2.3C199.9,568.9,200.4,568.3,200.6,568.1z M173.1,547.2c0.4-1,1.1-1.9,1.8-2.7
			c0.8-0.8,1.8-1.5,3-2s2.6-0.8,4.2-0.8c1.5,0,2.8,0.3,3.9,0.8s2.1,1.2,2.8,2c0.8,0.8,1.3,1.7,1.7,2.7c0.4,1,0.6,2,0.6,3h-18.7
			C172.5,549.2,172.8,548.2,173.1,547.2z"/>
		<polygon class="st0" points="242.9,534.9 232.5,534.9 222.2,562.7 211.9,534.9 200.9,534.9 217.1,573.8 226.9,573.8 		"/>
		<path class="st0" d="M250.3,569c1.7,1.8,3.7,3.2,6,4.3s5,1.5,7.8,1.5c1.9,0,3.7-0.1,5.2-0.4c1.6-0.3,3-0.6,4.2-1.1
			c1.3-0.4,2.3-1,3.3-1.6c1-0.6,1.8-1.1,2.4-1.7v-14.7h-13.3v2.7h10.6v10.9c-1.3,0.9-2.9,1.7-4.8,2.3c-2,0.7-4.4,1-7.5,1
			c-2.5,0-4.7-0.4-6.7-1.4s-3.7-2.2-5.1-3.8c-1.4-1.7-2.5-3.6-3.2-5.7c-0.7-2.2-1.1-4.5-1.1-7s0.4-4.9,1.1-7
			c0.7-2.1,1.8-4.1,3.2-5.7c1.4-1.6,3.1-2.9,5.1-3.8c2-0.9,4.3-1.4,6.9-1.4c1.8,0,3.5,0.3,4.8,0.8c1.4,0.6,2.5,1.2,3.5,1.9
			s1.7,1.4,2.3,2.1c0.6,0.7,1,1.2,1.2,1.5l2.1-1.5c-0.3-0.4-0.7-1-1.3-1.8c-0.6-0.8-1.5-1.7-2.7-2.5c-1.1-0.8-2.5-1.6-4.3-2.2
			c-1.7-0.6-3.7-1-6-1c-2.9,0-5.5,0.5-7.8,1.6c-2.3,1.1-4.4,2.5-6,4.4c-1.7,1.8-3,4.1-3.9,6.5c-1,2.5-1.4,5.2-1.4,8.1
			c0,3,0.4,5.8,1.4,8.4C247.4,565,248.6,567.1,250.3,569z"/>
		<path class="st0" d="M300.2,534.3l-16.1,39.4h3l5.1-12.7h18.5l5.1,12.7h3.2l-16.1-39.4C303,534.3,300.2,534.3,300.2,534.3z
			 M293.3,558.4l8.2-20.4l8.2,20.4H293.3z"/>
		<path class="st0" d="M341.8,556.3c2.9-0.7,5-2,6.3-4s2-4.3,2-6.8c0-1.6-0.3-3.1-0.8-4.4s-1.3-2.5-2.4-3.6c-1.1-1-2.5-1.8-4.3-2.3
			c-1.8-0.6-3.9-0.8-6.5-0.8h-11.9v39.4h2.9v-17.1h11.7l9.1,17.1h3.2L341.8,556.3z M337.3,554h-10.2v-17h9.8c3.3,0,5.8,0.7,7.6,2.1
			c1.7,1.4,2.5,3.6,2.5,6.4C347.1,551.2,343.8,554,337.3,554z"/>
		<path class="st0" d="M391.1,554c0-3.4-0.6-6.4-1.7-8.9s-2.6-4.5-4.6-6.1c-2-1.6-4.3-2.8-7-3.6c-2.7-0.8-5.7-1.1-8.9-1.1h-10.7
			v39.4H369c3.2,0,6.2-0.4,8.9-1.1c2.7-0.8,5-2,7-3.6c2-1.6,3.5-3.7,4.6-6.2C390.5,560.4,391.1,557.5,391.1,554z M386.8,561.6
			c-0.9,2.2-2.1,3.9-3.7,5.3c-1.6,1.4-3.6,2.5-5.8,3.2c-2.3,0.7-4.8,1-7.6,1h-8.5V537h8.1c2.9,0,5.5,0.3,7.9,1
			c2.3,0.7,4.3,1.7,6,3.2c1.7,1.4,2.9,3.2,3.8,5.3c0.9,2.2,1.3,4.6,1.3,7.5C388.3,556.9,387.7,559.4,386.8,561.6z"/>
		<polygon class="st0" points="401.1,554.5 417.4,554.5 417.4,551.9 401.1,551.9 401.1,537 421.9,537 421.9,534.3 398.3,534.3 
			398.3,573.8 423.5,573.8 423.5,571.1 401.1,571.1 		"/>
		<polygon class="st0" points="461.1,573.8 461.1,534.3 458.3,534.3 458.3,569.5 433,534.3 430,534.3 430,573.8 432.8,573.8 
			432.8,539.1 458.1,573.8 		"/>
		<polygon class="st0" points="133.2,584.8 128.5,592.6 123.9,584.8 122.8,584.8 122.2,598 123.2,598 123.6,586.2 128.1,593.9 
			128.7,593.9 133.3,586.2 133.8,598 134.7,598 134.2,584.8 		"/>
		<path class="st0" d="M144.6,596.9c0-0.3,0-0.5,0-0.8v-4.2c0-1.1-0.3-2-1-2.5s-1.6-0.8-2.7-0.8c-0.8,0-1.5,0.1-2.1,0.4
			s-1,0.5-1.2,0.8l0.5,0.6c0.3-0.2,0.6-0.4,1-0.6s1-0.3,1.8-0.3c0.4,0,0.8,0.1,1.2,0.1c0.3,0.1,0.6,0.2,0.9,0.4
			c0.3,0.2,0.4,0.4,0.5,0.8c0.1,0.3,0.2,0.8,0.2,1.3v0.5c-0.3-0.1-0.7-0.1-1.1-0.1s-1-0.1-1.5-0.1c-0.7,0-1.3,0.1-1.8,0.3
			c-0.5,0.2-0.9,0.4-1.2,0.7s-0.6,0.6-0.7,1c-0.1,0.4-0.2,0.8-0.2,1.3c0,0.6,0.1,1,0.3,1.3c0.2,0.4,0.4,0.6,0.8,0.8
			c0.3,0.2,0.6,0.3,1,0.4c0.4,0.1,0.8,0.1,1.1,0.1s0.5,0,0.8-0.1c0.3-0.1,0.6-0.1,0.9-0.3c0.3-0.1,0.6-0.3,0.9-0.6
			c0.3-0.3,0.6-0.5,0.8-0.9c0,0.3,0,0.4,0,0.6s0,0.3,0,0.5c0,0.1,0,0.3,0,0.4h0.9c0-0.2,0-0.3-0.1-0.6
			C144.6,597.3,144.6,597.1,144.6,596.9z M143.7,594.7c0,0.3-0.1,0.7-0.3,1s-0.4,0.6-0.7,0.9s-0.6,0.5-1,0.6
			c-0.4,0.2-0.8,0.3-1.3,0.3c-0.7,0-1.3-0.1-1.7-0.4s-0.7-0.8-0.7-1.5c0-0.3,0-0.5,0.1-0.8s0.2-0.6,0.4-0.8c0.2-0.3,0.5-0.4,0.9-0.6
			s1-0.3,1.6-0.3s1.2,0,1.6,0.1c0.4,0.1,0.8,0.1,1,0.2L143.7,594.7L143.7,594.7L143.7,594.7z"/>
		<path class="st0" d="M153.2,597.1c-0.5,0.3-1.1,0.4-1.8,0.4c-0.5,0-1-0.1-1.5-0.3c-0.4-0.2-0.8-0.5-1.1-0.9
			c-0.3-0.4-0.6-0.8-0.8-1.3s-0.3-1-0.3-1.5s0.1-1.1,0.3-1.5c0.2-0.5,0.4-0.9,0.8-1.3c0.3-0.4,0.7-0.6,1.1-0.9
			c0.4-0.2,1-0.3,1.5-0.3c0.6,0,1.2,0.1,1.7,0.3c0.4,0.3,0.8,0.6,1.1,1l0.7-0.5c-0.4-0.5-0.9-0.9-1.5-1.2c-0.6-0.3-1.3-0.4-2.1-0.4
			c-0.6,0-1.3,0.1-1.8,0.4c-0.6,0.3-1.1,0.6-1.5,1c-0.4,0.4-0.8,1-1,1.5c-0.3,0.6-0.3,1.2-0.3,1.9s0.1,1.3,0.3,1.9
			c0.3,0.6,0.6,1.1,1,1.5c0.4,0.4,0.9,0.8,1.5,1c0.6,0.3,1.2,0.4,1.8,0.4c0.8,0,1.5-0.1,2.1-0.4s1.1-0.7,1.5-1.1l-0.6-0.6
			C154.1,596.5,153.7,596.8,153.2,597.1z"/>
		<path class="st0" d="M164.3,596.9c0-0.3,0-0.5,0-0.8v-4.2c0-1.1-0.3-2-1-2.5c-0.6-0.5-1.6-0.8-2.7-0.8c-0.8,0-1.5,0.1-2.1,0.4
			s-1,0.5-1.2,0.8l0.5,0.6c0.3-0.2,0.6-0.4,1-0.6s1-0.3,1.8-0.3c0.4,0,0.8,0.1,1.2,0.1c0.3,0.1,0.6,0.2,0.9,0.4
			c0.3,0.2,0.4,0.4,0.5,0.8c0.1,0.3,0.2,0.8,0.2,1.3v0.5c-0.3-0.1-0.7-0.1-1.1-0.1s-1-0.1-1.5-0.1c-0.7,0-1.3,0.1-1.8,0.3
			c-0.5,0.2-0.9,0.4-1.2,0.7c-0.3,0.3-0.6,0.6-0.7,1c-0.1,0.4-0.2,0.8-0.2,1.3c0,0.6,0.1,1,0.3,1.3c0.2,0.4,0.4,0.6,0.8,0.8
			c0.3,0.2,0.6,0.3,1,0.4c0.4,0.1,0.8,0.1,1.1,0.1c0.3,0,0.5,0,0.8-0.1c0.3-0.1,0.6-0.1,0.9-0.3c0.3-0.1,0.6-0.3,0.9-0.6
			c0.3-0.3,0.6-0.5,0.8-0.9c0,0.3,0,0.4,0,0.6s0,0.3,0,0.5c0,0.1,0,0.3,0,0.4h0.9c0-0.2,0-0.3-0.1-0.6
			C164.3,597.3,164.3,597.1,164.3,596.9z M163.4,594.7c0,0.3-0.1,0.7-0.3,1c-0.2,0.3-0.4,0.6-0.7,0.9c-0.3,0.3-0.6,0.5-1,0.6
			c-0.4,0.2-0.8,0.3-1.3,0.3c-0.7,0-1.3-0.1-1.7-0.4c-0.4-0.3-0.7-0.8-0.7-1.5c0-0.3,0-0.5,0.1-0.8s0.2-0.6,0.4-0.8
			c0.2-0.3,0.5-0.4,0.9-0.6s1-0.3,1.6-0.3s1.2,0,1.6,0.1c0.4,0.1,0.8,0.1,1,0.2v1.3H163.4L163.4,594.7z"/>
		<rect x="167" y="584.8" class="st0" width="0.9" height="13.3"/>
		<path class="st0" d="M178.7,591.5c-0.2-0.6-0.5-1.1-0.9-1.6c-0.4-0.4-0.9-0.8-1.4-1s-1.1-0.3-1.8-0.3s-1.3,0.1-1.8,0.4
			c-0.6,0.3-1,0.6-1.4,1c-0.4,0.4-0.7,1-0.9,1.5c-0.2,0.6-0.3,1.2-0.3,1.9s0.1,1.4,0.3,2c0.2,0.6,0.6,1.1,1,1.5
			c0.4,0.4,0.9,0.8,1.5,1c0.6,0.3,1.2,0.3,1.9,0.3c0.7,0,1.4-0.1,2.1-0.4s1.2-0.7,1.7-1.2l-0.6-0.5c-0.2,0.2-0.4,0.4-0.6,0.5
			c-0.3,0.2-0.5,0.3-0.8,0.4c-0.3,0.1-0.6,0.2-0.9,0.3s-0.6,0.1-0.9,0.1c-0.6,0-1-0.1-1.5-0.3c-0.5-0.2-0.8-0.4-1.1-0.8
			c-0.3-0.3-0.6-0.8-0.8-1.2c-0.2-0.4-0.3-1-0.3-1.5h7.8C179,592.9,178.9,592.1,178.7,591.5z M171.2,592.9c0-0.5,0.1-1,0.3-1.3
			c0.2-0.4,0.4-0.8,0.7-1.1c0.3-0.3,0.6-0.6,1-0.8s0.8-0.3,1.3-0.3c1,0,1.7,0.3,2.3,0.9c0.6,0.6,1,1.5,1.1,2.6H171.2L171.2,592.9
			L171.2,592.9z"/>
		<path class="st0" d="M187.1,593.7c-0.3-0.2-0.6-0.3-1-0.4c-0.4-0.1-0.8-0.2-1.1-0.3c-0.3-0.1-0.7-0.2-1-0.3s-0.6-0.2-0.9-0.3
			s-0.5-0.3-0.6-0.5c-0.2-0.2-0.3-0.4-0.3-0.8c0-0.4,0.1-0.6,0.2-0.9c0.1-0.2,0.3-0.4,0.6-0.5c0.3-0.1,0.5-0.2,0.8-0.3
			s0.6-0.1,0.9-0.1c0.6,0,1.1,0.1,1.5,0.3c0.4,0.2,0.8,0.5,1.1,0.8l0.6-0.6c-0.3-0.4-0.8-0.8-1.3-1c-0.6-0.3-1.2-0.4-1.9-0.4
			c-0.4,0-0.9,0.1-1.3,0.1c-0.4,0.1-0.8,0.3-1.1,0.4c-0.3,0.2-0.6,0.4-0.8,0.8c-0.2,0.3-0.3,0.7-0.3,1.1c0,0.4,0.1,0.8,0.2,1.1
			s0.3,0.5,0.6,0.7c0.3,0.2,0.6,0.3,0.9,0.4c0.4,0.1,0.8,0.3,1.1,0.3c0.5,0.1,1,0.3,1.3,0.3c0.4,0.1,0.7,0.2,1,0.4
			c0.3,0.1,0.4,0.3,0.6,0.5c0.1,0.2,0.2,0.5,0.2,0.8s-0.1,0.6-0.2,0.8c-0.1,0.2-0.3,0.4-0.6,0.5c-0.3,0.1-0.6,0.3-0.9,0.3
			c-0.3,0.1-0.7,0.1-1.1,0.1c-0.7,0-1.3-0.1-1.8-0.3c-0.5-0.2-1-0.5-1.3-0.9l-0.6,0.6c0.4,0.4,1,0.8,1.5,1c0.6,0.3,1.3,0.4,2.2,0.4
			c0.4,0,0.9-0.1,1.3-0.2c0.4-0.1,0.8-0.3,1.2-0.5c0.4-0.3,0.6-0.5,0.8-0.8c0.2-0.3,0.3-0.8,0.3-1.2s-0.1-0.8-0.3-1.1
			C187.6,593.9,187.4,594,187.1,593.7z"/>
		<path class="st0" d="M194.7,597.3c-0.3,0.1-0.5,0.2-0.9,0.2c-0.3,0-0.4,0-0.6-0.1c-0.2-0.1-0.4-0.2-0.5-0.3
			c-0.1-0.2-0.3-0.4-0.4-0.8c-0.1-0.3-0.1-0.8-0.1-1.3v-5.3h3v-0.8h-3v-3h-0.9v3h-1.8v0.8h1.8v5.5c0,0.6,0.1,1.1,0.2,1.5
			c0.1,0.4,0.3,0.7,0.5,1s0.4,0.4,0.8,0.5c0.3,0.1,0.6,0.1,1,0.1c0.6,0,1-0.1,1.3-0.3s0.6-0.4,0.9-0.8l-0.6-0.5
			C195.2,597,195,597.2,194.7,597.3z"/>
		<path class="st0" d="M205.1,591.5c-0.2-0.6-0.5-1.1-0.9-1.6s-0.9-0.8-1.4-1s-1.1-0.3-1.8-0.3c-0.6,0-1.3,0.1-1.8,0.4
			c-0.6,0.3-1,0.6-1.4,1c-0.4,0.4-0.7,1-0.9,1.5c-0.2,0.6-0.3,1.2-0.3,1.9s0.1,1.4,0.3,2c0.2,0.6,0.6,1.1,1,1.5
			c0.4,0.4,0.9,0.8,1.5,1c0.6,0.3,1.2,0.3,1.9,0.3s1.4-0.1,2.1-0.4s1.2-0.7,1.7-1.2l-0.6-0.5c-0.2,0.2-0.4,0.4-0.6,0.5
			c-0.3,0.2-0.5,0.3-0.8,0.4c-0.3,0.1-0.6,0.2-0.9,0.3s-0.6,0.1-0.9,0.1c-0.6,0-1-0.1-1.5-0.3c-0.5-0.2-0.8-0.4-1.1-0.8
			c-0.3-0.3-0.6-0.8-0.8-1.2c-0.2-0.4-0.3-1-0.3-1.5h7.8C205.5,592.9,205.3,592.1,205.1,591.5z M197.7,592.9c0-0.5,0.1-1,0.3-1.3
			c0.2-0.4,0.4-0.8,0.7-1.1c0.3-0.3,0.6-0.6,1-0.8s0.8-0.3,1.3-0.3c1,0,1.7,0.3,2.3,0.9c0.6,0.6,1,1.5,1.1,2.6H197.7L197.7,592.9
			L197.7,592.9z"/>
		<path class="st0" d="M210.7,589c-0.4,0.1-0.7,0.3-1,0.5s-0.5,0.4-0.7,0.7s-0.3,0.4-0.4,0.7c0-0.3,0-0.4,0-0.6s0-0.4,0-0.5
			c0-0.1,0-0.3,0-0.4c0-0.1,0-0.3,0-0.4h-0.9c0,0.1,0,0.3,0,0.4c0,0.1,0,0.3,0,0.4c0,0.1,0,0.3,0,0.5s0,0.4,0,0.6v7.2h0.9v-4.7
			c0-0.4,0.1-0.9,0.3-1.3c0.1-0.4,0.4-0.8,0.6-1.2c0.3-0.3,0.6-0.6,1-0.8c0.4-0.2,0.8-0.3,1.3-0.3c0.1,0,0.3,0,0.4,0
			s0.3,0.1,0.3,0.1l0.3-0.9c-0.2-0.1-0.4-0.1-0.8-0.1C211.6,588.8,211.1,588.8,210.7,589z"/>
		<path class="st0" d="M225.6,591.9c-0.4-0.3-0.8-0.5-1.3-0.7c-0.4-0.2-1-0.3-1.4-0.4c-0.4-0.1-0.9-0.3-1.3-0.4
			c-0.4-0.1-0.8-0.3-1.2-0.5c-0.4-0.2-0.6-0.4-0.9-0.8c-0.3-0.3-0.3-0.7-0.3-1.2c0-0.3,0.1-0.6,0.2-1c0.1-0.3,0.3-0.6,0.6-0.8
			c0.3-0.3,0.6-0.4,1-0.6c0.4-0.1,0.9-0.2,1.4-0.2s0.9,0.1,1.3,0.1c0.4,0.1,0.7,0.3,1,0.4c0.3,0.1,0.5,0.3,0.7,0.5s0.3,0.3,0.4,0.5
			l0.7-0.6c-0.1-0.2-0.3-0.4-0.6-0.6c-0.2-0.2-0.5-0.4-0.8-0.6s-0.7-0.3-1.1-0.4c-0.4-0.1-1-0.2-1.5-0.2c-0.6,0-1.2,0.1-1.8,0.3
			c-0.5,0.2-1,0.4-1.3,0.7c-0.4,0.3-0.6,0.6-0.8,1.1c-0.2,0.4-0.3,0.8-0.3,1.3c0,0.6,0.1,1.2,0.4,1.7c0.3,0.4,0.6,0.8,1,1
			c0.4,0.3,0.8,0.5,1.3,0.6c0.5,0.2,1,0.3,1.5,0.4c0.4,0.1,0.8,0.3,1.2,0.4c0.4,0.1,0.8,0.3,1.1,0.6c0.3,0.3,0.6,0.5,0.8,0.9
			c0.2,0.3,0.3,0.8,0.3,1.3c0,0.4-0.1,0.9-0.3,1.2c-0.2,0.4-0.4,0.6-0.7,0.9c-0.3,0.3-0.7,0.4-1.1,0.5c-0.4,0.1-0.9,0.2-1.4,0.2
			c-0.9,0-1.7-0.2-2.3-0.5c-0.6-0.3-1.1-0.8-1.7-1.3l-0.7,0.7c0.2,0.3,0.4,0.5,0.7,0.8c0.3,0.3,0.6,0.4,1,0.6s0.8,0.3,1.3,0.4
			c0.5,0.1,1,0.2,1.6,0.2s1.2-0.1,1.8-0.3c0.6-0.2,1-0.4,1.5-0.8c0.4-0.3,0.7-0.7,1-1.1c0.3-0.4,0.4-1,0.4-1.5
			c0-0.6-0.1-1.2-0.3-1.7C226.3,592.5,226,592.1,225.6,591.9z"/>
		<path class="st0" d="M236.8,590c-0.4-0.4-1-0.8-1.5-1c-0.6-0.3-1.2-0.4-1.8-0.4c-0.6,0-1.3,0.1-1.8,0.4c-0.6,0.3-1.1,0.6-1.5,1
			c-0.4,0.4-0.8,1-1,1.5c-0.3,0.6-0.4,1.2-0.4,1.9s0.1,1.3,0.4,1.9c0.3,0.6,0.6,1.1,1,1.5c0.4,0.4,1,0.8,1.5,1
			c0.6,0.3,1.2,0.4,1.8,0.4c0.6,0,1.3-0.1,1.8-0.4c0.6-0.3,1.1-0.6,1.5-1c0.4-0.4,0.8-1,1-1.5c0.3-0.6,0.4-1.2,0.4-1.9
			c0-0.7-0.1-1.3-0.4-1.9C237.5,591,237.2,590.5,236.8,590z M236.9,595.1c-0.2,0.5-0.4,0.9-0.8,1.3c-0.3,0.4-0.8,0.6-1.2,0.9
			c-0.4,0.2-1,0.3-1.5,0.3s-1-0.1-1.5-0.3c-0.4-0.2-0.9-0.5-1.2-0.9c-0.3-0.4-0.6-0.8-0.8-1.3c-0.2-0.5-0.3-1-0.3-1.5
			c0-0.6,0.1-1.1,0.3-1.6s0.4-0.9,0.8-1.3c0.3-0.4,0.8-0.6,1.2-0.9c0.4-0.2,1-0.3,1.5-0.3s1,0.1,1.5,0.3c0.4,0.2,0.9,0.5,1.2,0.9
			c0.3,0.4,0.6,0.8,0.8,1.3c0.2,0.5,0.3,1,0.3,1.5C237.2,594,237.1,594.5,236.9,595.1z"/>
		<path class="st0" d="M242.1,588.2c0-0.6,0.1-1.1,0.1-1.5c0.1-0.4,0.3-0.7,0.4-0.9c0.2-0.2,0.4-0.4,0.6-0.4
			c0.3-0.1,0.5-0.1,0.8-0.1c0.4,0,0.7,0.1,1,0.2c0.3,0.1,0.6,0.3,0.8,0.6l0.6-0.6c-0.3-0.3-0.6-0.6-1-0.8s-0.9-0.3-1.5-0.3
			c-0.9,0-1.7,0.3-2.1,0.9c-0.5,0.6-0.7,1.4-0.7,2.5v1.1h-1.8v0.8h1.8v8.3h0.9v-8.3h3v-0.8h-3v-0.7H242.1z"/>
		<path class="st0" d="M250.9,597.3c-0.3,0.1-0.5,0.2-0.9,0.2c-0.3,0-0.4,0-0.6-0.1c-0.2-0.1-0.4-0.2-0.5-0.3
			c-0.1-0.2-0.3-0.4-0.3-0.8c-0.1-0.3-0.1-0.8-0.1-1.3v-5.3h3v-0.8h-3v-3h-0.9v3h-1.8v0.8h1.8v5.5c0,0.6,0.1,1.1,0.2,1.5
			c0.1,0.4,0.3,0.7,0.5,1s0.4,0.4,0.8,0.5c0.3,0.1,0.6,0.1,1,0.1c0.6,0,1-0.1,1.3-0.3s0.6-0.4,0.9-0.8l-0.6-0.5
			C251.4,597,251.2,597.2,250.9,597.3z"/>
		<polygon class="st0" points="262.2,597 259.6,588.9 258.7,588.9 256.1,596.9 253.5,588.9 252.5,588.9 255.6,598 256.5,598 
			259.1,590.2 261.6,598 262.6,598 265.5,588.9 264.6,588.9 		"/>
		<path class="st0" d="M274,596.9c0-0.3,0-0.5,0-0.8v-4.2c0-1.1-0.3-2-1-2.5c-0.6-0.5-1.6-0.8-2.7-0.8c-0.8,0-1.5,0.1-2.1,0.4
			s-1,0.5-1.2,0.8l0.5,0.6c0.3-0.2,0.6-0.4,1-0.6c0.4-0.3,1.1-0.3,1.8-0.3c0.4,0,0.8,0.1,1.2,0.1c0.3,0.1,0.6,0.2,0.9,0.4
			c0.3,0.2,0.4,0.4,0.5,0.8c0.1,0.3,0.2,0.8,0.2,1.3v0.5c-0.3-0.1-0.7-0.1-1.1-0.1c-0.4-0.1-1-0.1-1.5-0.1c-0.7,0-1.3,0.1-1.8,0.3
			c-0.5,0.2-0.9,0.4-1.2,0.7c-0.3,0.3-0.6,0.6-0.7,1c-0.1,0.4-0.2,0.8-0.2,1.3c0,0.6,0.1,1,0.3,1.3c0.2,0.4,0.4,0.6,0.8,0.8
			c0.3,0.2,0.6,0.3,1,0.4c0.4,0.1,0.8,0.1,1.1,0.1c0.3,0,0.5,0,0.8-0.1c0.3-0.1,0.6-0.1,0.9-0.3c0.3-0.1,0.6-0.3,0.9-0.6
			c0.3-0.3,0.6-0.5,0.8-0.9c0,0.3,0,0.4,0,0.6s0,0.3,0,0.5c0,0.1,0,0.3,0,0.4h0.9c0-0.2,0-0.3-0.1-0.6
			C274,597.3,274,597.1,274,596.9z M273.1,594.7c0,0.3-0.1,0.7-0.3,1c-0.2,0.3-0.4,0.6-0.7,0.9c-0.3,0.3-0.6,0.5-1.1,0.6
			c-0.4,0.2-0.8,0.3-1.3,0.3c-0.7,0-1.3-0.1-1.7-0.4c-0.4-0.3-0.7-0.8-0.7-1.5c0-0.3,0-0.5,0.1-0.8s0.2-0.6,0.4-0.8
			c0.2-0.3,0.5-0.4,0.9-0.6s1-0.3,1.6-0.3s1.2,0,1.6,0.1c0.4,0.1,0.8,0.1,1.1,0.2v1.3H273.1L273.1,594.7z"/>
		<path class="st0" d="M279.7,589c-0.4,0.1-0.7,0.3-1,0.5s-0.5,0.4-0.7,0.7s-0.3,0.4-0.4,0.7c0-0.3,0-0.4,0-0.6s0-0.4,0-0.5
			c0-0.1,0-0.3,0-0.4c0-0.1,0-0.3,0-0.4h-0.8c0,0.1,0,0.3,0,0.4c0,0.1,0,0.3,0,0.4c0,0.1,0,0.3,0,0.5s0,0.4,0,0.6v7.2h0.9v-4.7
			c0-0.4,0.1-0.9,0.3-1.3c0.1-0.4,0.4-0.8,0.6-1.2c0.3-0.3,0.6-0.6,1-0.8s0.8-0.3,1.3-0.3c0.1,0,0.3,0,0.3,0l0.3,0.1l0.3-0.9
			c-0.2-0.1-0.4-0.1-0.8-0.1C280.5,588.8,280.1,588.8,279.7,589z"/>
		<path class="st0" d="M290.9,591.5c-0.2-0.6-0.5-1.1-0.9-1.6s-0.9-0.8-1.4-1s-1.1-0.3-1.8-0.3c-0.6,0-1.3,0.1-1.8,0.4
			c-0.6,0.3-1,0.6-1.4,1c-0.4,0.4-0.7,1-0.9,1.5c-0.2,0.6-0.3,1.2-0.3,1.9s0.1,1.4,0.4,2c0.3,0.6,0.6,1.1,1,1.5
			c0.4,0.4,0.9,0.8,1.5,1c0.6,0.3,1.2,0.3,1.9,0.3s1.4-0.1,2.1-0.4s1.2-0.7,1.7-1.2l-0.6-0.5c-0.2,0.2-0.4,0.4-0.6,0.5
			c-0.3,0.2-0.5,0.3-0.8,0.4c-0.3,0.1-0.6,0.2-0.9,0.3s-0.6,0.1-0.9,0.1c-0.6,0-1-0.1-1.5-0.3c-0.4-0.2-0.8-0.4-1.1-0.8
			c-0.3-0.3-0.6-0.8-0.8-1.2c-0.2-0.4-0.3-1-0.3-1.5h7.8C291.2,592.9,291.1,592.1,290.9,591.5z M283.4,592.9c0-0.5,0.1-1,0.3-1.3
			c0.2-0.4,0.4-0.8,0.7-1.1c0.3-0.3,0.6-0.6,1.1-0.8c0.4-0.2,0.8-0.3,1.3-0.3c1,0,1.7,0.3,2.3,0.9c0.6,0.6,1,1.5,1.1,2.6H283.4
			L283.4,592.9L283.4,592.9z"/>
		<path class="st0" d="M299.3,587.1c0.4-0.6,1-1,1.7-1.3s1.5-0.4,2.3-0.4c0.7,0,1.3,0.1,1.7,0.3c0.5,0.2,0.9,0.4,1.2,0.6
			c0.3,0.3,0.6,0.4,0.8,0.7c0.2,0.3,0.3,0.4,0.4,0.5l0.7-0.5c-0.1-0.1-0.3-0.3-0.4-0.6c-0.2-0.3-0.5-0.6-0.9-0.8
			c-0.4-0.3-0.9-0.5-1.5-0.8c-0.6-0.2-1.3-0.3-2-0.3c-1,0-1.8,0.2-2.6,0.5c-0.8,0.4-1.5,0.8-2,1.5c-0.6,0.6-1,1.4-1.3,2.2
			s-0.4,1.8-0.4,2.7c0,1,0.1,1.9,0.4,2.8c0.3,0.8,0.8,1.6,1.3,2.2c0.5,0.6,1.3,1.1,2,1.5c0.8,0.4,1.7,0.5,2.6,0.5
			c0.8,0,1.5-0.1,2-0.3c0.6-0.2,1.1-0.4,1.5-0.8c0.4-0.4,0.7-0.6,0.9-0.8c0.2-0.3,0.4-0.5,0.4-0.6l-0.7-0.5
			c-0.1,0.1-0.2,0.3-0.4,0.5c-0.2,0.3-0.4,0.4-0.8,0.7c-0.3,0.3-0.7,0.4-1.2,0.6c-0.4,0.2-1,0.3-1.7,0.3c-0.9,0-1.7-0.1-2.3-0.4
			c-0.7-0.3-1.3-0.8-1.7-1.3c-0.4-0.6-0.8-1.2-1.1-1.9c-0.3-0.8-0.4-1.5-0.4-2.4c0-0.8,0.1-1.7,0.4-2.4
			C298.5,588.3,298.9,587.6,299.3,587.1z"/>
		<path class="st0" d="M317.7,590c-0.4-0.4-1-0.8-1.5-1c-0.6-0.3-1.2-0.4-1.8-0.4c-0.6,0-1.3,0.1-1.8,0.4c-0.6,0.3-1.1,0.6-1.5,1
			c-0.4,0.4-0.8,1-1,1.5c-0.3,0.6-0.4,1.2-0.4,1.9s0.1,1.3,0.4,1.9c0.3,0.6,0.6,1.1,1,1.5c0.4,0.4,1,0.8,1.5,1
			c0.6,0.3,1.2,0.4,1.8,0.4c0.6,0,1.3-0.1,1.8-0.4c0.6-0.3,1.1-0.6,1.5-1c0.4-0.4,0.8-1,1-1.5c0.3-0.6,0.4-1.2,0.4-1.9
			c0-0.7-0.1-1.3-0.4-1.9C318.5,591,318.2,590.5,317.7,590z M317.9,595.1c-0.2,0.5-0.4,0.9-0.8,1.3c-0.3,0.4-0.8,0.6-1.2,0.9
			c-0.4,0.3-1,0.3-1.5,0.3s-1-0.1-1.5-0.3c-0.4-0.2-0.9-0.5-1.2-0.9c-0.3-0.4-0.6-0.8-0.8-1.3c-0.2-0.5-0.3-1-0.3-1.5
			c0-0.6,0.1-1.1,0.3-1.6s0.4-0.9,0.8-1.3c0.3-0.4,0.8-0.6,1.2-0.9c0.4-0.3,1-0.3,1.5-0.3s1,0.1,1.5,0.3c0.4,0.2,0.9,0.5,1.2,0.9
			c0.3,0.4,0.6,0.8,0.8,1.3s0.3,1,0.3,1.5C318.2,594,318.1,594.5,317.9,595.1z"/>
		<rect x="321.4" y="584.8" class="st0" width="0.9" height="13.3"/>
		<rect x="325" y="584.8" class="st0" width="0.9" height="13.3"/>
		<path class="st0" d="M335.8,596.9c0-0.3,0-0.5,0-0.8v-4.2c0-1.1-0.3-2-1-2.5c-0.6-0.5-1.6-0.8-2.7-0.8c-0.8,0-1.5,0.1-2.1,0.4
			s-1,0.5-1.2,0.8l0.5,0.6c0.3-0.2,0.6-0.4,1-0.6c0.4-0.3,1.1-0.3,1.8-0.3c0.4,0,0.8,0.1,1.2,0.1c0.3,0.1,0.6,0.2,0.9,0.4
			c0.3,0.2,0.4,0.4,0.5,0.8c0.1,0.3,0.2,0.8,0.2,1.3v0.5c-0.3-0.1-0.7-0.1-1.1-0.1c-0.4-0.1-1-0.1-1.5-0.1c-0.7,0-1.3,0.1-1.8,0.3
			c-0.5,0.2-0.9,0.4-1.2,0.7c-0.3,0.3-0.6,0.6-0.7,1c-0.1,0.4-0.2,0.8-0.2,1.3c0,0.6,0.1,1,0.3,1.3c0.2,0.4,0.4,0.6,0.8,0.8
			c0.3,0.2,0.6,0.3,1,0.4c0.4,0.1,0.8,0.1,1.1,0.1c0.3,0,0.5,0,0.8-0.1c0.3-0.1,0.6-0.1,0.9-0.3c0.3-0.1,0.6-0.3,0.9-0.6
			c0.3-0.3,0.6-0.5,0.8-0.9c0,0.3,0,0.4,0,0.6s0,0.3,0,0.5c0,0.1,0,0.3,0,0.4h0.9c0-0.2,0-0.3-0.1-0.6
			C335.8,597.3,335.8,597.1,335.8,596.9z M334.9,594.7c0,0.3-0.1,0.7-0.3,1c-0.2,0.3-0.4,0.6-0.7,0.9c-0.3,0.3-0.6,0.5-1.1,0.6
			c-0.4,0.2-0.8,0.3-1.3,0.3c-0.7,0-1.3-0.1-1.7-0.4c-0.4-0.3-0.7-0.8-0.7-1.5c0-0.3,0-0.5,0.1-0.8s0.2-0.6,0.4-0.8
			c0.2-0.3,0.5-0.4,0.9-0.6s1-0.3,1.6-0.3s1.2,0,1.6,0.1c0.4,0.1,0.8,0.1,1.1,0.2v1.3H334.9L334.9,594.7z"/>
		<path class="st0" d="M345.9,590c-0.3-0.4-0.8-0.8-1.3-1c-0.5-0.3-1.1-0.4-1.8-0.4c-0.5,0-1,0.1-1.3,0.2c-0.4,0.1-0.7,0.3-1,0.4
			c-0.3,0.2-0.5,0.4-0.7,0.6c-0.2,0.3-0.3,0.4-0.4,0.6v-5.8h-0.8v13c0.4,0.2,0.8,0.3,1.4,0.4c0.6,0.1,1.2,0.2,1.9,0.2s1.4-0.1,2-0.3
			c0.6-0.2,1.1-0.5,1.6-1c0.4-0.4,0.8-0.9,1.1-1.5c0.3-0.6,0.4-1.3,0.4-2s-0.1-1.3-0.3-1.9C346.5,591,346.3,590.5,345.9,590z
			 M345.7,595.2c-0.2,0.5-0.5,0.9-0.9,1.3c-0.4,0.3-0.8,0.6-1.3,0.8s-1,0.3-1.7,0.3s-1.2-0.1-1.7-0.1c-0.4-0.1-0.7-0.2-0.8-0.2v-3.9
			c0-0.4,0.1-0.8,0.2-1.2s0.3-0.8,0.6-1.2c0.3-0.4,0.6-0.6,1-0.9s0.9-0.4,1.5-0.4s1.1,0.1,1.5,0.3c0.4,0.2,0.8,0.5,1,0.9
			c0.3,0.4,0.4,0.8,0.6,1.3s0.2,1,0.2,1.5C346,594.1,345.9,594.7,345.7,595.2z"/>
		<path class="st0" d="M356.9,590c-0.4-0.4-1-0.8-1.5-1c-0.6-0.3-1.2-0.4-1.8-0.4c-0.6,0-1.3,0.1-1.8,0.4c-0.6,0.3-1.1,0.6-1.5,1
			c-0.4,0.4-0.8,1-1,1.5c-0.3,0.6-0.4,1.2-0.4,1.9s0.1,1.3,0.4,1.9c0.3,0.6,0.6,1.1,1,1.5c0.4,0.4,1,0.8,1.5,1
			c0.6,0.3,1.2,0.4,1.8,0.4c0.6,0,1.3-0.1,1.8-0.4c0.6-0.3,1.1-0.6,1.5-1c0.4-0.4,0.8-1,1-1.5c0.3-0.6,0.4-1.2,0.4-1.9
			c0-0.7-0.1-1.3-0.4-1.9C357.6,591,357.3,590.5,356.9,590z M357,595.1c-0.2,0.5-0.4,0.9-0.8,1.3c-0.3,0.4-0.8,0.6-1.2,0.9
			c-0.4,0.3-1,0.3-1.5,0.3s-1-0.1-1.5-0.3c-0.4-0.2-0.9-0.5-1.2-0.9c-0.3-0.4-0.6-0.8-0.8-1.3c-0.2-0.5-0.3-1-0.3-1.5
			c0-0.6,0.1-1.1,0.3-1.6s0.4-0.9,0.8-1.3c0.3-0.4,0.8-0.6,1.2-0.9c0.4-0.3,1-0.3,1.5-0.3s1,0.1,1.5,0.3c0.4,0.2,0.9,0.5,1.2,0.9
			c0.3,0.4,0.6,0.8,0.8,1.3s0.3,1,0.3,1.5S357.2,594.5,357,595.1z"/>
		<path class="st0" d="M363.5,589c-0.4,0.1-0.7,0.3-1,0.5s-0.5,0.4-0.7,0.7s-0.3,0.4-0.4,0.7c0-0.3,0-0.4,0-0.6s0-0.4,0-0.5
			c0-0.1,0-0.3,0-0.4c0-0.1,0-0.3,0-0.4h-0.8c0,0.1,0,0.3,0,0.4c0,0.1,0,0.3,0,0.4c0,0.1,0,0.3,0,0.5s0,0.4,0,0.6v7.2h0.9v-4.7
			c0-0.4,0.1-0.9,0.3-1.3c0.1-0.4,0.4-0.8,0.6-1.2c0.3-0.3,0.6-0.6,1-0.8s0.8-0.3,1.3-0.3c0.1,0,0.3,0,0.3,0l0.3,0.1l0.3-0.9
			c-0.2-0.1-0.4-0.1-0.8-0.1C364.4,588.8,363.9,588.8,363.5,589z"/>
		<path class="st0" d="M373.7,596.9c0-0.3,0-0.5,0-0.8v-4.2c0-1.1-0.3-2-1-2.5s-1.6-0.8-2.7-0.8c-0.8,0-1.5,0.1-2.1,0.4
			s-1,0.5-1.2,0.8l0.5,0.6c0.3-0.2,0.6-0.4,1-0.6c0.4-0.3,1.1-0.3,1.8-0.3c0.4,0,0.8,0.1,1.2,0.1c0.3,0.1,0.6,0.2,0.9,0.4
			c0.3,0.2,0.4,0.4,0.5,0.8c0.1,0.3,0.2,0.8,0.2,1.3v0.5c-0.3-0.1-0.7-0.1-1.1-0.1c-0.4-0.1-1-0.1-1.5-0.1c-0.7,0-1.3,0.1-1.8,0.3
			c-0.5,0.2-0.9,0.4-1.2,0.7c-0.3,0.3-0.6,0.6-0.7,1c-0.1,0.4-0.2,0.8-0.2,1.3c0,0.6,0.1,1,0.3,1.3c0.2,0.4,0.4,0.6,0.8,0.8
			c0.3,0.2,0.6,0.3,1,0.4c0.4,0.1,0.8,0.1,1.1,0.1c0.3,0,0.5,0,0.8-0.1c0.3-0.1,0.6-0.1,0.9-0.3c0.3-0.1,0.6-0.3,0.9-0.6
			c0.3-0.3,0.6-0.5,0.8-0.9c0,0.3,0,0.4,0,0.6s0,0.3,0,0.5c0,0.1,0,0.3,0,0.4h0.9c0-0.2,0-0.3-0.1-0.6
			C373.7,597.3,373.7,597.1,373.7,596.9z M372.9,594.7c0,0.3-0.1,0.7-0.3,1c-0.2,0.3-0.4,0.6-0.7,0.9c-0.3,0.3-0.6,0.5-1.1,0.6
			c-0.4,0.2-0.8,0.3-1.3,0.3c-0.7,0-1.3-0.1-1.7-0.4c-0.4-0.3-0.7-0.8-0.7-1.5c0-0.3,0-0.5,0.1-0.8s0.2-0.6,0.4-0.8
			c0.2-0.3,0.5-0.4,0.9-0.6s1-0.3,1.6-0.3s1.2,0,1.6,0.1c0.4,0.1,0.8,0.1,1.1,0.2v1.3H372.9L372.9,594.7z"/>
		<path class="st0" d="M380.7,597.3c-0.3,0.1-0.5,0.2-0.9,0.2c-0.3,0-0.4,0-0.6-0.1c-0.2-0.1-0.4-0.2-0.5-0.3
			c-0.1-0.2-0.3-0.4-0.3-0.8c-0.1-0.3-0.1-0.8-0.1-1.3v-5.3h3v-0.8h-3v-3h-1v3h-1.8v0.8h1.8v5.5c0,0.6,0.1,1.1,0.2,1.5
			c0.1,0.4,0.3,0.7,0.5,1s0.4,0.4,0.8,0.5c0.3,0.1,0.6,0.1,1,0.1c0.6,0,1-0.1,1.3-0.3s0.6-0.4,0.9-0.8l-0.6-0.5
			C381.2,597,380.9,597.2,380.7,597.3z"/>
		<rect x="383.4" y="585.7" class="st0" width="1.3" height="1.3"/>
		<rect x="383.6" y="588.9" class="st0" width="0.9" height="9.2"/>
		<path class="st0" d="M394.9,590c-0.4-0.4-1-0.8-1.5-1c-0.6-0.3-1.2-0.4-1.8-0.4c-0.6,0-1.3,0.1-1.8,0.4c-0.6,0.3-1.1,0.6-1.5,1
			c-0.4,0.4-0.8,1-1,1.5c-0.3,0.6-0.4,1.2-0.4,1.9s0.1,1.3,0.4,1.9c0.3,0.6,0.6,1.1,1,1.5c0.4,0.4,1,0.8,1.5,1
			c0.6,0.3,1.2,0.4,1.8,0.4c0.6,0,1.3-0.1,1.8-0.4c0.6-0.3,1.1-0.6,1.5-1c0.4-0.4,0.8-1,1-1.5c0.3-0.6,0.4-1.2,0.4-1.9
			c0-0.7-0.1-1.3-0.4-1.9C395.7,591,395.3,590.5,394.9,590z M395.1,595.1c-0.2,0.5-0.4,0.9-0.8,1.3c-0.3,0.4-0.8,0.6-1.2,0.9
			c-0.4,0.3-1,0.3-1.5,0.3s-1-0.1-1.5-0.3c-0.4-0.2-0.9-0.5-1.2-0.9c-0.3-0.4-0.6-0.8-0.8-1.3c-0.2-0.5-0.3-1-0.3-1.5
			c0-0.6,0.1-1.1,0.3-1.6c0.2-0.5,0.4-0.9,0.8-1.3c0.3-0.4,0.8-0.6,1.2-0.9c0.4-0.3,1-0.3,1.5-0.3s1,0.1,1.5,0.3
			c0.4,0.2,0.9,0.5,1.2,0.9c0.3,0.4,0.6,0.8,0.8,1.3c0.2,0.4,0.3,1,0.3,1.5C395.3,594,395.3,594.5,395.1,595.1z"/>
		<path class="st0" d="M405.8,589.7c-0.3-0.4-0.6-0.6-1.1-0.8c-0.4-0.2-1-0.3-1.7-0.3c-0.5,0-1,0.1-1.4,0.2c-0.4,0.1-0.8,0.3-1,0.6
			c-0.3,0.2-0.5,0.4-0.7,0.7s-0.3,0.5-0.4,0.7c0-0.3,0-0.4,0-0.6s0-0.3,0-0.5c0-0.1,0-0.3,0-0.4c0-0.1,0-0.3,0-0.4h-0.8
			c0,0.1,0,0.3,0,0.4c0,0.1,0,0.3,0,0.4c0,0.1,0,0.3,0,0.5s0,0.4,0,0.6v7.2h0.9v-4.7c0-0.4,0.1-0.9,0.2-1.3c0.1-0.4,0.4-0.9,0.6-1.2
			c0.3-0.4,0.6-0.7,1.1-0.9c0.4-0.3,1-0.4,1.5-0.4c0.4,0,0.8,0.1,1.1,0.2c0.3,0.1,0.6,0.3,0.9,0.6c0.3,0.3,0.4,0.6,0.5,1.1
			s0.2,1,0.2,1.7v5.1h0.9v-5.4c0-0.6-0.1-1.1-0.2-1.7C406.3,590.6,406.1,590.1,405.8,589.7z"/>
		<path class="st0" d="M420.4,591.9c-0.4-0.3-0.8-0.5-1.3-0.7c-0.4-0.2-1-0.3-1.4-0.4c-0.4-0.1-0.9-0.3-1.3-0.4
			c-0.4-0.1-0.8-0.3-1.2-0.5s-0.6-0.4-0.9-0.8c-0.3-0.4-0.3-0.7-0.3-1.2c0-0.3,0.1-0.6,0.2-1c0.1-0.3,0.3-0.6,0.6-0.8
			c0.3-0.3,0.6-0.4,1-0.6c0.4-0.1,0.9-0.2,1.4-0.2s0.9,0.1,1.3,0.1c0.4,0.1,0.7,0.3,1,0.4c0.3,0.1,0.5,0.3,0.7,0.5s0.3,0.3,0.4,0.5
			l0.7-0.6c-0.1-0.2-0.3-0.4-0.6-0.6c-0.2-0.2-0.5-0.4-0.8-0.6s-0.7-0.3-1.1-0.4c-0.4-0.1-1-0.2-1.5-0.2c-0.6,0-1.2,0.1-1.8,0.3
			c-0.5,0.2-1,0.4-1.3,0.7c-0.4,0.3-0.6,0.6-0.8,1.1s-0.3,0.8-0.3,1.3c0,0.6,0.1,1.2,0.4,1.7c0.3,0.4,0.6,0.8,1,1
			c0.4,0.3,0.8,0.5,1.3,0.6c0.5,0.2,1,0.3,1.5,0.4c0.4,0.1,0.8,0.3,1.2,0.4c0.4,0.1,0.8,0.3,1.1,0.6c0.3,0.3,0.6,0.5,0.8,0.9
			c0.2,0.4,0.3,0.8,0.3,1.3c0,0.4-0.1,0.9-0.3,1.2c-0.2,0.4-0.4,0.6-0.7,0.9s-0.7,0.4-1.1,0.5c-0.4,0.1-0.9,0.2-1.4,0.2
			c-0.9,0-1.7-0.2-2.3-0.5s-1.1-0.8-1.7-1.3l-0.7,0.7c0.2,0.3,0.4,0.5,0.7,0.8c0.3,0.3,0.6,0.4,1,0.6s0.8,0.3,1.3,0.4
			c0.5,0.1,1,0.2,1.6,0.2s1.2-0.1,1.8-0.3c0.6-0.2,1-0.4,1.5-0.8c0.4-0.3,0.7-0.7,1-1.1c0.3-0.4,0.4-1,0.4-1.5
			c0-0.6-0.1-1.2-0.4-1.7C421.1,592.5,420.7,592.1,420.4,591.9z"/>
		<path class="st0" d="M431.2,590c-0.3-0.4-0.8-0.8-1.3-1c-0.5-0.3-1.1-0.4-1.8-0.4c-0.6,0-1,0.1-1.5,0.3c-0.4,0.2-0.8,0.3-1,0.6
			c-0.3,0.2-0.5,0.4-0.6,0.6s-0.3,0.4-0.3,0.5c0-0.2,0-0.4,0-0.6s0-0.3,0-0.4c0-0.1,0-0.3,0-0.3c0-0.1,0-0.3,0-0.4h-0.8
			c0,0.1,0,0.3,0,0.4c0,0.1,0,0.3,0,0.4c0,0.1,0,0.3,0,0.5s0,0.4,0,0.6V602h0.9v-4.6c0.3,0.2,0.8,0.4,1.2,0.6s1,0.3,1.7,0.3
			c0.6,0,1.3-0.1,1.8-0.3c0.6-0.3,1.1-0.6,1.5-1c0.4-0.4,0.8-1,1-1.5c0.3-0.6,0.4-1.2,0.4-2c0-0.7-0.1-1.3-0.3-1.9
			C431.7,591,431.5,590.5,431.2,590z M430.9,595.2c-0.2,0.5-0.4,0.9-0.8,1.2c-0.3,0.3-0.7,0.6-1.2,0.8c-0.4,0.2-1,0.3-1.5,0.3
			c-0.4,0-0.8-0.1-1.1-0.1c-0.3-0.1-0.6-0.2-0.8-0.3c-0.3-0.1-0.4-0.2-0.6-0.3c-0.2-0.1-0.3-0.2-0.4-0.3v-2.9c0-0.3,0-0.7,0.1-1
			s0.1-0.6,0.2-0.9c0.1-0.3,0.3-0.6,0.4-0.8c0.2-0.3,0.4-0.5,0.6-0.7c0.3-0.2,0.6-0.4,0.9-0.5c0.3-0.1,0.7-0.2,1.1-0.2
			c0.6,0,1.1,0.1,1.5,0.3c0.4,0.2,0.8,0.5,1,0.9c0.2,0.4,0.4,0.8,0.6,1.3s0.2,1,0.2,1.5C431.2,594.2,431.1,594.7,430.9,595.2z"/>
		<path class="st0" d="M441.6,596.9c0-0.3,0-0.5,0-0.8v-4.2c0-1.1-0.3-2-1-2.5c-0.6-0.5-1.6-0.8-2.7-0.8c-0.8,0-1.5,0.1-2.1,0.4
			s-1,0.5-1.2,0.8l0.5,0.6c0.3-0.2,0.6-0.4,1-0.6c0.4-0.3,1.1-0.3,1.8-0.3c0.4,0,0.8,0.1,1.2,0.1c0.3,0.1,0.6,0.2,0.9,0.4
			c0.3,0.2,0.4,0.4,0.5,0.8c0.1,0.3,0.2,0.8,0.2,1.3v0.5c-0.3-0.1-0.7-0.1-1.1-0.1c-0.4-0.1-1-0.1-1.5-0.1c-0.7,0-1.3,0.1-1.8,0.3
			c-0.5,0.2-0.9,0.4-1.2,0.7s-0.6,0.6-0.7,1c-0.1,0.4-0.2,0.8-0.2,1.3c0,0.6,0.1,1,0.3,1.3c0.2,0.4,0.4,0.6,0.8,0.8
			c0.3,0.2,0.6,0.3,1,0.4c0.4,0.1,0.8,0.1,1.1,0.1s0.5,0,0.8-0.1c0.3-0.1,0.6-0.1,0.9-0.3c0.3-0.1,0.6-0.3,0.9-0.6
			c0.3-0.3,0.6-0.5,0.8-0.9c0,0.3,0,0.4,0,0.6s0,0.3,0,0.5c0,0.1,0,0.3,0,0.4h0.9c0-0.2,0-0.3-0.1-0.6
			C441.6,597.3,441.6,597.1,441.6,596.9z M440.7,594.7c0,0.3-0.1,0.7-0.3,1s-0.4,0.6-0.7,0.9s-0.6,0.5-1.1,0.6
			c-0.4,0.2-0.8,0.3-1.3,0.3c-0.7,0-1.3-0.1-1.7-0.4s-0.7-0.8-0.7-1.5c0-0.3,0-0.5,0.1-0.8s0.2-0.6,0.4-0.8c0.2-0.3,0.5-0.4,0.9-0.6
			s1-0.3,1.6-0.3s1.2,0,1.6,0.1c0.4,0.1,0.8,0.1,1.1,0.2v1.3H440.7L440.7,594.7z"/>
		<path class="st0" d="M450.2,597.1c-0.5,0.3-1.1,0.4-1.8,0.4c-0.5,0-1-0.1-1.5-0.3c-0.4-0.2-0.8-0.5-1.1-0.9
			c-0.3-0.4-0.6-0.8-0.8-1.3s-0.3-1-0.3-1.5s0.1-1.1,0.3-1.5c0.2-0.5,0.4-0.9,0.8-1.3c0.4-0.4,0.7-0.6,1.1-0.9
			c0.4-0.3,1-0.3,1.5-0.3c0.6,0,1.2,0.1,1.7,0.3c0.4,0.3,0.8,0.6,1.1,1l0.7-0.5c-0.4-0.5-0.9-0.9-1.5-1.2c-0.6-0.3-1.3-0.4-2.1-0.4
			c-0.6,0-1.3,0.1-1.8,0.4c-0.6,0.3-1.1,0.6-1.5,1c-0.4,0.4-0.8,1-1,1.5c-0.3,0.6-0.4,1.2-0.4,1.9s0.1,1.3,0.3,1.9
			c0.3,0.6,0.6,1.1,1,1.5c0.4,0.4,0.9,0.8,1.5,1c0.6,0.3,1.2,0.4,1.8,0.4c0.8,0,1.5-0.1,2.1-0.4s1.1-0.7,1.5-1.1l-0.6-0.6
			C451.1,596.5,450.7,596.8,450.2,597.1z"/>
		<path class="st0" d="M460.3,596.7c-0.3,0.2-0.5,0.3-0.8,0.4c-0.3,0.1-0.6,0.2-0.9,0.3c-0.3,0.1-0.6,0.1-0.9,0.1
			c-0.6,0-1-0.1-1.5-0.3c-0.4-0.2-0.8-0.4-1.1-0.8c-0.3-0.3-0.6-0.8-0.8-1.2s-0.3-1-0.3-1.5h7.8c0-0.8-0.1-1.5-0.3-2.2
			c-0.2-0.6-0.5-1.1-0.9-1.6s-0.9-0.8-1.4-1s-1.1-0.3-1.8-0.3s-1.3,0.1-1.8,0.4c-0.6,0.3-1,0.6-1.4,1c-0.4,0.4-0.7,1-0.9,1.5
			c-0.2,0.6-0.3,1.2-0.3,1.9c0,0.7,0.1,1.4,0.4,2c0.3,0.6,0.6,1.1,1,1.5c0.4,0.4,0.9,0.8,1.5,1c0.6,0.3,1.2,0.3,1.9,0.3
			s1.4-0.1,2.1-0.4c0.7-0.3,1.2-0.7,1.7-1.2l-0.6-0.5C460.7,596.3,460.6,596.5,460.3,596.7z M454.5,591.6c0.2-0.4,0.4-0.8,0.7-1.1
			c0.3-0.3,0.6-0.6,1.1-0.8c0.4-0.2,0.8-0.3,1.3-0.3c1,0,1.7,0.3,2.3,0.9c0.6,0.6,1,1.5,1.1,2.6h-6.9
			C454.2,592.5,454.3,592,454.5,591.6z"/>
	</g>
	<g>
		<path class="st0" d="M102,569.9c-1-1.1-2-2.1-2.9-2.9c-5.3-4.2-11.4-6.4-17.7-6.4c-9.8,0-18.7,5.3-23.9,14.1
			c-4.3,7-7.8,23.6-8.5,37.3h55.9v-39.3C103.9,572,102.9,570.9,102,569.9z"/>
		<path class="st0" d="M25.7,519.8c0.3,0.5,0.4,1,0.6,1.4c0.2,0.4,0.3,0.8,0.5,1.1c0.4,0.8,0.8,1.6,1.1,2.4c1.6,3.5,3,6.8,6.1,9.5
			c3.2,2.8,6.9,4.8,10.2,6.6c5.1,2.8,8.8,6.2,11.1,10c3.1,5.3,3.9,11.6,2.5,18.3c7-8.3,16.8-10.6,26.4-12.1c7.1-1.1,14-2.5,20.1-5.8
			c0.2-0.1,0.4-0.3,0.6-0.4v-31H25.7L25.7,519.8z"/>
		<path class="st0" d="M53.2,552.5c-2.2-4.9-9.1-11-22-13.5c-1.9-0.4-3.9-0.7-5.8-1c-4.1-0.6-8.1-1.3-12-2.5v76.6h30.5
			c0.3-2.2,0.6-4.3,1-6.2c0.2-1.1,0.4-2.1,0.5-2.9c1.1-7.3,3-14.9,5.9-23.8C54.3,570.2,56.8,560.8,53.2,552.5z"/>
		<path class="st0" d="M81.8,558.9L81.8,558.9L81.8,558.9C81.8,559,81.8,559,81.8,558.9C81.7,559,81.7,559,81.8,558.9l0.1,0.1
			c1.9-0.3,4.3-0.3,7,0c5.5,0.4,11.4,1.7,15.9,3.3v-0.1V561v-0.3C97.6,558.9,88.1,558.1,81.8,558.9z"/>
		<path class="st0" d="M24.2,531.7c4.5,3.4,9.5,5.7,13.3,7.2c0,0,0,0,0.1,0l0,0c0,0,0.1,0,0.1-0.1v0.1c0-0.1-0.1-0.1-0.1-0.1
			c-5-2.1-9.1-4.6-12.8-7.7c-2.3-2-6.5-6-9.3-11.3h-0.1h-1.8l0.1,0.1C16.4,524.6,19.8,528.4,24.2,531.7z"/>
	</g>
</g>
<g>
	<g>
		<path class="st23" d="M387.3,339.2c0,153.1-314.7-21.4-323.9,158.3"/>
		<g>
			<polygon class="st3" points="63.2,503.9 59.9,494.8 63.4,497.1 67.2,495.1 			"/>
		</g>
	</g>
</g>
</svg>
