<?xml version="1.0" encoding="utf-8"?>
<!-- Generator: Adobe Illustrator 19.2.1, SVG Export Plug-In . SVG Version: 6.00 Build 0)  -->
<svg version="1.1" id="Layer_1" xmlns="http://www.w3.org/2000/svg" xmlns:xlink="http://www.w3.org/1999/xlink" x="0px" y="0px"
	 viewBox="0 0 672 312.2" enable-background="new 0 0 672 312.2" xml:space="preserve">
<g>
	<g>
		<text transform="matrix(1 0 0 1 205.8473 36.6654)"><tspan x="0" y="0" fill="#282561" font-family="'FreightTextProBook-Regular'" font-size="18.2174px">working on</tspan><tspan x="-9.3" y="18.2" fill="#282561" font-family="'FreightTextProBook-Regular'" font-size="18.2174px">software for a</tspan></text>
		
			<text transform="matrix(1 0 0 1 1.1984 53.7235)" fill="#878787" font-family="'FreightTextProBook-Regular'" font-size="36.4349px">“</text>
		<g>
			<g>
				<text transform="matrix(1 0 0 1 486.8307 113.3602)"><tspan x="0" y="0" fill="#282561" font-family="'FreightTextProBook-Regular'" font-size="27.3262px">Where do I g</tspan><tspan x="144" y="0" fill="#282561" font-family="'FreightTextProBook-Regular'" font-size="27.3262px" letter-spacing="-1">o</tspan><tspan x="156.5" y="0" fill="#282561" font-family="'FreightTextProBook-Regular'" font-size="27.3262px">?</tspan></text>
			</g>
			
				<text transform="matrix(1 0 0 1 654.6149 117.0926)" fill="#878787" font-family="'FreightTextProBook-Regular'" font-size="36.4349px">”</text>
		</g>
		
			<text transform="matrix(1 0 0 1 20.2619 45.7742)" fill="#282561" font-family="'FreightTextProBook-Regular'" font-size="18.2174px">I’m a</text>
		
			<text transform="matrix(1 0 0 1 456.0026 45.7742)" fill="#282561" font-family="'FreightTextProBook-Regular'" font-size="18.2174px">and I need</text>
		
			<text transform="matrix(1 0 0 1 657.3522 45.7738)" fill="#282561" font-family="'FreightTextProBook-Regular'" font-size="18.2174px">.</text>
		<g>
			<text transform="matrix(1 0 0 1 340.2253 11.6917)"><tspan x="0" y="0" fill="#610061" font-family="'FreightTextProMedium-Regular'" font-size="13.6631px">business idea</tspan><tspan x="-19.1" y="16.4" fill="#006146" font-family="'FreightTextProMedium-Regular'" font-size="13.6631px">interactive art piece</tspan><tspan x="-18.5" y="32.8" fill="#612900" font-family="'FreightTextProMedium-Regular'" font-size="13.6631px">open source project</tspan><tspan x="-8.7" y="49.2" fill="#0D0061" font-family="'FreightTextProMedium-Regular'" font-size="13.6631px">wild experiment</tspan><tspan x="2.2" y="65.6" fill="#116100" font-family="'FreightTextProMedium-Regular'" font-size="13.6631px">labor of love</tspan></text>
			<g>
				<path fill="#878787" d="M308.2,41.5v-1.7c1.3-0.5,2.4-1.6,3.2-3.3c0.8-1.7,1.2-3.7,1.2-5.9c0-1.5-0.2-3.7-0.5-6.6
					c-0.3-2.7-0.5-5-0.5-7c0-4.3,0.7-8.1,2.1-11.3c1.4-3.2,3.2-5.1,5.3-5.7v1.6c-1.5,0.5-2.7,1.8-3.4,3.8c-0.8,2-1.1,4.2-1.1,6.6
					c0,1.8,0.1,4,0.4,6.5c0.3,3.1,0.4,5.5,0.4,7.4c0,3.5-0.5,6.4-1.6,8.9c-1.1,2.5-2.4,4.4-3.9,5.6c1.7,1.4,3.1,3.5,4.1,6.1
					c1,2.6,1.5,5.5,1.5,8.6c0,1.8-0.1,4.2-0.4,7.3c-0.2,2.6-0.4,4.8-0.4,6.5c0,5.5,1.5,9,4.5,10.7v1.5c-2.1-0.5-3.8-2.4-5.2-5.7
					c-1.4-3.3-2.1-7-2.1-11.2c0-2,0.1-4.2,0.4-6.8c0.3-3,0.5-5.2,0.5-6.7c0-2.1-0.4-4-1.1-5.8C310.8,43.2,309.7,42,308.2,41.5z"/>
			</g>
			<g>
				<path fill="#878787" d="M447.1,39.8v1.7c-1.3,0.5-2.4,1.6-3.2,3.3c-0.8,1.7-1.3,3.7-1.3,5.9c0,1.5,0.2,3.7,0.5,6.6
					c0.3,2.7,0.5,5,0.5,7c0,4.3-0.7,8.1-2.2,11.3c-1.4,3.2-3.2,5.1-5.2,5.7v-1.6c1.5-0.5,2.7-1.8,3.4-3.8c0.7-2,1.1-4.2,1.1-6.6
					c0-1.8-0.1-4-0.4-6.5c-0.3-3.1-0.4-5.5-0.4-7.4c0-3.4,0.5-6.4,1.6-8.9c1.1-2.5,2.4-4.4,3.9-5.6c-1.7-1.4-3.1-3.4-4.1-6.1
					c-1-2.6-1.5-5.5-1.5-8.7c0-1.8,0.1-4.2,0.4-7.3c0.2-2.6,0.4-4.8,0.4-6.5c0-5.5-1.5-9.1-4.5-10.7V0c2.1,0.5,3.8,2.5,5.2,5.7
					c1.4,3.3,2.1,7,2.1,11.2c0,2-0.1,4.2-0.4,6.8c-0.3,3-0.5,5.2-0.5,6.6c0,2.1,0.4,4.1,1.1,5.9C444.4,38,445.6,39.2,447.1,39.8z"/>
			</g>
		</g>
		<g>
			<text transform="matrix(1 0 0 1 91.4425 11.6917)"><tspan x="0" y="0" fill="#2E0061" font-family="'FreightTextProMedium-Regular'" font-size="13.6631px">programmer</tspan><tspan x="-11.1" y="16.4" fill="#006111" font-family="'FreightTextProMedium-Regular'" font-size="13.6631px">graphic designer</tspan><tspan x="-6" y="32.8" fill="#61000B" font-family="'FreightTextProMedium-Regular'" font-size="13.6631px">communicator</tspan><tspan x="-2.1" y="49.2" fill="#002961" font-family="'FreightTextProMedium-Regular'" font-size="13.6631px">entrepreneur</tspan><tspan x="-4.8" y="65.6" fill="#446100" font-family="'FreightTextProMedium-Regular'" font-size="13.6631px">crazy dreamer</tspan></text>
			<g>
				<path fill="#878787" d="M66.3,41.4v-1.7c1.3-0.5,2.4-1.6,3.2-3.2c0.8-1.7,1.2-3.6,1.2-5.8c0-1.5-0.2-3.6-0.5-6.5
					c-0.3-2.6-0.5-4.9-0.5-6.9c0-4.2,0.7-7.9,2.1-11.1s3.2-5,5.3-5.6v1.6c-1.5,0.5-2.7,1.8-3.4,3.8c-0.8,2-1.1,4.2-1.1,6.5
					c0,1.8,0.1,3.9,0.4,6.4c0.3,3,0.4,5.4,0.4,7.3c0,3.4-0.5,6.3-1.6,8.7c-1.1,2.4-2.4,4.3-3.9,5.5c1.7,1.4,3.1,3.4,4.1,6
					c1,2.6,1.5,5.4,1.5,8.5c0,1.7-0.1,4.1-0.4,7.1c-0.2,2.5-0.4,4.7-0.4,6.4c0,5.4,1.5,8.9,4.5,10.5v1.5c-2.1-0.5-3.8-2.4-5.2-5.6
					c-1.4-3.2-2.1-6.9-2.1-11c0-1.9,0.1-4.2,0.4-6.7c0.3-3,0.5-5.2,0.5-6.5c0-2-0.4-3.9-1.1-5.7C68.9,43.2,67.8,42,66.3,41.4z"/>
			</g>
			<g>
				<path fill="#878787" d="M187.6,39.8v1.7c-1.3,0.5-2.4,1.5-3.2,3.2c-0.8,1.7-1.3,3.6-1.3,5.8c0,1.5,0.2,3.6,0.5,6.5
					c0.3,2.6,0.5,4.9,0.5,6.9c0,4.2-0.7,7.9-2.2,11.1c-1.4,3.2-3.2,5-5.2,5.6v-1.6c1.5-0.5,2.7-1.8,3.4-3.8c0.7-2,1.1-4.2,1.1-6.5
					c0-1.8-0.1-3.9-0.4-6.4c-0.3-3-0.4-5.4-0.4-7.3c0-3.4,0.5-6.3,1.6-8.7c1.1-2.5,2.4-4.3,3.9-5.5c-1.7-1.4-3.1-3.4-4.1-6
					s-1.5-5.4-1.5-8.5c0-1.7,0.1-4.1,0.4-7.1c0.2-2.5,0.4-4.7,0.4-6.4c0-5.4-1.5-8.9-4.5-10.5V0.7c2.1,0.5,3.8,2.4,5.2,5.6
					c1.4,3.2,2.1,6.9,2.1,11c0,1.9-0.1,4.2-0.4,6.7c-0.3,3-0.5,5.1-0.5,6.5c0,2.1,0.4,4,1.1,5.8C185,38,186.1,39.2,187.6,39.8z"/>
			</g>
		</g>
		<g>
			<text transform="matrix(1 0 0 1 558.7493 11.6915)"><tspan x="0" y="0" fill="#61002B" font-family="'FreightTextProMedium-Regular'" font-size="13.6631px">collaborators</tspan><tspan x="-2.1" y="16.4" fill="#004961" font-family="'FreightTextProMedium-Regular'" font-size="13.6631px">technical help</tspan><tspan x="3.1" y="32.8" fill="#615D00" font-family="'FreightTextProMedium-Regular'" font-size="13.6631px">design skills</tspan><tspan x="12.2" y="49.2" fill="#410061" font-family="'FreightTextProMedium-Regular'" font-size="13.6631px">guidance</tspan><tspan x="6.2" y="65.6" fill="#006125" font-family="'FreightTextProMedium-Regular'" font-size="13.6631px">motivation</tspan></text>
			<g>
				<path fill="#878787" d="M543.3,41.1v-1.7c1.3-0.5,2.4-1.6,3.2-3.3c0.8-1.7,1.2-3.6,1.2-5.8c0-1.5-0.2-3.7-0.5-6.6
					c-0.3-2.7-0.5-5-0.5-6.9c0-4.3,0.7-8,2.1-11.2c1.4-3.2,3.2-5.1,5.3-5.7v1.6c-1.5,0.5-2.7,1.8-3.4,3.8c-0.8,2-1.1,4.2-1.1,6.5
					c0,1.8,0.1,3.9,0.4,6.5c0.3,3,0.4,5.5,0.4,7.3c0,3.4-0.5,6.4-1.6,8.8c-1.1,2.5-2.4,4.3-3.9,5.6c1.7,1.4,3.1,3.4,4.1,6.1
					c1,2.6,1.5,5.5,1.5,8.5c0,1.7-0.1,4.1-0.4,7.2c-0.2,2.6-0.4,4.7-0.4,6.4c0,5.4,1.5,9,4.5,10.6v1.5c-2.1-0.5-3.8-2.4-5.2-5.7
					c-1.4-3.3-2.1-7-2.1-11.1c0-1.9,0.1-4.2,0.4-6.8c0.3-3,0.5-5.2,0.5-6.6c0-2.1-0.4-4-1.1-5.8C545.9,42.8,544.8,41.7,543.3,41.1z"
					/>
			</g>
			<g>
				<path fill="#878787" d="M649,39.4v1.7c-1.3,0.5-2.4,1.5-3.2,3.3c-0.8,1.7-1.3,3.7-1.3,5.8c0,1.5,0.2,3.7,0.5,6.6
					c0.3,2.7,0.5,5,0.5,6.9c0,4.3-0.7,8-2.2,11.2c-1.4,3.2-3.2,5.1-5.2,5.6v-1.6c1.5-0.5,2.7-1.8,3.4-3.8c0.7-2,1.1-4.2,1.1-6.5
					c0-1.8-0.1-3.9-0.4-6.5c-0.3-3-0.4-5.5-0.4-7.3c0-3.4,0.5-6.3,1.6-8.8c1.1-2.5,2.4-4.3,3.9-5.6c-1.7-1.4-3.1-3.4-4.1-6
					c-1-2.6-1.5-5.5-1.5-8.6c0-1.7,0.1-4.1,0.4-7.2c0.2-2.6,0.4-4.7,0.4-6.4c0-5.5-1.5-9-4.5-10.6V0c2.1,0.5,3.8,2.4,5.2,5.7
					c1.4,3.3,2.1,6.9,2.1,11.1c0,1.9-0.1,4.2-0.4,6.8c-0.3,3-0.5,5.2-0.5,6.6c0,2.1,0.4,4,1.1,5.8C646.4,37.7,647.5,38.8,649,39.4z"
					/>
			</g>
		</g>
	</g>
</g>
<g>
	<g>
		<path fill="#282561" d="M247.5,270.1l0.3,3.8h9.3v-54h-9.5v15.9c-0.7-0.3-1.3-0.5-1.8-0.8c-0.6-0.2-1.1-0.4-1.8-0.5
			c-0.6-0.1-1.4-0.3-2.2-0.3c-0.8-0.1-1.8-0.1-3.1-0.1c-1,0-2,0.1-3.2,0.4c-1.3,0.3-2.5,0.6-3.9,1.3c-1.3,0.6-2.7,1.3-3.9,2.2
			c-1.3,0.9-2.5,2-3.6,3.3c-1.3,1.6-2.4,3.6-3.2,5.8c-0.9,2.3-1.3,5-1.3,8c0,3.2,0.5,6,1.5,8.6c1,2.5,2.2,4.6,3.8,6.3
			c1.6,1.7,3.4,3,5.4,3.9c2,0.9,4.1,1.3,6.1,1.3c1.5,0,2.8-0.2,3.9-0.5c1.1-0.3,2.2-0.8,3.2-1.3s1.8-1.1,2.5-1.7
			C246.4,271.2,247,270.6,247.5,270.1z M242.7,265.8c-1.1,0.6-2.5,1-4.1,1c-3.1,0-5.5-1.1-7-3.3c-1.7-2.2-2.4-5-2.4-8.3
			c0-1.6,0.3-3.1,0.7-4.6c0.4-1.5,1.1-2.7,1.9-3.9c1-1.2,2-2.2,3.2-2.9c1.3-0.8,2.8-1.1,4.7-1.1s3.4,0.1,4.7,0.4
			c1.2,0.3,2.3,0.8,3.2,1.6v11.9c0,1.1-0.2,2.3-0.5,3.4c-0.3,1.2-0.8,2.3-1.5,3.3C244.8,264.3,243.8,265.1,242.7,265.8z"/>
		<path fill="#282561" d="M299.1,268.2l-5.2-6c-0.3,0.3-0.8,0.8-1.4,1.3c-0.6,0.5-1.4,1-2.4,1.5c-1,0.4-2.2,0.9-3.6,1.3
			c-1.4,0.4-3,0.5-4.8,0.5c-1.3,0-2.5-0.2-3.8-0.6c-1.3-0.4-2.4-1.1-3.4-1.9c-1-0.8-1.8-1.8-2.4-3c-0.6-1.1-1-2.5-1-3.9h28.4V256
			c0-2.8-0.3-5.5-1-8.1s-1.7-5-3.2-7.1c-1.5-2.1-3.4-3.8-5.8-5.1c-2.4-1.3-5.3-2-8.8-2c-2.9,0-5.5,0.5-7.9,1.6
			c-2.3,1.1-4.4,2.5-6.1,4.3s-3,4-4,6.4c-1,2.5-1.4,5.1-1.4,8c0,3.2,0.4,6,1.4,8.6c1,2.6,2.3,4.8,4.1,6.7s3.9,3.3,6.4,4.4
			c2.5,1.1,5.3,1.6,8.3,1.6c3,0,5.5-0.3,7.7-1c2.2-0.6,3.9-1.4,5.3-2.2s2.4-1.6,3.2-2.3C298.4,269,298.9,268.4,299.1,268.2z
			 M271.6,247.3c0.4-1,1.1-1.9,1.8-2.7c0.8-0.8,1.8-1.5,3-2s2.6-0.8,4.2-0.8c1.5,0,2.8,0.3,3.9,0.8c1.1,0.5,2.1,1.2,2.8,2
			c0.8,0.8,1.3,1.7,1.7,2.7c0.4,1,0.6,2,0.6,3h-18.7C271,249.3,271.3,248.3,271.6,247.3z"/>
		<polygon fill="#282561" points="341.4,235 331,235 320.7,262.8 310.4,235 299.4,235 315.6,273.9 325.4,273.9 		"/>
		<path fill="#282561" d="M348.8,269.1c1.7,1.8,3.7,3.2,6,4.3s5,1.5,7.8,1.5c1.9,0,3.7-0.1,5.2-0.4c1.6-0.3,3-0.6,4.2-1.1
			c1.3-0.4,2.3-1,3.3-1.6s1.8-1.1,2.4-1.7v-14.7h-13.3v2.7H375v10.9c-1.3,0.9-2.9,1.7-4.8,2.3c-2,0.7-4.4,1-7.5,1
			c-2.5,0-4.7-0.4-6.7-1.4c-2-1-3.7-2.2-5.1-3.8c-1.4-1.7-2.5-3.6-3.2-5.7c-0.7-2.2-1.1-4.5-1.1-7s0.4-4.9,1.1-7s1.8-4.1,3.2-5.7
			c1.4-1.6,3.1-2.9,5.1-3.8s4.3-1.4,6.9-1.4c1.8,0,3.5,0.3,4.8,0.8c1.4,0.6,2.5,1.2,3.5,1.9s1.7,1.4,2.3,2.1c0.6,0.7,1,1.2,1.2,1.5
			l2.1-1.5c-0.3-0.4-0.7-1-1.3-1.8c-0.6-0.8-1.5-1.7-2.7-2.5c-1.1-0.8-2.5-1.6-4.3-2.2c-1.7-0.6-3.7-1-6-1c-2.9,0-5.5,0.5-7.8,1.6
			c-2.3,1.1-4.4,2.5-6,4.4c-1.7,1.8-3,4.1-3.9,6.5c-1,2.5-1.4,5.2-1.4,8.1c0,3,0.4,5.8,1.4,8.4C345.9,265.1,347.1,267.2,348.8,269.1
			z"/>
		<path fill="#282561" d="M398.7,234.4l-16.1,39.4h3l5.1-12.7h18.5l5.1,12.7h3.2l-16.1-39.4C401.5,234.4,398.7,234.4,398.7,234.4z
			 M391.8,258.5l8.2-20.4l8.2,20.4H391.8z"/>
		<path fill="#282561" d="M440.3,256.4c2.9-0.7,5-2,6.3-4c1.3-2,2-4.3,2-6.8c0-1.6-0.3-3.1-0.8-4.4c-0.5-1.3-1.3-2.5-2.4-3.6
			c-1.1-1-2.5-1.8-4.3-2.3c-1.8-0.6-3.9-0.8-6.5-0.8h-11.9v39.4h2.9v-17.1h11.7l9.1,17.1h3.2L440.3,256.4z M435.8,254.1h-10.2v-17
			h9.8c3.3,0,5.8,0.7,7.6,2.1c1.7,1.4,2.5,3.6,2.5,6.4C445.6,251.3,442.3,254.1,435.8,254.1z"/>
		<path fill="#282561" d="M489.6,254.1c0-3.4-0.6-6.4-1.7-8.9c-1.1-2.5-2.6-4.5-4.6-6.1s-4.3-2.8-7-3.6c-2.7-0.8-5.7-1.1-8.9-1.1
			h-10.7v39.4h10.8c3.2,0,6.2-0.4,8.9-1.1c2.7-0.8,5-2,7-3.6s3.5-3.7,4.6-6.2C489,260.5,489.6,257.6,489.6,254.1z M485.3,261.7
			c-0.9,2.2-2.1,3.9-3.7,5.3c-1.6,1.4-3.6,2.5-5.8,3.2c-2.3,0.7-4.8,1-7.6,1h-8.5v-34.1h8.1c2.9,0,5.5,0.3,7.9,1
			c2.3,0.7,4.3,1.7,6,3.2c1.7,1.4,2.9,3.2,3.8,5.3c0.9,2.2,1.3,4.6,1.3,7.5S486.2,259.5,485.3,261.7z"/>
		<polygon fill="#282561" points="499.6,254.6 515.9,254.6 515.9,252 499.6,252 499.6,237.1 520.4,237.1 520.4,234.4 496.8,234.4 
			496.8,273.9 522,273.9 522,271.2 499.6,271.2 		"/>
		<polygon fill="#282561" points="559.6,273.9 559.6,234.4 556.8,234.4 556.8,269.6 531.5,234.4 528.5,234.4 528.5,273.9 
			531.3,273.9 531.3,239.2 556.6,273.9 		"/>
		<polygon fill="#282561" points="231.7,284.9 227,292.7 222.4,284.9 221.3,284.9 220.7,298.1 221.7,298.1 222.1,286.3 226.6,294 
			227.2,294 231.8,286.3 232.3,298.1 233.2,298.1 232.7,284.9 		"/>
		<path fill="#282561" d="M243.1,297c0-0.3,0-0.5,0-0.8V292c0-1.1-0.3-2-1-2.5s-1.6-0.8-2.7-0.8c-0.8,0-1.5,0.1-2.1,0.4
			c-0.6,0.3-1,0.5-1.2,0.8l0.5,0.6c0.3-0.2,0.6-0.4,1-0.6c0.4-0.2,1-0.3,1.8-0.3c0.4,0,0.8,0.1,1.2,0.1c0.3,0.1,0.6,0.2,0.9,0.4
			c0.3,0.2,0.4,0.4,0.5,0.8c0.1,0.3,0.2,0.8,0.2,1.3v0.5c-0.3-0.1-0.7-0.1-1.1-0.1s-1-0.1-1.5-0.1c-0.7,0-1.3,0.1-1.8,0.3
			c-0.5,0.2-0.9,0.4-1.2,0.7c-0.3,0.3-0.6,0.6-0.7,1c-0.1,0.4-0.2,0.8-0.2,1.3c0,0.6,0.1,1,0.3,1.3c0.2,0.4,0.4,0.6,0.8,0.8
			c0.3,0.2,0.6,0.3,1,0.4c0.4,0.1,0.8,0.1,1.1,0.1c0.3,0,0.5,0,0.8-0.1c0.3-0.1,0.6-0.1,0.9-0.3c0.3-0.1,0.6-0.3,0.9-0.6
			c0.3-0.3,0.6-0.5,0.8-0.9c0,0.3,0,0.4,0,0.6c0,0.2,0,0.3,0,0.5c0,0.1,0,0.3,0,0.4h0.9c0-0.2,0-0.3-0.1-0.6
			C243.1,297.4,243.1,297.2,243.1,297z M242.2,294.8c0,0.3-0.1,0.7-0.3,1c-0.2,0.3-0.4,0.6-0.7,0.9c-0.3,0.3-0.6,0.5-1,0.6
			c-0.4,0.2-0.8,0.3-1.3,0.3c-0.7,0-1.3-0.1-1.7-0.4c-0.4-0.3-0.7-0.8-0.7-1.5c0-0.3,0-0.5,0.1-0.8c0.1-0.3,0.2-0.6,0.4-0.8
			c0.2-0.3,0.5-0.4,0.9-0.6s1-0.3,1.6-0.3c0.6,0,1.2,0,1.6,0.1c0.4,0.1,0.8,0.1,1,0.2v1.3H242.2z"/>
		<path fill="#282561" d="M251.7,297.2c-0.5,0.3-1.1,0.4-1.8,0.4c-0.5,0-1-0.1-1.5-0.3c-0.4-0.2-0.8-0.5-1.1-0.9
			c-0.3-0.4-0.6-0.8-0.8-1.3c-0.2-0.5-0.3-1-0.3-1.5s0.1-1.1,0.3-1.5c0.2-0.5,0.4-0.9,0.8-1.3c0.3-0.4,0.7-0.6,1.1-0.9
			c0.4-0.2,1-0.3,1.5-0.3c0.6,0,1.2,0.1,1.7,0.3c0.4,0.3,0.8,0.6,1.1,1l0.7-0.5c-0.4-0.5-0.9-0.9-1.5-1.2c-0.6-0.3-1.3-0.4-2.1-0.4
			c-0.6,0-1.3,0.1-1.8,0.4c-0.6,0.3-1.1,0.6-1.5,1c-0.4,0.4-0.8,1-1,1.5c-0.3,0.6-0.3,1.2-0.3,1.9c0,0.7,0.1,1.3,0.3,1.9
			c0.3,0.6,0.6,1.1,1,1.5c0.4,0.4,0.9,0.8,1.5,1c0.6,0.3,1.2,0.4,1.8,0.4c0.8,0,1.5-0.1,2.1-0.4c0.6-0.3,1.1-0.7,1.5-1.1l-0.6-0.6
			C252.6,296.6,252.2,296.9,251.7,297.2z"/>
		<path fill="#282561" d="M262.8,297c0-0.3,0-0.5,0-0.8V292c0-1.1-0.3-2-1-2.5c-0.6-0.5-1.6-0.8-2.7-0.8c-0.8,0-1.5,0.1-2.1,0.4
			c-0.6,0.3-1,0.5-1.2,0.8l0.5,0.6c0.3-0.2,0.6-0.4,1-0.6c0.4-0.2,1-0.3,1.8-0.3c0.4,0,0.8,0.1,1.2,0.1c0.3,0.1,0.6,0.2,0.9,0.4
			c0.3,0.2,0.4,0.4,0.5,0.8c0.1,0.3,0.2,0.8,0.2,1.3v0.5c-0.3-0.1-0.7-0.1-1.1-0.1s-1-0.1-1.5-0.1c-0.7,0-1.3,0.1-1.8,0.3
			c-0.5,0.2-0.9,0.4-1.2,0.7c-0.3,0.3-0.6,0.6-0.7,1s-0.2,0.8-0.2,1.3c0,0.6,0.1,1,0.3,1.3c0.2,0.4,0.4,0.6,0.8,0.8
			c0.3,0.2,0.6,0.3,1,0.4c0.4,0.1,0.8,0.1,1.1,0.1c0.3,0,0.5,0,0.8-0.1c0.3-0.1,0.6-0.1,0.9-0.3c0.3-0.1,0.6-0.3,0.9-0.6
			c0.3-0.3,0.6-0.5,0.8-0.9c0,0.3,0,0.4,0,0.6c0,0.2,0,0.3,0,0.5c0,0.1,0,0.3,0,0.4h0.9c0-0.2,0-0.3-0.1-0.6
			C262.8,297.4,262.8,297.2,262.8,297z M261.9,294.8c0,0.3-0.1,0.7-0.3,1c-0.2,0.3-0.4,0.6-0.7,0.9c-0.3,0.3-0.6,0.5-1,0.6
			c-0.4,0.2-0.8,0.3-1.3,0.3c-0.7,0-1.3-0.1-1.7-0.4c-0.4-0.3-0.7-0.8-0.7-1.5c0-0.3,0-0.5,0.1-0.8c0.1-0.3,0.2-0.6,0.4-0.8
			c0.2-0.3,0.5-0.4,0.9-0.6s1-0.3,1.6-0.3c0.6,0,1.2,0,1.6,0.1c0.4,0.1,0.8,0.1,1,0.2v1.3H261.9z"/>
		<rect x="265.5" y="284.9" fill="#282561" width="0.9" height="13.3"/>
		<path fill="#282561" d="M277.2,291.6c-0.2-0.6-0.5-1.1-0.9-1.6c-0.4-0.4-0.9-0.8-1.4-1c-0.5-0.2-1.1-0.3-1.8-0.3s-1.3,0.1-1.8,0.4
			c-0.6,0.3-1,0.6-1.4,1c-0.4,0.4-0.7,1-0.9,1.5c-0.2,0.6-0.3,1.2-0.3,1.9c0,0.7,0.1,1.4,0.3,2c0.2,0.6,0.6,1.1,1,1.5
			c0.4,0.4,0.9,0.8,1.5,1c0.6,0.3,1.2,0.3,1.9,0.3c0.7,0,1.4-0.1,2.1-0.4c0.7-0.3,1.2-0.7,1.7-1.2l-0.6-0.5
			c-0.2,0.2-0.4,0.4-0.6,0.5c-0.3,0.2-0.5,0.3-0.8,0.4s-0.6,0.2-0.9,0.3c-0.3,0.1-0.6,0.1-0.9,0.1c-0.6,0-1-0.1-1.5-0.3
			s-0.8-0.4-1.1-0.8c-0.3-0.3-0.6-0.8-0.8-1.2c-0.2-0.4-0.3-1-0.3-1.5h7.8C277.5,293,277.4,292.2,277.2,291.6z M269.7,293
			c0-0.5,0.1-1,0.3-1.3c0.2-0.4,0.4-0.8,0.7-1.1c0.3-0.3,0.6-0.6,1-0.8c0.4-0.2,0.8-0.3,1.3-0.3c1,0,1.7,0.3,2.3,0.9
			c0.6,0.6,1,1.5,1.1,2.6L269.7,293L269.7,293L269.7,293z"/>
		<path fill="#282561" d="M285.6,293.8c-0.3-0.2-0.6-0.3-1-0.4c-0.4-0.1-0.8-0.2-1.1-0.3c-0.3-0.1-0.7-0.2-1-0.3s-0.6-0.2-0.9-0.3
			s-0.5-0.3-0.6-0.5c-0.2-0.2-0.3-0.4-0.3-0.8c0-0.4,0.1-0.6,0.2-0.9c0.1-0.2,0.3-0.4,0.6-0.5c0.3-0.1,0.5-0.2,0.8-0.3
			s0.6-0.1,0.9-0.1c0.6,0,1.1,0.1,1.5,0.3c0.4,0.2,0.8,0.5,1.1,0.8l0.6-0.6c-0.3-0.4-0.8-0.8-1.3-1c-0.6-0.3-1.2-0.4-1.9-0.4
			c-0.4,0-0.9,0.1-1.3,0.1c-0.4,0.1-0.8,0.3-1.1,0.4c-0.3,0.2-0.6,0.4-0.8,0.8c-0.2,0.3-0.3,0.7-0.3,1.1c0,0.4,0.1,0.8,0.2,1.1
			c0.1,0.3,0.3,0.5,0.6,0.7c0.3,0.2,0.6,0.3,0.9,0.4c0.4,0.1,0.8,0.3,1.1,0.3c0.5,0.1,1,0.3,1.3,0.3c0.4,0.1,0.7,0.2,1,0.4
			c0.3,0.1,0.4,0.3,0.6,0.5c0.1,0.2,0.2,0.5,0.2,0.8s-0.1,0.6-0.2,0.8c-0.1,0.2-0.3,0.4-0.6,0.5c-0.3,0.1-0.6,0.3-0.9,0.3
			c-0.3,0.1-0.7,0.1-1.1,0.1c-0.7,0-1.3-0.1-1.8-0.3c-0.5-0.2-1-0.5-1.3-0.9l-0.6,0.6c0.4,0.4,1,0.8,1.5,1c0.6,0.3,1.3,0.4,2.2,0.4
			c0.4,0,0.9-0.1,1.3-0.2c0.4-0.1,0.8-0.3,1.2-0.5c0.4-0.3,0.6-0.5,0.8-0.8c0.2-0.3,0.3-0.8,0.3-1.2s-0.1-0.8-0.3-1.1
			C286.1,294,285.9,294.1,285.6,293.8z"/>
		<path fill="#282561" d="M293.2,297.4c-0.3,0.1-0.5,0.2-0.9,0.2c-0.3,0-0.4,0-0.6-0.1c-0.2-0.1-0.4-0.2-0.5-0.3
			c-0.1-0.2-0.3-0.4-0.4-0.8c-0.1-0.3-0.1-0.8-0.1-1.3v-5.3h3v-0.8h-3v-3h-0.9v3H288v0.8h1.8v5.5c0,0.6,0.1,1.1,0.2,1.5
			c0.1,0.4,0.3,0.7,0.5,1c0.2,0.3,0.4,0.4,0.8,0.5c0.3,0.1,0.6,0.1,1,0.1c0.6,0,1-0.1,1.3-0.3c0.3-0.2,0.6-0.4,0.9-0.8l-0.6-0.5
			C293.7,297.1,293.5,297.3,293.2,297.4z"/>
		<path fill="#282561" d="M303.6,291.6c-0.2-0.6-0.5-1.1-0.9-1.6s-0.9-0.8-1.4-1c-0.5-0.2-1.1-0.3-1.8-0.3c-0.6,0-1.3,0.1-1.8,0.4
			c-0.6,0.3-1,0.6-1.4,1c-0.4,0.4-0.7,1-0.9,1.5c-0.2,0.6-0.3,1.2-0.3,1.9c0,0.7,0.1,1.4,0.3,2c0.2,0.6,0.6,1.1,1,1.5
			c0.4,0.4,0.9,0.8,1.5,1c0.6,0.3,1.2,0.3,1.9,0.3s1.4-0.1,2.1-0.4c0.7-0.3,1.2-0.7,1.7-1.2l-0.6-0.5c-0.2,0.2-0.4,0.4-0.6,0.5
			c-0.3,0.2-0.5,0.3-0.8,0.4c-0.3,0.1-0.6,0.2-0.9,0.3c-0.3,0.1-0.6,0.1-0.9,0.1c-0.6,0-1-0.1-1.5-0.3s-0.8-0.4-1.1-0.8
			c-0.3-0.3-0.6-0.8-0.8-1.2c-0.2-0.4-0.3-1-0.3-1.5h7.8C304,293,303.8,292.2,303.6,291.6z M296.2,293c0-0.5,0.1-1,0.3-1.3
			c0.2-0.4,0.4-0.8,0.7-1.1c0.3-0.3,0.6-0.6,1-0.8c0.4-0.2,0.8-0.3,1.3-0.3c1,0,1.7,0.3,2.3,0.9c0.6,0.6,1,1.5,1.1,2.6L296.2,293
			L296.2,293L296.2,293z"/>
		<path fill="#282561" d="M309.2,289.1c-0.4,0.1-0.7,0.3-1,0.5s-0.5,0.4-0.7,0.7c-0.2,0.3-0.3,0.4-0.4,0.7c0-0.3,0-0.4,0-0.6
			c0-0.2,0-0.4,0-0.5s0-0.3,0-0.4c0-0.1,0-0.3,0-0.4h-0.9c0,0.1,0,0.3,0,0.4c0,0.1,0,0.3,0,0.4c0,0.1,0,0.3,0,0.5c0,0.2,0,0.4,0,0.6
			v7.2h0.9v-4.7c0-0.4,0.1-0.9,0.3-1.3c0.1-0.4,0.4-0.8,0.6-1.2c0.3-0.3,0.6-0.6,1-0.8s0.8-0.3,1.3-0.3c0.1,0,0.3,0,0.4,0
			s0.3,0.1,0.3,0.1l0.3-0.9c-0.2-0.1-0.4-0.1-0.8-0.1C310.1,288.9,309.6,288.9,309.2,289.1z"/>
		<path fill="#282561" d="M324.1,292c-0.4-0.3-0.8-0.5-1.3-0.7c-0.4-0.2-1-0.3-1.4-0.4c-0.4-0.1-0.9-0.3-1.3-0.4
			c-0.4-0.1-0.8-0.3-1.2-0.5c-0.4-0.2-0.6-0.4-0.9-0.8c-0.3-0.3-0.3-0.7-0.3-1.2c0-0.3,0.1-0.6,0.2-1c0.1-0.3,0.3-0.6,0.6-0.8
			c0.3-0.3,0.6-0.4,1-0.6c0.4-0.1,0.9-0.2,1.4-0.2c0.5,0,0.9,0.1,1.3,0.1c0.4,0.1,0.7,0.3,1,0.4c0.3,0.1,0.5,0.3,0.7,0.5
			c0.2,0.2,0.3,0.3,0.4,0.5l0.7-0.6c-0.1-0.2-0.3-0.4-0.6-0.6c-0.2-0.2-0.5-0.4-0.8-0.6c-0.3-0.2-0.7-0.3-1.1-0.4
			c-0.4-0.1-1-0.2-1.5-0.2c-0.6,0-1.2,0.1-1.8,0.3c-0.5,0.2-1,0.4-1.3,0.7c-0.4,0.3-0.6,0.6-0.8,1.1c-0.2,0.4-0.3,0.8-0.3,1.3
			c0,0.6,0.1,1.2,0.4,1.7c0.3,0.4,0.6,0.8,1,1c0.4,0.3,0.8,0.5,1.3,0.6c0.5,0.2,1,0.3,1.5,0.4c0.4,0.1,0.8,0.3,1.2,0.4
			c0.4,0.1,0.8,0.3,1.1,0.6c0.3,0.3,0.6,0.5,0.8,0.9c0.2,0.3,0.3,0.8,0.3,1.3c0,0.4-0.1,0.9-0.3,1.2c-0.2,0.4-0.4,0.6-0.7,0.9
			c-0.3,0.3-0.7,0.4-1.1,0.5c-0.4,0.1-0.9,0.2-1.4,0.2c-0.9,0-1.7-0.2-2.3-0.5c-0.6-0.3-1.1-0.8-1.7-1.3l-0.7,0.7
			c0.2,0.3,0.4,0.5,0.7,0.8c0.3,0.3,0.6,0.4,1,0.6c0.4,0.2,0.8,0.3,1.3,0.4c0.5,0.1,1,0.2,1.6,0.2c0.6,0,1.2-0.1,1.8-0.3
			c0.6-0.2,1-0.4,1.5-0.8c0.4-0.3,0.7-0.7,1-1.1s0.4-1,0.4-1.5c0-0.6-0.1-1.2-0.3-1.7C324.8,292.6,324.5,292.2,324.1,292z"/>
		<path fill="#282561" d="M335.3,290.1c-0.4-0.4-1-0.8-1.5-1c-0.6-0.3-1.2-0.4-1.8-0.4c-0.6,0-1.3,0.1-1.8,0.4
			c-0.6,0.3-1.1,0.6-1.5,1c-0.4,0.4-0.8,1-1,1.5c-0.3,0.6-0.4,1.2-0.4,1.9c0,0.7,0.1,1.3,0.4,1.9c0.3,0.6,0.6,1.1,1,1.5
			c0.4,0.4,1,0.8,1.5,1c0.6,0.3,1.2,0.4,1.8,0.4c0.6,0,1.3-0.1,1.8-0.4c0.6-0.3,1.1-0.6,1.5-1s0.8-1,1-1.5c0.3-0.6,0.4-1.2,0.4-1.9
			c0-0.7-0.1-1.3-0.4-1.9C336,291.1,335.7,290.6,335.3,290.1z M335.4,295.2c-0.2,0.5-0.4,0.9-0.8,1.3c-0.3,0.4-0.8,0.6-1.2,0.9
			c-0.4,0.2-1,0.3-1.5,0.3c-0.5,0-1-0.1-1.5-0.3c-0.4-0.2-0.9-0.5-1.2-0.9c-0.3-0.4-0.6-0.8-0.8-1.3c-0.2-0.5-0.3-1-0.3-1.5
			c0-0.6,0.1-1.1,0.3-1.6s0.4-0.9,0.8-1.3c0.3-0.4,0.8-0.6,1.2-0.9c0.4-0.2,1-0.3,1.5-0.3c0.5,0,1,0.1,1.5,0.3
			c0.4,0.2,0.9,0.5,1.2,0.9c0.3,0.4,0.6,0.8,0.8,1.3c0.2,0.5,0.3,1,0.3,1.5C335.7,294.1,335.6,294.6,335.4,295.2z"/>
		<path fill="#282561" d="M340.6,288.3c0-0.6,0.1-1.1,0.1-1.5c0.1-0.4,0.3-0.7,0.4-0.9c0.2-0.2,0.4-0.4,0.6-0.4
			c0.3-0.1,0.5-0.1,0.8-0.1c0.4,0,0.7,0.1,1,0.2c0.3,0.1,0.6,0.3,0.8,0.6l0.6-0.6c-0.3-0.3-0.6-0.6-1-0.8c-0.4-0.2-0.9-0.3-1.5-0.3
			c-0.9,0-1.7,0.3-2.1,0.9c-0.5,0.6-0.7,1.4-0.7,2.5v1.1h-1.8v0.8h1.8v8.3h0.9v-8.3h3v-0.8h-3V288.3z"/>
		<path fill="#282561" d="M349.4,297.4c-0.3,0.1-0.5,0.2-0.9,0.2c-0.3,0-0.4,0-0.6-0.1c-0.2-0.1-0.4-0.2-0.5-0.3
			c-0.1-0.2-0.3-0.4-0.3-0.8c-0.1-0.3-0.1-0.8-0.1-1.3v-5.3h3v-0.8h-3v-3h-0.9v3h-1.8v0.8h1.8v5.5c0,0.6,0.1,1.1,0.2,1.5
			s0.3,0.7,0.5,1c0.2,0.3,0.4,0.4,0.8,0.5c0.3,0.1,0.6,0.1,1,0.1c0.6,0,1-0.1,1.3-0.3c0.3-0.2,0.6-0.4,0.9-0.8l-0.6-0.5
			C349.9,297.1,349.7,297.3,349.4,297.4z"/>
		<polygon fill="#282561" points="360.7,297.1 358.1,289 357.2,289 354.6,297 352,289 351,289 354.1,298.1 355,298.1 357.6,290.3 
			360.1,298.1 361.1,298.1 364,289 363.1,289 		"/>
		<path fill="#282561" d="M372.5,297c0-0.3,0-0.5,0-0.8V292c0-1.1-0.3-2-1-2.5c-0.6-0.5-1.6-0.8-2.7-0.8c-0.8,0-1.5,0.1-2.1,0.4
			c-0.6,0.3-1,0.5-1.2,0.8l0.5,0.6c0.3-0.2,0.6-0.4,1-0.6c0.4-0.3,1.1-0.3,1.8-0.3c0.4,0,0.8,0.1,1.2,0.1c0.3,0.1,0.6,0.2,0.9,0.4
			c0.3,0.2,0.4,0.4,0.5,0.8c0.1,0.3,0.2,0.8,0.2,1.3v0.5c-0.3-0.1-0.7-0.1-1.1-0.1c-0.4-0.1-1-0.1-1.5-0.1c-0.7,0-1.3,0.1-1.8,0.3
			c-0.5,0.2-0.9,0.4-1.2,0.7c-0.3,0.3-0.6,0.6-0.7,1s-0.2,0.8-0.2,1.3c0,0.6,0.1,1,0.3,1.3c0.2,0.4,0.4,0.6,0.8,0.8
			c0.3,0.2,0.6,0.3,1,0.4c0.4,0.1,0.8,0.1,1.1,0.1c0.3,0,0.5,0,0.8-0.1c0.3-0.1,0.6-0.1,0.9-0.3c0.3-0.1,0.6-0.3,0.9-0.6
			c0.3-0.3,0.6-0.5,0.8-0.9c0,0.3,0,0.4,0,0.6c0,0.2,0,0.3,0,0.5c0,0.1,0,0.3,0,0.4h0.9c0-0.2,0-0.3-0.1-0.6
			C372.5,297.4,372.5,297.2,372.5,297z M371.6,294.8c0,0.3-0.1,0.7-0.3,1c-0.2,0.3-0.4,0.6-0.7,0.9c-0.3,0.3-0.6,0.5-1.1,0.6
			c-0.4,0.2-0.8,0.3-1.3,0.3c-0.7,0-1.3-0.1-1.7-0.4c-0.4-0.3-0.7-0.8-0.7-1.5c0-0.3,0-0.5,0.1-0.8c0.1-0.3,0.2-0.6,0.4-0.8
			c0.2-0.3,0.5-0.4,0.9-0.6c0.4-0.2,1-0.3,1.6-0.3s1.2,0,1.6,0.1c0.4,0.1,0.8,0.1,1.1,0.2v1.3H371.6z"/>
		<path fill="#282561" d="M378.2,289.1c-0.4,0.1-0.7,0.3-1,0.5c-0.3,0.2-0.5,0.4-0.7,0.7c-0.2,0.3-0.3,0.4-0.4,0.7
			c0-0.3,0-0.4,0-0.6c0-0.2,0-0.4,0-0.5s0-0.3,0-0.4c0-0.1,0-0.3,0-0.4h-0.8c0,0.1,0,0.3,0,0.4c0,0.1,0,0.3,0,0.4c0,0.1,0,0.3,0,0.5
			c0,0.2,0,0.4,0,0.6v7.2h0.9v-4.7c0-0.4,0.1-0.9,0.3-1.3c0.1-0.4,0.4-0.8,0.6-1.2c0.3-0.3,0.6-0.6,1-0.8c0.4-0.2,0.8-0.3,1.3-0.3
			c0.1,0,0.3,0,0.3,0s0.3,0.1,0.3,0.1l0.3-0.9c-0.2-0.1-0.4-0.1-0.8-0.1C379,288.9,378.6,288.9,378.2,289.1z"/>
		<path fill="#282561" d="M389.4,291.6c-0.2-0.6-0.5-1.1-0.9-1.6s-0.9-0.8-1.4-1c-0.5-0.2-1.1-0.3-1.8-0.3c-0.6,0-1.3,0.1-1.8,0.4
			c-0.6,0.3-1,0.6-1.4,1c-0.4,0.4-0.7,1-0.9,1.5c-0.2,0.6-0.3,1.2-0.3,1.9c0,0.7,0.1,1.4,0.4,2c0.3,0.6,0.6,1.1,1,1.5
			c0.4,0.4,0.9,0.8,1.5,1c0.6,0.3,1.2,0.3,1.9,0.3s1.4-0.1,2.1-0.4c0.7-0.3,1.2-0.7,1.7-1.2l-0.6-0.5c-0.2,0.2-0.4,0.4-0.6,0.5
			c-0.3,0.2-0.5,0.3-0.8,0.4c-0.3,0.1-0.6,0.2-0.9,0.3c-0.3,0.1-0.6,0.1-0.9,0.1c-0.6,0-1-0.1-1.5-0.3c-0.4-0.2-0.8-0.4-1.1-0.8
			c-0.3-0.3-0.6-0.8-0.8-1.2c-0.2-0.4-0.3-1-0.3-1.5h7.8C389.7,293,389.6,292.2,389.4,291.6z M381.9,293c0-0.5,0.1-1,0.3-1.3
			c0.2-0.4,0.4-0.8,0.7-1.1c0.3-0.3,0.6-0.6,1.1-0.8c0.4-0.2,0.8-0.3,1.3-0.3c1,0,1.7,0.3,2.3,0.9c0.6,0.6,1,1.5,1.1,2.6L381.9,293
			L381.9,293L381.9,293z"/>
		<path fill="#282561" d="M397.8,287.2c0.4-0.6,1-1,1.7-1.3c0.7-0.3,1.5-0.4,2.3-0.4c0.7,0,1.3,0.1,1.7,0.3c0.5,0.2,0.9,0.4,1.2,0.6
			c0.3,0.3,0.6,0.4,0.8,0.7c0.2,0.3,0.3,0.4,0.4,0.5l0.7-0.5c-0.1-0.1-0.3-0.3-0.4-0.6c-0.2-0.3-0.5-0.6-0.9-0.8
			c-0.4-0.3-0.9-0.5-1.5-0.8c-0.6-0.2-1.3-0.3-2-0.3c-1,0-1.8,0.2-2.6,0.5c-0.8,0.4-1.5,0.8-2,1.5c-0.6,0.6-1,1.4-1.3,2.2
			c-0.3,0.8-0.4,1.8-0.4,2.7c0,1,0.1,1.9,0.4,2.8c0.3,0.8,0.8,1.6,1.3,2.2s1.3,1.1,2,1.5c0.8,0.4,1.7,0.5,2.6,0.5
			c0.8,0,1.5-0.1,2-0.3c0.6-0.2,1.1-0.4,1.5-0.8s0.7-0.6,0.9-0.8c0.2-0.3,0.4-0.5,0.4-0.6l-0.7-0.5c-0.1,0.1-0.2,0.3-0.4,0.5
			c-0.2,0.3-0.4,0.4-0.8,0.7c-0.3,0.3-0.7,0.4-1.2,0.6c-0.4,0.2-1,0.3-1.7,0.3c-0.9,0-1.7-0.1-2.3-0.4c-0.7-0.3-1.3-0.8-1.7-1.3
			c-0.4-0.6-0.8-1.2-1.1-1.9c-0.3-0.8-0.4-1.5-0.4-2.4c0-0.8,0.1-1.7,0.4-2.4C397,288.4,397.4,287.7,397.8,287.2z"/>
		<path fill="#282561" d="M416.2,290.1c-0.4-0.4-1-0.8-1.5-1c-0.6-0.3-1.2-0.4-1.8-0.4c-0.6,0-1.3,0.1-1.8,0.4
			c-0.6,0.3-1.1,0.6-1.5,1c-0.4,0.4-0.8,1-1,1.5c-0.3,0.6-0.4,1.2-0.4,1.9c0,0.7,0.1,1.3,0.4,1.9c0.3,0.6,0.6,1.1,1,1.5
			c0.4,0.4,1,0.8,1.5,1c0.6,0.3,1.2,0.4,1.8,0.4c0.6,0,1.3-0.1,1.8-0.4c0.6-0.3,1.1-0.6,1.5-1s0.8-1,1-1.5c0.3-0.6,0.4-1.2,0.4-1.9
			c0-0.7-0.1-1.3-0.4-1.9C417,291.1,416.7,290.6,416.2,290.1z M416.4,295.2c-0.2,0.5-0.4,0.9-0.8,1.3c-0.3,0.4-0.8,0.6-1.2,0.9
			c-0.4,0.3-1,0.3-1.5,0.3c-0.5,0-1-0.1-1.5-0.3c-0.4-0.2-0.9-0.5-1.2-0.9c-0.3-0.4-0.6-0.8-0.8-1.3c-0.2-0.5-0.3-1-0.3-1.5
			c0-0.6,0.1-1.1,0.3-1.6s0.4-0.9,0.8-1.3c0.3-0.4,0.8-0.6,1.2-0.9c0.4-0.3,1-0.3,1.5-0.3c0.5,0,1,0.1,1.5,0.3
			c0.4,0.2,0.9,0.5,1.2,0.9c0.3,0.4,0.6,0.8,0.8,1.3s0.3,1,0.3,1.5C416.7,294.1,416.6,294.6,416.4,295.2z"/>
		<rect x="419.9" y="284.9" fill="#282561" width="0.9" height="13.3"/>
		<rect x="423.5" y="284.9" fill="#282561" width="0.9" height="13.3"/>
		<path fill="#282561" d="M434.3,297c0-0.3,0-0.5,0-0.8V292c0-1.1-0.3-2-1-2.5c-0.6-0.5-1.6-0.8-2.7-0.8c-0.8,0-1.5,0.1-2.1,0.4
			c-0.6,0.3-1,0.5-1.2,0.8l0.5,0.6c0.3-0.2,0.6-0.4,1-0.6c0.4-0.3,1.1-0.3,1.8-0.3c0.4,0,0.8,0.1,1.2,0.1c0.3,0.1,0.6,0.2,0.9,0.4
			c0.3,0.2,0.4,0.4,0.5,0.8c0.1,0.3,0.2,0.8,0.2,1.3v0.5c-0.3-0.1-0.7-0.1-1.1-0.1c-0.4-0.1-1-0.1-1.5-0.1c-0.7,0-1.3,0.1-1.8,0.3
			c-0.5,0.2-0.9,0.4-1.2,0.7c-0.3,0.3-0.6,0.6-0.7,1s-0.2,0.8-0.2,1.3c0,0.6,0.1,1,0.3,1.3c0.2,0.4,0.4,0.6,0.8,0.8
			c0.3,0.2,0.6,0.3,1,0.4c0.4,0.1,0.8,0.1,1.1,0.1c0.3,0,0.5,0,0.8-0.1c0.3-0.1,0.6-0.1,0.9-0.3c0.3-0.1,0.6-0.3,0.9-0.6
			c0.3-0.3,0.6-0.5,0.8-0.9c0,0.3,0,0.4,0,0.6c0,0.2,0,0.3,0,0.5c0,0.1,0,0.3,0,0.4h0.9c0-0.2,0-0.3-0.1-0.6
			C434.3,297.4,434.3,297.2,434.3,297z M433.4,294.8c0,0.3-0.1,0.7-0.3,1c-0.2,0.3-0.4,0.6-0.7,0.9c-0.3,0.3-0.6,0.5-1.1,0.6
			c-0.4,0.2-0.8,0.3-1.3,0.3c-0.7,0-1.3-0.1-1.7-0.4c-0.4-0.3-0.7-0.8-0.7-1.5c0-0.3,0-0.5,0.1-0.8c0.1-0.3,0.2-0.6,0.4-0.8
			c0.2-0.3,0.5-0.4,0.9-0.6c0.4-0.2,1-0.3,1.6-0.3c0.6,0,1.2,0,1.6,0.1c0.4,0.1,0.8,0.1,1.1,0.2v1.3H433.4z"/>
		<path fill="#282561" d="M444.4,290.1c-0.3-0.4-0.8-0.8-1.3-1c-0.5-0.3-1.1-0.4-1.8-0.4c-0.5,0-1,0.1-1.3,0.2
			c-0.4,0.1-0.7,0.3-1,0.4c-0.3,0.2-0.5,0.4-0.7,0.6c-0.2,0.3-0.3,0.4-0.4,0.6v-5.8h-0.8v13c0.4,0.2,0.8,0.3,1.4,0.4
			c0.6,0.1,1.2,0.2,1.9,0.2s1.4-0.1,2-0.3c0.6-0.2,1.1-0.5,1.6-1c0.4-0.4,0.8-0.9,1.1-1.5c0.3-0.6,0.4-1.3,0.4-2
			c0-0.7-0.1-1.3-0.3-1.9C445,291.1,444.8,290.6,444.4,290.1z M444.2,295.3c-0.2,0.5-0.5,0.9-0.9,1.3c-0.4,0.3-0.8,0.6-1.3,0.8
			c-0.5,0.2-1,0.3-1.7,0.3c-0.7,0-1.2-0.1-1.7-0.1c-0.4-0.1-0.7-0.2-0.8-0.2v-3.9c0-0.4,0.1-0.8,0.2-1.2c0.1-0.4,0.3-0.8,0.6-1.2
			c0.3-0.4,0.6-0.6,1-0.9c0.4-0.3,0.9-0.4,1.5-0.4c0.6,0,1.1,0.1,1.5,0.3s0.8,0.5,1,0.9c0.3,0.4,0.4,0.8,0.6,1.3s0.2,1,0.2,1.5
			C444.5,294.2,444.4,294.8,444.2,295.3z"/>
		<path fill="#282561" d="M455.4,290.1c-0.4-0.4-1-0.8-1.5-1c-0.6-0.3-1.2-0.4-1.8-0.4c-0.6,0-1.3,0.1-1.8,0.4
			c-0.6,0.3-1.1,0.6-1.5,1c-0.4,0.4-0.8,1-1,1.5c-0.3,0.6-0.4,1.2-0.4,1.9c0,0.7,0.1,1.3,0.4,1.9c0.3,0.6,0.6,1.1,1,1.5
			c0.4,0.4,1,0.8,1.5,1c0.6,0.3,1.2,0.4,1.8,0.4c0.6,0,1.3-0.1,1.8-0.4c0.6-0.3,1.1-0.6,1.5-1s0.8-1,1-1.5c0.3-0.6,0.4-1.2,0.4-1.9
			c0-0.7-0.1-1.3-0.4-1.9C456.1,291.1,455.8,290.6,455.4,290.1z M455.5,295.2c-0.2,0.5-0.4,0.9-0.8,1.3c-0.3,0.4-0.8,0.6-1.2,0.9
			c-0.4,0.3-1,0.3-1.5,0.3c-0.5,0-1-0.1-1.5-0.3c-0.4-0.2-0.9-0.5-1.2-0.9c-0.3-0.4-0.6-0.8-0.8-1.3c-0.2-0.5-0.3-1-0.3-1.5
			c0-0.6,0.1-1.1,0.3-1.6s0.4-0.9,0.8-1.3c0.3-0.4,0.8-0.6,1.2-0.9c0.4-0.3,1-0.3,1.5-0.3c0.5,0,1,0.1,1.5,0.3
			c0.4,0.2,0.9,0.5,1.2,0.9c0.3,0.4,0.6,0.8,0.8,1.3s0.3,1,0.3,1.5C455.8,294.1,455.7,294.6,455.5,295.2z"/>
		<path fill="#282561" d="M462,289.1c-0.4,0.1-0.7,0.3-1,0.5s-0.5,0.4-0.7,0.7c-0.2,0.3-0.3,0.4-0.4,0.7c0-0.3,0-0.4,0-0.6
			c0-0.2,0-0.4,0-0.5s0-0.3,0-0.4c0-0.1,0-0.3,0-0.4h-0.8c0,0.1,0,0.3,0,0.4c0,0.1,0,0.3,0,0.4c0,0.1,0,0.3,0,0.5c0,0.2,0,0.4,0,0.6
			v7.2h0.9v-4.7c0-0.4,0.1-0.9,0.3-1.3c0.1-0.4,0.4-0.8,0.6-1.2c0.3-0.3,0.6-0.6,1-0.8c0.4-0.2,0.8-0.3,1.3-0.3c0.1,0,0.3,0,0.3,0
			s0.3,0.1,0.3,0.1l0.3-0.9c-0.2-0.1-0.4-0.1-0.8-0.1C462.9,288.9,462.4,288.9,462,289.1z"/>
		<path fill="#282561" d="M472.2,297c0-0.3,0-0.5,0-0.8V292c0-1.1-0.3-2-1-2.5s-1.6-0.8-2.7-0.8c-0.8,0-1.5,0.1-2.1,0.4
			c-0.6,0.3-1,0.5-1.2,0.8l0.5,0.6c0.3-0.2,0.6-0.4,1-0.6c0.4-0.3,1.1-0.3,1.8-0.3c0.4,0,0.8,0.1,1.2,0.1c0.3,0.1,0.6,0.2,0.9,0.4
			c0.3,0.2,0.4,0.4,0.5,0.8c0.1,0.3,0.2,0.8,0.2,1.3v0.5c-0.3-0.1-0.7-0.1-1.1-0.1c-0.4-0.1-1-0.1-1.5-0.1c-0.7,0-1.3,0.1-1.8,0.3
			c-0.5,0.2-0.9,0.4-1.2,0.7c-0.3,0.3-0.6,0.6-0.7,1c-0.1,0.4-0.2,0.8-0.2,1.3c0,0.6,0.1,1,0.3,1.3c0.2,0.4,0.4,0.6,0.8,0.8
			c0.3,0.2,0.6,0.3,1,0.4c0.4,0.1,0.8,0.1,1.1,0.1c0.3,0,0.5,0,0.8-0.1c0.3-0.1,0.6-0.1,0.9-0.3c0.3-0.1,0.6-0.3,0.9-0.6
			c0.3-0.3,0.6-0.5,0.8-0.9c0,0.3,0,0.4,0,0.6c0,0.2,0,0.3,0,0.5c0,0.1,0,0.3,0,0.4h0.9c0-0.2,0-0.3-0.1-0.6
			C472.2,297.4,472.2,297.2,472.2,297z M471.4,294.8c0,0.3-0.1,0.7-0.3,1c-0.2,0.3-0.4,0.6-0.7,0.9c-0.3,0.3-0.6,0.5-1.1,0.6
			c-0.4,0.2-0.8,0.3-1.3,0.3c-0.7,0-1.3-0.1-1.7-0.4c-0.4-0.3-0.7-0.8-0.7-1.5c0-0.3,0-0.5,0.1-0.8c0.1-0.3,0.2-0.6,0.4-0.8
			c0.2-0.3,0.5-0.4,0.9-0.6s1-0.3,1.6-0.3c0.6,0,1.2,0,1.6,0.1c0.4,0.1,0.8,0.1,1.1,0.2v1.3H471.4z"/>
		<path fill="#282561" d="M479.2,297.4c-0.3,0.1-0.5,0.2-0.9,0.2c-0.3,0-0.4,0-0.6-0.1c-0.2-0.1-0.4-0.2-0.5-0.3
			c-0.1-0.2-0.3-0.4-0.3-0.8c-0.1-0.3-0.1-0.8-0.1-1.3v-5.3h3v-0.8h-3v-3h-1v3H474v0.8h1.8v5.5c0,0.6,0.1,1.1,0.2,1.5s0.3,0.7,0.5,1
			c0.2,0.3,0.4,0.4,0.8,0.5c0.3,0.1,0.6,0.1,1,0.1c0.6,0,1-0.1,1.3-0.3c0.3-0.2,0.6-0.4,0.9-0.8l-0.6-0.5
			C479.7,297.1,479.4,297.3,479.2,297.4z"/>
		<rect x="481.9" y="285.8" fill="#282561" width="1.3" height="1.3"/>
		<rect x="482.1" y="289" fill="#282561" width="0.9" height="9.2"/>
		<path fill="#282561" d="M493.4,290.1c-0.4-0.4-1-0.8-1.5-1c-0.6-0.3-1.2-0.4-1.8-0.4c-0.6,0-1.3,0.1-1.8,0.4
			c-0.6,0.3-1.1,0.6-1.5,1c-0.4,0.4-0.8,1-1,1.5c-0.3,0.6-0.4,1.2-0.4,1.9c0,0.7,0.1,1.3,0.4,1.9c0.3,0.6,0.6,1.1,1,1.5
			c0.4,0.4,1,0.8,1.5,1c0.6,0.3,1.2,0.4,1.8,0.4c0.6,0,1.3-0.1,1.8-0.4c0.6-0.3,1.1-0.6,1.5-1s0.8-1,1-1.5c0.3-0.6,0.4-1.2,0.4-1.9
			c0-0.7-0.1-1.3-0.4-1.9C494.2,291.1,493.8,290.6,493.4,290.1z M493.6,295.2c-0.2,0.5-0.4,0.9-0.8,1.3c-0.3,0.4-0.8,0.6-1.2,0.9
			c-0.4,0.3-1,0.3-1.5,0.3c-0.5,0-1-0.1-1.5-0.3c-0.4-0.2-0.9-0.5-1.2-0.9c-0.3-0.4-0.6-0.8-0.8-1.3c-0.2-0.5-0.3-1-0.3-1.5
			c0-0.6,0.1-1.1,0.3-1.6c0.2-0.5,0.4-0.9,0.8-1.3c0.3-0.4,0.8-0.6,1.2-0.9c0.4-0.3,1-0.3,1.5-0.3c0.5,0,1,0.1,1.5,0.3
			c0.4,0.2,0.9,0.5,1.2,0.9c0.3,0.4,0.6,0.8,0.8,1.3c0.2,0.4,0.3,1,0.3,1.5C493.8,294.1,493.8,294.6,493.6,295.2z"/>
		<path fill="#282561" d="M504.3,289.8c-0.3-0.4-0.6-0.6-1.1-0.8c-0.4-0.2-1-0.3-1.7-0.3c-0.5,0-1,0.1-1.4,0.2
			c-0.4,0.1-0.8,0.3-1,0.6c-0.3,0.2-0.5,0.4-0.7,0.7c-0.2,0.3-0.3,0.5-0.4,0.7c0-0.3,0-0.4,0-0.6c0-0.2,0-0.3,0-0.5
			c0-0.1,0-0.3,0-0.4c0-0.1,0-0.3,0-0.4h-0.8c0,0.1,0,0.3,0,0.4c0,0.1,0,0.3,0,0.4c0,0.1,0,0.3,0,0.5c0,0.2,0,0.4,0,0.6v7.2h0.9
			v-4.7c0-0.4,0.1-0.9,0.2-1.3s0.4-0.9,0.6-1.2c0.3-0.4,0.6-0.7,1.1-0.9c0.4-0.3,1-0.4,1.5-0.4c0.4,0,0.8,0.1,1.1,0.2
			c0.3,0.1,0.6,0.3,0.9,0.6c0.3,0.3,0.4,0.6,0.5,1.1s0.2,1,0.2,1.7v5.1h0.9v-5.4c0-0.6-0.1-1.1-0.2-1.7
			C504.8,290.7,504.6,290.2,504.3,289.8z"/>
		<path fill="#282561" d="M518.9,292c-0.4-0.3-0.8-0.5-1.3-0.7c-0.4-0.2-1-0.3-1.4-0.4c-0.4-0.1-0.9-0.3-1.3-0.4
			c-0.4-0.1-0.8-0.3-1.2-0.5c-0.4-0.2-0.6-0.4-0.9-0.8s-0.3-0.7-0.3-1.2c0-0.3,0.1-0.6,0.2-1c0.1-0.3,0.3-0.6,0.6-0.8
			c0.3-0.3,0.6-0.4,1-0.6c0.4-0.1,0.9-0.2,1.4-0.2c0.5,0,0.9,0.1,1.3,0.1c0.4,0.1,0.7,0.3,1,0.4c0.3,0.1,0.5,0.3,0.7,0.5
			c0.2,0.2,0.3,0.3,0.4,0.5l0.7-0.6c-0.1-0.2-0.3-0.4-0.6-0.6c-0.2-0.2-0.5-0.4-0.8-0.6c-0.3-0.2-0.7-0.3-1.1-0.4
			c-0.4-0.1-1-0.2-1.5-0.2c-0.6,0-1.2,0.1-1.8,0.3c-0.5,0.2-1,0.4-1.3,0.7c-0.4,0.3-0.6,0.6-0.8,1.1s-0.3,0.8-0.3,1.3
			c0,0.6,0.1,1.2,0.4,1.7c0.3,0.4,0.6,0.8,1,1c0.4,0.3,0.8,0.5,1.3,0.6c0.5,0.2,1,0.3,1.5,0.4c0.4,0.1,0.8,0.3,1.2,0.4
			c0.4,0.1,0.8,0.3,1.1,0.6c0.3,0.3,0.6,0.5,0.8,0.9c0.2,0.4,0.3,0.8,0.3,1.3c0,0.4-0.1,0.9-0.3,1.2c-0.2,0.4-0.4,0.6-0.7,0.9
			c-0.3,0.3-0.7,0.4-1.1,0.5c-0.4,0.1-0.9,0.2-1.4,0.2c-0.9,0-1.7-0.2-2.3-0.5c-0.6-0.3-1.1-0.8-1.7-1.3l-0.7,0.7
			c0.2,0.3,0.4,0.5,0.7,0.8c0.3,0.3,0.6,0.4,1,0.6c0.4,0.2,0.8,0.3,1.3,0.4c0.5,0.1,1,0.2,1.6,0.2c0.6,0,1.2-0.1,1.8-0.3
			c0.6-0.2,1-0.4,1.5-0.8c0.4-0.3,0.7-0.7,1-1.1s0.4-1,0.4-1.5c0-0.6-0.1-1.2-0.4-1.7C519.6,292.6,519.2,292.2,518.9,292z"/>
		<path fill="#282561" d="M529.7,290.1c-0.3-0.4-0.8-0.8-1.3-1c-0.5-0.3-1.1-0.4-1.8-0.4c-0.6,0-1,0.1-1.5,0.3
			c-0.4,0.2-0.8,0.3-1,0.6c-0.3,0.2-0.5,0.4-0.6,0.6c-0.1,0.2-0.3,0.4-0.3,0.5c0-0.2,0-0.4,0-0.6s0-0.3,0-0.4c0-0.1,0-0.3,0-0.3
			c0-0.1,0-0.3,0-0.4h-0.8c0,0.1,0,0.3,0,0.4c0,0.1,0,0.3,0,0.4c0,0.1,0,0.3,0,0.5c0,0.2,0,0.4,0,0.6v11.2h0.9v-4.6
			c0.3,0.2,0.8,0.4,1.2,0.6c0.4,0.2,1,0.3,1.7,0.3c0.6,0,1.3-0.1,1.8-0.3c0.6-0.3,1.1-0.6,1.5-1s0.8-1,1-1.5c0.3-0.6,0.4-1.2,0.4-2
			c0-0.7-0.1-1.3-0.3-1.9C530.2,291.1,530,290.6,529.7,290.1z M529.4,295.3c-0.2,0.5-0.4,0.9-0.8,1.2c-0.3,0.3-0.7,0.6-1.2,0.8
			c-0.4,0.2-1,0.3-1.5,0.3c-0.4,0-0.8-0.1-1.1-0.1c-0.3-0.1-0.6-0.2-0.8-0.3c-0.3-0.1-0.4-0.2-0.6-0.3c-0.2-0.1-0.3-0.2-0.4-0.3
			v-2.9c0-0.3,0-0.7,0.1-1c0.1-0.3,0.1-0.6,0.2-0.9c0.1-0.3,0.3-0.6,0.4-0.8c0.2-0.3,0.4-0.5,0.6-0.7c0.3-0.2,0.6-0.4,0.9-0.5
			c0.3-0.1,0.7-0.2,1.1-0.2c0.6,0,1.1,0.1,1.5,0.3c0.4,0.2,0.8,0.5,1,0.9s0.4,0.8,0.6,1.3s0.2,1,0.2,1.5
			C529.7,294.3,529.6,294.8,529.4,295.3z"/>
		<path fill="#282561" d="M540.1,297c0-0.3,0-0.5,0-0.8V292c0-1.1-0.3-2-1-2.5c-0.6-0.5-1.6-0.8-2.7-0.8c-0.8,0-1.5,0.1-2.1,0.4
			c-0.6,0.3-1,0.5-1.2,0.8l0.5,0.6c0.3-0.2,0.6-0.4,1-0.6c0.4-0.3,1.1-0.3,1.8-0.3c0.4,0,0.8,0.1,1.2,0.1c0.3,0.1,0.6,0.2,0.9,0.4
			c0.3,0.2,0.4,0.4,0.5,0.8c0.1,0.3,0.2,0.8,0.2,1.3v0.5c-0.3-0.1-0.7-0.1-1.1-0.1c-0.4-0.1-1-0.1-1.5-0.1c-0.7,0-1.3,0.1-1.8,0.3
			c-0.5,0.2-0.9,0.4-1.2,0.7c-0.3,0.3-0.6,0.6-0.7,1s-0.2,0.8-0.2,1.3c0,0.6,0.1,1,0.3,1.3c0.2,0.4,0.4,0.6,0.8,0.8
			c0.3,0.2,0.6,0.3,1,0.4c0.4,0.1,0.8,0.1,1.1,0.1c0.3,0,0.5,0,0.8-0.1c0.3-0.1,0.6-0.1,0.9-0.3c0.3-0.1,0.6-0.3,0.9-0.6
			c0.3-0.3,0.6-0.5,0.8-0.9c0,0.3,0,0.4,0,0.6c0,0.2,0,0.3,0,0.5c0,0.1,0,0.3,0,0.4h0.9c0-0.2,0-0.3-0.1-0.6
			C540.1,297.4,540.1,297.2,540.1,297z M539.2,294.8c0,0.3-0.1,0.7-0.3,1c-0.2,0.3-0.4,0.6-0.7,0.9c-0.3,0.3-0.6,0.5-1.1,0.6
			c-0.4,0.2-0.8,0.3-1.3,0.3c-0.7,0-1.3-0.1-1.7-0.4c-0.4-0.3-0.7-0.8-0.7-1.5c0-0.3,0-0.5,0.1-0.8c0.1-0.3,0.2-0.6,0.4-0.8
			c0.2-0.3,0.5-0.4,0.9-0.6s1-0.3,1.6-0.3c0.6,0,1.2,0,1.6,0.1c0.4,0.1,0.8,0.1,1.1,0.2v1.3H539.2z"/>
		<path fill="#282561" d="M548.7,297.2c-0.5,0.3-1.1,0.4-1.8,0.4c-0.5,0-1-0.1-1.5-0.3c-0.4-0.2-0.8-0.5-1.1-0.9
			c-0.3-0.4-0.6-0.8-0.8-1.3s-0.3-1-0.3-1.5s0.1-1.1,0.3-1.5c0.2-0.5,0.4-0.9,0.8-1.3s0.7-0.6,1.1-0.9c0.4-0.3,1-0.3,1.5-0.3
			c0.6,0,1.2,0.1,1.7,0.3c0.4,0.3,0.8,0.6,1.1,1l0.7-0.5c-0.4-0.5-0.9-0.9-1.5-1.2c-0.6-0.3-1.3-0.4-2.1-0.4c-0.6,0-1.3,0.1-1.8,0.4
			c-0.6,0.3-1.1,0.6-1.5,1c-0.4,0.4-0.8,1-1,1.5c-0.3,0.6-0.4,1.2-0.4,1.9c0,0.7,0.1,1.3,0.3,1.9c0.3,0.6,0.6,1.1,1,1.5
			c0.4,0.4,0.9,0.8,1.5,1c0.6,0.3,1.2,0.4,1.8,0.4c0.8,0,1.5-0.1,2.1-0.4c0.6-0.3,1.1-0.7,1.5-1.1l-0.6-0.6
			C549.6,296.6,549.2,296.9,548.7,297.2z"/>
		<path fill="#282561" d="M558.8,296.8c-0.3,0.2-0.5,0.3-0.8,0.4c-0.3,0.1-0.6,0.2-0.9,0.3c-0.3,0.1-0.6,0.1-0.9,0.1
			c-0.6,0-1-0.1-1.5-0.3c-0.4-0.2-0.8-0.4-1.1-0.8c-0.3-0.3-0.6-0.8-0.8-1.2s-0.3-1-0.3-1.5h7.8c0-0.8-0.1-1.5-0.3-2.2
			c-0.2-0.6-0.5-1.1-0.9-1.6s-0.9-0.8-1.4-1c-0.5-0.2-1.1-0.3-1.8-0.3s-1.3,0.1-1.8,0.4c-0.6,0.3-1,0.6-1.4,1
			c-0.4,0.4-0.7,1-0.9,1.5c-0.2,0.6-0.3,1.2-0.3,1.9c0,0.7,0.1,1.4,0.4,2c0.3,0.6,0.6,1.1,1,1.5c0.4,0.4,0.9,0.8,1.5,1
			c0.6,0.3,1.2,0.3,1.9,0.3c0.7,0,1.4-0.1,2.1-0.4c0.7-0.3,1.2-0.7,1.7-1.2l-0.6-0.5C559.2,296.4,559.1,296.6,558.8,296.8z
			 M553,291.7c0.2-0.4,0.4-0.8,0.7-1.1c0.3-0.3,0.6-0.6,1.1-0.8c0.4-0.2,0.8-0.3,1.3-0.3c1,0,1.7,0.3,2.3,0.9c0.6,0.6,1,1.5,1.1,2.6
			h-6.9C552.7,292.6,552.8,292.1,553,291.7z"/>
	</g>
	<g>
		<path fill="#282561" d="M200.5,270c-1-1.1-2-2.1-2.9-2.9c-5.3-4.2-11.4-6.4-17.7-6.4c-9.8,0-18.7,5.3-23.9,14.1
			c-4.3,7-7.8,23.6-8.5,37.3h55.9v-39.3C202.4,272.1,201.4,271,200.5,270z"/>
		<path fill="#282561" d="M124.2,219.9c0.3,0.5,0.4,1,0.6,1.4c0.2,0.4,0.3,0.8,0.5,1.1c0.4,0.8,0.8,1.6,1.1,2.4
			c1.6,3.5,3,6.8,6.1,9.5c3.2,2.8,6.9,4.8,10.2,6.6c5.1,2.8,8.8,6.2,11.1,10c3.1,5.3,3.9,11.6,2.5,18.3c7-8.3,16.8-10.6,26.4-12.1
			c7.1-1.1,14-2.5,20.1-5.8c0.2-0.1,0.4-0.3,0.6-0.4v-31H124.2z"/>
		<path fill="#282561" d="M151.7,252.6c-2.2-4.9-9.1-11-22-13.5c-1.9-0.4-3.9-0.7-5.8-1c-4.1-0.6-8.1-1.3-12-2.5v76.6h30.5
			c0.3-2.2,0.6-4.3,1-6.2c0.2-1.1,0.4-2.1,0.5-2.9c1.1-7.3,3-14.9,5.9-23.8C152.8,270.3,155.3,260.9,151.7,252.6z"/>
		<path fill="#282561" d="M180.3,259L180.3,259C180.3,259,180.3,259,180.3,259C180.3,259.1,180.3,259.1,180.3,259
			c-0.1,0.1-0.1,0.1,0,0.1h0.1c1.9-0.3,4.3-0.3,7,0c5.5,0.4,11.4,1.7,15.9,3.3v-0.1v-1.2v-0.3C196.1,259,186.6,258.2,180.3,259z"/>
		<path fill="#282561" d="M122.7,231.8c4.5,3.4,9.5,5.7,13.3,7.2c0,0,0,0,0.1,0l0,0c0,0,0.1,0,0.1-0.1V239c0-0.1-0.1-0.1-0.1-0.1
			c-5-2.1-9.1-4.6-12.8-7.7c-2.3-2-6.5-6-9.3-11.3h-0.1h-1.8l0.1,0.1C114.9,224.7,118.3,228.5,122.7,231.8z"/>
	</g>
</g>
<g>
	<g>
		<path fill="none" stroke="#878787" stroke-width="2" stroke-linecap="round" stroke-miterlimit="10" stroke-dasharray="0.1,6" d="
			M579.6,130c0,153.1-407.1-108.1-416.3,71.6"/>
		<g>
			<polygon fill="#878787" points="163.1,208 159.8,198.9 163.3,201.2 167.1,199.2 			"/>
		</g>
	</g>
</g>
</svg>
