<?xml version="1.0" encoding="utf-8"?>
<!-- Generator: Adobe Illustrator 19.2.1, SVG Export Plug-In . SVG Version: 6.00 Build 0)  -->
<svg version="1.1" id="Layer_1" xmlns="http://www.w3.org/2000/svg" xmlns:xlink="http://www.w3.org/1999/xlink" x="0px" y="0px"
	 viewBox="0 0 672 415" style="enable-background:new 0 0 672 415;" xml:space="preserve">
<style type="text/css">
	.st0{fill:#282561;}
	.st1{font-family:'Calluna-Regular';}
	.st2{font-size:18.2174px;}
	.st3{fill:#878787;}
	.st4{font-size:36.4349px;}
	.st5{font-size:27.3262px;}
	.st6{fill:#610061;}
	.st7{font-family:'Calluna-Regular';}
	.st8{font-size:13.6631px;}
	.st9{fill:#006146;}
	.st10{fill:#612900;}
	.st11{fill:#0D0061;}
	.st12{fill:#116100;}
	.st13{fill:#2E0061;}
	.st14{fill:#006111;}
	.st15{fill:#61000B;}
	.st16{fill:#002961;}
	.st17{fill:#446100;}
	.st18{fill:#61002B;}
	.st19{fill:#004961;}
	.st20{fill:#615D00;}
	.st21{fill:#410061;}
	.st22{fill:#006125;}
	.st23{fill:none;stroke:#878787;stroke-width:2;stroke-linecap:round;stroke-miterlimit:10;stroke-dasharray:0.1,6;}
</style>
<g>
	<g>
		<text transform="matrix(1 0 0 1 205.8473 36.7656)" class="st0 st1 st2">working on</text>
		<text transform="matrix(1 0 0 1 196.5473 54.9656)" class="st0 st1 st2">software for a</text>
		<text transform="matrix(1 0 0 1 1.1984 53.8237)" class="st3 st1 st4">“</text>
		<g>
			<g>
				<text transform="matrix(1 0 0 1 481.8307 120.4604)" class="st0 st1 st5">Where do I go?</text>
			</g>
			<text transform="matrix(1 0 0 1 654.6149 124.1927)" class="st3 st1 st4">”</text>
		</g>
		<text transform="matrix(1 0 0 1 20.2619 45.8743)" class="st0 st1 st2">I’m a</text>
		<text transform="matrix(1 0 0 1 456.0026 45.8743)" class="st0 st1 st2">and I need</text>
		<text transform="matrix(1 0 0 1 657.3522 45.874)" class="st0 st1 st2">.</text>
		<g>
			<text transform="matrix(1 0 0 1 340.2253 11.7919)" class="st6 st7 st8">business idea</text>
			<text transform="matrix(1 0 0 1 321.1253 28.1918)" class="st9 st7 st8">interactive art piece</text>
			<text transform="matrix(1 0 0 1 321.7253 44.5919)" class="st10 st7 st8">open source project</text>
			<text transform="matrix(1 0 0 1 331.5253 60.9919)" class="st11 st7 st8">wild experiment</text>
			<text transform="matrix(1 0 0 1 342.4253 77.3918)" class="st12 st7 st8">labor of love</text>
			<g>
				<path class="st3" d="M308.2,41.6v-1.7c1.3-0.5,2.4-1.6,3.2-3.3c0.8-1.7,1.2-3.7,1.2-5.9c0-1.5-0.2-3.7-0.5-6.6
					c-0.3-2.7-0.5-5-0.5-7c0-4.3,0.7-8.1,2.1-11.3s3.2-5.1,5.3-5.7v1.6c-1.5,0.5-2.7,1.8-3.4,3.8c-0.8,2-1.1,4.2-1.1,6.6
					c0,1.8,0.1,4,0.4,6.5c0.3,3.1,0.4,5.5,0.4,7.4c0,3.5-0.5,6.4-1.6,8.9s-2.4,4.4-3.9,5.6c1.7,1.4,3.1,3.5,4.1,6.1s1.5,5.5,1.5,8.6
					c0,1.8-0.1,4.2-0.4,7.3c-0.2,2.6-0.4,4.8-0.4,6.5c0,5.5,1.5,9,4.5,10.7v1.5c-2.1-0.5-3.8-2.4-5.2-5.7c-1.4-3.3-2.1-7-2.1-11.2
					c0-2,0.1-4.2,0.4-6.8c0.3-3,0.5-5.2,0.5-6.7c0-2.1-0.4-4-1.1-5.8C310.8,43.3,309.7,42.1,308.2,41.6z"/>
			</g>
			<g>
				<path class="st3" d="M447.1,39.9v1.7c-1.3,0.5-2.4,1.6-3.2,3.3c-0.8,1.7-1.3,3.7-1.3,5.9c0,1.5,0.2,3.7,0.5,6.6
					c0.3,2.7,0.5,5,0.5,7c0,4.3-0.7,8.1-2.2,11.3c-1.4,3.2-3.2,5.1-5.2,5.7v-1.6c1.5-0.5,2.7-1.8,3.4-3.8c0.7-2,1.1-4.2,1.1-6.6
					c0-1.8-0.1-4-0.4-6.5c-0.3-3.1-0.4-5.5-0.4-7.4c0-3.4,0.5-6.4,1.6-8.9s2.4-4.4,3.9-5.6c-1.7-1.4-3.1-3.4-4.1-6.1
					c-1-2.6-1.5-5.5-1.5-8.7c0-1.8,0.1-4.2,0.4-7.3c0.2-2.6,0.4-4.8,0.4-6.5c0-5.5-1.5-9.1-4.5-10.7V0.1c2.1,0.5,3.8,2.5,5.2,5.7
					c1.4,3.3,2.1,7,2.1,11.2c0,2-0.1,4.2-0.4,6.8c-0.3,3-0.5,5.2-0.5,6.6c0,2.1,0.4,4.1,1.1,5.9C444.4,38.1,445.6,39.3,447.1,39.9z"
					/>
			</g>
		</g>
		<g>
			<text transform="matrix(1 0 0 1 91.4425 11.7919)" class="st13 st7 st8">programmer</text>
			<text transform="matrix(1 0 0 1 80.3425 28.1918)" class="st14 st7 st8">graphic designer</text>
			<text transform="matrix(1 0 0 1 85.4425 44.5919)" class="st15 st7 st8">communicator</text>
			<text transform="matrix(1 0 0 1 89.3425 60.9919)" class="st16 st7 st8">entrepreneur</text>
			<text transform="matrix(1 0 0 1 86.6425 77.3918)" class="st17 st7 st8">crazy dreamer</text>
			<g>
				<path class="st3" d="M66.3,41.5v-1.7c1.3-0.5,2.4-1.6,3.2-3.2c0.8-1.7,1.2-3.6,1.2-5.8c0-1.5-0.2-3.6-0.5-6.5
					c-0.3-2.6-0.5-4.9-0.5-6.9c0-4.2,0.7-7.9,2.1-11.1s3.2-5,5.3-5.6v1.6c-1.5,0.5-2.7,1.8-3.4,3.8c-0.8,2-1.1,4.2-1.1,6.5
					c0,1.8,0.1,3.9,0.4,6.4c0.3,3,0.4,5.4,0.4,7.3c0,3.4-0.5,6.3-1.6,8.7s-2.4,4.3-3.9,5.5c1.7,1.4,3.1,3.4,4.1,6s1.5,5.4,1.5,8.5
					c0,1.7-0.1,4.1-0.4,7.1c-0.2,2.5-0.4,4.7-0.4,6.4c0,5.4,1.5,8.9,4.5,10.5v1.5c-2.1-0.5-3.8-2.4-5.2-5.6c-1.4-3.2-2.1-6.9-2.1-11
					c0-1.9,0.1-4.2,0.4-6.7c0.3-3,0.5-5.2,0.5-6.5c0-2-0.4-3.9-1.1-5.7C68.9,43.3,67.8,42.1,66.3,41.5z"/>
			</g>
			<g>
				<path class="st3" d="M187.6,39.9v1.7c-1.3,0.5-2.4,1.5-3.2,3.2c-0.8,1.7-1.3,3.6-1.3,5.8c0,1.5,0.2,3.6,0.5,6.5
					c0.3,2.6,0.5,4.9,0.5,6.9c0,4.2-0.7,7.9-2.2,11.1c-1.4,3.2-3.2,5-5.2,5.6v-1.6c1.5-0.5,2.7-1.8,3.4-3.8s1.1-4.2,1.1-6.5
					c0-1.8-0.1-3.9-0.4-6.4c-0.3-3-0.4-5.4-0.4-7.3c0-3.4,0.5-6.3,1.6-8.7c1.1-2.5,2.4-4.3,3.9-5.5c-1.7-1.4-3.1-3.4-4.1-6
					s-1.5-5.4-1.5-8.5c0-1.7,0.1-4.1,0.4-7.1c0.2-2.5,0.4-4.7,0.4-6.4c0-5.4-1.5-8.9-4.5-10.5V0.8c2.1,0.5,3.8,2.4,5.2,5.6
					s2.1,6.9,2.1,11c0,1.9-0.1,4.2-0.4,6.7c-0.3,3-0.5,5.1-0.5,6.5c0,2.1,0.4,4,1.1,5.8C185,38.1,186.1,39.3,187.6,39.9z"/>
			</g>
		</g>
		<g>
			<text transform="matrix(1 0 0 1 558.7493 11.7917)" class="st18 st7 st8">collaborators</text>
			<text transform="matrix(1 0 0 1 556.6494 28.1916)" class="st19 st7 st8">technical help</text>
			<text transform="matrix(1 0 0 1 561.8493 44.5917)" class="st20 st7 st8">design skills</text>
			<text transform="matrix(1 0 0 1 570.9493 60.9916)" class="st21 st7 st8">guidance</text>
			<text transform="matrix(1 0 0 1 564.9493 77.3917)" class="st22 st7 st8">motivation</text>
			<g>
				<path class="st3" d="M543.3,41.2v-1.7c1.3-0.5,2.4-1.6,3.2-3.3c0.8-1.7,1.2-3.6,1.2-5.8c0-1.5-0.2-3.7-0.5-6.6
					c-0.3-2.7-0.5-5-0.5-6.9c0-4.3,0.7-8,2.1-11.2c1.4-3.2,3.2-5.1,5.3-5.7v1.6c-1.5,0.5-2.7,1.8-3.4,3.8c-0.8,2-1.1,4.2-1.1,6.5
					c0,1.8,0.1,3.9,0.4,6.5c0.3,3,0.4,5.5,0.4,7.3c0,3.4-0.5,6.4-1.6,8.8c-1.1,2.5-2.4,4.3-3.9,5.6c1.7,1.4,3.1,3.4,4.1,6.1
					c1,2.6,1.5,5.5,1.5,8.5c0,1.7-0.1,4.1-0.4,7.2c-0.2,2.6-0.4,4.7-0.4,6.4c0,5.4,1.5,9,4.5,10.6v1.5c-2.1-0.5-3.8-2.4-5.2-5.7
					c-1.4-3.3-2.1-7-2.1-11.1c0-1.9,0.1-4.2,0.4-6.8c0.3-3,0.5-5.2,0.5-6.6c0-2.1-0.4-4-1.1-5.8C545.9,42.9,544.8,41.8,543.3,41.2z"
					/>
			</g>
			<g>
				<path class="st3" d="M649,39.5v1.7c-1.3,0.5-2.4,1.5-3.2,3.3c-0.8,1.7-1.3,3.7-1.3,5.8c0,1.5,0.2,3.7,0.5,6.6
					c0.3,2.7,0.5,5,0.5,6.9c0,4.3-0.7,8-2.2,11.2c-1.4,3.2-3.2,5.1-5.2,5.6V79c1.5-0.5,2.7-1.8,3.4-3.8s1.1-4.2,1.1-6.5
					c0-1.8-0.1-3.9-0.4-6.5c-0.3-3-0.4-5.5-0.4-7.3c0-3.4,0.5-6.3,1.6-8.8s2.4-4.3,3.9-5.6c-1.7-1.4-3.1-3.4-4.1-6s-1.5-5.5-1.5-8.6
					c0-1.7,0.1-4.1,0.4-7.2c0.2-2.6,0.4-4.7,0.4-6.4c0-5.5-1.5-9-4.5-10.6V0.1c2.1,0.5,3.8,2.4,5.2,5.7s2.1,6.9,2.1,11.1
					c0,1.9-0.1,4.2-0.4,6.8c-0.3,3-0.5,5.2-0.5,6.6c0,2.1,0.4,4,1.1,5.8C646.4,37.8,647.5,38.9,649,39.5z"/>
			</g>
		</g>
	</g>
</g>
<g>
	<g>
		<path class="st0" d="M247.5,372.9l0.3,3.8h9.3v-54h-9.5v15.9c-0.7-0.3-1.3-0.5-1.8-0.8c-0.6-0.2-1.1-0.4-1.8-0.5
			c-0.6-0.1-1.4-0.3-2.2-0.3c-0.8-0.1-1.8-0.1-3.1-0.1c-1,0-2,0.1-3.2,0.4c-1.3,0.3-2.5,0.6-3.9,1.3c-1.3,0.6-2.7,1.3-3.9,2.2
			c-1.3,0.9-2.5,2-3.6,3.3c-1.3,1.6-2.4,3.6-3.2,5.8c-0.9,2.3-1.3,5-1.3,8c0,3.2,0.5,6,1.5,8.6c1,2.5,2.2,4.6,3.8,6.3
			c1.6,1.7,3.4,3,5.4,3.9s4.1,1.3,6.1,1.3c1.5,0,2.8-0.2,3.9-0.5c1.1-0.3,2.2-0.8,3.2-1.3s1.8-1.1,2.5-1.7
			C246.4,374,247,373.4,247.5,372.9z M242.7,368.6c-1.1,0.6-2.5,1-4.1,1c-3.1,0-5.5-1.1-7-3.3c-1.7-2.2-2.4-5-2.4-8.3
			c0-1.6,0.3-3.1,0.7-4.6s1.1-2.7,1.9-3.9c1-1.2,2-2.2,3.2-2.9c1.3-0.8,2.8-1.1,4.7-1.1s3.4,0.1,4.7,0.4c1.2,0.3,2.3,0.8,3.2,1.6
			v11.9c0,1.1-0.2,2.3-0.5,3.4c-0.3,1.2-0.8,2.3-1.5,3.3C244.8,367.1,243.8,367.9,242.7,368.6z"/>
		<path class="st0" d="M299.1,371l-5.2-6c-0.3,0.3-0.8,0.8-1.4,1.3s-1.4,1-2.4,1.5c-1,0.4-2.2,0.9-3.6,1.3s-3,0.5-4.8,0.5
			c-1.3,0-2.5-0.2-3.8-0.6s-2.4-1.1-3.4-1.9s-1.8-1.8-2.4-3c-0.6-1.1-1-2.5-1-3.9h28.4v-1.4c0-2.8-0.3-5.5-1-8.1s-1.7-5-3.2-7.1
			s-3.4-3.8-5.8-5.1s-5.3-2-8.8-2c-2.9,0-5.5,0.5-7.9,1.6c-2.3,1.1-4.4,2.5-6.1,4.3c-1.7,1.8-3,4-4,6.4c-1,2.5-1.4,5.1-1.4,8
			c0,3.2,0.4,6,1.4,8.6c1,2.6,2.3,4.8,4.1,6.7s3.9,3.3,6.4,4.4s5.3,1.6,8.3,1.6s5.5-0.3,7.7-1c2.2-0.6,3.9-1.4,5.3-2.2
			s2.4-1.6,3.2-2.3C298.4,371.8,298.9,371.2,299.1,371z M271.6,350.1c0.4-1,1.1-1.9,1.8-2.7c0.8-0.8,1.8-1.5,3-2s2.6-0.8,4.2-0.8
			c1.5,0,2.8,0.3,3.9,0.8s2.1,1.2,2.8,2c0.8,0.8,1.3,1.7,1.7,2.7c0.4,1,0.6,2,0.6,3h-18.7C271,352.1,271.3,351.1,271.6,350.1z"/>
		<polygon class="st0" points="341.4,337.8 331,337.8 320.7,365.6 310.4,337.8 299.4,337.8 315.6,376.7 325.4,376.7 		"/>
		<path class="st0" d="M348.8,371.9c1.7,1.8,3.7,3.2,6,4.3s5,1.5,7.8,1.5c1.9,0,3.7-0.1,5.2-0.4c1.6-0.3,3-0.6,4.2-1.1
			c1.3-0.4,2.3-1,3.3-1.6s1.8-1.1,2.4-1.7v-14.7h-13.3v2.7H375v10.9c-1.3,0.9-2.9,1.7-4.8,2.3c-2,0.7-4.4,1-7.5,1
			c-2.5,0-4.7-0.4-6.7-1.4s-3.7-2.2-5.1-3.8c-1.4-1.7-2.5-3.6-3.2-5.7c-0.7-2.2-1.1-4.5-1.1-7s0.4-4.9,1.1-7s1.8-4.1,3.2-5.7
			c1.4-1.6,3.1-2.9,5.1-3.8s4.3-1.4,6.9-1.4c1.8,0,3.5,0.3,4.8,0.8c1.4,0.6,2.5,1.2,3.5,1.9c1,0.7,1.7,1.4,2.3,2.1
			c0.6,0.7,1,1.2,1.2,1.5l2.1-1.5c-0.3-0.4-0.7-1-1.3-1.8c-0.6-0.8-1.5-1.7-2.7-2.5c-1.1-0.8-2.5-1.6-4.3-2.2c-1.7-0.6-3.7-1-6-1
			c-2.9,0-5.5,0.5-7.8,1.6c-2.3,1.1-4.4,2.5-6,4.4c-1.7,1.8-3,4.1-3.9,6.5c-1,2.5-1.4,5.2-1.4,8.1c0,3,0.4,5.8,1.4,8.4
			C345.9,367.9,347.1,370,348.8,371.9z"/>
		<path class="st0" d="M398.7,337.2l-16.1,39.4h3l5.1-12.7h18.5l5.1,12.7h3.2l-16.1-39.4C401.5,337.2,398.7,337.2,398.7,337.2z
			 M391.8,361.3l8.2-20.4l8.2,20.4H391.8z"/>
		<path class="st0" d="M440.3,359.2c2.9-0.7,5-2,6.3-4s2-4.3,2-6.8c0-1.6-0.3-3.1-0.8-4.4c-0.5-1.3-1.3-2.5-2.4-3.6
			c-1.1-1-2.5-1.8-4.3-2.3c-1.8-0.6-3.9-0.8-6.5-0.8h-11.9v39.4h2.9v-17.1h11.7l9.1,17.1h3.2L440.3,359.2z M435.8,356.9h-10.2v-17
			h9.8c3.3,0,5.8,0.7,7.6,2.1c1.7,1.4,2.5,3.6,2.5,6.4C445.6,354.1,442.3,356.9,435.8,356.9z"/>
		<path class="st0" d="M489.6,356.9c0-3.4-0.6-6.4-1.7-8.9s-2.6-4.5-4.6-6.1s-4.3-2.8-7-3.6s-5.7-1.1-8.9-1.1h-10.7v39.4h10.8
			c3.2,0,6.2-0.4,8.9-1.1c2.7-0.8,5-2,7-3.6s3.5-3.7,4.6-6.2C489,363.3,489.6,360.4,489.6,356.9z M485.3,364.5
			c-0.9,2.2-2.1,3.9-3.7,5.3s-3.6,2.5-5.8,3.2c-2.3,0.7-4.8,1-7.6,1h-8.5v-34.1h8.1c2.9,0,5.5,0.3,7.9,1c2.3,0.7,4.3,1.7,6,3.2
			c1.7,1.4,2.9,3.2,3.8,5.3c0.9,2.2,1.3,4.6,1.3,7.5S486.2,362.3,485.3,364.5z"/>
		<polygon class="st0" points="499.6,357.4 515.9,357.4 515.9,354.8 499.6,354.8 499.6,339.9 520.4,339.9 520.4,337.2 496.8,337.2 
			496.8,376.7 522,376.7 522,374 499.6,374 		"/>
		<polygon class="st0" points="559.6,376.7 559.6,337.2 556.8,337.2 556.8,372.4 531.5,337.2 528.5,337.2 528.5,376.7 531.3,376.7 
			531.3,342 556.6,376.7 		"/>
		<polygon class="st0" points="231.7,387.7 227,395.5 222.4,387.7 221.3,387.7 220.7,400.9 221.7,400.9 222.1,389.1 226.6,396.8 
			227.2,396.8 231.8,389.1 232.3,400.9 233.2,400.9 232.7,387.7 		"/>
		<path class="st0" d="M243.1,399.8c0-0.3,0-0.5,0-0.8v-4.2c0-1.1-0.3-2-1-2.5s-1.6-0.8-2.7-0.8c-0.8,0-1.5,0.1-2.1,0.4
			s-1,0.5-1.2,0.8l0.5,0.6c0.3-0.2,0.6-0.4,1-0.6s1-0.3,1.8-0.3c0.4,0,0.8,0.1,1.2,0.1c0.3,0.1,0.6,0.2,0.9,0.4
			c0.3,0.2,0.4,0.4,0.5,0.8c0.1,0.3,0.2,0.8,0.2,1.3v0.5c-0.3-0.1-0.7-0.1-1.1-0.1s-1-0.1-1.5-0.1c-0.7,0-1.3,0.1-1.8,0.3
			c-0.5,0.2-0.9,0.4-1.2,0.7c-0.3,0.3-0.6,0.6-0.7,1c-0.1,0.4-0.2,0.8-0.2,1.3c0,0.6,0.1,1,0.3,1.3c0.2,0.4,0.4,0.6,0.8,0.8
			c0.3,0.2,0.6,0.3,1,0.4s0.8,0.1,1.1,0.1s0.5,0,0.8-0.1s0.6-0.1,0.9-0.3c0.3-0.1,0.6-0.3,0.9-0.6c0.3-0.3,0.6-0.5,0.8-0.9
			c0,0.3,0,0.4,0,0.6s0,0.3,0,0.5c0,0.1,0,0.3,0,0.4h0.9c0-0.2,0-0.3-0.1-0.6C243.1,400.2,243.1,400,243.1,399.8z M242.2,397.6
			c0,0.3-0.1,0.7-0.3,1s-0.4,0.6-0.7,0.9s-0.6,0.5-1,0.6c-0.4,0.2-0.8,0.3-1.3,0.3c-0.7,0-1.3-0.1-1.7-0.4s-0.7-0.8-0.7-1.5
			c0-0.3,0-0.5,0.1-0.8s0.2-0.6,0.4-0.8c0.2-0.3,0.5-0.4,0.9-0.6s1-0.3,1.6-0.3s1.2,0,1.6,0.1c0.4,0.1,0.8,0.1,1,0.2L242.2,397.6
			L242.2,397.6L242.2,397.6z"/>
		<path class="st0" d="M251.7,400c-0.5,0.3-1.1,0.4-1.8,0.4c-0.5,0-1-0.1-1.5-0.3c-0.4-0.2-0.8-0.5-1.1-0.9s-0.6-0.8-0.8-1.3
			s-0.3-1-0.3-1.5s0.1-1.1,0.3-1.5c0.2-0.5,0.4-0.9,0.8-1.3c0.3-0.4,0.7-0.6,1.1-0.9c0.4-0.2,1-0.3,1.5-0.3c0.6,0,1.2,0.1,1.7,0.3
			c0.4,0.3,0.8,0.6,1.1,1l0.7-0.5c-0.4-0.5-0.9-0.9-1.5-1.2c-0.6-0.3-1.3-0.4-2.1-0.4c-0.6,0-1.3,0.1-1.8,0.4
			c-0.6,0.3-1.1,0.6-1.5,1s-0.8,1-1,1.5c-0.3,0.6-0.3,1.2-0.3,1.9c0,0.7,0.1,1.3,0.3,1.9c0.3,0.6,0.6,1.1,1,1.5s0.9,0.8,1.5,1
			c0.6,0.3,1.2,0.4,1.8,0.4c0.8,0,1.5-0.1,2.1-0.4s1.1-0.7,1.5-1.1l-0.6-0.6C252.6,399.4,252.2,399.7,251.7,400z"/>
		<path class="st0" d="M262.8,399.8c0-0.3,0-0.5,0-0.8v-4.2c0-1.1-0.3-2-1-2.5c-0.6-0.5-1.6-0.8-2.7-0.8c-0.8,0-1.5,0.1-2.1,0.4
			s-1,0.5-1.2,0.8l0.5,0.6c0.3-0.2,0.6-0.4,1-0.6s1-0.3,1.8-0.3c0.4,0,0.8,0.1,1.2,0.1c0.3,0.1,0.6,0.2,0.9,0.4
			c0.3,0.2,0.4,0.4,0.5,0.8c0.1,0.3,0.2,0.8,0.2,1.3v0.5c-0.3-0.1-0.7-0.1-1.1-0.1s-1-0.1-1.5-0.1c-0.7,0-1.3,0.1-1.8,0.3
			c-0.5,0.2-0.9,0.4-1.2,0.7c-0.3,0.3-0.6,0.6-0.7,1s-0.2,0.8-0.2,1.3c0,0.6,0.1,1,0.3,1.3c0.2,0.4,0.4,0.6,0.8,0.8
			c0.3,0.2,0.6,0.3,1,0.4s0.8,0.1,1.1,0.1c0.3,0,0.5,0,0.8-0.1s0.6-0.1,0.9-0.3c0.3-0.1,0.6-0.3,0.9-0.6c0.3-0.3,0.6-0.5,0.8-0.9
			c0,0.3,0,0.4,0,0.6s0,0.3,0,0.5c0,0.1,0,0.3,0,0.4h0.9c0-0.2,0-0.3-0.1-0.6C262.8,400.2,262.8,400,262.8,399.8z M261.9,397.6
			c0,0.3-0.1,0.7-0.3,1c-0.2,0.3-0.4,0.6-0.7,0.9c-0.3,0.3-0.6,0.5-1,0.6c-0.4,0.2-0.8,0.3-1.3,0.3c-0.7,0-1.3-0.1-1.7-0.4
			c-0.4-0.3-0.7-0.8-0.7-1.5c0-0.3,0-0.5,0.1-0.8s0.2-0.6,0.4-0.8c0.2-0.3,0.5-0.4,0.9-0.6s1-0.3,1.6-0.3s1.2,0,1.6,0.1
			s0.8,0.1,1,0.2v1.3L261.9,397.6L261.9,397.6z"/>
		<rect x="265.5" y="387.7" class="st0" width="0.9" height="13.3"/>
		<path class="st0" d="M277.2,394.4c-0.2-0.6-0.5-1.1-0.9-1.6c-0.4-0.4-0.9-0.8-1.4-1s-1.1-0.3-1.8-0.3s-1.3,0.1-1.8,0.4
			c-0.6,0.3-1,0.6-1.4,1s-0.7,1-0.9,1.5c-0.2,0.6-0.3,1.2-0.3,1.9c0,0.7,0.1,1.4,0.3,2c0.2,0.6,0.6,1.1,1,1.5s0.9,0.8,1.5,1
			c0.6,0.3,1.2,0.3,1.9,0.3c0.7,0,1.4-0.1,2.1-0.4s1.2-0.7,1.7-1.2l-0.6-0.5c-0.2,0.2-0.4,0.4-0.6,0.5c-0.3,0.2-0.5,0.3-0.8,0.4
			s-0.6,0.2-0.9,0.3c-0.3,0.1-0.6,0.1-0.9,0.1c-0.6,0-1-0.1-1.5-0.3s-0.8-0.4-1.1-0.8c-0.3-0.3-0.6-0.8-0.8-1.2
			c-0.2-0.4-0.3-1-0.3-1.5h7.8C277.5,395.8,277.4,395,277.2,394.4z M269.7,395.8c0-0.5,0.1-1,0.3-1.3c0.2-0.4,0.4-0.8,0.7-1.1
			c0.3-0.3,0.6-0.6,1-0.8c0.4-0.2,0.8-0.3,1.3-0.3c1,0,1.7,0.3,2.3,0.9c0.6,0.6,1,1.5,1.1,2.6L269.7,395.8L269.7,395.8L269.7,395.8z
			"/>
		<path class="st0" d="M285.6,396.6c-0.3-0.2-0.6-0.3-1-0.4s-0.8-0.2-1.1-0.3c-0.3-0.1-0.7-0.2-1-0.3s-0.6-0.2-0.9-0.3
			s-0.5-0.3-0.6-0.5c-0.2-0.2-0.3-0.4-0.3-0.8s0.1-0.6,0.2-0.9c0.1-0.2,0.3-0.4,0.6-0.5c0.3-0.1,0.5-0.2,0.8-0.3s0.6-0.1,0.9-0.1
			c0.6,0,1.1,0.1,1.5,0.3c0.4,0.2,0.8,0.5,1.1,0.8l0.6-0.6c-0.3-0.4-0.8-0.8-1.3-1c-0.6-0.3-1.2-0.4-1.9-0.4c-0.4,0-0.9,0.1-1.3,0.1
			c-0.4,0.1-0.8,0.3-1.1,0.4c-0.3,0.2-0.6,0.4-0.8,0.8c-0.2,0.3-0.3,0.7-0.3,1.1s0.1,0.8,0.2,1.1c0.1,0.3,0.3,0.5,0.6,0.7
			c0.3,0.2,0.6,0.3,0.9,0.4c0.4,0.1,0.8,0.3,1.1,0.3c0.5,0.1,1,0.3,1.3,0.3c0.4,0.1,0.7,0.2,1,0.4c0.3,0.1,0.4,0.3,0.6,0.5
			c0.1,0.2,0.2,0.5,0.2,0.8s-0.1,0.6-0.2,0.8c-0.1,0.2-0.3,0.4-0.6,0.5c-0.3,0.1-0.6,0.3-0.9,0.3c-0.3,0.1-0.7,0.1-1.1,0.1
			c-0.7,0-1.3-0.1-1.8-0.3c-0.5-0.2-1-0.5-1.3-0.9l-0.6,0.6c0.4,0.4,1,0.8,1.5,1c0.6,0.3,1.3,0.4,2.2,0.4c0.4,0,0.9-0.1,1.3-0.2
			s0.8-0.3,1.2-0.5c0.4-0.3,0.6-0.5,0.8-0.8c0.2-0.3,0.3-0.8,0.3-1.2s-0.1-0.8-0.3-1.1C286.1,396.8,285.9,396.9,285.6,396.6z"/>
		<path class="st0" d="M293.2,400.2c-0.3,0.1-0.5,0.2-0.9,0.2c-0.3,0-0.4,0-0.6-0.1s-0.4-0.2-0.5-0.3c-0.1-0.2-0.3-0.4-0.4-0.8
			c-0.1-0.3-0.1-0.8-0.1-1.3v-5.3h3v-0.8h-3v-3h-0.9v3H288v0.8h1.8v5.5c0,0.6,0.1,1.1,0.2,1.5s0.3,0.7,0.5,1s0.4,0.4,0.8,0.5
			c0.3,0.1,0.6,0.1,1,0.1c0.6,0,1-0.1,1.3-0.3c0.3-0.2,0.6-0.4,0.9-0.8l-0.6-0.5C293.7,399.9,293.5,400.1,293.2,400.2z"/>
		<path class="st0" d="M303.6,394.4c-0.2-0.6-0.5-1.1-0.9-1.6s-0.9-0.8-1.4-1s-1.1-0.3-1.8-0.3c-0.6,0-1.3,0.1-1.8,0.4
			c-0.6,0.3-1,0.6-1.4,1s-0.7,1-0.9,1.5c-0.2,0.6-0.3,1.2-0.3,1.9c0,0.7,0.1,1.4,0.3,2c0.2,0.6,0.6,1.1,1,1.5s0.9,0.8,1.5,1
			c0.6,0.3,1.2,0.3,1.9,0.3s1.4-0.1,2.1-0.4s1.2-0.7,1.7-1.2L303,399c-0.2,0.2-0.4,0.4-0.6,0.5c-0.3,0.2-0.5,0.3-0.8,0.4
			s-0.6,0.2-0.9,0.3c-0.3,0.1-0.6,0.1-0.9,0.1c-0.6,0-1-0.1-1.5-0.3s-0.8-0.4-1.1-0.8c-0.3-0.3-0.6-0.8-0.8-1.2
			c-0.2-0.4-0.3-1-0.3-1.5h7.8C304,395.8,303.8,395,303.6,394.4z M296.2,395.8c0-0.5,0.1-1,0.3-1.3c0.2-0.4,0.4-0.8,0.7-1.1
			c0.3-0.3,0.6-0.6,1-0.8c0.4-0.2,0.8-0.3,1.3-0.3c1,0,1.7,0.3,2.3,0.9c0.6,0.6,1,1.5,1.1,2.6L296.2,395.8L296.2,395.8L296.2,395.8z
			"/>
		<path class="st0" d="M309.2,391.9c-0.4,0.1-0.7,0.3-1,0.5s-0.5,0.4-0.7,0.7c-0.2,0.3-0.3,0.4-0.4,0.7c0-0.3,0-0.4,0-0.6
			s0-0.4,0-0.5s0-0.3,0-0.4s0-0.3,0-0.4h-0.9c0,0.1,0,0.3,0,0.4s0,0.3,0,0.4s0,0.3,0,0.5s0,0.4,0,0.6v7.2h0.9v-4.7
			c0-0.4,0.1-0.9,0.3-1.3c0.1-0.4,0.4-0.8,0.6-1.2c0.3-0.3,0.6-0.6,1-0.8s0.8-0.3,1.3-0.3c0.1,0,0.3,0,0.4,0s0.3,0.1,0.3,0.1
			l0.3-0.9c-0.2-0.1-0.4-0.1-0.8-0.1C310.1,391.7,309.6,391.7,309.2,391.9z"/>
		<path class="st0" d="M324.1,394.8c-0.4-0.3-0.8-0.5-1.3-0.7c-0.4-0.2-1-0.3-1.4-0.4s-0.9-0.3-1.3-0.4s-0.8-0.3-1.2-0.5
			c-0.4-0.2-0.6-0.4-0.9-0.8c-0.3-0.3-0.3-0.7-0.3-1.2c0-0.3,0.1-0.6,0.2-1c0.1-0.3,0.3-0.6,0.6-0.8c0.3-0.3,0.6-0.4,1-0.6
			c0.4-0.1,0.9-0.2,1.4-0.2s0.9,0.1,1.3,0.1c0.4,0.1,0.7,0.3,1,0.4s0.5,0.3,0.7,0.5s0.3,0.3,0.4,0.5l0.7-0.6
			c-0.1-0.2-0.3-0.4-0.6-0.6c-0.2-0.2-0.5-0.4-0.8-0.6s-0.7-0.3-1.1-0.4s-1-0.2-1.5-0.2c-0.6,0-1.2,0.1-1.8,0.3
			c-0.5,0.2-1,0.4-1.3,0.7c-0.4,0.3-0.6,0.6-0.8,1.1c-0.2,0.4-0.3,0.8-0.3,1.3c0,0.6,0.1,1.2,0.4,1.7c0.3,0.4,0.6,0.8,1,1
			c0.4,0.3,0.8,0.5,1.3,0.6c0.5,0.2,1,0.3,1.5,0.4c0.4,0.1,0.8,0.3,1.2,0.4c0.4,0.1,0.8,0.3,1.1,0.6c0.3,0.3,0.6,0.5,0.8,0.9
			c0.2,0.3,0.3,0.8,0.3,1.3c0,0.4-0.1,0.9-0.3,1.2c-0.2,0.4-0.4,0.6-0.7,0.9c-0.3,0.3-0.7,0.4-1.1,0.5s-0.9,0.2-1.4,0.2
			c-0.9,0-1.7-0.2-2.3-0.5c-0.6-0.3-1.1-0.8-1.7-1.3l-0.7,0.7c0.2,0.3,0.4,0.5,0.7,0.8c0.3,0.3,0.6,0.4,1,0.6s0.8,0.3,1.3,0.4
			s1,0.2,1.6,0.2s1.2-0.1,1.8-0.3c0.6-0.2,1-0.4,1.5-0.8c0.4-0.3,0.7-0.7,1-1.1s0.4-1,0.4-1.5c0-0.6-0.1-1.2-0.3-1.7
			C324.8,395.4,324.5,395,324.1,394.8z"/>
		<path class="st0" d="M335.3,392.9c-0.4-0.4-1-0.8-1.5-1c-0.6-0.3-1.2-0.4-1.8-0.4c-0.6,0-1.3,0.1-1.8,0.4c-0.6,0.3-1.1,0.6-1.5,1
			s-0.8,1-1,1.5c-0.3,0.6-0.4,1.2-0.4,1.9c0,0.7,0.1,1.3,0.4,1.9s0.6,1.1,1,1.5s1,0.8,1.5,1c0.6,0.3,1.2,0.4,1.8,0.4
			c0.6,0,1.3-0.1,1.8-0.4c0.6-0.3,1.1-0.6,1.5-1s0.8-1,1-1.5c0.3-0.6,0.4-1.2,0.4-1.9c0-0.7-0.1-1.3-0.4-1.9
			C336,393.9,335.7,393.4,335.3,392.9z M335.4,398c-0.2,0.5-0.4,0.9-0.8,1.3c-0.3,0.4-0.8,0.6-1.2,0.9c-0.4,0.2-1,0.3-1.5,0.3
			s-1-0.1-1.5-0.3c-0.4-0.2-0.9-0.5-1.2-0.9c-0.3-0.4-0.6-0.8-0.8-1.3c-0.2-0.5-0.3-1-0.3-1.5c0-0.6,0.1-1.1,0.3-1.6
			s0.4-0.9,0.8-1.3c0.3-0.4,0.8-0.6,1.2-0.9c0.4-0.2,1-0.3,1.5-0.3s1,0.1,1.5,0.3c0.4,0.2,0.9,0.5,1.2,0.9c0.3,0.4,0.6,0.8,0.8,1.3
			c0.2,0.5,0.3,1,0.3,1.5C335.7,396.9,335.6,397.4,335.4,398z"/>
		<path class="st0" d="M340.6,391.1c0-0.6,0.1-1.1,0.1-1.5c0.1-0.4,0.3-0.7,0.4-0.9c0.2-0.2,0.4-0.4,0.6-0.4
			c0.3-0.1,0.5-0.1,0.8-0.1c0.4,0,0.7,0.1,1,0.2s0.6,0.3,0.8,0.6l0.6-0.6c-0.3-0.3-0.6-0.6-1-0.8c-0.4-0.2-0.9-0.3-1.5-0.3
			c-0.9,0-1.7,0.3-2.1,0.9c-0.5,0.6-0.7,1.4-0.7,2.5v1.1h-1.8v0.8h1.8v8.3h0.9v-8.3h3v-0.8h-3v-0.7H340.6z"/>
		<path class="st0" d="M349.4,400.2c-0.3,0.1-0.5,0.2-0.9,0.2c-0.3,0-0.4,0-0.6-0.1s-0.4-0.2-0.5-0.3c-0.1-0.2-0.3-0.4-0.3-0.8
			c-0.1-0.3-0.1-0.8-0.1-1.3v-5.3h3v-0.8h-3v-3h-0.9v3h-1.8v0.8h1.8v5.5c0,0.6,0.1,1.1,0.2,1.5s0.3,0.7,0.5,1s0.4,0.4,0.8,0.5
			c0.3,0.1,0.6,0.1,1,0.1c0.6,0,1-0.1,1.3-0.3c0.3-0.2,0.6-0.4,0.9-0.8l-0.6-0.5C349.9,399.9,349.7,400.1,349.4,400.2z"/>
		<polygon class="st0" points="360.7,399.9 358.1,391.8 357.2,391.8 354.6,399.8 352,391.8 351,391.8 354.1,400.9 355,400.9 
			357.6,393.1 360.1,400.9 361.1,400.9 364,391.8 363.1,391.8 		"/>
		<path class="st0" d="M372.5,399.8c0-0.3,0-0.5,0-0.8v-4.2c0-1.1-0.3-2-1-2.5c-0.6-0.5-1.6-0.8-2.7-0.8c-0.8,0-1.5,0.1-2.1,0.4
			s-1,0.5-1.2,0.8l0.5,0.6c0.3-0.2,0.6-0.4,1-0.6c0.4-0.3,1.1-0.3,1.8-0.3c0.4,0,0.8,0.1,1.2,0.1c0.3,0.1,0.6,0.2,0.9,0.4
			c0.3,0.2,0.4,0.4,0.5,0.8c0.1,0.3,0.2,0.8,0.2,1.3v0.5c-0.3-0.1-0.7-0.1-1.1-0.1c-0.4-0.1-1-0.1-1.5-0.1c-0.7,0-1.3,0.1-1.8,0.3
			c-0.5,0.2-0.9,0.4-1.2,0.7c-0.3,0.3-0.6,0.6-0.7,1s-0.2,0.8-0.2,1.3c0,0.6,0.1,1,0.3,1.3c0.2,0.4,0.4,0.6,0.8,0.8
			c0.3,0.2,0.6,0.3,1,0.4s0.8,0.1,1.1,0.1c0.3,0,0.5,0,0.8-0.1s0.6-0.1,0.9-0.3c0.3-0.1,0.6-0.3,0.9-0.6c0.3-0.3,0.6-0.5,0.8-0.9
			c0,0.3,0,0.4,0,0.6s0,0.3,0,0.5c0,0.1,0,0.3,0,0.4h0.9c0-0.2,0-0.3-0.1-0.6C372.5,400.2,372.5,400,372.5,399.8z M371.6,397.6
			c0,0.3-0.1,0.7-0.3,1c-0.2,0.3-0.4,0.6-0.7,0.9c-0.3,0.3-0.6,0.5-1.1,0.6c-0.4,0.2-0.8,0.3-1.3,0.3c-0.7,0-1.3-0.1-1.7-0.4
			c-0.4-0.3-0.7-0.8-0.7-1.5c0-0.3,0-0.5,0.1-0.8s0.2-0.6,0.4-0.8c0.2-0.3,0.5-0.4,0.9-0.6s1-0.3,1.6-0.3s1.2,0,1.6,0.1
			s0.8,0.1,1.1,0.2v1.3L371.6,397.6L371.6,397.6z"/>
		<path class="st0" d="M378.2,391.9c-0.4,0.1-0.7,0.3-1,0.5s-0.5,0.4-0.7,0.7c-0.2,0.3-0.3,0.4-0.4,0.7c0-0.3,0-0.4,0-0.6
			s0-0.4,0-0.5s0-0.3,0-0.4s0-0.3,0-0.4h-0.8c0,0.1,0,0.3,0,0.4s0,0.3,0,0.4s0,0.3,0,0.5s0,0.4,0,0.6v7.2h0.9v-4.7
			c0-0.4,0.1-0.9,0.3-1.3c0.1-0.4,0.4-0.8,0.6-1.2c0.3-0.3,0.6-0.6,1-0.8c0.4-0.2,0.8-0.3,1.3-0.3c0.1,0,0.3,0,0.3,0l0.3,0.1
			l0.3-0.9c-0.2-0.1-0.4-0.1-0.8-0.1C379,391.7,378.6,391.7,378.2,391.9z"/>
		<path class="st0" d="M389.4,394.4c-0.2-0.6-0.5-1.1-0.9-1.6s-0.9-0.8-1.4-1s-1.1-0.3-1.8-0.3c-0.6,0-1.3,0.1-1.8,0.4
			c-0.6,0.3-1,0.6-1.4,1s-0.7,1-0.9,1.5c-0.2,0.6-0.3,1.2-0.3,1.9c0,0.7,0.1,1.4,0.4,2s0.6,1.1,1,1.5s0.9,0.8,1.5,1
			c0.6,0.3,1.2,0.3,1.9,0.3s1.4-0.1,2.1-0.4s1.2-0.7,1.7-1.2l-0.6-0.5c-0.2,0.2-0.4,0.4-0.6,0.5c-0.3,0.2-0.5,0.3-0.8,0.4
			s-0.6,0.2-0.9,0.3c-0.3,0.1-0.6,0.1-0.9,0.1c-0.6,0-1-0.1-1.5-0.3c-0.4-0.2-0.8-0.4-1.1-0.8c-0.3-0.3-0.6-0.8-0.8-1.2
			c-0.2-0.4-0.3-1-0.3-1.5h7.8C389.7,395.8,389.6,395,389.4,394.4z M381.9,395.8c0-0.5,0.1-1,0.3-1.3c0.2-0.4,0.4-0.8,0.7-1.1
			c0.3-0.3,0.6-0.6,1.1-0.8c0.4-0.2,0.8-0.3,1.3-0.3c1,0,1.7,0.3,2.3,0.9c0.6,0.6,1,1.5,1.1,2.6L381.9,395.8L381.9,395.8
			L381.9,395.8z"/>
		<path class="st0" d="M397.8,390c0.4-0.6,1-1,1.7-1.3s1.5-0.4,2.3-0.4c0.7,0,1.3,0.1,1.7,0.3c0.5,0.2,0.9,0.4,1.2,0.6
			c0.3,0.3,0.6,0.4,0.8,0.7c0.2,0.3,0.3,0.4,0.4,0.5l0.7-0.5c-0.1-0.1-0.3-0.3-0.4-0.6c-0.2-0.3-0.5-0.6-0.9-0.8
			c-0.4-0.3-0.9-0.5-1.5-0.8c-0.6-0.2-1.3-0.3-2-0.3c-1,0-1.8,0.2-2.6,0.5c-0.8,0.4-1.5,0.8-2,1.5c-0.6,0.6-1,1.4-1.3,2.2
			c-0.3,0.8-0.4,1.8-0.4,2.7c0,1,0.1,1.9,0.4,2.8c0.3,0.8,0.8,1.6,1.3,2.2s1.3,1.1,2,1.5c0.8,0.4,1.7,0.5,2.6,0.5
			c0.8,0,1.5-0.1,2-0.3c0.6-0.2,1.1-0.4,1.5-0.8s0.7-0.6,0.9-0.8c0.2-0.3,0.4-0.5,0.4-0.6l-0.7-0.5c-0.1,0.1-0.2,0.3-0.4,0.5
			c-0.2,0.3-0.4,0.4-0.8,0.7c-0.3,0.3-0.7,0.4-1.2,0.6c-0.4,0.2-1,0.3-1.7,0.3c-0.9,0-1.7-0.1-2.3-0.4c-0.7-0.3-1.3-0.8-1.7-1.3
			c-0.4-0.6-0.8-1.2-1.1-1.9c-0.3-0.8-0.4-1.5-0.4-2.4c0-0.8,0.1-1.7,0.4-2.4C397,391.2,397.4,390.5,397.8,390z"/>
		<path class="st0" d="M416.2,392.9c-0.4-0.4-1-0.8-1.5-1c-0.6-0.3-1.2-0.4-1.8-0.4c-0.6,0-1.3,0.1-1.8,0.4c-0.6,0.3-1.1,0.6-1.5,1
			s-0.8,1-1,1.5c-0.3,0.6-0.4,1.2-0.4,1.9c0,0.7,0.1,1.3,0.4,1.9s0.6,1.1,1,1.5s1,0.8,1.5,1c0.6,0.3,1.2,0.4,1.8,0.4
			c0.6,0,1.3-0.1,1.8-0.4c0.6-0.3,1.1-0.6,1.5-1s0.8-1,1-1.5c0.3-0.6,0.4-1.2,0.4-1.9c0-0.7-0.1-1.3-0.4-1.9
			C417,393.9,416.7,393.4,416.2,392.9z M416.4,398c-0.2,0.5-0.4,0.9-0.8,1.3c-0.3,0.4-0.8,0.6-1.2,0.9c-0.4,0.3-1,0.3-1.5,0.3
			s-1-0.1-1.5-0.3c-0.4-0.2-0.9-0.5-1.2-0.9c-0.3-0.4-0.6-0.8-0.8-1.3c-0.2-0.5-0.3-1-0.3-1.5c0-0.6,0.1-1.1,0.3-1.6
			s0.4-0.9,0.8-1.3c0.3-0.4,0.8-0.6,1.2-0.9c0.4-0.3,1-0.3,1.5-0.3s1,0.1,1.5,0.3c0.4,0.2,0.9,0.5,1.2,0.9c0.3,0.4,0.6,0.8,0.8,1.3
			s0.3,1,0.3,1.5C416.7,396.9,416.6,397.4,416.4,398z"/>
		<rect x="419.9" y="387.7" class="st0" width="0.9" height="13.3"/>
		<rect x="423.5" y="387.7" class="st0" width="0.9" height="13.3"/>
		<path class="st0" d="M434.3,399.8c0-0.3,0-0.5,0-0.8v-4.2c0-1.1-0.3-2-1-2.5c-0.6-0.5-1.6-0.8-2.7-0.8c-0.8,0-1.5,0.1-2.1,0.4
			s-1,0.5-1.2,0.8l0.5,0.6c0.3-0.2,0.6-0.4,1-0.6c0.4-0.3,1.1-0.3,1.8-0.3c0.4,0,0.8,0.1,1.2,0.1c0.3,0.1,0.6,0.2,0.9,0.4
			c0.3,0.2,0.4,0.4,0.5,0.8c0.1,0.3,0.2,0.8,0.2,1.3v0.5c-0.3-0.1-0.7-0.1-1.1-0.1c-0.4-0.1-1-0.1-1.5-0.1c-0.7,0-1.3,0.1-1.8,0.3
			c-0.5,0.2-0.9,0.4-1.2,0.7c-0.3,0.3-0.6,0.6-0.7,1s-0.2,0.8-0.2,1.3c0,0.6,0.1,1,0.3,1.3c0.2,0.4,0.4,0.6,0.8,0.8
			c0.3,0.2,0.6,0.3,1,0.4s0.8,0.1,1.1,0.1c0.3,0,0.5,0,0.8-0.1s0.6-0.1,0.9-0.3c0.3-0.1,0.6-0.3,0.9-0.6c0.3-0.3,0.6-0.5,0.8-0.9
			c0,0.3,0,0.4,0,0.6s0,0.3,0,0.5c0,0.1,0,0.3,0,0.4h0.9c0-0.2,0-0.3-0.1-0.6C434.3,400.2,434.3,400,434.3,399.8z M433.4,397.6
			c0,0.3-0.1,0.7-0.3,1c-0.2,0.3-0.4,0.6-0.7,0.9c-0.3,0.3-0.6,0.5-1.1,0.6c-0.4,0.2-0.8,0.3-1.3,0.3c-0.7,0-1.3-0.1-1.7-0.4
			c-0.4-0.3-0.7-0.8-0.7-1.5c0-0.3,0-0.5,0.1-0.8s0.2-0.6,0.4-0.8c0.2-0.3,0.5-0.4,0.9-0.6s1-0.3,1.6-0.3s1.2,0,1.6,0.1
			s0.8,0.1,1.1,0.2v1.3L433.4,397.6L433.4,397.6z"/>
		<path class="st0" d="M444.4,392.9c-0.3-0.4-0.8-0.8-1.3-1c-0.5-0.3-1.1-0.4-1.8-0.4c-0.5,0-1,0.1-1.3,0.2c-0.4,0.1-0.7,0.3-1,0.4
			c-0.3,0.2-0.5,0.4-0.7,0.6c-0.2,0.3-0.3,0.4-0.4,0.6v-5.8h-0.8v13c0.4,0.2,0.8,0.3,1.4,0.4s1.2,0.2,1.9,0.2s1.4-0.1,2-0.3
			c0.6-0.2,1.1-0.5,1.6-1c0.4-0.4,0.8-0.9,1.1-1.5c0.3-0.6,0.4-1.3,0.4-2s-0.1-1.3-0.3-1.9C445,393.9,444.8,393.4,444.4,392.9z
			 M444.2,398.1c-0.2,0.5-0.5,0.9-0.9,1.3c-0.4,0.3-0.8,0.6-1.3,0.8c-0.5,0.2-1,0.3-1.7,0.3s-1.2-0.1-1.7-0.1
			c-0.4-0.1-0.7-0.2-0.8-0.2v-3.9c0-0.4,0.1-0.8,0.2-1.2c0.1-0.4,0.3-0.8,0.6-1.2c0.3-0.4,0.6-0.6,1-0.9s0.9-0.4,1.5-0.4
			s1.1,0.1,1.5,0.3s0.8,0.5,1,0.9c0.3,0.4,0.4,0.8,0.6,1.3s0.2,1,0.2,1.5C444.5,397,444.4,397.6,444.2,398.1z"/>
		<path class="st0" d="M455.4,392.9c-0.4-0.4-1-0.8-1.5-1c-0.6-0.3-1.2-0.4-1.8-0.4c-0.6,0-1.3,0.1-1.8,0.4c-0.6,0.3-1.1,0.6-1.5,1
			s-0.8,1-1,1.5c-0.3,0.6-0.4,1.2-0.4,1.9c0,0.7,0.1,1.3,0.4,1.9s0.6,1.1,1,1.5s1,0.8,1.5,1c0.6,0.3,1.2,0.4,1.8,0.4
			c0.6,0,1.3-0.1,1.8-0.4c0.6-0.3,1.1-0.6,1.5-1s0.8-1,1-1.5c0.3-0.6,0.4-1.2,0.4-1.9c0-0.7-0.1-1.3-0.4-1.9
			C456.1,393.9,455.8,393.4,455.4,392.9z M455.5,398c-0.2,0.5-0.4,0.9-0.8,1.3c-0.3,0.4-0.8,0.6-1.2,0.9c-0.4,0.3-1,0.3-1.5,0.3
			s-1-0.1-1.5-0.3c-0.4-0.2-0.9-0.5-1.2-0.9c-0.3-0.4-0.6-0.8-0.8-1.3c-0.2-0.5-0.3-1-0.3-1.5c0-0.6,0.1-1.1,0.3-1.6
			s0.4-0.9,0.8-1.3c0.3-0.4,0.8-0.6,1.2-0.9c0.4-0.3,1-0.3,1.5-0.3s1,0.1,1.5,0.3c0.4,0.2,0.9,0.5,1.2,0.9c0.3,0.4,0.6,0.8,0.8,1.3
			s0.3,1,0.3,1.5S455.7,397.4,455.5,398z"/>
		<path class="st0" d="M462,391.9c-0.4,0.1-0.7,0.3-1,0.5s-0.5,0.4-0.7,0.7c-0.2,0.3-0.3,0.4-0.4,0.7c0-0.3,0-0.4,0-0.6s0-0.4,0-0.5
			s0-0.3,0-0.4s0-0.3,0-0.4h-0.8c0,0.1,0,0.3,0,0.4s0,0.3,0,0.4s0,0.3,0,0.5s0,0.4,0,0.6v7.2h0.9v-4.7c0-0.4,0.1-0.9,0.3-1.3
			c0.1-0.4,0.4-0.8,0.6-1.2c0.3-0.3,0.6-0.6,1-0.8c0.4-0.2,0.8-0.3,1.3-0.3c0.1,0,0.3,0,0.3,0l0.3,0.1l0.3-0.9
			c-0.2-0.1-0.4-0.1-0.8-0.1C462.9,391.7,462.4,391.7,462,391.9z"/>
		<path class="st0" d="M472.2,399.8c0-0.3,0-0.5,0-0.8v-4.2c0-1.1-0.3-2-1-2.5s-1.6-0.8-2.7-0.8c-0.8,0-1.5,0.1-2.1,0.4
			s-1,0.5-1.2,0.8l0.5,0.6c0.3-0.2,0.6-0.4,1-0.6c0.4-0.3,1.1-0.3,1.8-0.3c0.4,0,0.8,0.1,1.2,0.1c0.3,0.1,0.6,0.2,0.9,0.4
			c0.3,0.2,0.4,0.4,0.5,0.8c0.1,0.3,0.2,0.8,0.2,1.3v0.5c-0.3-0.1-0.7-0.1-1.1-0.1c-0.4-0.1-1-0.1-1.5-0.1c-0.7,0-1.3,0.1-1.8,0.3
			c-0.5,0.2-0.9,0.4-1.2,0.7c-0.3,0.3-0.6,0.6-0.7,1s-0.2,0.8-0.2,1.3c0,0.6,0.1,1,0.3,1.3c0.2,0.4,0.4,0.6,0.8,0.8
			c0.3,0.2,0.6,0.3,1,0.4s0.8,0.1,1.1,0.1c0.3,0,0.5,0,0.8-0.1s0.6-0.1,0.9-0.3c0.3-0.1,0.6-0.3,0.9-0.6c0.3-0.3,0.6-0.5,0.8-0.9
			c0,0.3,0,0.4,0,0.6s0,0.3,0,0.5c0,0.1,0,0.3,0,0.4h0.9c0-0.2,0-0.3-0.1-0.6C472.2,400.2,472.2,400,472.2,399.8z M471.4,397.6
			c0,0.3-0.1,0.7-0.3,1c-0.2,0.3-0.4,0.6-0.7,0.9c-0.3,0.3-0.6,0.5-1.1,0.6c-0.4,0.2-0.8,0.3-1.3,0.3c-0.7,0-1.3-0.1-1.7-0.4
			c-0.4-0.3-0.7-0.8-0.7-1.5c0-0.3,0-0.5,0.1-0.8s0.2-0.6,0.4-0.8c0.2-0.3,0.5-0.4,0.9-0.6s1-0.3,1.6-0.3s1.2,0,1.6,0.1
			s0.8,0.1,1.1,0.2v1.3L471.4,397.6L471.4,397.6z"/>
		<path class="st0" d="M479.2,400.2c-0.3,0.1-0.5,0.2-0.9,0.2c-0.3,0-0.4,0-0.6-0.1s-0.4-0.2-0.5-0.3c-0.1-0.2-0.3-0.4-0.3-0.8
			c-0.1-0.3-0.1-0.8-0.1-1.3v-5.3h3v-0.8h-3v-3h-1v3H474v0.8h1.8v5.5c0,0.6,0.1,1.1,0.2,1.5s0.3,0.7,0.5,1s0.4,0.4,0.8,0.5
			c0.3,0.1,0.6,0.1,1,0.1c0.6,0,1-0.1,1.3-0.3c0.3-0.2,0.6-0.4,0.9-0.8l-0.6-0.5C479.7,399.9,479.4,400.1,479.2,400.2z"/>
		<rect x="481.9" y="388.6" class="st0" width="1.3" height="1.3"/>
		<rect x="482.1" y="391.8" class="st0" width="0.9" height="9.2"/>
		<path class="st0" d="M493.4,392.9c-0.4-0.4-1-0.8-1.5-1c-0.6-0.3-1.2-0.4-1.8-0.4c-0.6,0-1.3,0.1-1.8,0.4c-0.6,0.3-1.1,0.6-1.5,1
			s-0.8,1-1,1.5c-0.3,0.6-0.4,1.2-0.4,1.9c0,0.7,0.1,1.3,0.4,1.9s0.6,1.1,1,1.5s1,0.8,1.5,1c0.6,0.3,1.2,0.4,1.8,0.4
			c0.6,0,1.3-0.1,1.8-0.4c0.6-0.3,1.1-0.6,1.5-1s0.8-1,1-1.5c0.3-0.6,0.4-1.2,0.4-1.9c0-0.7-0.1-1.3-0.4-1.9
			C494.2,393.9,493.8,393.4,493.4,392.9z M493.6,398c-0.2,0.5-0.4,0.9-0.8,1.3c-0.3,0.4-0.8,0.6-1.2,0.9c-0.4,0.3-1,0.3-1.5,0.3
			s-1-0.1-1.5-0.3c-0.4-0.2-0.9-0.5-1.2-0.9c-0.3-0.4-0.6-0.8-0.8-1.3c-0.2-0.5-0.3-1-0.3-1.5c0-0.6,0.1-1.1,0.3-1.6
			c0.2-0.5,0.4-0.9,0.8-1.3c0.3-0.4,0.8-0.6,1.2-0.9c0.4-0.3,1-0.3,1.5-0.3s1,0.1,1.5,0.3c0.4,0.2,0.9,0.5,1.2,0.9
			c0.3,0.4,0.6,0.8,0.8,1.3c0.2,0.4,0.3,1,0.3,1.5C493.8,396.9,493.8,397.4,493.6,398z"/>
		<path class="st0" d="M504.3,392.6c-0.3-0.4-0.6-0.6-1.1-0.8c-0.4-0.2-1-0.3-1.7-0.3c-0.5,0-1,0.1-1.4,0.2s-0.8,0.3-1,0.6
			c-0.3,0.2-0.5,0.4-0.7,0.7c-0.2,0.3-0.3,0.5-0.4,0.7c0-0.3,0-0.4,0-0.6s0-0.3,0-0.5c0-0.1,0-0.3,0-0.4s0-0.3,0-0.4h-0.8
			c0,0.1,0,0.3,0,0.4s0,0.3,0,0.4s0,0.3,0,0.5s0,0.4,0,0.6v7.2h0.9v-4.7c0-0.4,0.1-0.9,0.2-1.3s0.4-0.9,0.6-1.2
			c0.3-0.4,0.6-0.7,1.1-0.9c0.4-0.3,1-0.4,1.5-0.4c0.4,0,0.8,0.1,1.1,0.2c0.3,0.1,0.6,0.3,0.9,0.6c0.3,0.3,0.4,0.6,0.5,1.1
			s0.2,1,0.2,1.7v5.1h0.9v-5.4c0-0.6-0.1-1.1-0.2-1.7C504.8,393.5,504.6,393,504.3,392.6z"/>
		<path class="st0" d="M518.9,394.8c-0.4-0.3-0.8-0.5-1.3-0.7c-0.4-0.2-1-0.3-1.4-0.4s-0.9-0.3-1.3-0.4c-0.4-0.1-0.8-0.3-1.2-0.5
			s-0.6-0.4-0.9-0.8s-0.3-0.7-0.3-1.2c0-0.3,0.1-0.6,0.2-1c0.1-0.3,0.3-0.6,0.6-0.8c0.3-0.3,0.6-0.4,1-0.6c0.4-0.1,0.9-0.2,1.4-0.2
			s0.9,0.1,1.3,0.1c0.4,0.1,0.7,0.3,1,0.4s0.5,0.3,0.7,0.5s0.3,0.3,0.4,0.5l0.7-0.6c-0.1-0.2-0.3-0.4-0.6-0.6
			c-0.2-0.2-0.5-0.4-0.8-0.6s-0.7-0.3-1.1-0.4c-0.4-0.1-1-0.2-1.5-0.2c-0.6,0-1.2,0.1-1.8,0.3c-0.5,0.2-1,0.4-1.3,0.7
			c-0.4,0.3-0.6,0.6-0.8,1.1s-0.3,0.8-0.3,1.3c0,0.6,0.1,1.2,0.4,1.7c0.3,0.4,0.6,0.8,1,1c0.4,0.3,0.8,0.5,1.3,0.6
			c0.5,0.2,1,0.3,1.5,0.4c0.4,0.1,0.8,0.3,1.2,0.4s0.8,0.3,1.1,0.6c0.3,0.3,0.6,0.5,0.8,0.9s0.3,0.8,0.3,1.3c0,0.4-0.1,0.9-0.3,1.2
			c-0.2,0.4-0.4,0.6-0.7,0.9s-0.7,0.4-1.1,0.5c-0.4,0.1-0.9,0.2-1.4,0.2c-0.9,0-1.7-0.2-2.3-0.5s-1.1-0.8-1.7-1.3l-0.7,0.7
			c0.2,0.3,0.4,0.5,0.7,0.8c0.3,0.3,0.6,0.4,1,0.6s0.8,0.3,1.3,0.4s1,0.2,1.6,0.2s1.2-0.1,1.8-0.3c0.6-0.2,1-0.4,1.5-0.8
			c0.4-0.3,0.7-0.7,1-1.1s0.4-1,0.4-1.5c0-0.6-0.1-1.2-0.4-1.7C519.6,395.4,519.2,395,518.9,394.8z"/>
		<path class="st0" d="M529.7,392.9c-0.3-0.4-0.8-0.8-1.3-1c-0.5-0.3-1.1-0.4-1.8-0.4c-0.6,0-1,0.1-1.5,0.3c-0.4,0.2-0.8,0.3-1,0.6
			c-0.3,0.2-0.5,0.4-0.6,0.6s-0.3,0.4-0.3,0.5c0-0.2,0-0.4,0-0.6s0-0.3,0-0.4s0-0.3,0-0.3c0-0.1,0-0.3,0-0.4h-0.8c0,0.1,0,0.3,0,0.4
			s0,0.3,0,0.4s0,0.3,0,0.5s0,0.4,0,0.6v11.2h0.9v-4.6c0.3,0.2,0.8,0.4,1.2,0.6s1,0.3,1.7,0.3c0.6,0,1.3-0.1,1.8-0.3
			c0.6-0.3,1.1-0.6,1.5-1s0.8-1,1-1.5c0.3-0.6,0.4-1.2,0.4-2c0-0.7-0.1-1.3-0.3-1.9C530.2,393.9,530,393.4,529.7,392.9z
			 M529.4,398.1c-0.2,0.5-0.4,0.9-0.8,1.2c-0.3,0.3-0.7,0.6-1.2,0.8c-0.4,0.2-1,0.3-1.5,0.3c-0.4,0-0.8-0.1-1.1-0.1
			c-0.3-0.1-0.6-0.2-0.8-0.3c-0.3-0.1-0.4-0.2-0.6-0.3c-0.2-0.1-0.3-0.2-0.4-0.3v-2.9c0-0.3,0-0.7,0.1-1s0.1-0.6,0.2-0.9
			c0.1-0.3,0.3-0.6,0.4-0.8c0.2-0.3,0.4-0.5,0.6-0.7c0.3-0.2,0.6-0.4,0.9-0.5c0.3-0.1,0.7-0.2,1.1-0.2c0.6,0,1.1,0.1,1.5,0.3
			c0.4,0.2,0.8,0.5,1,0.9s0.4,0.8,0.6,1.3s0.2,1,0.2,1.5C529.7,397.1,529.6,397.6,529.4,398.1z"/>
		<path class="st0" d="M540.1,399.8c0-0.3,0-0.5,0-0.8v-4.2c0-1.1-0.3-2-1-2.5c-0.6-0.5-1.6-0.8-2.7-0.8c-0.8,0-1.5,0.1-2.1,0.4
			s-1,0.5-1.2,0.8l0.5,0.6c0.3-0.2,0.6-0.4,1-0.6c0.4-0.3,1.1-0.3,1.8-0.3c0.4,0,0.8,0.1,1.2,0.1c0.3,0.1,0.6,0.2,0.9,0.4
			c0.3,0.2,0.4,0.4,0.5,0.8c0.1,0.3,0.2,0.8,0.2,1.3v0.5c-0.3-0.1-0.7-0.1-1.1-0.1c-0.4-0.1-1-0.1-1.5-0.1c-0.7,0-1.3,0.1-1.8,0.3
			c-0.5,0.2-0.9,0.4-1.2,0.7c-0.3,0.3-0.6,0.6-0.7,1s-0.2,0.8-0.2,1.3c0,0.6,0.1,1,0.3,1.3c0.2,0.4,0.4,0.6,0.8,0.8
			c0.3,0.2,0.6,0.3,1,0.4s0.8,0.1,1.1,0.1s0.5,0,0.8-0.1s0.6-0.1,0.9-0.3c0.3-0.1,0.6-0.3,0.9-0.6c0.3-0.3,0.6-0.5,0.8-0.9
			c0,0.3,0,0.4,0,0.6s0,0.3,0,0.5c0,0.1,0,0.3,0,0.4h0.9c0-0.2,0-0.3-0.1-0.6C540.1,400.2,540.1,400,540.1,399.8z M539.2,397.6
			c0,0.3-0.1,0.7-0.3,1s-0.4,0.6-0.7,0.9s-0.6,0.5-1.1,0.6c-0.4,0.2-0.8,0.3-1.3,0.3c-0.7,0-1.3-0.1-1.7-0.4s-0.7-0.8-0.7-1.5
			c0-0.3,0-0.5,0.1-0.8s0.2-0.6,0.4-0.8c0.2-0.3,0.5-0.4,0.9-0.6s1-0.3,1.6-0.3s1.2,0,1.6,0.1c0.4,0.1,0.8,0.1,1.1,0.2v1.3
			L539.2,397.6L539.2,397.6z"/>
		<path class="st0" d="M548.7,400c-0.5,0.3-1.1,0.4-1.8,0.4c-0.5,0-1-0.1-1.5-0.3c-0.4-0.2-0.8-0.5-1.1-0.9s-0.6-0.8-0.8-1.3
			s-0.3-1-0.3-1.5s0.1-1.1,0.3-1.5c0.2-0.5,0.4-0.9,0.8-1.3s0.7-0.6,1.1-0.9c0.4-0.3,1-0.3,1.5-0.3c0.6,0,1.2,0.1,1.7,0.3
			c0.4,0.3,0.8,0.6,1.1,1l0.7-0.5c-0.4-0.5-0.9-0.9-1.5-1.2c-0.6-0.3-1.3-0.4-2.1-0.4c-0.6,0-1.3,0.1-1.8,0.4
			c-0.6,0.3-1.1,0.6-1.5,1s-0.8,1-1,1.5c-0.3,0.6-0.4,1.2-0.4,1.9c0,0.7,0.1,1.3,0.3,1.9c0.3,0.6,0.6,1.1,1,1.5s0.9,0.8,1.5,1
			c0.6,0.3,1.2,0.4,1.8,0.4c0.8,0,1.5-0.1,2.1-0.4s1.1-0.7,1.5-1.1l-0.6-0.6C549.6,399.4,549.2,399.7,548.7,400z"/>
		<path class="st0" d="M558.8,399.6c-0.3,0.2-0.5,0.3-0.8,0.4s-0.6,0.2-0.9,0.3c-0.3,0.1-0.6,0.1-0.9,0.1c-0.6,0-1-0.1-1.5-0.3
			c-0.4-0.2-0.8-0.4-1.1-0.8c-0.3-0.3-0.6-0.8-0.8-1.2s-0.3-1-0.3-1.5h7.8c0-0.8-0.1-1.5-0.3-2.2c-0.2-0.6-0.5-1.1-0.9-1.6
			s-0.9-0.8-1.4-1s-1.1-0.3-1.8-0.3s-1.3,0.1-1.8,0.4c-0.6,0.3-1,0.6-1.4,1s-0.7,1-0.9,1.5c-0.2,0.6-0.3,1.2-0.3,1.9
			c0,0.7,0.1,1.4,0.4,2c0.3,0.6,0.6,1.1,1,1.5s0.9,0.8,1.5,1c0.6,0.3,1.2,0.3,1.9,0.3s1.4-0.1,2.1-0.4c0.7-0.3,1.2-0.7,1.7-1.2
			l-0.6-0.5C559.2,399.2,559.1,399.4,558.8,399.6z M553,394.5c0.2-0.4,0.4-0.8,0.7-1.1c0.3-0.3,0.6-0.6,1.1-0.8
			c0.4-0.2,0.8-0.3,1.3-0.3c1,0,1.7,0.3,2.3,0.9s1,1.5,1.1,2.6h-6.9C552.7,395.4,552.8,394.9,553,394.5z"/>
	</g>
	<g>
		<path class="st0" d="M200.5,372.8c-1-1.1-2-2.1-2.9-2.9c-5.3-4.2-11.4-6.4-17.7-6.4c-9.8,0-18.7,5.3-23.9,14.1
			c-4.3,7-7.8,23.6-8.5,37.3h55.9v-39.3C202.4,374.9,201.4,373.8,200.5,372.8z"/>
		<path class="st0" d="M124.2,322.7c0.3,0.5,0.4,1,0.6,1.4s0.3,0.8,0.5,1.1c0.4,0.8,0.8,1.6,1.1,2.4c1.6,3.5,3,6.8,6.1,9.5
			c3.2,2.8,6.9,4.8,10.2,6.6c5.1,2.8,8.8,6.2,11.1,10c3.1,5.3,3.9,11.6,2.5,18.3c7-8.3,16.8-10.6,26.4-12.1c7.1-1.1,14-2.5,20.1-5.8
			c0.2-0.1,0.4-0.3,0.6-0.4v-31L124.2,322.7L124.2,322.7z"/>
		<path class="st0" d="M151.7,355.4c-2.2-4.9-9.1-11-22-13.5c-1.9-0.4-3.9-0.7-5.8-1c-4.1-0.6-8.1-1.3-12-2.5V415h30.5
			c0.3-2.2,0.6-4.3,1-6.2c0.2-1.1,0.4-2.1,0.5-2.9c1.1-7.3,3-14.9,5.9-23.8C152.8,373.1,155.3,363.7,151.7,355.4z"/>
		<path class="st0" d="M180.3,361.8L180.3,361.8L180.3,361.8C180.3,361.9,180.3,361.9,180.3,361.8c-0.1,0.1-0.1,0.1,0,0.1h0.1
			c1.9-0.3,4.3-0.3,7,0c5.5,0.4,11.4,1.7,15.9,3.3v-0.1v-1.2v-0.3C196.1,361.8,186.6,361,180.3,361.8z"/>
		<path class="st0" d="M122.7,334.6c4.5,3.4,9.5,5.7,13.3,7.2c0,0,0,0,0.1,0l0,0c0,0,0.1,0,0.1-0.1v0.1c0-0.1-0.1-0.1-0.1-0.1
			c-5-2.1-9.1-4.6-12.8-7.7c-2.3-2-6.5-6-9.3-11.3h-0.1h-1.8l0.1,0.1C114.9,327.5,118.3,331.3,122.7,334.6z"/>
	</g>
</g>
<g>
	<g>
		<path class="st23" d="M579.6,142.1c0,153.1-407.1-17.4-416.3,162.3"/>
		<g>
			<polygon class="st3" points="163.1,310.8 159.8,301.7 163.3,304 167.1,302 			"/>
		</g>
	</g>
</g>
</svg>
