<?xml version="1.0" encoding="utf-8"?>
<!-- Generator: Adobe Illustrator 19.2.1, SVG Export Plug-In . SVG Version: 6.00 Build 0)  -->
<svg version="1.1" id="Layer_1" xmlns="http://www.w3.org/2000/svg" xmlns:xlink="http://www.w3.org/1999/xlink" x="0px" y="0px"
	 viewBox="0 0 672 286.4" enable-background="new 0 0 672 286.4" xml:space="preserve">
<g>
	<g>
		<text transform="matrix(1 0 0 1 205.8473 36.6654)"><tspan x="0" y="0" fill="#282561" font-family="'FreightTextProBook-Regular'" font-size="18.2174px">working on</tspan><tspan x="-9.3" y="18.2" fill="#282561" font-family="'FreightTextProBook-Regular'" font-size="18.2174px">software for a</tspan></text>
		
			<text transform="matrix(1 0 0 1 2.1984 53.7235)" fill="#878787" font-family="'FreightTextProBook-Regular'" font-size="36.4349px">“</text>
		<g>
			<g>
				<text transform="matrix(1 0 0 1 486.8307 110.3602)"><tspan x="0" y="0" fill="#282561" font-family="'FreightTextProBook-Regular'" font-size="27.3262px">Where do I g</tspan><tspan x="144" y="0" fill="#282561" font-family="'FreightTextProBook-Regular'" font-size="27.3262px" letter-spacing="-1">o</tspan><tspan x="156.5" y="0" fill="#282561" font-family="'FreightTextProBook-Regular'" font-size="27.3262px">?</tspan></text>
			</g>
			
				<text transform="matrix(1 0 0 1 654.6149 115.0926)" fill="#878787" font-family="'FreightTextProBook-Regular'" font-size="36.4349px">”</text>
		</g>
		
			<text transform="matrix(1 0 0 1 20.2619 45.7742)" fill="#282561" font-family="'FreightTextProBook-Regular'" font-size="18.2174px">I’m a</text>
		
			<text transform="matrix(1 0 0 1 456.0026 45.7742)" fill="#282561" font-family="'FreightTextProBook-Regular'" font-size="18.2174px">and I need</text>
		
			<text transform="matrix(1 0 0 1 657.3522 45.7738)" fill="#282561" font-family="'FreightTextProBook-Regular'" font-size="18.2174px">.</text>
		<g>
			<text transform="matrix(1 0 0 1 340.2253 11.6917)"><tspan x="0" y="0" fill="#612561" font-family="'FreightTextProMedium-Regular'" font-size="13.6631px">business idea</tspan><tspan x="-19.1" y="16.4" fill="#256150" font-family="'FreightTextProMedium-Regular'" font-size="13.6631px">interactive art piece</tspan><tspan x="-18.5" y="32.8" fill="#613E25" font-family="'FreightTextProMedium-Regular'" font-size="13.6631px">open source project</tspan><tspan x="-8.7" y="49.2" fill="#2D2561" font-family="'FreightTextProMedium-Regular'" font-size="13.6631px">wild experiment</tspan><tspan x="2.2" y="65.6" fill="#2F6125" font-family="'FreightTextProMedium-Regular'" font-size="13.6631px">labor of love</tspan></text>
			<g>
				<path fill="#878787" d="M308.2,41.5v-1.7c1.3-0.5,2.4-1.6,3.2-3.3c0.8-1.7,1.2-3.7,1.2-5.9c0-1.5-0.2-3.7-0.5-6.6
					c-0.3-2.7-0.5-5-0.5-7c0-4.3,0.7-8.1,2.1-11.3c1.4-3.2,3.2-5.1,5.3-5.7v1.6c-1.5,0.5-2.7,1.8-3.4,3.8c-0.8,2-1.1,4.2-1.1,6.6
					c0,1.8,0.1,4,0.4,6.5c0.3,3.1,0.4,5.5,0.4,7.4c0,3.5-0.5,6.4-1.6,8.9c-1.1,2.5-2.4,4.4-3.9,5.6c1.7,1.4,3.1,3.5,4.1,6.1
					c1,2.6,1.5,5.5,1.5,8.6c0,1.8-0.1,4.2-0.4,7.3c-0.2,2.6-0.4,4.8-0.4,6.5c0,5.5,1.5,9,4.5,10.7v1.5c-2.1-0.5-3.8-2.4-5.2-5.7
					c-1.4-3.3-2.1-7-2.1-11.2c0-2,0.1-4.2,0.4-6.8c0.3-3,0.5-5.2,0.5-6.7c0-2.1-0.4-4-1.1-5.8C310.8,43.2,309.7,42,308.2,41.5z"/>
			</g>
			<g>
				<path fill="#878787" d="M447.1,39.8v1.7c-1.3,0.5-2.4,1.6-3.2,3.3c-0.8,1.7-1.3,3.7-1.3,5.9c0,1.5,0.2,3.7,0.5,6.6
					c0.3,2.7,0.5,5,0.5,7c0,4.3-0.7,8.1-2.2,11.3c-1.4,3.2-3.2,5.1-5.2,5.7v-1.6c1.5-0.5,2.7-1.8,3.4-3.8c0.7-2,1.1-4.2,1.1-6.6
					c0-1.8-0.1-4-0.4-6.5c-0.3-3.1-0.4-5.5-0.4-7.4c0-3.4,0.5-6.4,1.6-8.9c1.1-2.5,2.4-4.4,3.9-5.6c-1.7-1.4-3.1-3.4-4.1-6.1
					c-1-2.6-1.5-5.5-1.5-8.7c0-1.8,0.1-4.2,0.4-7.3c0.2-2.6,0.4-4.8,0.4-6.5c0-5.5-1.5-9.1-4.5-10.7V0c2.1,0.5,3.8,2.5,5.2,5.7
					c1.4,3.3,2.1,7,2.1,11.2c0,2-0.1,4.2-0.4,6.8c-0.3,3-0.5,5.2-0.5,6.6c0,2.1,0.4,4.1,1.1,5.9C444.4,38,445.6,39.2,447.1,39.8z"/>
			</g>
		</g>
		<g>
			<text transform="matrix(1 0 0 1 91.4425 11.6917)"><tspan x="0" y="0" fill="#412561" font-family="'FreightTextProMedium-Regular'" font-size="13.6631px">programmer</tspan><tspan x="-11.1" y="16.4" fill="#25612F" font-family="'FreightTextProMedium-Regular'" font-size="13.6631px">graphic designer</tspan><tspan x="-6" y="32.8" fill="#61252C" font-family="'FreightTextProMedium-Regular'" font-size="13.6631px">communicator</tspan><tspan x="-2.1" y="49.2" fill="#253E61" font-family="'FreightTextProMedium-Regular'" font-size="13.6631px">entrepreneur</tspan><tspan x="-4.8" y="65.6" fill="#4F6125" font-family="'FreightTextProMedium-Regular'" font-size="13.6631px">crazy dreamer</tspan></text>
			<g>
				<path fill="#878787" d="M66.3,41.4v-1.7c1.3-0.5,2.4-1.6,3.2-3.2c0.8-1.7,1.2-3.6,1.2-5.8c0-1.5-0.2-3.6-0.5-6.5
					c-0.3-2.6-0.5-4.9-0.5-6.9c0-4.2,0.7-7.9,2.1-11.1s3.2-5,5.3-5.6v1.6c-1.5,0.5-2.7,1.8-3.4,3.8c-0.8,2-1.1,4.2-1.1,6.5
					c0,1.8,0.1,3.9,0.4,6.4c0.3,3,0.4,5.4,0.4,7.3c0,3.4-0.5,6.3-1.6,8.7c-1.1,2.4-2.4,4.3-3.9,5.5c1.7,1.4,3.1,3.4,4.1,6
					c1,2.6,1.5,5.4,1.5,8.5c0,1.7-0.1,4.1-0.4,7.1c-0.2,2.5-0.4,4.7-0.4,6.4c0,5.4,1.5,8.9,4.5,10.5v1.5c-2.1-0.5-3.8-2.4-5.2-5.6
					c-1.4-3.2-2.1-6.9-2.1-11c0-1.9,0.1-4.2,0.4-6.7c0.3-3,0.5-5.2,0.5-6.5c0-2-0.4-3.9-1.1-5.7C68.9,43.2,67.8,42,66.3,41.4z"/>
			</g>
			<g>
				<path fill="#878787" d="M187.6,39.8v1.7c-1.3,0.5-2.4,1.5-3.2,3.2c-0.8,1.7-1.3,3.6-1.3,5.8c0,1.5,0.2,3.6,0.5,6.5
					c0.3,2.6,0.5,4.9,0.5,6.9c0,4.2-0.7,7.9-2.2,11.1c-1.4,3.2-3.2,5-5.2,5.6v-1.6c1.5-0.5,2.7-1.8,3.4-3.8c0.7-2,1.1-4.2,1.1-6.5
					c0-1.8-0.1-3.9-0.4-6.4c-0.3-3-0.4-5.4-0.4-7.3c0-3.4,0.5-6.3,1.6-8.7c1.1-2.5,2.4-4.3,3.9-5.5c-1.7-1.4-3.1-3.4-4.1-6
					s-1.5-5.4-1.5-8.5c0-1.7,0.1-4.1,0.4-7.1c0.2-2.5,0.4-4.7,0.4-6.4c0-5.4-1.5-8.9-4.5-10.5V0.7c2.1,0.5,3.8,2.4,5.2,5.6
					c1.4,3.2,2.1,6.9,2.1,11c0,1.9-0.1,4.2-0.4,6.7c-0.3,3-0.5,5.1-0.5,6.5c0,2.1,0.4,4,1.1,5.8C185,38,186.1,39.2,187.6,39.8z"/>
			</g>
		</g>
		<g>
			<text transform="matrix(1 0 0 1 558.7493 11.6915)"><tspan x="0" y="0" fill="#612540" font-family="'FreightTextProMedium-Regular'" font-size="13.6631px">collaborators</tspan><tspan x="-2.1" y="16.4" fill="#255261" font-family="'FreightTextProMedium-Regular'" font-size="13.6631px">technical help</tspan><tspan x="3.1" y="32.8" fill="#615F25" font-family="'FreightTextProMedium-Regular'" font-size="13.6631px">design skills</tspan><tspan x="12.2" y="49.2" fill="#4D2561" font-family="'FreightTextProMedium-Regular'" font-size="13.6631px">guidance</tspan><tspan x="6.2" y="65.6" fill="#25613C" font-family="'FreightTextProMedium-Regular'" font-size="13.6631px">motivation</tspan></text>
			<g>
				<path fill="#878787" d="M543.3,41.1v-1.7c1.3-0.5,2.4-1.6,3.2-3.3c0.8-1.7,1.2-3.6,1.2-5.8c0-1.5-0.2-3.7-0.5-6.6
					c-0.3-2.7-0.5-5-0.5-6.9c0-4.3,0.7-8,2.1-11.2c1.4-3.2,3.2-5.1,5.3-5.7v1.6c-1.5,0.5-2.7,1.8-3.4,3.8c-0.8,2-1.1,4.2-1.1,6.5
					c0,1.8,0.1,3.9,0.4,6.5c0.3,3,0.4,5.5,0.4,7.3c0,3.4-0.5,6.4-1.6,8.8c-1.1,2.5-2.4,4.3-3.9,5.6c1.7,1.4,3.1,3.4,4.1,6.1
					c1,2.6,1.5,5.5,1.5,8.5c0,1.7-0.1,4.1-0.4,7.2c-0.2,2.6-0.4,4.7-0.4,6.4c0,5.4,1.5,9,4.5,10.6v1.5c-2.1-0.5-3.8-2.4-5.2-5.7
					c-1.4-3.3-2.1-7-2.1-11.1c0-1.9,0.1-4.2,0.4-6.8c0.3-3,0.5-5.2,0.5-6.6c0-2.1-0.4-4-1.1-5.8C545.9,42.8,544.8,41.7,543.3,41.1z"
					/>
			</g>
			<g>
				<path fill="#878787" d="M649,39.4v1.7c-1.3,0.5-2.4,1.5-3.2,3.3c-0.8,1.7-1.3,3.7-1.3,5.8c0,1.5,0.2,3.7,0.5,6.6
					c0.3,2.7,0.5,5,0.5,6.9c0,4.3-0.7,8-2.2,11.2c-1.4,3.2-3.2,5.1-5.2,5.6v-1.6c1.5-0.5,2.7-1.8,3.4-3.8c0.7-2,1.1-4.2,1.1-6.5
					c0-1.8-0.1-3.9-0.4-6.5c-0.3-3-0.4-5.5-0.4-7.3c0-3.4,0.5-6.3,1.6-8.8c1.1-2.5,2.4-4.3,3.9-5.6c-1.7-1.4-3.1-3.4-4.1-6
					c-1-2.6-1.5-5.5-1.5-8.6c0-1.7,0.1-4.1,0.4-7.2c0.2-2.6,0.4-4.7,0.4-6.4c0-5.5-1.5-9-4.5-10.6V0c2.1,0.5,3.8,2.4,5.2,5.7
					c1.4,3.3,2.1,6.9,2.1,11.1c0,1.9-0.1,4.2-0.4,6.8c-0.3,3-0.5,5.2-0.5,6.6c0,2.1,0.4,4,1.1,5.8C646.4,37.7,647.5,38.8,649,39.4z"
					/>
			</g>
		</g>
	</g>
</g>
<g>
	<g>
		<path fill="#282561" d="M247.5,244.3l0.3,3.8h9.3v-54h-9.5V210c-0.7-0.3-1.3-0.5-1.8-0.8c-0.6-0.2-1.1-0.4-1.8-0.5
			c-0.6-0.1-1.4-0.3-2.2-0.3c-0.8-0.1-1.8-0.1-3.1-0.1c-1,0-2,0.1-3.2,0.4c-1.3,0.3-2.5,0.6-3.9,1.3c-1.3,0.6-2.7,1.3-3.9,2.2
			c-1.3,0.9-2.5,2-3.6,3.3c-1.3,1.6-2.4,3.6-3.2,5.8c-0.9,2.3-1.3,5-1.3,8c0,3.2,0.5,6,1.5,8.6c1,2.5,2.2,4.6,3.8,6.3s3.4,3,5.4,3.9
			c2,0.9,4.1,1.3,6.1,1.3c1.5,0,2.8-0.2,3.9-0.5c1.1-0.3,2.2-0.8,3.2-1.3s1.8-1.1,2.5-1.7C246.4,245.4,247,244.8,247.5,244.3z
			 M242.7,239.9c-1.1,0.6-2.5,1-4.1,1c-3.1,0-5.5-1.1-7-3.3c-1.7-2.2-2.4-5-2.4-8.3c0-1.6,0.3-3.1,0.7-4.6c0.4-1.5,1.1-2.7,1.9-3.9
			c1-1.2,2-2.2,3.2-2.9c1.3-0.8,2.8-1.1,4.7-1.1s3.4,0.1,4.7,0.4c1.2,0.3,2.3,0.8,3.2,1.6v11.9c0,1.1-0.2,2.3-0.5,3.4
			c-0.3,1.2-0.8,2.3-1.5,3.3C244.8,238.5,243.8,239.3,242.7,239.9z"/>
		<path fill="#282561" d="M299.1,242.4l-5.2-6c-0.3,0.3-0.8,0.8-1.4,1.3c-0.6,0.5-1.4,1-2.4,1.5c-1,0.4-2.2,0.9-3.6,1.3
			c-1.4,0.4-3,0.5-4.8,0.5c-1.3,0-2.5-0.2-3.8-0.6c-1.3-0.4-2.4-1.1-3.4-1.9s-1.8-1.8-2.4-3c-0.6-1.1-1-2.5-1-3.9h28.4v-1.4
			c0-2.8-0.3-5.5-1-8.1c-0.6-2.7-1.7-5-3.2-7.1c-1.5-2.1-3.4-3.8-5.8-5.1c-2.4-1.3-5.3-2-8.8-2c-2.9,0-5.5,0.5-7.9,1.6
			c-2.3,1.1-4.4,2.5-6.1,4.3s-3,4-4,6.4c-1,2.5-1.4,5.1-1.4,8c0,3.2,0.4,6,1.4,8.6s2.3,4.8,4.1,6.7c1.8,1.8,3.9,3.3,6.4,4.4
			c2.5,1.1,5.3,1.6,8.3,1.6c3,0,5.5-0.3,7.7-1c2.2-0.6,3.9-1.4,5.3-2.2s2.4-1.6,3.2-2.3C298.4,243.2,298.9,242.6,299.1,242.4z
			 M271.6,221.5c0.4-1,1.1-1.9,1.8-2.7c0.8-0.8,1.8-1.5,3-2s2.6-0.8,4.2-0.8c1.5,0,2.8,0.3,3.9,0.8c1.1,0.5,2.1,1.2,2.8,2
			c0.8,0.8,1.3,1.7,1.7,2.7c0.4,1,0.6,2,0.6,3h-18.7C271,223.5,271.3,222.5,271.6,221.5z"/>
		<polygon fill="#282561" points="341.4,209.1 331,209.1 320.7,237 310.4,209.1 299.4,209.1 315.6,248.1 325.4,248.1 		"/>
		<path fill="#282561" d="M348.8,243.2c1.7,1.8,3.7,3.2,6,4.3c2.3,1,5,1.5,7.8,1.5c1.9,0,3.7-0.1,5.2-0.4c1.6-0.3,3-0.6,4.2-1.1
			c1.3-0.4,2.3-1,3.3-1.6c1-0.6,1.8-1.1,2.4-1.7v-14.7h-13.3v2.7H375V243c-1.3,0.9-2.9,1.7-4.8,2.3c-2,0.7-4.4,1-7.5,1
			c-2.5,0-4.7-0.4-6.7-1.4c-2-1-3.7-2.2-5.1-3.8c-1.4-1.7-2.5-3.6-3.2-5.7c-0.7-2.2-1.1-4.5-1.1-7c0-2.5,0.4-4.9,1.1-7
			s1.8-4.1,3.2-5.7c1.4-1.6,3.1-2.9,5.1-3.8s4.3-1.4,6.9-1.4c1.8,0,3.5,0.3,4.8,0.8c1.4,0.6,2.5,1.2,3.5,1.9s1.7,1.4,2.3,2.1
			c0.6,0.7,1,1.2,1.2,1.5l2.1-1.5c-0.3-0.4-0.7-1-1.3-1.8c-0.6-0.8-1.5-1.7-2.7-2.5c-1.1-0.8-2.5-1.6-4.3-2.2c-1.7-0.6-3.7-1-6-1
			c-2.9,0-5.5,0.5-7.8,1.6s-4.4,2.5-6,4.4c-1.7,1.8-3,4.1-3.9,6.5c-1,2.5-1.4,5.2-1.4,8.1c0,3,0.4,5.8,1.4,8.4
			C345.9,239.2,347.1,241.4,348.8,243.2z"/>
		<path fill="#282561" d="M398.7,208.6l-16.1,39.4h3l5.1-12.7h18.5l5.1,12.7h3.2l-16.1-39.4C401.5,208.6,398.7,208.6,398.7,208.6z
			 M391.8,232.7l8.2-20.4l8.2,20.4H391.8z"/>
		<path fill="#282561" d="M440.3,230.6c2.9-0.7,5-2,6.3-4c1.3-2,2-4.3,2-6.8c0-1.6-0.3-3.1-0.8-4.4c-0.5-1.3-1.3-2.5-2.4-3.6
			c-1.1-1-2.5-1.8-4.3-2.3c-1.8-0.6-3.9-0.8-6.5-0.8h-11.9v39.4h2.9V231h11.7l9.1,17.1h3.2L440.3,230.6z M435.8,228.3h-10.2v-17h9.8
			c3.3,0,5.8,0.7,7.6,2.1c1.7,1.4,2.5,3.6,2.5,6.4C445.6,225.5,442.3,228.3,435.8,228.3z"/>
		<path fill="#282561" d="M489.6,228.3c0-3.4-0.6-6.4-1.7-8.9c-1.1-2.5-2.6-4.5-4.6-6.1s-4.3-2.8-7-3.6c-2.7-0.8-5.7-1.1-8.9-1.1
			h-10.7v39.4h10.8c3.2,0,6.2-0.4,8.9-1.1c2.7-0.8,5-2,7-3.6s3.5-3.7,4.6-6.2C489,234.7,489.6,231.8,489.6,228.3z M485.3,235.9
			c-0.9,2.2-2.1,3.9-3.7,5.3c-1.6,1.4-3.6,2.5-5.8,3.2c-2.3,0.7-4.8,1-7.6,1h-8.5v-34.1h8.1c2.9,0,5.5,0.3,7.9,1
			c2.3,0.7,4.3,1.7,6,3.2c1.7,1.4,2.9,3.2,3.8,5.3c0.9,2.2,1.3,4.6,1.3,7.5S486.2,233.7,485.3,235.9z"/>
		<polygon fill="#282561" points="499.6,228.8 515.9,228.8 515.9,226.2 499.6,226.2 499.6,211.3 520.4,211.3 520.4,208.6 
			496.8,208.6 496.8,248.1 522,248.1 522,245.4 499.6,245.4 		"/>
		<polygon fill="#282561" points="559.6,248.1 559.6,208.6 556.8,208.6 556.8,243.8 531.5,208.6 528.5,208.6 528.5,248.1 
			531.3,248.1 531.3,213.4 556.6,248.1 		"/>
		<polygon fill="#282561" points="231.7,259.1 227,266.9 222.4,259.1 221.3,259.1 220.7,272.3 221.7,272.3 222.1,260.5 226.6,268.1 
			227.2,268.1 231.8,260.5 232.3,272.3 233.2,272.3 232.7,259.1 		"/>
		<path fill="#282561" d="M243.1,271.2c0-0.3,0-0.5,0-0.8v-4.3c0-1.1-0.3-2-1-2.5c-0.6-0.5-1.6-0.8-2.7-0.8c-0.8,0-1.5,0.1-2.1,0.4
			c-0.6,0.3-1,0.5-1.2,0.8l0.5,0.6c0.3-0.2,0.6-0.4,1-0.6c0.4-0.2,1-0.3,1.8-0.3c0.4,0,0.8,0.1,1.2,0.1c0.3,0.1,0.6,0.2,0.9,0.4
			c0.3,0.2,0.4,0.4,0.5,0.8c0.1,0.3,0.2,0.8,0.2,1.3v0.5c-0.3-0.1-0.7-0.1-1.1-0.1s-1-0.1-1.5-0.1c-0.7,0-1.3,0.1-1.8,0.3
			c-0.5,0.2-0.9,0.4-1.2,0.7c-0.3,0.3-0.6,0.6-0.7,1c-0.1,0.4-0.2,0.8-0.2,1.3c0,0.6,0.1,1,0.3,1.3c0.2,0.4,0.4,0.6,0.8,0.8
			c0.3,0.2,0.6,0.3,1,0.4c0.4,0.1,0.8,0.1,1.1,0.1c0.3,0,0.5,0,0.8-0.1c0.3-0.1,0.6-0.1,0.9-0.3c0.3-0.1,0.6-0.3,0.9-0.6
			c0.3-0.3,0.6-0.5,0.8-0.9c0,0.3,0,0.4,0,0.6c0,0.2,0,0.3,0,0.5c0,0.1,0,0.3,0,0.4h0.9c0-0.2,0-0.3-0.1-0.6
			C243.1,271.6,243.1,271.4,243.1,271.2z M242.2,269c0,0.3-0.1,0.7-0.3,1c-0.2,0.3-0.4,0.6-0.7,0.9c-0.3,0.3-0.6,0.5-1,0.6
			c-0.4,0.2-0.8,0.3-1.3,0.3c-0.7,0-1.3-0.1-1.7-0.4c-0.4-0.3-0.7-0.8-0.7-1.5c0-0.3,0-0.5,0.1-0.8c0.1-0.3,0.2-0.6,0.4-0.8
			c0.2-0.3,0.5-0.4,0.9-0.6s1-0.3,1.6-0.3c0.6,0,1.2,0,1.6,0.1c0.4,0.1,0.8,0.1,1,0.2v1.3H242.2z"/>
		<path fill="#282561" d="M251.7,271.4c-0.5,0.3-1.1,0.4-1.8,0.4c-0.5,0-1-0.1-1.5-0.3c-0.4-0.2-0.8-0.5-1.1-0.9
			c-0.3-0.4-0.6-0.8-0.8-1.3c-0.2-0.5-0.3-1-0.3-1.5s0.1-1.1,0.3-1.5c0.2-0.5,0.4-0.9,0.8-1.3c0.3-0.4,0.7-0.6,1.1-0.9
			c0.4-0.2,1-0.3,1.5-0.3c0.6,0,1.2,0.1,1.7,0.3c0.4,0.3,0.8,0.6,1.1,1l0.7-0.5c-0.4-0.5-0.9-0.9-1.5-1.2c-0.6-0.3-1.3-0.4-2.1-0.4
			c-0.6,0-1.3,0.1-1.8,0.4c-0.6,0.3-1.1,0.6-1.5,1c-0.4,0.4-0.8,1-1,1.5c-0.3,0.6-0.3,1.2-0.3,1.9c0,0.7,0.1,1.3,0.3,1.9
			c0.3,0.6,0.6,1.1,1,1.5c0.4,0.4,0.9,0.8,1.5,1c0.6,0.3,1.2,0.4,1.8,0.4c0.8,0,1.5-0.1,2.1-0.4c0.6-0.3,1.1-0.7,1.5-1.1l-0.6-0.6
			C252.6,270.8,252.2,271.1,251.7,271.4z"/>
		<path fill="#282561" d="M262.8,271.2c0-0.3,0-0.5,0-0.8v-4.3c0-1.1-0.3-2-1-2.5c-0.6-0.5-1.6-0.8-2.7-0.8c-0.8,0-1.5,0.1-2.1,0.4
			c-0.6,0.3-1,0.5-1.2,0.8l0.5,0.6c0.3-0.2,0.6-0.4,1-0.6c0.4-0.2,1-0.3,1.8-0.3c0.4,0,0.8,0.1,1.2,0.1c0.3,0.1,0.6,0.2,0.9,0.4
			c0.3,0.2,0.4,0.4,0.5,0.8c0.1,0.3,0.2,0.8,0.2,1.3v0.5c-0.3-0.1-0.7-0.1-1.1-0.1s-1-0.1-1.5-0.1c-0.7,0-1.3,0.1-1.8,0.3
			c-0.5,0.2-0.9,0.4-1.2,0.7c-0.3,0.3-0.6,0.6-0.7,1s-0.2,0.8-0.2,1.3c0,0.6,0.1,1,0.3,1.3c0.2,0.4,0.4,0.6,0.8,0.8
			c0.3,0.2,0.6,0.3,1,0.4c0.4,0.1,0.8,0.1,1.1,0.1c0.3,0,0.5,0,0.8-0.1c0.3-0.1,0.6-0.1,0.9-0.3c0.3-0.1,0.6-0.3,0.9-0.6
			c0.3-0.3,0.6-0.5,0.8-0.9c0,0.3,0,0.4,0,0.6c0,0.2,0,0.3,0,0.5c0,0.1,0,0.3,0,0.4h0.9c0-0.2,0-0.3-0.1-0.6
			C262.8,271.6,262.8,271.4,262.8,271.2z M261.9,269c0,0.3-0.1,0.7-0.3,1c-0.2,0.3-0.4,0.6-0.7,0.9c-0.3,0.3-0.6,0.5-1,0.6
			c-0.4,0.2-0.8,0.3-1.3,0.3c-0.7,0-1.3-0.1-1.7-0.4c-0.4-0.3-0.7-0.8-0.7-1.5c0-0.3,0-0.5,0.1-0.8c0.1-0.3,0.2-0.6,0.4-0.8
			c0.2-0.3,0.5-0.4,0.9-0.6s1-0.3,1.6-0.3c0.6,0,1.2,0,1.6,0.1c0.4,0.1,0.8,0.1,1,0.2v1.3H261.9z"/>
		<rect x="265.5" y="259.1" fill="#282561" width="0.9" height="13.3"/>
		<path fill="#282561" d="M277.2,265.8c-0.2-0.6-0.5-1.1-0.9-1.6c-0.4-0.4-0.9-0.8-1.4-1c-0.5-0.2-1.1-0.3-1.8-0.3s-1.3,0.1-1.8,0.4
			c-0.6,0.3-1,0.6-1.4,1c-0.4,0.4-0.7,1-0.9,1.5c-0.2,0.6-0.3,1.2-0.3,1.9c0,0.7,0.1,1.4,0.3,2c0.2,0.6,0.6,1.1,1,1.5
			c0.4,0.4,0.9,0.8,1.5,1c0.6,0.3,1.2,0.3,1.9,0.3c0.7,0,1.4-0.1,2.1-0.4c0.7-0.3,1.2-0.7,1.7-1.2l-0.6-0.5
			c-0.2,0.2-0.4,0.4-0.6,0.5c-0.3,0.2-0.5,0.3-0.8,0.4s-0.6,0.2-0.9,0.3c-0.3,0.1-0.6,0.1-0.9,0.1c-0.6,0-1-0.1-1.5-0.3
			s-0.8-0.4-1.1-0.8c-0.3-0.3-0.6-0.8-0.8-1.2c-0.2-0.4-0.3-1-0.3-1.5h7.8C277.5,267.2,277.4,266.4,277.2,265.8z M269.7,267.2
			c0-0.5,0.1-1,0.3-1.3c0.2-0.4,0.4-0.8,0.7-1.1c0.3-0.3,0.6-0.6,1-0.8c0.4-0.2,0.8-0.3,1.3-0.3c1,0,1.7,0.3,2.3,0.9
			c0.6,0.6,1,1.5,1.1,2.6L269.7,267.2L269.7,267.2L269.7,267.2z"/>
		<path fill="#282561" d="M285.6,268c-0.3-0.2-0.6-0.3-1-0.4c-0.4-0.1-0.8-0.2-1.1-0.3c-0.3-0.1-0.7-0.2-1-0.3s-0.6-0.2-0.9-0.3
			s-0.5-0.3-0.6-0.5c-0.2-0.2-0.3-0.4-0.3-0.8c0-0.4,0.1-0.6,0.2-0.9c0.1-0.2,0.3-0.4,0.6-0.5c0.3-0.1,0.5-0.2,0.8-0.3
			s0.6-0.1,0.9-0.1c0.6,0,1.1,0.1,1.5,0.3c0.4,0.2,0.8,0.5,1.1,0.8l0.6-0.6c-0.3-0.4-0.8-0.8-1.3-1c-0.6-0.3-1.2-0.4-1.9-0.4
			c-0.4,0-0.9,0.1-1.3,0.1c-0.4,0.1-0.8,0.3-1.1,0.4c-0.3,0.2-0.6,0.4-0.8,0.8c-0.2,0.3-0.3,0.7-0.3,1.1c0,0.4,0.1,0.8,0.2,1.1
			c0.1,0.3,0.3,0.5,0.6,0.7c0.3,0.2,0.6,0.3,0.9,0.4c0.4,0.1,0.8,0.3,1.1,0.3c0.5,0.1,1,0.3,1.3,0.3c0.4,0.1,0.7,0.2,1,0.4
			c0.3,0.1,0.4,0.3,0.6,0.5c0.1,0.2,0.2,0.5,0.2,0.8s-0.1,0.6-0.2,0.8c-0.1,0.2-0.3,0.4-0.6,0.5c-0.3,0.1-0.6,0.3-0.9,0.3
			c-0.3,0.1-0.7,0.1-1.1,0.1c-0.7,0-1.3-0.1-1.8-0.3c-0.5-0.2-1-0.5-1.3-0.9l-0.6,0.6c0.4,0.4,1,0.8,1.5,1c0.6,0.3,1.3,0.4,2.2,0.4
			c0.4,0,0.9-0.1,1.3-0.2c0.4-0.1,0.8-0.3,1.2-0.5c0.4-0.3,0.6-0.5,0.8-0.8c0.2-0.3,0.3-0.8,0.3-1.2s-0.1-0.8-0.3-1.1
			C286.1,268.2,285.9,268.3,285.6,268z"/>
		<path fill="#282561" d="M293.2,271.6c-0.3,0.1-0.5,0.2-0.9,0.2c-0.3,0-0.4,0-0.6-0.1c-0.2-0.1-0.4-0.2-0.5-0.3
			c-0.1-0.2-0.3-0.4-0.4-0.8c-0.1-0.3-0.1-0.8-0.1-1.3v-5.3h3v-0.8h-3v-3h-0.9v3H288v0.8h1.8v5.5c0,0.6,0.1,1.1,0.2,1.5
			c0.1,0.4,0.3,0.7,0.5,1c0.2,0.3,0.4,0.4,0.8,0.5c0.3,0.1,0.6,0.1,1,0.1c0.6,0,1-0.1,1.3-0.3c0.3-0.2,0.6-0.4,0.9-0.8l-0.6-0.5
			C293.7,271.2,293.5,271.4,293.2,271.6z"/>
		<path fill="#282561" d="M303.6,265.8c-0.2-0.6-0.5-1.1-0.9-1.6s-0.9-0.8-1.4-1c-0.5-0.2-1.1-0.3-1.8-0.3c-0.6,0-1.3,0.1-1.8,0.4
			c-0.6,0.3-1,0.6-1.4,1c-0.4,0.4-0.7,1-0.9,1.5c-0.2,0.6-0.3,1.2-0.3,1.9c0,0.7,0.1,1.4,0.3,2c0.2,0.6,0.6,1.1,1,1.5
			c0.4,0.4,0.9,0.8,1.5,1c0.6,0.3,1.2,0.3,1.9,0.3s1.4-0.1,2.1-0.4c0.7-0.3,1.2-0.7,1.7-1.2l-0.6-0.5c-0.2,0.2-0.4,0.4-0.6,0.5
			c-0.3,0.2-0.5,0.3-0.8,0.4c-0.3,0.1-0.6,0.2-0.9,0.3c-0.3,0.1-0.6,0.1-0.9,0.1c-0.6,0-1-0.1-1.5-0.3s-0.8-0.4-1.1-0.8
			c-0.3-0.3-0.6-0.8-0.8-1.2c-0.2-0.4-0.3-1-0.3-1.5h7.8C304,267.2,303.8,266.4,303.6,265.8z M296.2,267.2c0-0.5,0.1-1,0.3-1.3
			c0.2-0.4,0.4-0.8,0.7-1.1c0.3-0.3,0.6-0.6,1-0.8c0.4-0.2,0.8-0.3,1.3-0.3c1,0,1.7,0.3,2.3,0.9c0.6,0.6,1,1.5,1.1,2.6L296.2,267.2
			L296.2,267.2L296.2,267.2z"/>
		<path fill="#282561" d="M309.2,263.3c-0.4,0.1-0.7,0.3-1,0.5s-0.5,0.4-0.7,0.7c-0.2,0.3-0.3,0.4-0.4,0.7c0-0.3,0-0.4,0-0.6
			c0-0.2,0-0.4,0-0.5c0-0.1,0-0.3,0-0.4c0-0.1,0-0.3,0-0.4h-0.9c0,0.1,0,0.3,0,0.4c0,0.1,0,0.3,0,0.4c0,0.1,0,0.3,0,0.5
			c0,0.2,0,0.4,0,0.6v7.2h0.9v-4.7c0-0.4,0.1-0.9,0.3-1.3c0.1-0.4,0.4-0.8,0.6-1.2c0.3-0.3,0.6-0.6,1-0.8s0.8-0.3,1.3-0.3
			c0.1,0,0.3,0,0.4,0s0.3,0.1,0.3,0.1l0.3-0.9c-0.2-0.1-0.4-0.1-0.8-0.1C310.1,263.1,309.6,263.1,309.2,263.3z"/>
		<path fill="#282561" d="M324.1,266.2c-0.4-0.3-0.8-0.5-1.3-0.7c-0.4-0.2-1-0.3-1.4-0.4c-0.4-0.1-0.9-0.3-1.3-0.4
			c-0.4-0.1-0.8-0.3-1.2-0.5c-0.4-0.2-0.6-0.4-0.9-0.8c-0.3-0.3-0.3-0.7-0.3-1.2c0-0.3,0.1-0.6,0.2-1c0.1-0.3,0.3-0.6,0.6-0.8
			c0.3-0.3,0.6-0.4,1-0.6c0.4-0.1,0.9-0.2,1.4-0.2c0.5,0,0.9,0.1,1.3,0.1c0.4,0.1,0.7,0.3,1,0.4c0.3,0.1,0.5,0.3,0.7,0.5
			c0.2,0.2,0.3,0.3,0.4,0.5l0.7-0.6c-0.1-0.2-0.3-0.4-0.6-0.6c-0.2-0.2-0.5-0.4-0.8-0.6c-0.3-0.2-0.7-0.3-1.1-0.4
			c-0.4-0.1-1-0.2-1.5-0.2c-0.6,0-1.2,0.1-1.8,0.3c-0.5,0.2-1,0.4-1.3,0.7c-0.4,0.3-0.6,0.6-0.8,1.1c-0.2,0.4-0.3,0.8-0.3,1.3
			c0,0.6,0.1,1.2,0.4,1.7c0.3,0.4,0.6,0.8,1,1c0.4,0.3,0.8,0.5,1.3,0.6c0.5,0.2,1,0.3,1.5,0.4c0.4,0.1,0.8,0.3,1.2,0.4
			c0.4,0.1,0.8,0.3,1.1,0.6c0.3,0.3,0.6,0.5,0.8,0.9c0.2,0.3,0.3,0.8,0.3,1.3c0,0.4-0.1,0.9-0.3,1.2c-0.2,0.4-0.4,0.6-0.7,0.9
			c-0.3,0.3-0.7,0.4-1.1,0.5c-0.4,0.1-0.9,0.2-1.4,0.2c-0.9,0-1.7-0.2-2.3-0.5c-0.6-0.3-1.1-0.8-1.7-1.3l-0.7,0.7
			c0.2,0.3,0.4,0.5,0.7,0.8c0.3,0.3,0.6,0.4,1,0.6c0.4,0.2,0.8,0.3,1.3,0.4c0.5,0.1,1,0.2,1.6,0.2c0.6,0,1.2-0.1,1.8-0.3
			c0.6-0.2,1-0.4,1.5-0.8c0.4-0.3,0.7-0.7,1-1.1s0.4-1,0.4-1.5c0-0.6-0.1-1.2-0.3-1.7C324.8,266.8,324.5,266.4,324.1,266.2z"/>
		<path fill="#282561" d="M335.3,264.3c-0.4-0.4-1-0.8-1.5-1c-0.6-0.3-1.2-0.4-1.8-0.4c-0.6,0-1.3,0.1-1.8,0.4
			c-0.6,0.3-1.1,0.6-1.5,1c-0.4,0.4-0.8,1-1,1.5c-0.3,0.6-0.4,1.2-0.4,1.9c0,0.7,0.1,1.3,0.4,1.9c0.3,0.6,0.6,1.1,1,1.5
			c0.4,0.4,1,0.8,1.5,1c0.6,0.3,1.2,0.4,1.8,0.4c0.6,0,1.3-0.1,1.8-0.4c0.6-0.3,1.1-0.6,1.5-1s0.8-1,1-1.5c0.3-0.6,0.4-1.2,0.4-1.9
			c0-0.7-0.1-1.3-0.4-1.9C336,265.3,335.7,264.8,335.3,264.3z M335.4,269.3c-0.2,0.5-0.4,0.9-0.8,1.3c-0.3,0.4-0.8,0.6-1.2,0.9
			c-0.4,0.2-1,0.3-1.5,0.3c-0.5,0-1-0.1-1.5-0.3c-0.4-0.2-0.9-0.5-1.2-0.9c-0.3-0.4-0.6-0.8-0.8-1.3c-0.2-0.5-0.3-1-0.3-1.5
			c0-0.6,0.1-1.1,0.3-1.6s0.4-0.9,0.8-1.3c0.3-0.4,0.8-0.6,1.2-0.9c0.4-0.2,1-0.3,1.5-0.3c0.5,0,1,0.1,1.5,0.3
			c0.4,0.2,0.9,0.5,1.2,0.9c0.3,0.4,0.6,0.8,0.8,1.3c0.2,0.5,0.3,1,0.3,1.5C335.7,268.3,335.6,268.8,335.4,269.3z"/>
		<path fill="#282561" d="M340.6,262.5c0-0.6,0.1-1.1,0.1-1.5c0.1-0.4,0.3-0.7,0.4-0.9c0.2-0.2,0.4-0.4,0.6-0.4
			c0.3-0.1,0.5-0.1,0.8-0.1c0.4,0,0.7,0.1,1,0.2c0.3,0.1,0.6,0.3,0.8,0.6l0.6-0.6c-0.3-0.3-0.6-0.6-1-0.8c-0.4-0.2-0.9-0.3-1.5-0.3
			c-0.9,0-1.7,0.3-2.1,0.9c-0.5,0.6-0.7,1.4-0.7,2.5v1.1h-1.8v0.8h1.8v8.3h0.9v-8.3h3v-0.8h-3V262.5z"/>
		<path fill="#282561" d="M349.4,271.6c-0.3,0.1-0.5,0.2-0.9,0.2c-0.3,0-0.4,0-0.6-0.1c-0.2-0.1-0.4-0.2-0.5-0.3
			c-0.1-0.2-0.3-0.4-0.3-0.8c-0.1-0.3-0.1-0.8-0.1-1.3v-5.3h3v-0.8h-3v-3h-0.9v3h-1.8v0.8h1.8v5.5c0,0.6,0.1,1.1,0.2,1.5
			s0.3,0.7,0.5,1c0.2,0.3,0.4,0.4,0.8,0.5c0.3,0.1,0.6,0.1,1,0.1c0.6,0,1-0.1,1.3-0.3c0.3-0.2,0.6-0.4,0.9-0.8l-0.6-0.5
			C349.9,271.2,349.7,271.4,349.4,271.6z"/>
		<polygon fill="#282561" points="360.7,271.3 358.1,263.2 357.2,263.2 354.6,271.2 352,263.2 351,263.2 354.1,272.3 355,272.3 
			357.6,264.5 360.1,272.3 361.1,272.3 364,263.2 363.1,263.2 		"/>
		<path fill="#282561" d="M372.5,271.2c0-0.3,0-0.5,0-0.8v-4.3c0-1.1-0.3-2-1-2.5c-0.6-0.5-1.6-0.8-2.7-0.8c-0.8,0-1.5,0.1-2.1,0.4
			c-0.6,0.3-1,0.5-1.2,0.8l0.5,0.6c0.3-0.2,0.6-0.4,1-0.6c0.4-0.3,1.1-0.3,1.8-0.3c0.4,0,0.8,0.1,1.2,0.1c0.3,0.1,0.6,0.2,0.9,0.4
			c0.3,0.2,0.4,0.4,0.5,0.8c0.1,0.3,0.2,0.8,0.2,1.3v0.5c-0.3-0.1-0.7-0.1-1.1-0.1c-0.4-0.1-1-0.1-1.5-0.1c-0.7,0-1.3,0.1-1.8,0.3
			c-0.5,0.2-0.9,0.4-1.2,0.7c-0.3,0.3-0.6,0.6-0.7,1s-0.2,0.8-0.2,1.3c0,0.6,0.1,1,0.3,1.3c0.2,0.4,0.4,0.6,0.8,0.8
			c0.3,0.2,0.6,0.3,1,0.4c0.4,0.1,0.8,0.1,1.1,0.1c0.3,0,0.5,0,0.8-0.1c0.3-0.1,0.6-0.1,0.9-0.3c0.3-0.1,0.6-0.3,0.9-0.6
			c0.3-0.3,0.6-0.5,0.8-0.9c0,0.3,0,0.4,0,0.6c0,0.2,0,0.3,0,0.5c0,0.1,0,0.3,0,0.4h0.9c0-0.2,0-0.3-0.1-0.6
			C372.5,271.6,372.5,271.4,372.5,271.2z M371.6,269c0,0.3-0.1,0.7-0.3,1c-0.2,0.3-0.4,0.6-0.7,0.9c-0.3,0.3-0.6,0.5-1.1,0.6
			c-0.4,0.2-0.8,0.3-1.3,0.3c-0.7,0-1.3-0.1-1.7-0.4c-0.4-0.3-0.7-0.8-0.7-1.5c0-0.3,0-0.5,0.1-0.8c0.1-0.3,0.2-0.6,0.4-0.8
			c0.2-0.3,0.5-0.4,0.9-0.6c0.4-0.2,1-0.3,1.6-0.3s1.2,0,1.6,0.1c0.4,0.1,0.8,0.1,1.1,0.2v1.3H371.6z"/>
		<path fill="#282561" d="M378.2,263.3c-0.4,0.1-0.7,0.3-1,0.5c-0.3,0.2-0.5,0.4-0.7,0.7c-0.2,0.3-0.3,0.4-0.4,0.7
			c0-0.3,0-0.4,0-0.6c0-0.2,0-0.4,0-0.5c0-0.1,0-0.3,0-0.4c0-0.1,0-0.3,0-0.4h-0.8c0,0.1,0,0.3,0,0.4c0,0.1,0,0.3,0,0.4
			c0,0.1,0,0.3,0,0.5c0,0.2,0,0.4,0,0.6v7.2h0.9v-4.7c0-0.4,0.1-0.9,0.3-1.3c0.1-0.4,0.4-0.8,0.6-1.2c0.3-0.3,0.6-0.6,1-0.8
			c0.4-0.2,0.8-0.3,1.3-0.3c0.1,0,0.3,0,0.3,0s0.3,0.1,0.3,0.1l0.3-0.9c-0.2-0.1-0.4-0.1-0.8-0.1C379,263.1,378.6,263.1,378.2,263.3
			z"/>
		<path fill="#282561" d="M389.4,265.8c-0.2-0.6-0.5-1.1-0.9-1.6s-0.9-0.8-1.4-1c-0.5-0.2-1.1-0.3-1.8-0.3c-0.6,0-1.3,0.1-1.8,0.4
			c-0.6,0.3-1,0.6-1.4,1c-0.4,0.4-0.7,1-0.9,1.5c-0.2,0.6-0.3,1.2-0.3,1.9c0,0.7,0.1,1.4,0.4,2c0.3,0.6,0.6,1.1,1,1.5
			c0.4,0.4,0.9,0.8,1.5,1c0.6,0.3,1.2,0.3,1.9,0.3s1.4-0.1,2.1-0.4c0.7-0.3,1.2-0.7,1.7-1.2l-0.6-0.5c-0.2,0.2-0.4,0.4-0.6,0.5
			c-0.3,0.2-0.5,0.3-0.8,0.4c-0.3,0.1-0.6,0.2-0.9,0.3c-0.3,0.1-0.6,0.1-0.9,0.1c-0.6,0-1-0.1-1.5-0.3c-0.4-0.2-0.8-0.4-1.1-0.8
			c-0.3-0.3-0.6-0.8-0.8-1.2c-0.2-0.4-0.3-1-0.3-1.5h7.8C389.7,267.2,389.6,266.4,389.4,265.8z M381.9,267.2c0-0.5,0.1-1,0.3-1.3
			c0.2-0.4,0.4-0.8,0.7-1.1c0.3-0.3,0.6-0.6,1.1-0.8c0.4-0.2,0.8-0.3,1.3-0.3c1,0,1.7,0.3,2.3,0.9c0.6,0.6,1,1.5,1.1,2.6
			L381.9,267.2L381.9,267.2L381.9,267.2z"/>
		<path fill="#282561" d="M397.8,261.3c0.4-0.6,1-1,1.7-1.3c0.7-0.3,1.5-0.4,2.3-0.4c0.7,0,1.3,0.1,1.7,0.3c0.5,0.2,0.9,0.4,1.2,0.6
			c0.3,0.3,0.6,0.4,0.8,0.7c0.2,0.3,0.3,0.4,0.4,0.5l0.7-0.5c-0.1-0.1-0.3-0.3-0.4-0.6c-0.2-0.3-0.5-0.6-0.9-0.8
			c-0.4-0.3-0.9-0.5-1.5-0.8c-0.6-0.2-1.3-0.3-2-0.3c-1,0-1.8,0.2-2.6,0.5c-0.8,0.4-1.5,0.8-2,1.5s-1,1.4-1.3,2.2
			c-0.3,0.8-0.4,1.8-0.4,2.7c0,1,0.1,1.9,0.4,2.8c0.3,0.8,0.8,1.6,1.3,2.2s1.3,1.1,2,1.5c0.8,0.4,1.7,0.5,2.6,0.5
			c0.8,0,1.5-0.1,2-0.3c0.6-0.2,1.1-0.4,1.5-0.8c0.4-0.3,0.7-0.6,0.9-0.8c0.2-0.3,0.4-0.5,0.4-0.6l-0.7-0.5
			c-0.1,0.1-0.2,0.3-0.4,0.5c-0.2,0.3-0.4,0.4-0.8,0.7c-0.3,0.3-0.7,0.4-1.2,0.6c-0.4,0.2-1,0.3-1.7,0.3c-0.9,0-1.7-0.1-2.3-0.4
			c-0.7-0.3-1.3-0.8-1.7-1.3c-0.4-0.6-0.8-1.2-1.1-1.9c-0.3-0.8-0.4-1.5-0.4-2.4c0-0.8,0.1-1.7,0.4-2.4
			C397,262.5,397.4,261.9,397.8,261.3z"/>
		<path fill="#282561" d="M416.2,264.3c-0.4-0.4-1-0.8-1.5-1c-0.6-0.3-1.2-0.4-1.8-0.4c-0.6,0-1.3,0.1-1.8,0.4
			c-0.6,0.3-1.1,0.6-1.5,1c-0.4,0.4-0.8,1-1,1.5c-0.3,0.6-0.4,1.2-0.4,1.9c0,0.7,0.1,1.3,0.4,1.9c0.3,0.6,0.6,1.1,1,1.5
			c0.4,0.4,1,0.8,1.5,1c0.6,0.3,1.2,0.4,1.8,0.4c0.6,0,1.3-0.1,1.8-0.4c0.6-0.3,1.1-0.6,1.5-1s0.8-1,1-1.5c0.3-0.6,0.4-1.2,0.4-1.9
			c0-0.7-0.1-1.3-0.4-1.9C417,265.3,416.7,264.8,416.2,264.3z M416.4,269.3c-0.2,0.5-0.4,0.9-0.8,1.3c-0.3,0.4-0.8,0.6-1.2,0.9
			c-0.4,0.3-1,0.3-1.5,0.3c-0.5,0-1-0.1-1.5-0.3c-0.4-0.2-0.9-0.5-1.2-0.9c-0.3-0.4-0.6-0.8-0.8-1.3c-0.2-0.5-0.3-1-0.3-1.5
			c0-0.6,0.1-1.1,0.3-1.6s0.4-0.9,0.8-1.3c0.3-0.4,0.8-0.6,1.2-0.9c0.4-0.3,1-0.3,1.5-0.3c0.5,0,1,0.1,1.5,0.3
			c0.4,0.2,0.9,0.5,1.2,0.9c0.3,0.4,0.6,0.8,0.8,1.3s0.3,1,0.3,1.5C416.7,268.3,416.6,268.8,416.4,269.3z"/>
		<rect x="419.9" y="259.1" fill="#282561" width="0.9" height="13.3"/>
		<rect x="423.5" y="259.1" fill="#282561" width="0.9" height="13.3"/>
		<path fill="#282561" d="M434.3,271.2c0-0.3,0-0.5,0-0.8v-4.3c0-1.1-0.3-2-1-2.5c-0.6-0.5-1.6-0.8-2.7-0.8c-0.8,0-1.5,0.1-2.1,0.4
			c-0.6,0.3-1,0.5-1.2,0.8l0.5,0.6c0.3-0.2,0.6-0.4,1-0.6c0.4-0.3,1.1-0.3,1.8-0.3c0.4,0,0.8,0.1,1.2,0.1c0.3,0.1,0.6,0.2,0.9,0.4
			c0.3,0.2,0.4,0.4,0.5,0.8c0.1,0.3,0.2,0.8,0.2,1.3v0.5c-0.3-0.1-0.7-0.1-1.1-0.1c-0.4-0.1-1-0.1-1.5-0.1c-0.7,0-1.3,0.1-1.8,0.3
			c-0.5,0.2-0.9,0.4-1.2,0.7c-0.3,0.3-0.6,0.6-0.7,1s-0.2,0.8-0.2,1.3c0,0.6,0.1,1,0.3,1.3c0.2,0.4,0.4,0.6,0.8,0.8
			c0.3,0.2,0.6,0.3,1,0.4c0.4,0.1,0.8,0.1,1.1,0.1c0.3,0,0.5,0,0.8-0.1c0.3-0.1,0.6-0.1,0.9-0.3c0.3-0.1,0.6-0.3,0.9-0.6
			c0.3-0.3,0.6-0.5,0.8-0.9c0,0.3,0,0.4,0,0.6c0,0.2,0,0.3,0,0.5c0,0.1,0,0.3,0,0.4h0.9c0-0.2,0-0.3-0.1-0.6
			C434.3,271.6,434.3,271.4,434.3,271.2z M433.4,269c0,0.3-0.1,0.7-0.3,1c-0.2,0.3-0.4,0.6-0.7,0.9c-0.3,0.3-0.6,0.5-1.1,0.6
			c-0.4,0.2-0.8,0.3-1.3,0.3c-0.7,0-1.3-0.1-1.7-0.4c-0.4-0.3-0.7-0.8-0.7-1.5c0-0.3,0-0.5,0.1-0.8c0.1-0.3,0.2-0.6,0.4-0.8
			c0.2-0.3,0.5-0.4,0.9-0.6c0.4-0.2,1-0.3,1.6-0.3c0.6,0,1.2,0,1.6,0.1c0.4,0.1,0.8,0.1,1.1,0.2v1.3H433.4z"/>
		<path fill="#282561" d="M444.4,264.3c-0.3-0.4-0.8-0.8-1.3-1c-0.5-0.3-1.1-0.4-1.8-0.4c-0.5,0-1,0.1-1.3,0.2
			c-0.4,0.1-0.7,0.3-1,0.4c-0.3,0.2-0.5,0.4-0.7,0.6c-0.2,0.3-0.3,0.4-0.4,0.6v-5.8h-0.8v13c0.4,0.2,0.8,0.3,1.4,0.4
			c0.6,0.1,1.2,0.2,1.9,0.2s1.4-0.1,2-0.3c0.6-0.2,1.1-0.5,1.6-1c0.4-0.4,0.8-0.9,1.1-1.5c0.3-0.6,0.4-1.3,0.4-2
			c0-0.7-0.1-1.3-0.3-1.9C445,265.3,444.8,264.8,444.4,264.3z M444.2,269.5c-0.2,0.5-0.5,0.9-0.9,1.3c-0.4,0.3-0.8,0.6-1.3,0.8
			c-0.5,0.2-1,0.3-1.7,0.3c-0.7,0-1.2-0.1-1.7-0.1c-0.4-0.1-0.7-0.2-0.8-0.2v-3.9c0-0.4,0.1-0.8,0.2-1.2c0.1-0.4,0.3-0.8,0.6-1.2
			c0.3-0.4,0.6-0.6,1-0.9s0.9-0.4,1.5-0.4c0.6,0,1.1,0.1,1.5,0.3c0.4,0.2,0.8,0.5,1,0.9c0.3,0.4,0.4,0.8,0.6,1.3s0.2,1,0.2,1.5
			C444.5,268.4,444.4,269,444.2,269.5z"/>
		<path fill="#282561" d="M455.4,264.3c-0.4-0.4-1-0.8-1.5-1c-0.6-0.3-1.2-0.4-1.8-0.4c-0.6,0-1.3,0.1-1.8,0.4
			c-0.6,0.3-1.1,0.6-1.5,1c-0.4,0.4-0.8,1-1,1.5c-0.3,0.6-0.4,1.2-0.4,1.9c0,0.7,0.1,1.3,0.4,1.9c0.3,0.6,0.6,1.1,1,1.5
			c0.4,0.4,1,0.8,1.5,1c0.6,0.3,1.2,0.4,1.8,0.4c0.6,0,1.3-0.1,1.8-0.4c0.6-0.3,1.1-0.6,1.5-1s0.8-1,1-1.5c0.3-0.6,0.4-1.2,0.4-1.9
			c0-0.7-0.1-1.3-0.4-1.9C456.1,265.3,455.8,264.8,455.4,264.3z M455.5,269.3c-0.2,0.5-0.4,0.9-0.8,1.3c-0.3,0.4-0.8,0.6-1.2,0.9
			c-0.4,0.3-1,0.3-1.5,0.3c-0.5,0-1-0.1-1.5-0.3c-0.4-0.2-0.9-0.5-1.2-0.9c-0.3-0.4-0.6-0.8-0.8-1.3c-0.2-0.5-0.3-1-0.3-1.5
			c0-0.6,0.1-1.1,0.3-1.6s0.4-0.9,0.8-1.3c0.3-0.4,0.8-0.6,1.2-0.9c0.4-0.3,1-0.3,1.5-0.3c0.5,0,1,0.1,1.5,0.3
			c0.4,0.2,0.9,0.5,1.2,0.9c0.3,0.4,0.6,0.8,0.8,1.3s0.3,1,0.3,1.5C455.8,268.3,455.7,268.8,455.5,269.3z"/>
		<path fill="#282561" d="M462,263.3c-0.4,0.1-0.7,0.3-1,0.5s-0.5,0.4-0.7,0.7c-0.2,0.3-0.3,0.4-0.4,0.7c0-0.3,0-0.4,0-0.6
			c0-0.2,0-0.4,0-0.5c0-0.1,0-0.3,0-0.4c0-0.1,0-0.3,0-0.4h-0.8c0,0.1,0,0.3,0,0.4c0,0.1,0,0.3,0,0.4c0,0.1,0,0.3,0,0.5
			c0,0.2,0,0.4,0,0.6v7.2h0.9v-4.7c0-0.4,0.1-0.9,0.3-1.3c0.1-0.4,0.4-0.8,0.6-1.2c0.3-0.3,0.6-0.6,1-0.8c0.4-0.2,0.8-0.3,1.3-0.3
			c0.1,0,0.3,0,0.3,0s0.3,0.1,0.3,0.1l0.3-0.9c-0.2-0.1-0.4-0.1-0.8-0.1C462.9,263.1,462.4,263.1,462,263.3z"/>
		<path fill="#282561" d="M472.2,271.2c0-0.3,0-0.5,0-0.8v-4.3c0-1.1-0.3-2-1-2.5c-0.6-0.5-1.6-0.8-2.7-0.8c-0.8,0-1.5,0.1-2.1,0.4
			c-0.6,0.3-1,0.5-1.2,0.8l0.5,0.6c0.3-0.2,0.6-0.4,1-0.6c0.4-0.3,1.1-0.3,1.8-0.3c0.4,0,0.8,0.1,1.2,0.1c0.3,0.1,0.6,0.2,0.9,0.4
			c0.3,0.2,0.4,0.4,0.5,0.8c0.1,0.3,0.2,0.8,0.2,1.3v0.5c-0.3-0.1-0.7-0.1-1.1-0.1c-0.4-0.1-1-0.1-1.5-0.1c-0.7,0-1.3,0.1-1.8,0.3
			c-0.5,0.2-0.9,0.4-1.2,0.7c-0.3,0.3-0.6,0.6-0.7,1c-0.1,0.4-0.2,0.8-0.2,1.3c0,0.6,0.1,1,0.3,1.3c0.2,0.4,0.4,0.6,0.8,0.8
			c0.3,0.2,0.6,0.3,1,0.4c0.4,0.1,0.8,0.1,1.1,0.1c0.3,0,0.5,0,0.8-0.1c0.3-0.1,0.6-0.1,0.9-0.3c0.3-0.1,0.6-0.3,0.9-0.6
			c0.3-0.3,0.6-0.5,0.8-0.9c0,0.3,0,0.4,0,0.6c0,0.2,0,0.3,0,0.5c0,0.1,0,0.3,0,0.4h0.9c0-0.2,0-0.3-0.1-0.6
			C472.2,271.6,472.2,271.4,472.2,271.2z M471.4,269c0,0.3-0.1,0.7-0.3,1c-0.2,0.3-0.4,0.6-0.7,0.9c-0.3,0.3-0.6,0.5-1.1,0.6
			c-0.4,0.2-0.8,0.3-1.3,0.3c-0.7,0-1.3-0.1-1.7-0.4c-0.4-0.3-0.7-0.8-0.7-1.5c0-0.3,0-0.5,0.1-0.8c0.1-0.3,0.2-0.6,0.4-0.8
			c0.2-0.3,0.5-0.4,0.9-0.6s1-0.3,1.6-0.3c0.6,0,1.2,0,1.6,0.1c0.4,0.1,0.8,0.1,1.1,0.2v1.3H471.4z"/>
		<path fill="#282561" d="M479.2,271.6c-0.3,0.1-0.5,0.2-0.9,0.2c-0.3,0-0.4,0-0.6-0.1c-0.2-0.1-0.4-0.2-0.5-0.3
			c-0.1-0.2-0.3-0.4-0.3-0.8c-0.1-0.3-0.1-0.8-0.1-1.3v-5.3h3v-0.8h-3v-3h-1v3H474v0.8h1.8v5.5c0,0.6,0.1,1.1,0.2,1.5s0.3,0.7,0.5,1
			c0.2,0.3,0.4,0.4,0.8,0.5c0.3,0.1,0.6,0.1,1,0.1c0.6,0,1-0.1,1.3-0.3c0.3-0.2,0.6-0.4,0.9-0.8l-0.6-0.5
			C479.7,271.2,479.4,271.4,479.2,271.6z"/>
		<rect x="481.9" y="259.9" fill="#282561" width="1.3" height="1.3"/>
		<rect x="482.1" y="263.2" fill="#282561" width="0.9" height="9.2"/>
		<path fill="#282561" d="M493.4,264.3c-0.4-0.4-1-0.8-1.5-1c-0.6-0.3-1.2-0.4-1.8-0.4c-0.6,0-1.3,0.1-1.8,0.4
			c-0.6,0.3-1.1,0.6-1.5,1c-0.4,0.4-0.8,1-1,1.5c-0.3,0.6-0.4,1.2-0.4,1.9c0,0.7,0.1,1.3,0.4,1.9c0.3,0.6,0.6,1.1,1,1.5
			c0.4,0.4,1,0.8,1.5,1c0.6,0.3,1.2,0.4,1.8,0.4c0.6,0,1.3-0.1,1.8-0.4c0.6-0.3,1.1-0.6,1.5-1s0.8-1,1-1.5c0.3-0.6,0.4-1.2,0.4-1.9
			c0-0.7-0.1-1.3-0.4-1.9C494.2,265.3,493.8,264.8,493.4,264.3z M493.6,269.3c-0.2,0.5-0.4,0.9-0.8,1.3c-0.3,0.4-0.8,0.6-1.2,0.9
			c-0.4,0.3-1,0.3-1.5,0.3c-0.5,0-1-0.1-1.5-0.3c-0.4-0.2-0.9-0.5-1.2-0.9c-0.3-0.4-0.6-0.8-0.8-1.3c-0.2-0.5-0.3-1-0.3-1.5
			c0-0.6,0.1-1.1,0.3-1.6c0.2-0.5,0.4-0.9,0.8-1.3c0.3-0.4,0.8-0.6,1.2-0.9c0.4-0.3,1-0.3,1.5-0.3c0.5,0,1,0.1,1.5,0.3
			c0.4,0.2,0.9,0.5,1.2,0.9c0.3,0.4,0.6,0.8,0.8,1.3c0.2,0.4,0.3,1,0.3,1.5C493.8,268.3,493.8,268.8,493.6,269.3z"/>
		<path fill="#282561" d="M504.3,264c-0.3-0.4-0.6-0.6-1.1-0.8c-0.4-0.2-1-0.3-1.7-0.3c-0.5,0-1,0.1-1.4,0.2c-0.4,0.1-0.8,0.3-1,0.6
			c-0.3,0.2-0.5,0.4-0.7,0.7c-0.2,0.3-0.3,0.5-0.4,0.7c0-0.3,0-0.4,0-0.6c0-0.2,0-0.3,0-0.5c0-0.1,0-0.3,0-0.4c0-0.1,0-0.3,0-0.4
			h-0.8c0,0.1,0,0.3,0,0.4c0,0.1,0,0.3,0,0.4c0,0.1,0,0.3,0,0.5c0,0.2,0,0.4,0,0.6v7.2h0.9v-4.7c0-0.4,0.1-0.9,0.2-1.3
			s0.4-0.9,0.6-1.2c0.3-0.4,0.6-0.7,1.1-0.9c0.4-0.3,1-0.4,1.5-0.4c0.4,0,0.8,0.1,1.1,0.2c0.3,0.1,0.6,0.3,0.9,0.6
			c0.3,0.3,0.4,0.6,0.5,1.1s0.2,1,0.2,1.7v5.1h0.9v-5.4c0-0.6-0.1-1.1-0.2-1.7C504.8,264.9,504.6,264.4,504.3,264z"/>
		<path fill="#282561" d="M518.9,266.2c-0.4-0.3-0.8-0.5-1.3-0.7c-0.4-0.2-1-0.3-1.4-0.4c-0.4-0.1-0.9-0.3-1.3-0.4
			c-0.4-0.1-0.8-0.3-1.2-0.5c-0.4-0.2-0.6-0.4-0.9-0.8s-0.3-0.7-0.3-1.2c0-0.3,0.1-0.6,0.2-1c0.1-0.3,0.3-0.6,0.6-0.8
			c0.3-0.3,0.6-0.4,1-0.6c0.4-0.1,0.9-0.2,1.4-0.2c0.5,0,0.9,0.1,1.3,0.1c0.4,0.1,0.7,0.3,1,0.4c0.3,0.1,0.5,0.3,0.7,0.5
			c0.2,0.2,0.3,0.3,0.4,0.5l0.7-0.6c-0.1-0.2-0.3-0.4-0.6-0.6c-0.2-0.2-0.5-0.4-0.8-0.6c-0.3-0.2-0.7-0.3-1.1-0.4
			c-0.4-0.1-1-0.2-1.5-0.2c-0.6,0-1.2,0.1-1.8,0.3c-0.5,0.2-1,0.4-1.3,0.7c-0.4,0.3-0.6,0.6-0.8,1.1s-0.3,0.8-0.3,1.3
			c0,0.6,0.1,1.2,0.4,1.7c0.3,0.4,0.6,0.8,1,1c0.4,0.3,0.8,0.5,1.3,0.6c0.5,0.2,1,0.3,1.5,0.4c0.4,0.1,0.8,0.3,1.2,0.4
			c0.4,0.1,0.8,0.3,1.1,0.6c0.3,0.3,0.6,0.5,0.8,0.9c0.2,0.4,0.3,0.8,0.3,1.3c0,0.4-0.1,0.9-0.3,1.2c-0.2,0.4-0.4,0.6-0.7,0.9
			c-0.3,0.3-0.7,0.4-1.1,0.5c-0.4,0.1-0.9,0.2-1.4,0.2c-0.9,0-1.7-0.2-2.3-0.5c-0.6-0.3-1.1-0.8-1.7-1.3l-0.7,0.7
			c0.2,0.3,0.4,0.5,0.7,0.8c0.3,0.3,0.6,0.4,1,0.6c0.4,0.2,0.8,0.3,1.3,0.4c0.5,0.1,1,0.2,1.6,0.2c0.6,0,1.2-0.1,1.8-0.3
			c0.6-0.2,1-0.4,1.5-0.8c0.4-0.3,0.7-0.7,1-1.1s0.4-1,0.4-1.5c0-0.6-0.1-1.2-0.4-1.7C519.6,266.8,519.2,266.4,518.9,266.2z"/>
		<path fill="#282561" d="M529.7,264.3c-0.3-0.4-0.8-0.8-1.3-1c-0.5-0.3-1.1-0.4-1.8-0.4c-0.6,0-1,0.1-1.5,0.3
			c-0.4,0.2-0.8,0.3-1,0.6c-0.3,0.2-0.5,0.4-0.6,0.6c-0.1,0.2-0.3,0.4-0.3,0.5c0-0.2,0-0.4,0-0.6s0-0.3,0-0.4c0-0.1,0-0.3,0-0.3
			c0-0.1,0-0.3,0-0.4h-0.8c0,0.1,0,0.3,0,0.4c0,0.1,0,0.3,0,0.4c0,0.1,0,0.3,0,0.5c0,0.2,0,0.4,0,0.6v11.2h0.9v-4.6
			c0.3,0.2,0.8,0.4,1.2,0.6c0.4,0.2,1,0.3,1.7,0.3c0.6,0,1.3-0.1,1.8-0.3c0.6-0.3,1.1-0.6,1.5-1s0.8-1,1-1.5c0.3-0.6,0.4-1.2,0.4-2
			c0-0.7-0.1-1.3-0.3-1.9C530.2,265.3,530,264.8,529.7,264.3z M529.4,269.5c-0.2,0.5-0.4,0.9-0.8,1.2c-0.3,0.3-0.7,0.6-1.2,0.8
			c-0.4,0.2-1,0.3-1.5,0.3c-0.4,0-0.8-0.1-1.1-0.1c-0.3-0.1-0.6-0.2-0.8-0.3c-0.3-0.1-0.4-0.2-0.6-0.3c-0.2-0.1-0.3-0.2-0.4-0.3
			v-2.9c0-0.3,0-0.7,0.1-1c0.1-0.3,0.1-0.6,0.2-0.9c0.1-0.3,0.3-0.6,0.4-0.8c0.2-0.3,0.4-0.5,0.6-0.7c0.3-0.2,0.6-0.4,0.9-0.5
			c0.3-0.1,0.7-0.2,1.1-0.2c0.6,0,1.1,0.1,1.5,0.3c0.4,0.2,0.8,0.5,1,0.9s0.4,0.8,0.6,1.3s0.2,1,0.2,1.5
			C529.7,268.5,529.6,269,529.4,269.5z"/>
		<path fill="#282561" d="M540.1,271.2c0-0.3,0-0.5,0-0.8v-4.3c0-1.1-0.3-2-1-2.5c-0.6-0.5-1.6-0.8-2.7-0.8c-0.8,0-1.5,0.1-2.1,0.4
			c-0.6,0.3-1,0.5-1.2,0.8l0.5,0.6c0.3-0.2,0.6-0.4,1-0.6c0.4-0.3,1.1-0.3,1.8-0.3c0.4,0,0.8,0.1,1.2,0.1c0.3,0.1,0.6,0.2,0.9,0.4
			c0.3,0.2,0.4,0.4,0.5,0.8c0.1,0.3,0.2,0.8,0.2,1.3v0.5c-0.3-0.1-0.7-0.1-1.1-0.1c-0.4-0.1-1-0.1-1.5-0.1c-0.7,0-1.3,0.1-1.8,0.3
			c-0.5,0.2-0.9,0.4-1.2,0.7c-0.3,0.3-0.6,0.6-0.7,1s-0.2,0.8-0.2,1.3c0,0.6,0.1,1,0.3,1.3c0.2,0.4,0.4,0.6,0.8,0.8
			c0.3,0.2,0.6,0.3,1,0.4c0.4,0.1,0.8,0.1,1.1,0.1c0.3,0,0.5,0,0.8-0.1c0.3-0.1,0.6-0.1,0.9-0.3c0.3-0.1,0.6-0.3,0.9-0.6
			c0.3-0.3,0.6-0.5,0.8-0.9c0,0.3,0,0.4,0,0.6c0,0.2,0,0.3,0,0.5c0,0.1,0,0.3,0,0.4h0.9c0-0.2,0-0.3-0.1-0.6
			C540.1,271.6,540.1,271.4,540.1,271.2z M539.2,269c0,0.3-0.1,0.7-0.3,1c-0.2,0.3-0.4,0.6-0.7,0.9c-0.3,0.3-0.6,0.5-1.1,0.6
			c-0.4,0.2-0.8,0.3-1.3,0.3c-0.7,0-1.3-0.1-1.7-0.4c-0.4-0.3-0.7-0.8-0.7-1.5c0-0.3,0-0.5,0.1-0.8c0.1-0.3,0.2-0.6,0.4-0.8
			c0.2-0.3,0.5-0.4,0.9-0.6s1-0.3,1.6-0.3c0.6,0,1.2,0,1.6,0.1c0.4,0.1,0.8,0.1,1.1,0.2v1.3H539.2z"/>
		<path fill="#282561" d="M548.7,271.4c-0.5,0.3-1.1,0.4-1.8,0.4c-0.5,0-1-0.1-1.5-0.3c-0.4-0.2-0.8-0.5-1.1-0.9
			c-0.3-0.4-0.6-0.8-0.8-1.3s-0.3-1-0.3-1.5s0.1-1.1,0.3-1.5c0.2-0.5,0.4-0.9,0.8-1.3s0.7-0.6,1.1-0.9c0.4-0.3,1-0.3,1.5-0.3
			c0.6,0,1.2,0.1,1.7,0.3c0.4,0.3,0.8,0.6,1.1,1l0.7-0.5c-0.4-0.5-0.9-0.9-1.5-1.2c-0.6-0.3-1.3-0.4-2.1-0.4c-0.6,0-1.3,0.1-1.8,0.4
			c-0.6,0.3-1.1,0.6-1.5,1c-0.4,0.4-0.8,1-1,1.5c-0.3,0.6-0.4,1.2-0.4,1.9c0,0.7,0.1,1.3,0.3,1.9c0.3,0.6,0.6,1.1,1,1.5
			c0.4,0.4,0.9,0.8,1.5,1c0.6,0.3,1.2,0.4,1.8,0.4c0.8,0,1.5-0.1,2.1-0.4c0.6-0.3,1.1-0.7,1.5-1.1l-0.6-0.6
			C549.6,270.8,549.2,271.1,548.7,271.4z"/>
		<path fill="#282561" d="M558.8,271c-0.3,0.2-0.5,0.3-0.8,0.4c-0.3,0.1-0.6,0.2-0.9,0.3c-0.3,0.1-0.6,0.1-0.9,0.1
			c-0.6,0-1-0.1-1.5-0.3c-0.4-0.2-0.8-0.4-1.1-0.8c-0.3-0.3-0.6-0.8-0.8-1.2s-0.3-1-0.3-1.5h7.8c0-0.8-0.1-1.5-0.3-2.2
			c-0.2-0.6-0.5-1.1-0.9-1.6s-0.9-0.8-1.4-1s-1.1-0.3-1.8-0.3s-1.3,0.1-1.8,0.4c-0.6,0.3-1,0.6-1.4,1c-0.4,0.4-0.7,1-0.9,1.5
			c-0.2,0.6-0.3,1.2-0.3,1.9c0,0.7,0.1,1.4,0.4,2c0.3,0.6,0.6,1.1,1,1.5c0.4,0.4,0.9,0.8,1.5,1c0.6,0.3,1.2,0.3,1.9,0.3
			c0.7,0,1.4-0.1,2.1-0.4c0.7-0.3,1.2-0.7,1.7-1.2l-0.6-0.5C559.2,270.6,559.1,270.8,558.8,271z M553,265.9c0.2-0.4,0.4-0.8,0.7-1.1
			c0.3-0.3,0.6-0.6,1.1-0.8c0.4-0.2,0.8-0.3,1.3-0.3c1,0,1.7,0.3,2.3,0.9c0.6,0.6,1,1.5,1.1,2.6h-6.9
			C552.7,266.7,552.8,266.3,553,265.9z"/>
	</g>
	<g>
		<path fill="#282561" d="M200.5,244.2c-1-1.1-2-2.1-2.9-2.9c-5.3-4.2-11.4-6.4-17.7-6.4c-9.8,0-18.7,5.3-23.9,14.1
			c-4.3,7-7.8,23.6-8.5,37.3h55.9v-39.3C202.4,246.3,201.4,245.2,200.5,244.2z"/>
		<path fill="#282561" d="M124.2,194.1c0.3,0.5,0.4,1,0.6,1.4c0.2,0.4,0.3,0.8,0.5,1.1c0.4,0.8,0.8,1.6,1.1,2.4
			c1.6,3.5,3,6.8,6.1,9.5c3.2,2.8,6.9,4.8,10.2,6.6c5.1,2.8,8.8,6.2,11.1,10c3.1,5.3,3.9,11.6,2.5,18.3c7-8.3,16.8-10.6,26.4-12.1
			c7.1-1.1,14-2.5,20.1-5.8c0.2-0.1,0.4-0.3,0.6-0.4v-31H124.2z"/>
		<path fill="#282561" d="M151.7,226.8c-2.2-4.9-9.1-11-22-13.5c-1.9-0.4-3.9-0.7-5.8-1c-4.1-0.6-8.1-1.3-12-2.5v76.6h30.5
			c0.3-2.2,0.6-4.3,1-6.2c0.2-1.1,0.4-2.1,0.5-2.9c1.1-7.3,3-14.9,5.9-23.8C152.8,244.5,155.3,235.1,151.7,226.8z"/>
		<path fill="#282561" d="M180.3,233.2L180.3,233.2C180.3,233.2,180.3,233.2,180.3,233.2C180.3,233.3,180.3,233.3,180.3,233.2
			c-0.1,0.1-0.1,0.1,0,0.1h0.1c1.9-0.3,4.3-0.3,7,0c5.5,0.4,11.4,1.7,15.9,3.3v-0.1v-1.2V235C196.1,233.1,186.6,232.4,180.3,233.2z"
			/>
		<path fill="#282561" d="M122.7,206c4.5,3.4,9.5,5.7,13.3,7.2c0,0,0,0,0.1,0l0,0c0,0,0.1,0,0.1-0.1v-0.1c0-0.1-0.1-0.1-0.1-0.1
			c-5-2.1-9.1-4.6-12.8-7.7c-2.3-2-6.5-6-9.3-11.3h-0.1h-1.8l0.1,0.1C114.9,198.9,118.3,202.7,122.7,206z"/>
	</g>
</g>
<g>
	<g>
		
			<polyline fill="none" stroke="#878787" stroke-width="3" stroke-linecap="round" stroke-miterlimit="10" stroke-dasharray="0.1,6" points="
			556.1,122 556.1,146.4 165.6,146.4 165.6,175.9 		"/>
		<g>
			<polygon fill="#878787" points="165.6,185.4 160.1,172 165.6,175.2 171.1,172 			"/>
		</g>
	</g>
</g>
</svg>
