<?xml version="1.0" encoding="utf-8"?>
<!-- Generator: Adobe Illustrator 19.2.1, SVG Export Plug-In . SVG Version: 6.00 Build 0)  -->
<svg version="1.1" id="Layer_1" xmlns="http://www.w3.org/2000/svg" xmlns:xlink="http://www.w3.org/1999/xlink" x="0px" y="0px"
	 viewBox="0 0 706.3 145.4" style="enable-background:new 0 0 706.3 145.4;" xml:space="preserve">
<style type="text/css">
	.st0{fill:#282561;}
</style>
<g>
	<path class="st0" d="M213.6,79l0.4,6h14.6V0h-15v25.1c-1.1-0.4-2.1-0.8-2.9-1.2c-0.9-0.3-1.8-0.6-2.8-0.8s-2.2-0.4-3.5-0.5
		s-2.9-0.2-4.9-0.2c-1.5,0-3.2,0.2-5.1,0.6c-2,0.4-4,1-6.1,2c-2.1,0.9-4.2,2.1-6.2,3.5s-3.9,3.1-5.6,5.2c-2,2.5-3.8,5.6-5.1,9.2
		c-1.4,3.6-2,7.8-2,12.6c0,5.1,0.8,9.5,2.3,13.5c1.5,3.9,3.5,7.2,6,9.9s5.3,4.8,8.5,6.1c3.2,1.4,6.4,2.1,9.6,2.1
		c2.3,0,4.4-0.3,6.2-0.8s3.5-1.2,5-2s2.8-1.7,3.9-2.6C211.9,80.8,212.8,79.8,213.6,79z M206,72.2c-1.8,1-4,1.5-6.5,1.5
		c-4.9,0-8.6-1.7-11.1-5.2c-2.6-3.5-3.8-7.8-3.8-13.1c0-2.5,0.4-4.9,1.1-7.3c0.7-2.3,1.7-4.3,3-6.1c1.5-1.9,3.2-3.5,5.1-4.6
		c2-1.2,4.4-1.8,7.4-1.8s5.4,0.2,7.4,0.7c1.9,0.5,3.6,1.3,5.1,2.5v18.8c0,1.7-0.3,3.6-0.8,5.4c-0.5,1.9-1.3,3.6-2.4,5.2
		C209.3,69.9,207.8,71.2,206,72.2z"/>
	<path class="st0" d="M294.8,76.1l-8.2-9.4c-0.5,0.5-1.3,1.2-2.2,2c-1,0.8-2.2,1.6-3.8,2.4c-1.5,0.7-3.4,1.4-5.6,2
		c-2.2,0.6-4.7,0.8-7.6,0.8c-2,0-4-0.3-6-1s-3.8-1.7-5.4-3s-2.9-2.9-3.8-4.7c-1-1.8-1.5-3.9-1.5-6.1h44.8v-2.2
		c0-4.4-0.5-8.6-1.5-12.8c-1-4.2-2.7-7.9-5-11.2s-5.4-6-9.2-8c-3.8-2-8.4-3.1-13.9-3.1c-4.5,0-8.6,0.8-12.4,2.5
		c-3.7,1.7-6.9,3.9-9.6,6.8s-4.8,6.3-6.3,10.1c-1.5,3.9-2.2,8.1-2.2,12.6c0,5,0.7,9.5,2.2,13.6c1.5,4.1,3.6,7.6,6.4,10.5
		c2.8,2.9,6.1,5.2,10.1,6.9c3.9,1.7,8.3,2.5,13.1,2.5c4.7,0,8.7-0.5,12.1-1.6c3.4-1,6.1-2.2,8.3-3.5c2.2-1.3,3.8-2.5,5-3.7
		S294.5,76.4,294.8,76.1z M251.6,43.2c0.7-1.6,1.7-3,2.9-4.2c1.3-1.3,2.9-2.3,4.8-3.1s4.1-1.2,6.6-1.2c2.3,0,4.4,0.4,6.1,1.2
		c1.8,0.8,3.3,1.9,4.4,3.1c1.2,1.3,2,2.7,2.6,4.2c0.6,1.6,0.9,3.1,0.9,4.7h-29.5C250.6,46.3,251,44.7,251.6,43.2z"/>
	<polygon class="st0" points="361.5,23.7 345,23.7 328.9,67.6 312.7,23.7 295.3,23.7 320.8,85 336.2,85 	"/>
	<path class="st0" d="M373.1,77.4c2.6,2.9,5.8,5.1,9.5,6.7c3.7,1.6,7.8,2.4,12.3,2.4c3,0,5.8-0.2,8.2-0.7c2.5-0.4,4.7-1,6.6-1.8
		c2-0.7,3.7-1.6,5.2-2.5c1.5-0.9,2.8-1.8,3.8-2.7V55.6h-21v4.2h16.6V77c-2,1.4-4.5,2.7-7.6,3.7c-3.1,1.1-7,1.6-11.8,1.6
		c-3.9,0-7.4-0.7-10.6-2.2c-3.1-1.5-5.8-3.5-8-6c-2.2-2.6-3.9-5.6-5-9c-1.1-3.4-1.7-7.1-1.7-11.1s0.6-7.7,1.8-11.1
		c1.2-3.4,2.9-6.4,5.1-9c2.2-2.5,4.9-4.5,8.1-6s6.8-2.2,10.8-2.2c2.9,0,5.5,0.4,7.6,1.3c2.2,0.9,4,1.9,5.5,3s2.7,2.2,3.6,3.3
		s1.5,1.9,1.9,2.4l3.3-2.3c-0.4-0.6-1.1-1.6-2.1-2.9s-2.4-2.6-4.2-4c-1.8-1.3-4-2.5-6.7-3.5c-2.6-1-5.8-1.5-9.4-1.5
		c-4.5,0-8.6,0.8-12.3,2.5c-3.7,1.7-6.9,4-9.5,6.9s-4.7,6.4-6.1,10.3c-1.5,3.9-2.2,8.2-2.2,12.7c0,4.8,0.7,9.2,2.2,13.2
		C368.5,71.1,370.5,74.5,373.1,77.4z"/>
	<path class="st0" d="M451.7,22.9L426.3,85h4.8l8-20h29.2l8.1,20h5.1l-25.4-62.1H451.7z M440.8,60.8l12.9-32.2l12.9,32.2H440.8z"/>
	<path class="st0" d="M517.2,57.5c4.5-1.1,7.8-3.1,9.9-6.3c2.1-3.1,3.1-6.7,3.1-10.7c0-2.5-0.4-4.9-1.2-7c-0.8-2.1-2-4-3.8-5.6
		c-1.7-1.6-4-2.8-6.8-3.7c-2.8-0.9-6.2-1.3-10.2-1.3h-18.7V85h4.5V58.1h18.4L526.8,85h5.1L517.2,57.5z M510.1,53.9H494V27.1h15.5
		c5.2,0,9.2,1.1,11.9,3.3c2.7,2.2,4,5.6,4,10C525.5,49.4,520.4,53.9,510.1,53.9z"/>
	<path class="st0" d="M594.8,53.9c0-5.4-0.9-10-2.6-14c-1.7-3.9-4.1-7.1-7.2-9.6c-3.1-2.5-6.7-4.4-11-5.6c-4.2-1.2-8.9-1.8-14-1.8
		h-16.9V85h17c5.1,0,9.8-0.6,14-1.8c4.2-1.2,7.9-3.1,11-5.6s5.5-5.8,7.2-9.7C593.9,63.9,594.8,59.3,594.8,53.9z M588,65.8
		c-1.4,3.4-3.3,6.2-5.9,8.4c-2.5,2.2-5.6,3.9-9.2,5c-3.6,1.1-7.6,1.6-12,1.6h-13.4V27.1h12.7c4.6,0,8.7,0.5,12.4,1.6
		c3.7,1.1,6.8,2.7,9.4,5c2.6,2.2,4.6,5,6,8.4c1.4,3.4,2.1,7.3,2.1,11.8S589.4,62.4,588,65.8z"/>
	<polygon class="st0" points="610.6,54.7 636.2,54.7 636.2,50.6 610.6,50.6 610.6,27.1 643.4,27.1 643.4,22.9 606.1,22.9 606.1,85 
		645.8,85 645.8,80.8 610.6,80.8 	"/>
	<polygon class="st0" points="705,85 705,22.9 700.6,22.9 700.6,78.3 660.8,22.9 656.1,22.9 656.1,85 660.5,85 660.5,30.4 700.3,85 
			"/>
	<polygon class="st0" points="188.7,102.3 181.3,114.7 174,102.3 172.3,102.3 171.4,123.2 172.9,123.2 173.6,104.6 180.7,116.6 
		181.6,116.6 188.9,104.6 189.6,123.2 191.1,123.2 190.2,102.3 	"/>
	<path class="st0" d="M206.6,121.4c0-0.4,0-0.8,0-1.2v-6.7c0-1.8-0.5-3.2-1.5-4s-2.5-1.2-4.3-1.2c-1.3,0-2.4,0.2-3.3,0.6
		c-0.9,0.4-1.5,0.8-1.9,1.2l0.8,1c0.4-0.3,0.9-0.6,1.6-1c0.7-0.3,1.6-0.5,2.8-0.5c0.7,0,1.3,0.1,1.9,0.2c0.5,0.1,1,0.3,1.4,0.7
		c0.4,0.3,0.7,0.7,0.8,1.3c0.2,0.5,0.3,1.2,0.3,2v0.8c-0.5-0.1-1.1-0.2-1.8-0.2s-1.5-0.1-2.4-0.1c-1.1,0-2.1,0.1-2.9,0.4
		s-1.4,0.6-1.9,1.1s-0.9,1-1.1,1.6c-0.2,0.6-0.3,1.3-0.3,2c0,0.9,0.2,1.6,0.5,2.1c0.3,0.6,0.7,1,1.2,1.3s1,0.5,1.6,0.7
		c0.6,0.1,1.2,0.2,1.8,0.2c0.4,0,0.8,0,1.3-0.1s1-0.2,1.4-0.4c0.5-0.2,1-0.5,1.4-0.9c0.5-0.4,0.9-0.8,1.2-1.4c0,0.4,0,0.7,0,1
		s0,0.5,0,0.8c0,0.2,0,0.4,0,0.6h1.4c0-0.3,0-0.5-0.1-0.9C206.6,122.1,206.6,121.7,206.6,121.4z M205.2,117.9c0,0.5-0.1,1.1-0.4,1.6
		c-0.3,0.5-0.6,1-1.1,1.4s-1,0.8-1.6,1c-0.6,0.3-1.3,0.4-2,0.4c-1.1,0-2-0.2-2.7-0.7s-1.1-1.2-1.1-2.3c0-0.4,0-0.8,0.1-1.2
		c0.1-0.5,0.3-0.9,0.6-1.3s0.8-0.7,1.4-1s1.5-0.4,2.5-0.4s1.9,0,2.5,0.1c0.7,0.1,1.2,0.2,1.6,0.3v2.1H205.2z"/>
	<path class="st0" d="M220.2,121.7c-0.8,0.4-1.7,0.6-2.8,0.6c-0.8,0-1.6-0.2-2.3-0.5s-1.3-0.8-1.8-1.4c-0.5-0.6-0.9-1.2-1.2-2
		s-0.4-1.6-0.4-2.4s0.1-1.7,0.4-2.4c0.3-0.8,0.7-1.4,1.2-2s1.1-1,1.8-1.4c0.7-0.3,1.5-0.5,2.3-0.5c1,0,1.9,0.2,2.7,0.5
		c0.7,0.4,1.3,0.9,1.8,1.5l1.1-0.8c-0.6-0.8-1.4-1.4-2.3-1.9s-2-0.7-3.3-0.7c-1,0-2,0.2-2.9,0.6c-0.9,0.4-1.7,0.9-2.3,1.6
		s-1.2,1.5-1.5,2.4c-0.4,0.9-0.5,1.9-0.5,3s0.2,2.1,0.5,3c0.4,0.9,0.9,1.7,1.5,2.4s1.4,1.2,2.3,1.6c0.9,0.4,1.9,0.6,2.9,0.6
		c1.3,0,2.4-0.2,3.3-0.7c1-0.5,1.8-1.1,2.4-1.8l-1-0.9C221.6,120.8,221,121.3,220.2,121.7z"/>
	<path class="st0" d="M237.6,121.4c0-0.4,0-0.8,0-1.2v-6.7c0-1.8-0.5-3.2-1.5-4s-2.5-1.2-4.3-1.2c-1.3,0-2.4,0.2-3.3,0.6
		c-0.9,0.4-1.5,0.8-1.9,1.2l0.8,1c0.4-0.3,0.9-0.6,1.6-1c0.7-0.3,1.6-0.5,2.8-0.5c0.7,0,1.3,0.1,1.9,0.2c0.5,0.1,1,0.3,1.4,0.7
		c0.4,0.3,0.7,0.7,0.8,1.3c0.2,0.5,0.3,1.2,0.3,2v0.8c-0.5-0.1-1.1-0.2-1.8-0.2s-1.5-0.1-2.4-0.1c-1.1,0-2.1,0.1-2.9,0.4
		s-1.4,0.6-1.9,1.1s-0.9,1-1.1,1.6s-0.3,1.3-0.3,2c0,0.9,0.2,1.6,0.5,2.1c0.3,0.6,0.7,1,1.2,1.3s1,0.5,1.6,0.7
		c0.6,0.1,1.2,0.2,1.8,0.2c0.4,0,0.8,0,1.3-0.1s1-0.2,1.4-0.4c0.5-0.2,1-0.5,1.4-0.9c0.5-0.4,0.9-0.8,1.2-1.4c0,0.4,0,0.7,0,1
		s0,0.5,0,0.8c0,0.2,0,0.4,0,0.6h1.4c0-0.3,0-0.5-0.1-0.9C237.6,122.1,237.6,121.7,237.6,121.4z M236.2,117.9c0,0.5-0.1,1.1-0.4,1.6
		s-0.6,1-1.1,1.4s-1,0.8-1.6,1c-0.6,0.3-1.3,0.4-2,0.4c-1.1,0-2-0.2-2.7-0.7s-1.1-1.2-1.1-2.3c0-0.4,0-0.8,0.1-1.2
		c0.1-0.5,0.3-0.9,0.6-1.3s0.8-0.7,1.4-1s1.5-0.4,2.5-0.4s1.9,0,2.5,0.1c0.7,0.1,1.2,0.2,1.6,0.3v2.1H236.2z"/>
	<rect x="241.9" y="102.3" class="st0" width="1.4" height="21"/>
	<path class="st0" d="M260.3,112.9c-0.3-1-0.8-1.8-1.4-2.5s-1.4-1.2-2.2-1.5s-1.8-0.5-2.8-0.5s-2,0.2-2.8,0.6
		c-0.9,0.4-1.6,0.9-2.2,1.6c-0.6,0.7-1.1,1.5-1.4,2.4s-0.5,1.9-0.5,3s0.2,2.2,0.5,3.1s0.9,1.7,1.5,2.4s1.4,1.2,2.3,1.6
		c0.9,0.4,1.9,0.5,3,0.5s2.2-0.2,3.3-0.7s1.9-1.1,2.6-1.9l-1-0.8c-0.3,0.3-0.6,0.6-0.9,0.8c-0.4,0.3-0.8,0.5-1.2,0.7
		c-0.4,0.2-0.9,0.3-1.4,0.4c-0.5,0.1-0.9,0.1-1.4,0.1c-0.9,0-1.6-0.2-2.3-0.5c-0.7-0.3-1.3-0.7-1.8-1.3c-0.5-0.5-0.9-1.2-1.2-1.9
		c-0.3-0.7-0.5-1.5-0.5-2.3h12.3C260.8,115.1,260.6,113.9,260.3,112.9z M248.5,115.1c0-0.8,0.2-1.5,0.5-2.1c0.3-0.7,0.7-1.2,1.1-1.7
		c0.5-0.5,1-0.9,1.6-1.2s1.3-0.4,2.1-0.4c1.5,0,2.7,0.5,3.7,1.4s1.5,2.3,1.7,4.1h-10.7V115.1z"/>
	<path class="st0" d="M273.5,116.4c-0.5-0.3-1-0.5-1.6-0.7s-1.2-0.3-1.8-0.5c-0.5-0.1-1.1-0.3-1.6-0.4c-0.5-0.1-1-0.3-1.4-0.5
		s-0.8-0.5-1-0.8c-0.3-0.3-0.4-0.7-0.4-1.2c0-0.6,0.1-1,0.3-1.4c0.2-0.3,0.5-0.6,0.9-0.8s0.8-0.3,1.3-0.4c0.5-0.1,0.9-0.1,1.4-0.1
		c0.9,0,1.7,0.2,2.4,0.5c0.7,0.3,1.2,0.8,1.7,1.3l1-0.9c-0.5-0.6-1.3-1.2-2.1-1.6c-0.9-0.4-1.9-0.6-3-0.6c-0.7,0-1.4,0.1-2,0.2
		c-0.6,0.2-1.2,0.4-1.7,0.7s-0.9,0.7-1.2,1.2c-0.3,0.5-0.4,1.1-0.4,1.7c0,0.7,0.1,1.2,0.3,1.7c0.2,0.5,0.5,0.8,0.9,1.1
		s0.9,0.5,1.4,0.7c0.6,0.2,1.2,0.4,1.8,0.5c0.8,0.2,1.5,0.4,2.1,0.5c0.6,0.2,1.1,0.3,1.5,0.6c0.4,0.2,0.7,0.5,0.9,0.8
		c0.2,0.3,0.3,0.8,0.3,1.3s-0.1,0.9-0.3,1.2c-0.2,0.3-0.5,0.6-0.9,0.8s-0.9,0.4-1.4,0.5s-1.1,0.2-1.7,0.2c-1.1,0-2-0.2-2.8-0.5
		s-1.5-0.8-2.1-1.4l-0.9,1c0.7,0.7,1.5,1.2,2.4,1.6c1,0.4,2.1,0.6,3.5,0.6c0.7,0,1.4-0.1,2.1-0.3s1.3-0.4,1.9-0.8s1-0.8,1.3-1.3
		s0.5-1.2,0.5-1.9s-0.2-1.3-0.5-1.8S274,116.8,273.5,116.4z"/>
	<path class="st0" d="M285.6,122c-0.4,0.2-0.8,0.3-1.4,0.3c-0.4,0-0.7,0-1-0.1s-0.6-0.3-0.8-0.5c-0.2-0.3-0.4-0.6-0.6-1.2
		c-0.1-0.5-0.2-1.2-0.2-2.1V110h4.8v-1.3h-4.8v-4.8h-1.4v4.8h-2.9v1.3h2.9v8.7c0,1,0.1,1.8,0.3,2.4s0.5,1.1,0.8,1.5s0.7,0.6,1.2,0.8
		c0.5,0.1,1,0.2,1.6,0.2c0.9,0,1.6-0.1,2.1-0.4c0.5-0.3,1-0.7,1.4-1.3l-0.9-0.8C286.4,121.5,286,121.8,285.6,122z"/>
	<path class="st0" d="M302,112.9c-0.3-1-0.8-1.8-1.4-2.5s-1.4-1.2-2.2-1.5s-1.8-0.5-2.8-0.5s-2,0.2-2.8,0.6
		c-0.9,0.4-1.6,0.9-2.2,1.6c-0.6,0.7-1.1,1.5-1.4,2.4s-0.5,1.9-0.5,3s0.2,2.2,0.5,3.1s0.9,1.7,1.5,2.4s1.4,1.2,2.3,1.6
		c0.9,0.4,1.9,0.5,3,0.5s2.2-0.2,3.3-0.7s1.9-1.1,2.6-1.9l-1-0.8c-0.3,0.3-0.6,0.6-0.9,0.8c-0.4,0.3-0.8,0.5-1.2,0.7
		c-0.4,0.2-0.9,0.3-1.4,0.4c-0.5,0.1-0.9,0.1-1.4,0.1c-0.9,0-1.6-0.2-2.3-0.5c-0.7-0.3-1.3-0.7-1.8-1.3c-0.5-0.5-0.9-1.2-1.2-1.9
		c-0.3-0.7-0.5-1.5-0.5-2.3h12.3C302.5,115.1,302.3,113.9,302,112.9z M290.2,115.1c0-0.8,0.2-1.5,0.5-2.1c0.3-0.7,0.7-1.2,1.1-1.7
		c0.5-0.5,1-0.9,1.6-1.2s1.3-0.4,2.1-0.4c1.5,0,2.7,0.5,3.7,1.4s1.5,2.3,1.7,4.1h-10.7V115.1z"/>
	<path class="st0" d="M310.8,109c-0.6,0.2-1.1,0.5-1.5,0.8s-0.8,0.7-1.1,1.1s-0.5,0.7-0.7,1.1c0-0.4,0-0.7,0-1s0-0.6,0-0.8
		s0-0.5,0-0.7s0-0.4,0-0.7h-1.4c0,0.2,0,0.4,0,0.6c0,0.2,0,0.4,0,0.6c0,0.2,0,0.5,0,0.8s0,0.6,0,1v11.4h1.4v-7.4
		c0-0.7,0.1-1.4,0.4-2.1c0.2-0.7,0.6-1.3,1-1.9c0.4-0.5,1-1,1.6-1.3s1.3-0.5,2-0.5c0.2,0,0.4,0,0.6,0s0.4,0.1,0.5,0.1l0.4-1.4
		c-0.3-0.1-0.7-0.2-1.2-0.2C312.1,108.6,311.4,108.7,310.8,109z"/>
	<path class="st0" d="M334.2,113.5c-0.6-0.5-1.2-0.8-2-1.1c-0.7-0.3-1.5-0.5-2.2-0.7s-1.4-0.4-2.1-0.6c-0.7-0.2-1.3-0.5-1.9-0.8
		s-1-0.7-1.4-1.2s-0.5-1.1-0.5-1.9c0-0.5,0.1-1,0.3-1.5c0.2-0.5,0.5-0.9,0.9-1.3c0.4-0.4,0.9-0.7,1.5-0.9s1.4-0.3,2.2-0.3
		c0.8,0,1.4,0.1,2,0.2c0.6,0.2,1.1,0.4,1.5,0.6c0.4,0.2,0.8,0.5,1.1,0.8c0.3,0.3,0.5,0.5,0.7,0.8l1.1-0.9c-0.2-0.3-0.5-0.6-0.9-1
		c-0.3-0.3-0.8-0.6-1.3-0.9s-1.1-0.5-1.8-0.7c-0.7-0.2-1.5-0.3-2.3-0.3c-1,0-1.9,0.1-2.8,0.4c-0.8,0.3-1.5,0.7-2,1.1
		c-0.6,0.5-1,1-1.3,1.7s-0.4,1.3-0.4,2c0,1,0.2,1.9,0.6,2.6c0.4,0.7,0.9,1.2,1.5,1.6c0.6,0.4,1.3,0.8,2.1,1c0.8,0.3,1.6,0.5,2.4,0.7
		c0.6,0.2,1.3,0.4,1.9,0.6s1.2,0.5,1.7,0.9s0.9,0.8,1.2,1.4c0.3,0.5,0.5,1.2,0.5,2c0,0.7-0.1,1.4-0.4,1.9c-0.3,0.6-0.7,1-1.1,1.4
		c-0.5,0.4-1.1,0.6-1.8,0.8c-0.7,0.2-1.4,0.3-2.2,0.3c-1.4,0-2.6-0.3-3.6-0.8s-1.8-1.2-2.6-2.1l-1.1,1.1c0.3,0.4,0.7,0.8,1.1,1.2
		c0.5,0.4,1,0.7,1.6,1s1.3,0.5,2.1,0.7s1.6,0.3,2.5,0.3c1,0,1.9-0.1,2.8-0.4c0.9-0.3,1.6-0.7,2.3-1.2c0.6-0.5,1.1-1.1,1.5-1.8
		s0.6-1.5,0.6-2.4c0-1-0.2-1.9-0.5-2.6C335.3,114.5,334.8,113.9,334.2,113.5z"/>
	<path class="st0" d="M351.8,110.6c-0.7-0.7-1.5-1.2-2.4-1.6c-0.9-0.4-1.9-0.6-2.9-0.6s-2,0.2-2.9,0.6c-0.9,0.4-1.7,0.9-2.4,1.6
		c-0.7,0.7-1.2,1.5-1.6,2.4s-0.6,1.9-0.6,3s0.2,2,0.6,3c0.4,0.9,0.9,1.7,1.6,2.4s1.5,1.2,2.4,1.6c0.9,0.4,1.9,0.6,2.9,0.6
		s2-0.2,2.9-0.6c0.9-0.4,1.7-0.9,2.4-1.6c0.7-0.7,1.2-1.5,1.6-2.4s0.6-1.9,0.6-3s-0.2-2-0.6-3C353,112.1,352.5,111.3,351.8,110.6z
		 M352,118.5c-0.3,0.8-0.7,1.4-1.3,2c-0.5,0.6-1.2,1-1.9,1.4c-0.7,0.3-1.5,0.5-2.4,0.5c-0.8,0-1.6-0.2-2.3-0.5
		c-0.7-0.3-1.4-0.8-1.9-1.4c-0.5-0.6-1-1.3-1.3-2c-0.3-0.8-0.5-1.6-0.5-2.4c0-0.9,0.2-1.7,0.5-2.5s0.7-1.4,1.3-2
		c0.5-0.6,1.2-1,1.9-1.4c0.7-0.3,1.5-0.5,2.4-0.5c0.8,0,1.6,0.2,2.3,0.5s1.4,0.8,1.9,1.4c0.5,0.6,1,1.3,1.3,2
		c0.3,0.8,0.5,1.6,0.5,2.4C352.5,116.9,352.3,117.7,352,118.5z"/>
	<path class="st0" d="M360.2,107.7c0-0.9,0.1-1.7,0.2-2.3c0.2-0.6,0.4-1.1,0.7-1.4c0.3-0.3,0.6-0.6,1-0.7s0.8-0.2,1.3-0.2
		c0.6,0,1.1,0.1,1.5,0.3c0.4,0.2,0.9,0.5,1.3,1l0.9-0.9c-0.4-0.5-0.9-0.9-1.6-1.2c-0.6-0.3-1.4-0.5-2.3-0.5c-1.4,0-2.6,0.5-3.3,1.4
		c-0.8,0.9-1.1,2.2-1.1,4v1.7h-2.9v1.3h2.9v13.1h1.4v-13.1h4.8v-1.3h-4.8V107.7z"/>
	<path class="st0" d="M374.1,122c-0.4,0.2-0.8,0.3-1.4,0.3c-0.4,0-0.7,0-1-0.1s-0.6-0.3-0.8-0.5c-0.2-0.3-0.4-0.6-0.5-1.2
		c-0.1-0.5-0.2-1.2-0.2-2.1V110h4.8v-1.3h-4.8v-4.8h-1.4v4.8h-2.9v1.3h2.9v8.7c0,1,0.1,1.8,0.3,2.4s0.5,1.1,0.8,1.5s0.7,0.6,1.2,0.8
		c0.5,0.1,1,0.2,1.6,0.2c0.9,0,1.6-0.1,2.1-0.4c0.5-0.3,1-0.7,1.4-1.3l-0.9-0.8C374.9,121.5,374.5,121.8,374.1,122z"/>
	<polygon class="st0" points="391.8,121.6 387.7,108.8 386.4,108.8 382.2,121.4 378.2,108.8 376.6,108.8 381.5,123.2 382.8,123.2 
		386.9,110.9 390.9,123.2 392.4,123.2 397,108.8 395.6,108.8 	"/>
	<path class="st0" d="M410.4,121.4c0-0.4,0-0.8,0-1.2v-6.7c0-1.8-0.5-3.2-1.5-4s-2.5-1.2-4.3-1.2c-1.3,0-2.4,0.2-3.3,0.6
		c-0.9,0.4-1.5,0.8-1.9,1.2l0.8,1c0.4-0.3,0.9-0.6,1.6-1s1.7-0.5,2.8-0.5c0.7,0,1.3,0.1,1.9,0.2c0.5,0.1,1,0.3,1.4,0.7
		c0.4,0.3,0.7,0.7,0.8,1.3c0.2,0.5,0.3,1.2,0.3,2v0.8c-0.5-0.1-1.1-0.2-1.8-0.2c-0.7-0.1-1.5-0.1-2.4-0.1c-1.1,0-2.1,0.1-2.9,0.4
		c-0.8,0.3-1.4,0.6-1.9,1.1s-0.9,1-1.1,1.6s-0.3,1.3-0.3,2c0,0.9,0.2,1.6,0.5,2.1c0.3,0.6,0.7,1,1.2,1.3s1,0.5,1.6,0.7
		c0.6,0.1,1.2,0.2,1.8,0.2c0.4,0,0.8,0,1.3-0.1s1-0.2,1.4-0.4c0.5-0.2,1-0.5,1.4-0.9c0.5-0.4,0.9-0.8,1.2-1.4c0,0.4,0,0.7,0,1
		s0,0.5,0,0.8c0,0.2,0,0.4,0,0.6h1.4c0-0.3,0-0.5-0.1-0.9C410.4,122.1,410.4,121.7,410.4,121.4z M409,117.9c0,0.5-0.1,1.1-0.4,1.6
		s-0.6,1-1.1,1.4s-1,0.8-1.7,1c-0.6,0.3-1.3,0.4-2,0.4c-1.1,0-2-0.2-2.7-0.7s-1.1-1.2-1.1-2.3c0-0.4,0-0.8,0.1-1.2
		c0.1-0.5,0.3-0.9,0.6-1.3s0.8-0.7,1.4-1s1.5-0.4,2.5-0.4s1.9,0,2.5,0.1c0.7,0.1,1.2,0.2,1.7,0.3v2.1H409z"/>
	<path class="st0" d="M419.4,109c-0.6,0.2-1.1,0.5-1.5,0.8s-0.8,0.7-1.1,1.1s-0.5,0.7-0.7,1.1c0-0.4,0-0.7,0-1s0-0.6,0-0.8
		s0-0.5,0-0.7s0-0.4,0-0.7h-1.3c0,0.2,0,0.4,0,0.6s0,0.4,0,0.6c0,0.2,0,0.5,0,0.8s0,0.6,0,1v11.4h1.4v-7.4c0-0.7,0.1-1.4,0.4-2.1
		c0.2-0.7,0.6-1.3,1-1.9c0.4-0.5,1-1,1.6-1.3s1.3-0.5,2-0.5c0.2,0,0.4,0,0.5,0s0.4,0.1,0.5,0.1l0.4-1.4c-0.3-0.1-0.7-0.2-1.2-0.2
		C420.7,108.6,420,108.7,419.4,109z"/>
	<path class="st0" d="M437,112.9c-0.3-1-0.8-1.8-1.4-2.5s-1.4-1.2-2.2-1.5s-1.8-0.5-2.8-0.5s-2,0.2-2.8,0.6
		c-0.9,0.4-1.6,0.9-2.2,1.6c-0.6,0.7-1.1,1.5-1.4,2.4s-0.5,1.9-0.5,3s0.2,2.2,0.6,3.1c0.4,0.9,0.9,1.7,1.5,2.4s1.4,1.2,2.3,1.6
		c0.9,0.4,1.9,0.5,3,0.5s2.2-0.2,3.3-0.7s1.9-1.1,2.6-1.9l-1-0.8c-0.3,0.3-0.6,0.6-0.9,0.8c-0.4,0.3-0.8,0.5-1.2,0.7
		c-0.4,0.2-0.9,0.3-1.4,0.4c-0.5,0.1-0.9,0.1-1.4,0.1c-0.9,0-1.6-0.2-2.3-0.5s-1.3-0.7-1.8-1.3c-0.5-0.5-0.9-1.2-1.2-1.9
		c-0.3-0.7-0.5-1.5-0.5-2.3h12.3C437.5,115.1,437.3,113.9,437,112.9z M425.2,115.1c0-0.8,0.2-1.5,0.5-2.1c0.3-0.7,0.7-1.2,1.1-1.7
		c0.5-0.5,1-0.9,1.7-1.2c0.6-0.3,1.3-0.4,2.1-0.4c1.5,0,2.7,0.5,3.7,1.4c0.9,0.9,1.5,2.3,1.7,4.1h-10.8V115.1z"/>
	<path class="st0" d="M450.3,105.9c0.7-0.9,1.6-1.5,2.7-2s2.3-0.7,3.6-0.7c1.1,0,2,0.1,2.7,0.4c0.8,0.3,1.4,0.6,1.9,1
		s0.9,0.7,1.2,1.1c0.3,0.4,0.5,0.6,0.6,0.8l1.1-0.8c-0.1-0.2-0.4-0.5-0.7-1c-0.3-0.4-0.8-0.9-1.4-1.3c-0.6-0.5-1.4-0.8-2.3-1.2
		c-0.9-0.3-2-0.5-3.2-0.5c-1.5,0-2.9,0.3-4.1,0.8c-1.2,0.6-2.3,1.3-3.2,2.3c-0.9,1-1.6,2.2-2.1,3.5s-0.7,2.8-0.7,4.3
		c0,1.6,0.2,3,0.7,4.4c0.5,1.3,1.2,2.5,2.1,3.5s2,1.8,3.2,2.3c1.2,0.6,2.6,0.8,4.1,0.8c1.2,0,2.3-0.2,3.2-0.5
		c0.9-0.3,1.7-0.7,2.3-1.2c0.6-0.5,1.1-0.9,1.4-1.3c0.3-0.4,0.6-0.8,0.7-1l-1.1-0.8c-0.1,0.2-0.3,0.4-0.6,0.8s-0.7,0.7-1.2,1.1
		c-0.5,0.4-1.1,0.7-1.9,1c-0.7,0.3-1.6,0.4-2.6,0.4c-1.4,0-2.6-0.2-3.6-0.7c-1.1-0.5-2-1.2-2.7-2c-0.7-0.9-1.3-1.9-1.7-3
		c-0.4-1.2-0.6-2.4-0.6-3.8c0-1.3,0.2-2.6,0.6-3.8C449,107.8,449.6,106.8,450.3,105.9z"/>
	<path class="st0" d="M479.3,110.6c-0.7-0.7-1.5-1.2-2.4-1.6c-0.9-0.4-1.9-0.6-2.9-0.6s-2,0.2-2.9,0.6c-0.9,0.4-1.7,0.9-2.4,1.6
		s-1.2,1.5-1.6,2.4s-0.6,1.9-0.6,3s0.2,2,0.6,3s0.9,1.7,1.6,2.4s1.5,1.2,2.4,1.6c0.9,0.4,1.9,0.6,2.9,0.6s2-0.2,2.9-0.6
		c0.9-0.4,1.7-0.9,2.4-1.6c0.7-0.7,1.2-1.5,1.6-2.4s0.6-1.9,0.6-3s-0.2-2-0.6-3C480.5,112.1,480,111.3,479.3,110.6z M479.5,118.5
		c-0.3,0.8-0.7,1.4-1.3,2c-0.5,0.6-1.2,1-1.9,1.4s-1.5,0.5-2.4,0.5c-0.8,0-1.6-0.2-2.3-0.5s-1.4-0.8-1.9-1.4s-1-1.3-1.3-2
		c-0.3-0.8-0.5-1.6-0.5-2.4c0-0.9,0.2-1.7,0.5-2.5s0.7-1.4,1.3-2c0.5-0.6,1.2-1,1.9-1.4s1.5-0.5,2.4-0.5c0.8,0,1.6,0.2,2.3,0.5
		c0.7,0.3,1.4,0.8,1.9,1.4s1,1.3,1.3,2s0.5,1.6,0.5,2.4C480,116.9,479.8,117.7,479.5,118.5z"/>
	<rect x="485.1" y="102.3" class="st0" width="1.4" height="21"/>
	<rect x="490.8" y="102.3" class="st0" width="1.4" height="21"/>
	<path class="st0" d="M507.7,121.4c0-0.4,0-0.8,0-1.2v-6.7c0-1.8-0.5-3.2-1.5-4s-2.5-1.2-4.3-1.2c-1.3,0-2.4,0.2-3.3,0.6
		c-0.9,0.4-1.5,0.8-1.9,1.2l0.8,1c0.4-0.3,0.9-0.6,1.6-1s1.7-0.5,2.8-0.5c0.7,0,1.3,0.1,1.9,0.2c0.5,0.1,1,0.3,1.4,0.7
		c0.4,0.3,0.7,0.7,0.8,1.3c0.2,0.5,0.3,1.2,0.3,2v0.8c-0.5-0.1-1.1-0.2-1.8-0.2c-0.7-0.1-1.5-0.1-2.4-0.1c-1.1,0-2.1,0.1-2.9,0.4
		c-0.8,0.3-1.4,0.6-1.9,1.1s-0.9,1-1.1,1.6c-0.2,0.6-0.3,1.3-0.3,2c0,0.9,0.2,1.6,0.5,2.1c0.3,0.6,0.7,1,1.2,1.3s1,0.5,1.6,0.7
		c0.6,0.1,1.2,0.2,1.8,0.2c0.4,0,0.8,0,1.3-0.1s1-0.2,1.4-0.4c0.5-0.2,1-0.5,1.4-0.9c0.5-0.4,0.9-0.8,1.2-1.4c0,0.4,0,0.7,0,1
		s0,0.5,0,0.8c0,0.2,0,0.4,0,0.6h1.4c0-0.3,0-0.5-0.1-0.9C507.8,122.1,507.7,121.7,507.7,121.4z M506.4,117.9c0,0.5-0.1,1.1-0.4,1.6
		c-0.3,0.5-0.6,1-1.1,1.4s-1,0.8-1.7,1c-0.6,0.3-1.3,0.4-2,0.4c-1.1,0-2-0.2-2.7-0.7s-1.1-1.2-1.1-2.3c0-0.4,0-0.8,0.1-1.2
		c0.1-0.5,0.3-0.9,0.6-1.3s0.8-0.7,1.4-1c0.6-0.3,1.5-0.4,2.5-0.4s1.9,0,2.5,0.1c0.7,0.1,1.2,0.2,1.7,0.3v2.1H506.4z"/>
	<path class="st0" d="M523.7,110.6c-0.5-0.7-1.2-1.2-2-1.6c-0.8-0.4-1.8-0.6-2.9-0.6c-0.8,0-1.5,0.1-2.1,0.3s-1.1,0.4-1.5,0.7
		s-0.8,0.6-1.1,1c-0.3,0.4-0.5,0.7-0.7,1v-9.1h-1.3v20.4c0.6,0.3,1.3,0.5,2.2,0.6c0.9,0.2,1.9,0.3,3,0.3s2.2-0.2,3.2-0.5
		s1.8-0.8,2.5-1.5c0.7-0.6,1.3-1.4,1.7-2.4c0.4-0.9,0.6-2,0.6-3.2c0-1.1-0.1-2.1-0.4-3C524.6,112.1,524.2,111.3,523.7,110.6z
		 M523.3,118.7c-0.3,0.8-0.8,1.4-1.4,2c-0.6,0.5-1.3,0.9-2.1,1.2c-0.8,0.3-1.6,0.4-2.6,0.4c-1.1,0-1.9-0.1-2.6-0.2
		c-0.6-0.1-1.1-0.3-1.3-0.3v-6.2c0-0.6,0.1-1.3,0.3-1.9c0.2-0.7,0.5-1.3,1-1.9c0.4-0.6,1-1,1.6-1.4s1.4-0.6,2.3-0.6
		c0.9,0,1.7,0.2,2.4,0.5c0.7,0.3,1.2,0.8,1.6,1.4c0.4,0.6,0.7,1.2,0.9,2c0.2,0.8,0.3,1.6,0.3,2.4C523.8,117,523.6,118,523.3,118.7z"
		/>
	<path class="st0" d="M540.9,110.6c-0.7-0.7-1.5-1.2-2.4-1.6c-0.9-0.4-1.9-0.6-2.9-0.6s-2,0.2-2.9,0.6c-0.9,0.4-1.7,0.9-2.4,1.6
		c-0.7,0.7-1.2,1.5-1.6,2.4c-0.4,0.9-0.6,1.9-0.6,3s0.2,2,0.6,3c0.4,1,0.9,1.7,1.6,2.4s1.5,1.2,2.4,1.6c0.9,0.4,1.9,0.6,2.9,0.6
		s2-0.2,2.9-0.6c0.9-0.4,1.7-0.9,2.4-1.6c0.7-0.7,1.2-1.5,1.6-2.4c0.4-0.9,0.6-1.9,0.6-3s-0.2-2-0.6-3
		C542.1,112.1,541.6,111.3,540.9,110.6z M541.1,118.5c-0.3,0.8-0.7,1.4-1.3,2c-0.5,0.6-1.2,1-1.9,1.4c-0.7,0.4-1.5,0.5-2.4,0.5
		c-0.8,0-1.6-0.2-2.3-0.5c-0.7-0.3-1.4-0.8-1.9-1.4s-1-1.3-1.3-2c-0.3-0.8-0.5-1.6-0.5-2.4c0-0.9,0.2-1.7,0.5-2.5
		c0.3-0.8,0.7-1.4,1.3-2c0.5-0.6,1.2-1,1.9-1.4c0.7-0.4,1.5-0.5,2.4-0.5c0.8,0,1.6,0.2,2.3,0.5c0.7,0.3,1.4,0.8,1.9,1.4s1,1.3,1.3,2
		c0.3,0.7,0.5,1.6,0.5,2.4C541.6,116.9,541.4,117.7,541.1,118.5z"/>
	<path class="st0" d="M551.4,109c-0.6,0.2-1.1,0.5-1.5,0.8s-0.8,0.7-1.1,1.1c-0.3,0.4-0.5,0.7-0.7,1.1c0-0.4,0-0.7,0-1s0-0.6,0-0.8
		s0-0.5,0-0.7s0-0.4,0-0.7h-1.3c0,0.2,0,0.4,0,0.6s0,0.4,0,0.6c0,0.2,0,0.5,0,0.8s0,0.6,0,1v11.4h1.4v-7.4c0-0.7,0.1-1.4,0.4-2.1
		c0.2-0.7,0.6-1.3,1-1.9c0.4-0.5,1-1,1.6-1.3s1.3-0.5,2-0.5c0.2,0,0.4,0,0.5,0s0.4,0.1,0.5,0.1l0.4-1.4c-0.3-0.1-0.7-0.2-1.2-0.2
		C552.7,108.6,552,108.7,551.4,109z"/>
	<path class="st0" d="M567.5,121.4c0-0.4,0-0.8,0-1.2v-6.7c0-1.8-0.5-3.2-1.5-4s-2.5-1.2-4.3-1.2c-1.3,0-2.4,0.2-3.3,0.6
		c-0.9,0.4-1.5,0.8-1.9,1.2l0.8,1c0.4-0.3,0.9-0.6,1.6-1s1.7-0.5,2.8-0.5c0.7,0,1.3,0.1,1.9,0.2c0.5,0.1,1,0.3,1.4,0.7
		c0.4,0.3,0.7,0.7,0.8,1.3c0.2,0.5,0.3,1.2,0.3,2v0.8c-0.5-0.1-1.1-0.2-1.8-0.2c-0.7-0.1-1.5-0.1-2.4-0.1c-1.1,0-2.1,0.1-2.9,0.4
		c-0.8,0.3-1.4,0.6-1.9,1.1s-0.9,1-1.1,1.6c-0.2,0.6-0.3,1.3-0.3,2c0,0.9,0.2,1.6,0.5,2.1c0.3,0.6,0.7,1,1.2,1.3s1,0.5,1.6,0.7
		c0.6,0.1,1.2,0.2,1.8,0.2c0.4,0,0.8,0,1.3-0.1s1-0.2,1.4-0.4c0.5-0.2,1-0.5,1.4-0.9c0.5-0.4,0.9-0.8,1.2-1.4c0,0.4,0,0.7,0,1
		s0,0.5,0,0.8c0,0.2,0,0.4,0,0.6h1.4c0-0.3,0-0.5-0.1-0.9C567.5,122.1,567.5,121.7,567.5,121.4z M566.1,117.9c0,0.5-0.1,1.1-0.4,1.6
		c-0.3,0.5-0.6,1-1.1,1.4s-1,0.8-1.7,1c-0.6,0.3-1.3,0.4-2,0.4c-1.1,0-2-0.2-2.7-0.7c-0.7-0.5-1.1-1.2-1.1-2.3c0-0.4,0-0.8,0.1-1.2
		c0.1-0.5,0.3-0.9,0.6-1.3c0.3-0.4,0.8-0.7,1.4-1s1.5-0.4,2.5-0.4s1.9,0,2.5,0.1c0.7,0.1,1.2,0.2,1.7,0.3v2.1H566.1z"/>
	<path class="st0" d="M578.5,122c-0.4,0.2-0.8,0.3-1.4,0.3c-0.4,0-0.7,0-1-0.1c-0.3-0.1-0.6-0.3-0.8-0.5c-0.2-0.3-0.4-0.6-0.5-1.2
		c-0.1-0.5-0.2-1.2-0.2-2.1V110h4.8v-1.3h-4.8v-4.8h-1.5v4.8h-2.9v1.3h2.9v8.7c0,1,0.1,1.8,0.3,2.4c0.2,0.6,0.5,1.1,0.8,1.5
		c0.3,0.4,0.7,0.6,1.2,0.8c0.5,0.1,1,0.2,1.6,0.2c0.9,0,1.6-0.1,2.1-0.4c0.5-0.3,1-0.7,1.4-1.3l-0.9-0.8
		C579.2,121.5,578.8,121.8,578.5,122z"/>
	<rect x="582.7" y="103.7" class="st0" width="2" height="2.1"/>
	<rect x="583" y="108.8" class="st0" width="1.4" height="14.5"/>
	<path class="st0" d="M600.8,110.6c-0.7-0.7-1.5-1.2-2.4-1.6c-0.9-0.4-1.9-0.6-2.9-0.6s-2,0.2-2.9,0.6c-0.9,0.4-1.7,0.9-2.4,1.6
		c-0.7,0.7-1.2,1.5-1.6,2.4c-0.4,0.9-0.6,1.9-0.6,3s0.2,2,0.6,3c0.4,1,0.9,1.7,1.6,2.4s1.5,1.2,2.4,1.6c0.9,0.4,1.9,0.6,2.9,0.6
		s2-0.2,2.9-0.6c0.9-0.4,1.7-0.9,2.4-1.6c0.7-0.7,1.2-1.5,1.6-2.4c0.4-0.9,0.6-1.9,0.6-3s-0.2-2-0.6-3
		C602,112.1,601.5,111.3,600.8,110.6z M601.1,118.5c-0.3,0.8-0.7,1.4-1.3,2c-0.5,0.6-1.2,1-1.9,1.4c-0.7,0.4-1.5,0.5-2.4,0.5
		c-0.8,0-1.6-0.2-2.3-0.5c-0.7-0.3-1.4-0.8-1.9-1.4s-1-1.3-1.3-2c-0.3-0.8-0.5-1.6-0.5-2.4c0-0.9,0.2-1.7,0.5-2.5
		c0.3-0.8,0.7-1.4,1.3-2c0.5-0.6,1.2-1,1.9-1.4c0.7-0.4,1.5-0.5,2.4-0.5c0.8,0,1.6,0.2,2.3,0.5c0.7,0.3,1.4,0.8,1.9,1.4s1,1.3,1.3,2
		c0.3,0.7,0.5,1.6,0.5,2.4C601.5,116.9,601.4,117.7,601.1,118.5z"/>
	<path class="st0" d="M618,110.1c-0.4-0.6-1-1-1.7-1.3c-0.7-0.3-1.6-0.4-2.6-0.4c-0.8,0-1.5,0.1-2.2,0.3c-0.6,0.2-1.2,0.5-1.6,0.9
		c-0.5,0.3-0.8,0.7-1.1,1.1c-0.3,0.4-0.5,0.8-0.7,1.1c0-0.4,0-0.7,0-1s0-0.5,0-0.8c0-0.2,0-0.4,0-0.6c0-0.2,0-0.4,0-0.6h-1.3
		c0,0.2,0,0.4,0,0.6s0,0.4,0,0.6c0,0.2,0,0.5,0,0.8s0,0.6,0,1v11.4h1.4v-7.4c0-0.7,0.1-1.4,0.3-2.1c0.2-0.7,0.6-1.4,1-1.9
		c0.4-0.6,1-1.1,1.7-1.4c0.7-0.4,1.5-0.6,2.4-0.6c0.7,0,1.3,0.1,1.8,0.3s1,0.5,1.4,0.9s0.6,1,0.8,1.7c0.2,0.7,0.3,1.6,0.3,2.7v8h1.4
		v-8.5c0-1-0.1-1.8-0.3-2.6C618.8,111.5,618.4,110.7,618,110.1z"/>
	<path class="st0" d="M640.9,113.5c-0.6-0.5-1.2-0.8-2-1.1c-0.7-0.3-1.5-0.5-2.2-0.7c-0.7-0.2-1.4-0.4-2.1-0.6
		c-0.7-0.2-1.3-0.5-1.9-0.8c-0.6-0.3-1-0.7-1.4-1.2s-0.5-1.1-0.5-1.9c0-0.5,0.1-1,0.3-1.5c0.2-0.5,0.5-0.9,0.9-1.3
		c0.4-0.4,0.9-0.7,1.5-0.9s1.4-0.3,2.2-0.3c0.8,0,1.4,0.1,2,0.2c0.6,0.2,1.1,0.4,1.5,0.6c0.4,0.2,0.8,0.5,1.1,0.8
		c0.3,0.3,0.5,0.5,0.7,0.8l1.1-0.9c-0.2-0.3-0.5-0.6-0.9-1c-0.3-0.3-0.8-0.6-1.3-0.9s-1.1-0.5-1.8-0.7c-0.7-0.2-1.5-0.3-2.3-0.3
		c-1,0-1.9,0.1-2.8,0.4c-0.8,0.3-1.5,0.7-2,1.1c-0.6,0.5-1,1-1.3,1.7c-0.3,0.7-0.4,1.3-0.4,2c0,1,0.2,1.9,0.6,2.6
		c0.4,0.7,0.9,1.2,1.5,1.6c0.6,0.4,1.3,0.8,2.1,1c0.8,0.3,1.6,0.5,2.4,0.7c0.6,0.2,1.3,0.4,1.9,0.6c0.6,0.2,1.2,0.5,1.7,0.9
		s0.9,0.8,1.2,1.4c0.3,0.6,0.5,1.2,0.5,2c0,0.7-0.1,1.4-0.4,1.9c-0.3,0.6-0.7,1-1.1,1.4c-0.5,0.4-1.1,0.6-1.8,0.8
		c-0.7,0.2-1.4,0.3-2.2,0.3c-1.4,0-2.6-0.3-3.6-0.8s-1.8-1.2-2.6-2.1l-1.1,1.1c0.3,0.4,0.7,0.8,1.1,1.2c0.5,0.4,1,0.7,1.6,1
		s1.3,0.5,2.1,0.7c0.8,0.2,1.6,0.3,2.5,0.3c1,0,1.9-0.1,2.8-0.4c0.9-0.3,1.6-0.7,2.3-1.2c0.6-0.5,1.1-1.1,1.5-1.8s0.6-1.5,0.6-2.4
		c0-1-0.2-1.9-0.6-2.6C642,114.5,641.5,113.9,640.9,113.5z"/>
	<path class="st0" d="M657.9,110.6c-0.5-0.7-1.2-1.2-2-1.6c-0.8-0.4-1.8-0.6-2.9-0.6c-0.9,0-1.6,0.1-2.3,0.4
		c-0.6,0.3-1.2,0.5-1.6,0.9c-0.4,0.3-0.8,0.7-1,1c-0.2,0.3-0.4,0.6-0.5,0.8c0-0.3,0-0.6,0-0.9s0-0.5,0-0.6c0-0.2,0-0.4,0-0.5
		c0-0.2,0-0.4,0-0.6h-1.3c0,0.2,0,0.4,0,0.6s0,0.4,0,0.6c0,0.2,0,0.5,0,0.8s0,0.6,0,1v17.7h1.4v-7.2c0.5,0.3,1.2,0.6,1.9,0.9
		c0.7,0.3,1.6,0.4,2.6,0.4s2-0.2,2.9-0.5c0.9-0.4,1.7-0.9,2.3-1.5s1.2-1.5,1.5-2.4c0.4-0.9,0.6-1.9,0.6-3.1c0-1.1-0.1-2.1-0.4-3
		C658.8,112.1,658.4,111.3,657.9,110.6z M657.5,118.7c-0.3,0.8-0.7,1.4-1.2,1.9s-1.1,0.9-1.9,1.2c-0.7,0.3-1.5,0.4-2.3,0.4
		c-0.6,0-1.2-0.1-1.7-0.2c-0.5-0.1-0.9-0.3-1.3-0.4c-0.4-0.1-0.7-0.3-0.9-0.5c-0.3-0.2-0.5-0.3-0.6-0.4v-4.5c0-0.5,0-1.1,0.1-1.6
		s0.2-1,0.3-1.4c0.2-0.5,0.4-0.9,0.7-1.3c0.3-0.4,0.6-0.8,1-1.1s0.9-0.6,1.4-0.8s1.1-0.3,1.7-0.3c0.9,0,1.7,0.2,2.4,0.5
		c0.6,0.3,1.2,0.8,1.6,1.4c0.4,0.6,0.7,1.3,0.9,2c0.2,0.7,0.3,1.6,0.3,2.4C658,117.1,657.8,118,657.5,118.7z"/>
	<path class="st0" d="M674.3,121.4c0-0.4,0-0.8,0-1.2v-6.7c0-1.8-0.5-3.2-1.5-4s-2.5-1.2-4.3-1.2c-1.3,0-2.4,0.2-3.3,0.6
		c-0.9,0.4-1.5,0.8-1.9,1.2l0.8,1c0.4-0.3,0.9-0.6,1.6-1s1.7-0.5,2.8-0.5c0.7,0,1.3,0.1,1.9,0.2c0.5,0.1,1,0.3,1.4,0.7
		c0.4,0.3,0.7,0.7,0.8,1.3c0.2,0.5,0.3,1.2,0.3,2v0.8c-0.5-0.1-1.1-0.2-1.8-0.2c-0.7-0.1-1.5-0.1-2.4-0.1c-1.1,0-2.1,0.1-2.9,0.4
		c-0.8,0.3-1.4,0.6-1.9,1.1s-0.9,1-1.1,1.6s-0.3,1.3-0.3,2c0,0.9,0.2,1.6,0.5,2.1c0.3,0.6,0.7,1,1.2,1.3s1,0.5,1.6,0.7
		c0.6,0.1,1.2,0.2,1.8,0.2c0.4,0,0.8,0,1.3-0.1s1-0.2,1.4-0.4c0.5-0.2,1-0.5,1.4-0.9c0.5-0.4,0.9-0.8,1.2-1.4c0,0.4,0,0.7,0,1
		s0,0.5,0,0.8c0,0.2,0,0.4,0,0.6h1.4c0-0.3,0-0.5-0.1-0.9C674.3,122.1,674.3,121.7,674.3,121.4z M672.9,117.9c0,0.5-0.1,1.1-0.4,1.6
		s-0.6,1-1.1,1.4s-1,0.8-1.7,1c-0.6,0.3-1.3,0.4-2,0.4c-1.1,0-2-0.2-2.7-0.7c-0.7-0.5-1.1-1.2-1.1-2.3c0-0.4,0-0.8,0.1-1.2
		c0.1-0.5,0.3-0.9,0.6-1.3c0.3-0.4,0.8-0.7,1.4-1c0.6-0.3,1.5-0.4,2.5-0.4s1.9,0,2.5,0.1c0.7,0.1,1.2,0.2,1.7,0.3v2.1H672.9z"/>
	<path class="st0" d="M687.9,121.7c-0.8,0.4-1.7,0.6-2.8,0.6c-0.8,0-1.6-0.2-2.3-0.5c-0.7-0.3-1.3-0.8-1.8-1.4
		c-0.5-0.6-0.9-1.2-1.2-2c-0.3-0.8-0.4-1.6-0.4-2.4s0.1-1.7,0.4-2.4c0.3-0.8,0.7-1.4,1.2-2s1.1-1,1.8-1.4c0.7-0.4,1.5-0.5,2.3-0.5
		c1,0,1.9,0.2,2.7,0.5c0.7,0.4,1.3,0.9,1.8,1.5l1.1-0.8c-0.6-0.8-1.4-1.4-2.3-1.9c-0.9-0.5-2-0.7-3.3-0.7c-1,0-2,0.2-2.9,0.6
		c-0.9,0.4-1.7,0.9-2.3,1.6c-0.7,0.7-1.2,1.5-1.5,2.4c-0.4,0.9-0.6,1.9-0.6,3s0.2,2.1,0.5,3c0.4,0.9,0.9,1.7,1.5,2.4
		s1.4,1.2,2.3,1.6c0.9,0.4,1.9,0.6,2.9,0.6c1.3,0,2.4-0.2,3.3-0.7c1-0.5,1.8-1.1,2.4-1.8l-1-0.9
		C689.3,120.8,688.7,121.3,687.9,121.7z"/>
	<path class="st0" d="M703.8,121.1c-0.4,0.3-0.8,0.5-1.2,0.7s-0.9,0.3-1.4,0.4c-0.5,0.1-0.9,0.1-1.4,0.1c-0.9,0-1.6-0.2-2.3-0.5
		c-0.7-0.3-1.3-0.7-1.8-1.3c-0.5-0.5-0.9-1.2-1.2-1.9c-0.3-0.7-0.5-1.5-0.5-2.3h12.3c0-1.3-0.2-2.4-0.5-3.4c-0.3-1-0.8-1.8-1.4-2.5
		c-0.6-0.7-1.4-1.2-2.2-1.5c-0.8-0.3-1.8-0.5-2.8-0.5s-2,0.2-2.8,0.6c-0.9,0.4-1.6,0.9-2.2,1.6c-0.6,0.7-1.1,1.5-1.4,2.4
		c-0.3,0.9-0.5,1.9-0.5,3s0.2,2.2,0.6,3.1c0.4,0.9,0.9,1.7,1.5,2.4s1.4,1.2,2.3,1.6c0.9,0.4,1.9,0.5,3,0.5s2.2-0.2,3.3-0.7
		s1.9-1.1,2.6-1.9l-1-0.8C704.5,120.5,704.2,120.8,703.8,121.1z M694.6,113c0.3-0.7,0.7-1.2,1.1-1.7c0.5-0.5,1-0.9,1.7-1.2
		c0.6-0.3,1.3-0.4,2.1-0.4c1.5,0,2.7,0.5,3.7,1.4c0.9,0.9,1.5,2.3,1.7,4.1h-10.8C694.2,114.4,694.3,113.7,694.6,113z"/>
</g>
<g>
	<path class="st0" d="M139.5,78.9c-1.6-1.7-3.1-3.3-4.5-4.5c-8.3-6.6-17.9-10-27.9-10c-15.4,0-29.5,8.3-37.7,22.2
		c-6.7,11.1-12.3,37.1-13.4,58.8h88V83.5C142.5,82.2,141,80.5,139.5,78.9z"/>
	<path class="st0" d="M19.4,0c0.4,0.8,0.7,1.5,1,2.2c0.3,0.6,0.5,1.2,0.8,1.7c0.6,1.3,1.2,2.5,1.7,3.8c2.5,5.5,4.8,10.7,9.6,14.9
		c5,4.4,10.8,7.6,16,10.4c8,4.4,13.9,9.8,17.5,15.8c4.9,8.3,6.2,18.3,3.9,28.8C81,64.5,96.4,60.9,111.5,58.5
		c11.2-1.8,22.1-3.9,31.6-9.1c0.3-0.2,0.6-0.4,0.9-0.6V0H19.4z"/>
	<path class="st0" d="M62.7,51.5C59.3,43.8,48.4,34.2,28,30.3c-3-0.6-6.1-1.1-9.1-1.5c-6.5-1-12.7-2-18.9-4v120.6h48.1
		c0.5-3.5,1-6.8,1.5-9.7c0.3-1.8,0.6-3.3,0.8-4.6c1.7-11.5,4.7-23.4,9.3-37.5C64.4,79.4,68.4,64.5,62.7,51.5z"/>
	<path class="st0" d="M107.8,61.6L107.8,61.6C107.7,61.6,107.7,61.6,107.8,61.6c-0.1,0.1-0.1,0.1-0.1,0.1s0,0.1,0.1,0.1h0.1
		c3-0.4,6.7-0.4,11.1,0c8.6,0.7,17.9,2.7,25.1,5.2v-0.2v-1.9v-0.5C132.6,61.5,117.7,60.3,107.8,61.6z"/>
	<path class="st0" d="M17,18.8c7.1,5.3,14.9,8.9,20.9,11.4c0,0,0,0,0.1,0l0,0c0,0,0.1,0,0.1-0.1V30c0-0.1-0.1-0.1-0.1-0.1
		c-7.8-3.3-14.4-7.2-20.1-12.1C14.3,14.7,7.7,8.4,3.3,0H3.1H0.3l0.1,0.2C4.7,7.5,10.1,13.6,17,18.8z"/>
</g>
</svg>
