<?xml version="1.0" encoding="utf-8"?>
<!-- Generator: Adobe Illustrator 19.2.1, SVG Export Plug-In . SVG Version: 6.00 Build 0)  -->
<svg version="1.1" xmlns="http://www.w3.org/2000/svg" xmlns:xlink="http://www.w3.org/1999/xlink" x="0px" y="0px"
	 viewBox="0 0 1023 194.6" enable-background="new 0 0 1023 194.6" xml:space="preserve">
<g id="Layer_2" display="none">
	<rect display="inline" fill="#27348B" width="1023" height="194.6"/>
</g>
<g id="Layer_1">
	<g>
		<path fill="#FFFFFF" d="M276.1,138.7l0.6,8.7h21.1V24.6h-21.7v36.3c-1.6-0.6-3-1.2-4.3-1.7c-1.2-0.5-2.6-0.9-4.1-1.2
			c-1.5-0.3-3.1-0.6-5-0.8s-4.2-0.3-7-0.3c-2.1,0-4.6,0.3-7.4,0.9c-2.8,0.6-5.8,1.5-8.8,2.8c-3,1.3-6,3-9,5c-3,2-5.7,4.5-8.1,7.6
			c-3,3.7-5.4,8.1-7.4,13.3c-2,5.2-3,11.3-3,18.2c0,7.3,1.1,13.8,3.3,19.5c2.2,5.7,5.1,10.5,8.7,14.4c3.6,3.9,7.6,6.9,12.2,8.9
			c4.6,2,9.2,3,13.9,3c3.3,0,6.3-0.4,9-1.1c2.7-0.8,5.1-1.7,7.2-2.8c2.2-1.1,4-2.4,5.6-3.8C273.6,141.3,275,140,276.1,138.7z
			 M265.2,129c-2.6,1.4-5.7,2.2-9.4,2.2c-7,0-12.4-2.5-16.1-7.6c-3.7-5-5.6-11.3-5.6-18.9c0-3.7,0.5-7.1,1.6-10.5
			c1-3.3,2.5-6.3,4.3-8.8c2.1-2.8,4.6-5,7.4-6.7c2.8-1.7,6.4-2.6,10.7-2.6c4.3,0,7.9,0.3,10.6,1c2.8,0.7,5.2,1.9,7.3,3.7v27.2
			c0,2.5-0.4,5.1-1.1,7.8c-0.7,2.7-1.9,5.2-3.5,7.5C269.9,125.7,267.8,127.5,265.2,129z"/>
		<path fill="#FFFFFF" d="M393.5,134.6L381.6,121c-0.7,0.8-1.8,1.7-3.2,2.9c-1.4,1.2-3.2,2.3-5.5,3.4c-2.2,1.1-4.9,2-8.1,2.8
			c-3.1,0.8-6.8,1.2-11,1.2c-2.8,0-5.7-0.5-8.6-1.5c-2.9-1-5.5-2.5-7.8-4.3c-2.3-1.9-4.1-4.2-5.6-6.8c-1.4-2.6-2.1-5.6-2.1-8.9h64.8
			v-3.2c0-6.3-0.7-12.5-2.2-18.5c-1.5-6-3.9-11.5-7.2-16.2c-3.3-4.8-7.7-8.7-13.2-11.6c-5.5-3-12.2-4.4-20.1-4.4
			c-6.5,0-12.5,1.2-17.9,3.6c-5.4,2.4-10,5.7-13.9,9.8s-6.9,9-9.1,14.6c-2.2,5.6-3.2,11.7-3.2,18.2c0,7.2,1.1,13.7,3.2,19.6
			c2.2,5.9,5.2,11,9.3,15.2c4,4.2,8.9,7.5,14.5,9.9c5.7,2.4,12,3.6,18.9,3.6c6.8,0,12.6-0.8,17.5-2.3c4.9-1.5,8.9-3.2,12-5.1
			c3.1-1.9,5.6-3.7,7.2-5.4C392.1,136,393.1,134.9,393.5,134.6z M331.1,87c1-2.3,2.4-4.3,4.3-6.1c1.9-1.8,4.2-3.3,6.9-4.5
			c2.8-1.2,6-1.8,9.5-1.8c3.3,0,6.3,0.6,8.9,1.8c2.6,1.2,4.7,2.7,6.4,4.5c1.7,1.8,2.9,3.9,3.8,6.1c0.9,2.3,1.3,4.5,1.3,6.8h-42.6
			C329.6,91.5,330.1,89.2,331.1,87z"/>
		<polygon fill="#FFFFFF" points="489.9,58.8 466,58.8 442.7,122.3 419.4,58.8 394.2,58.8 431,147.4 453.2,147.4 		"/>
		<path fill="#FFFFFF" d="M506.7,136.4c3.8,4.2,8.4,7.4,13.8,9.7c5.4,2.3,11.3,3.4,17.7,3.4c4.4,0,8.4-0.3,11.9-0.9
			c3.5-0.6,6.7-1.5,9.5-2.6c2.8-1.1,5.3-2.3,7.5-3.6c2.2-1.3,4-2.6,5.5-4v-33.6h-30.4v6.1h23.9v24.9c-2.9,2.1-6.5,3.9-11,5.4
			c-4.4,1.5-10.1,2.3-17,2.3c-5.6,0-10.7-1.1-15.3-3.2c-4.5-2.1-8.4-5-11.6-8.7c-3.2-3.7-5.6-8.1-7.3-13c-1.7-5-2.5-10.3-2.5-16.1
			c0-5.7,0.9-11.1,2.6-16.1c1.7-5,4.1-9.3,7.3-13c3.2-3.7,7.1-6.6,11.7-8.7c4.6-2.1,9.8-3.2,15.7-3.2c4.2,0,7.9,0.6,11,1.9
			c3.1,1.3,5.8,2.7,8,4.3c2.2,1.6,3.9,3.2,5.2,4.8c1.3,1.6,2.2,2.7,2.7,3.4l4.8-3.4c-0.5-0.9-1.5-2.3-3-4.2
			c-1.5-1.9-3.5-3.8-6.1-5.7c-2.6-1.9-5.8-3.6-9.6-5c-3.8-1.4-8.4-2.2-13.6-2.2c-6.5,0-12.4,1.2-17.7,3.6c-5.4,2.4-10,5.8-13.8,10
			c-3.8,4.3-6.8,9.2-8.9,14.9c-2.1,5.7-3.2,11.8-3.2,18.4c0,6.9,1.1,13.2,3.2,19C499.9,127.3,502.9,132.3,506.7,136.4z"/>
		<path fill="#FFFFFF" d="M620.2,57.7l-36.7,89.7h7l11.6-28.9h42.2l11.7,28.9h7.4l-36.7-89.7H620.2z M604.5,112.4l18.7-46.5
			l18.7,46.5H604.5z"/>
		<path fill="#FFFFFF" d="M714.9,107.7c6.5-1.5,11.3-4.5,14.3-9.1c3-4.5,4.5-9.7,4.5-15.5c0-3.7-0.6-7.1-1.7-10.2
			c-1.1-3.1-2.9-5.8-5.4-8.1c-2.5-2.3-5.8-4.1-9.8-5.3c-4-1.3-9-1.9-14.8-1.9h-27v89.7h6.5v-38.9H708l20.8,38.9h7.4L714.9,107.7z
			 M704.6,102.5h-23.3V63.8h22.5c7.5,0,13.2,1.6,17.1,4.8c3.9,3.2,5.8,8.1,5.8,14.5C726.8,96,719.4,102.5,704.6,102.5z"/>
		<path fill="#FFFFFF" d="M827,102.5c0-7.8-1.2-14.5-3.7-20.2c-2.5-5.6-5.9-10.3-10.4-13.9c-4.4-3.6-9.7-6.3-15.9-8.1
			c-6.1-1.7-12.9-2.6-20.2-2.6h-24.5v89.7h24.5c7.3,0,14.1-0.9,20.2-2.6c6.1-1.7,11.4-4.5,15.9-8.1c4.4-3.7,7.9-8.3,10.4-14
			C825.8,117,827,110.3,827,102.5z M817.2,119.6c-2,4.9-4.8,8.9-8.5,12.2c-3.7,3.2-8.1,5.6-13.2,7.2c-5.2,1.6-10.9,2.4-17.3,2.4
			h-19.4V63.8h18.3c6.6,0,12.6,0.8,17.9,2.4c5.3,1.6,9.8,4,13.5,7.2c3.7,3.2,6.6,7.3,8.6,12.1c2,4.8,3,10.5,3,17.1
			C820.1,109,819.1,114.7,817.2,119.6z"/>
		<polygon fill="#FFFFFF" points="849.8,103.7 886.8,103.7 886.8,97.6 849.8,97.6 849.8,63.8 897.2,63.8 897.2,57.7 843.4,57.7 
			843.4,147.4 900.7,147.4 900.7,141.3 849.8,141.3 		"/>
		<polygon fill="#FFFFFF" points="986.2,147.4 986.2,57.7 979.9,57.7 979.9,137.7 922.3,57.7 915.6,57.7 915.6,147.4 921.9,147.4 
			921.9,68.5 979.5,147.4 		"/>
	</g>
	<g>
		<g>
			<path fill="#FFFFFF" d="M169.2,103.5c-1.6-1.7-3.1-3.3-4.5-4.5c-8.3-6.6-17.9-10-27.9-10c-15.4,0-29.5,8.3-37.7,22.2
				c-6.6,11.1-12.2,37.1-13.3,58.8h88v-61.9C172.2,106.8,170.7,105.1,169.2,103.5z"/>
			<path fill="#FFFFFF" d="M49.2,24.6c0.4,0.8,0.7,1.5,1,2.2c0.3,0.6,0.5,1.2,0.8,1.7c0.6,1.3,1.2,2.5,1.7,3.8
				c2.5,5.5,4.8,10.7,9.6,14.9c5,4.4,10.8,7.6,16,10.4c8,4.4,13.9,9.8,17.5,15.8c4.9,8.3,6.2,18.3,3.9,28.8
				c11.1-13.1,26.5-16.7,41.6-19.1c11.2-1.8,22.1-3.9,31.6-9.1c0.3-0.2,0.6-0.4,0.9-0.6V24.6H49.2z"/>
			<path fill="#FFFFFF" d="M92.5,76.1c-3.4-7.7-14.3-17.3-34.7-21.2c-3-0.6-6.1-1.1-9.1-1.5c-6.5-1-12.7-2-18.9-4V170H78
				c0.5-3.5,1-6.8,1.5-9.7c0.3-1.8,0.6-3.3,0.8-4.6c1.7-11.5,4.7-23.4,9.3-37.5C94.2,104,98.2,89.1,92.5,76.1z"/>
		</g>
		<g>
			<path fill="none" stroke="#1A225C" stroke-width="3" stroke-miterlimit="10" d="M173.8,108.1c-1.6-1.3-3.1-3-4.5-4.6
				c-1.6-1.7-3.1-3.3-4.5-4.5c-8.3-6.6-17.9-10-27.9-10c-15.4,0-29.5,8.3-37.7,22.2c-6.6,11.1-12.2,37.1-13.3,58.8"/>
			<path fill="none" stroke="#1A225C" stroke-width="3" stroke-miterlimit="10" d="M49.2,24.6c0.4,0.8,0.7,1.5,1,2.2
				c0.3,0.6,0.5,1.2,0.8,1.7c0.6,1.3,1.2,2.5,1.7,3.8c2.5,5.5,4.8,10.7,9.6,14.9c5,4.4,10.8,7.6,16,10.4c8,4.4,13.9,9.8,17.5,15.8
				c4.9,8.3,6.2,18.3,3.9,28.8c11.1-13.1,26.5-16.7,41.6-19.1c11.2-1.8,22.1-3.9,31.6-9.1c0.3-0.2,0.6-0.4,0.9-0.6"/>
			<path fill="none" stroke="#1A225C" stroke-width="3" stroke-miterlimit="10" d="M78,170c0.5-3.5,1-6.8,1.5-9.7
				c0.3-1.8,0.6-3.3,0.8-4.6c1.7-11.5,4.7-23.4,9.3-37.5c4.6-14.1,8.6-29,2.9-42c-3.4-7.7-14.3-17.3-34.7-21.2
				c-3-0.6-6.1-1.1-9.1-1.5c-6.5-1-12.7-2-18.9-4"/>
		</g>
		<path opacity="0.75" fill="#FFFFFF" stroke="#FFFFFF" stroke-miterlimit="10" d="M137.6,86.2C137.6,86.2,137.6,86.2,137.6,86.2
			c0,0,0,0.2,0,0.2c3-0.4,6.7-0.4,11.1,0c8.6,0.7,17.9,2.7,25.1,5.2v-0.2v-1.9v-0.5C162.3,86.1,147.4,84.9,137.6,86.2z"/>
		<path opacity="0.75" fill="#FFFFFF" stroke="#FFFFFF" stroke-miterlimit="10" d="M46.8,43.4c7.1,5.3,14.9,8.9,20.9,11.4
			c0,0,0,0,0.1,0c0,0,0,0,0,0c0,0,0.1-0.1,0.1-0.2c0-0.1-0.1-0.1-0.1-0.1c-7.8-3.3-14.4-7.2-20.1-12.1c-3.6-3.1-10.2-9.4-14.6-17.8
			h-0.2h-2.5h-0.2v0.2C34.4,32.1,39.8,38.2,46.8,43.4z"/>
	</g>
</g>
</svg>
