<?xml version="1.0" encoding="utf-8"?>
<!-- Generator: Adobe Illustrator 19.1.0, SVG Export Plug-In . SVG Version: 6.00 Build 0)  -->
<svg version="1.1" id="Layer_1" xmlns="http://www.w3.org/2000/svg" xmlns:xlink="http://www.w3.org/1999/xlink" x="0px" y="0px"
	 viewBox="0 0 792.1 194.6" enable-background="new 0 0 792.1 194.6" xml:space="preserve">
<g>
	<path fill="#282561" d="M249.5,103.6l0.4,6h14.6v-85h-15v25.1c-1.1-0.4-2.1-0.8-2.9-1.2c-0.9-0.3-1.8-0.6-2.8-0.8
		c-1-0.2-2.2-0.4-3.5-0.5s-2.9-0.2-4.9-0.2c-1.5,0-3.2,0.2-5.1,0.6c-2,0.4-4,1-6.1,2c-2.1,0.9-4.2,2.1-6.2,3.5
		c-2,1.4-3.9,3.1-5.6,5.2c-2,2.5-3.8,5.6-5.1,9.2c-1.4,3.6-2,7.8-2,12.6c0,5.1,0.8,9.5,2.3,13.5c1.5,3.9,3.5,7.2,6,9.9
		c2.5,2.7,5.3,4.8,8.5,6.1c3.2,1.4,6.4,2.1,9.6,2.1c2.3,0,4.4-0.3,6.2-0.8c1.8-0.5,3.5-1.2,5-2c1.5-0.8,2.8-1.7,3.9-2.6
		C247.8,105.4,248.7,104.4,249.5,103.6z M241.9,96.8c-1.8,1-4,1.5-6.5,1.5c-4.9,0-8.6-1.7-11.1-5.2c-2.6-3.5-3.8-7.8-3.8-13.1
		c0-2.5,0.4-4.9,1.1-7.3c0.7-2.3,1.7-4.3,3-6.1c1.5-1.9,3.2-3.5,5.1-4.6c2-1.2,4.4-1.8,7.4-1.8c3,0,5.4,0.2,7.4,0.7
		c1.9,0.5,3.6,1.3,5.1,2.5v18.8c0,1.7-0.3,3.6-0.8,5.4c-0.5,1.9-1.3,3.6-2.4,5.2C245.2,94.5,243.7,95.8,241.9,96.8z"/>
	<path fill="#282561" d="M330.7,100.7l-8.2-9.4c-0.5,0.5-1.3,1.2-2.2,2c-1,0.8-2.2,1.6-3.8,2.4c-1.5,0.7-3.4,1.4-5.6,2
		c-2.2,0.6-4.7,0.8-7.6,0.8c-2,0-4-0.3-6-1c-2-0.7-3.8-1.7-5.4-3c-1.6-1.3-2.9-2.9-3.8-4.7c-1-1.8-1.5-3.9-1.5-6.1h44.8v-2.2
		c0-4.4-0.5-8.6-1.5-12.8c-1-4.2-2.7-7.9-5-11.2c-2.3-3.3-5.4-6-9.2-8c-3.8-2-8.4-3.1-13.9-3.1c-4.5,0-8.6,0.8-12.4,2.5
		c-3.7,1.7-6.9,3.9-9.6,6.8s-4.8,6.3-6.3,10.1c-1.5,3.9-2.2,8.1-2.2,12.6c0,5,0.7,9.5,2.2,13.6c1.5,4.1,3.6,7.6,6.4,10.5
		c2.8,2.9,6.1,5.2,10.1,6.9c3.9,1.7,8.3,2.5,13.1,2.5c4.7,0,8.7-0.5,12.1-1.6c3.4-1,6.1-2.2,8.3-3.5c2.2-1.3,3.8-2.5,5-3.7
		S330.4,101,330.7,100.7z M287.5,67.8c0.7-1.6,1.7-3,2.9-4.2c1.3-1.3,2.9-2.3,4.8-3.1c1.9-0.8,4.1-1.2,6.6-1.2
		c2.3,0,4.4,0.4,6.1,1.2c1.8,0.8,3.3,1.9,4.4,3.1c1.2,1.3,2,2.7,2.6,4.2c0.6,1.6,0.9,3.1,0.9,4.7h-29.5
		C286.5,70.9,286.9,69.3,287.5,67.8z"/>
	<polygon fill="#282561" points="397.4,48.3 380.9,48.3 364.8,92.2 348.6,48.3 331.2,48.3 356.7,109.6 372.1,109.6 	"/>
	<path fill="#282561" d="M409,102c2.6,2.9,5.8,5.1,9.5,6.7c3.7,1.6,7.8,2.4,12.3,2.4c3,0,5.8-0.2,8.2-0.7c2.5-0.4,4.7-1,6.6-1.8
		c2-0.7,3.7-1.6,5.2-2.5c1.5-0.9,2.8-1.8,3.8-2.7V80.2h-21v4.2h16.6v17.2c-2,1.4-4.5,2.7-7.6,3.7c-3.1,1.1-7,1.6-11.8,1.6
		c-3.9,0-7.4-0.7-10.6-2.2c-3.1-1.5-5.8-3.5-8-6c-2.2-2.6-3.9-5.6-5-9s-1.7-7.1-1.7-11.1c0-4,0.6-7.7,1.8-11.1
		c1.2-3.4,2.9-6.4,5.1-9c2.2-2.5,4.9-4.5,8.1-6c3.2-1.5,6.8-2.2,10.8-2.2c2.9,0,5.5,0.4,7.6,1.3c2.2,0.9,4,1.9,5.5,3
		c1.5,1.1,2.7,2.2,3.6,3.3c0.9,1.1,1.5,1.9,1.9,2.4l3.3-2.3c-0.4-0.6-1.1-1.6-2.1-2.9s-2.4-2.6-4.2-4c-1.8-1.3-4-2.5-6.7-3.5
		c-2.6-1-5.8-1.5-9.4-1.5c-4.5,0-8.6,0.8-12.3,2.5c-3.7,1.7-6.9,4-9.5,6.9c-2.6,2.9-4.7,6.4-6.1,10.3c-1.5,3.9-2.2,8.2-2.2,12.7
		c0,4.8,0.7,9.2,2.2,13.2C404.4,95.7,406.4,99.1,409,102z"/>
	<path fill="#282561" d="M487.6,47.5l-25.4,62.1h4.8l8-20h29.2l8.1,20h5.1l-25.4-62.1H487.6z M476.7,85.4l12.9-32.2l12.9,32.2H476.7
		z"/>
	<path fill="#282561" d="M553.1,82.1c4.5-1.1,7.8-3.1,9.9-6.3c2.1-3.1,3.1-6.7,3.1-10.7c0-2.5-0.4-4.9-1.2-7c-0.8-2.1-2-4-3.8-5.6
		c-1.7-1.6-4-2.8-6.8-3.7c-2.8-0.9-6.2-1.3-10.2-1.3h-18.7v62.1h4.5V82.7h18.4l14.4,26.9h5.1L553.1,82.1z M546,78.5h-16.1V51.7h15.5
		c5.2,0,9.2,1.1,11.9,3.3c2.7,2.2,4,5.6,4,10C561.4,74,556.3,78.5,546,78.5z"/>
	<path fill="#282561" d="M630.7,78.5c0-5.4-0.9-10-2.6-14c-1.7-3.9-4.1-7.1-7.2-9.6c-3.1-2.5-6.7-4.4-11-5.6
		c-4.2-1.2-8.9-1.8-14-1.8h-16.9v62.1H596c5.1,0,9.8-0.6,14-1.8c4.2-1.2,7.9-3.1,11-5.6c3.1-2.5,5.5-5.8,7.2-9.7
		C629.8,88.5,630.7,83.9,630.7,78.5z M623.9,90.4c-1.4,3.4-3.3,6.2-5.9,8.4c-2.5,2.2-5.6,3.9-9.2,5c-3.6,1.1-7.6,1.6-12,1.6h-13.4
		V51.7h12.7c4.6,0,8.7,0.5,12.4,1.6c3.7,1.1,6.8,2.7,9.4,5c2.6,2.2,4.6,5,6,8.4S626,74,626,78.5C626,83,625.3,87,623.9,90.4z"/>
	<polygon fill="#282561" points="646.5,79.3 672.1,79.3 672.1,75.2 646.5,75.2 646.5,51.7 679.3,51.7 679.3,47.5 642,47.5 
		642,109.6 681.7,109.6 681.7,105.4 646.5,105.4 	"/>
	<polygon fill="#282561" points="740.9,109.6 740.9,47.5 736.5,47.5 736.5,102.9 696.7,47.5 692,47.5 692,109.6 696.4,109.6 
		696.4,55 736.2,109.6 	"/>
	<polygon fill="#282561" points="224.6,126.9 217.2,139.3 209.9,126.9 208.2,126.9 207.3,147.8 208.8,147.8 209.5,129.2 
		216.6,141.2 217.5,141.2 224.8,129.2 225.5,147.8 227,147.8 226.1,126.9 	"/>
	<path fill="#282561" d="M242.5,146c0-0.4,0-0.8,0-1.2v-6.7c0-1.8-0.5-3.2-1.5-4c-1-0.8-2.5-1.2-4.3-1.2c-1.3,0-2.4,0.2-3.3,0.6
		c-0.9,0.4-1.5,0.8-1.9,1.2l0.8,1c0.4-0.3,0.9-0.6,1.6-1c0.7-0.3,1.6-0.5,2.8-0.5c0.7,0,1.3,0.1,1.9,0.2c0.5,0.1,1,0.3,1.4,0.7
		c0.4,0.3,0.7,0.7,0.8,1.3c0.2,0.5,0.3,1.2,0.3,2v0.8c-0.5-0.1-1.1-0.2-1.8-0.2s-1.5-0.1-2.4-0.1c-1.1,0-2.1,0.1-2.9,0.4
		s-1.4,0.6-1.9,1.1c-0.5,0.5-0.9,1-1.1,1.6c-0.2,0.6-0.3,1.3-0.3,2c0,0.9,0.2,1.6,0.5,2.1c0.3,0.6,0.7,1,1.2,1.3
		c0.5,0.3,1,0.5,1.6,0.7c0.6,0.1,1.2,0.2,1.8,0.2c0.4,0,0.8,0,1.3-0.1c0.5-0.1,1-0.2,1.4-0.4c0.5-0.2,1-0.5,1.4-0.9
		c0.5-0.4,0.9-0.8,1.2-1.4c0,0.4,0,0.7,0,1c0,0.3,0,0.5,0,0.8c0,0.2,0,0.4,0,0.6h1.4c0-0.3,0-0.5-0.1-0.9
		C242.5,146.7,242.5,146.3,242.5,146z M241.1,142.5c0,0.5-0.1,1.1-0.4,1.6c-0.3,0.5-0.6,1-1.1,1.4c-0.5,0.4-1,0.8-1.6,1
		c-0.6,0.3-1.3,0.4-2,0.4c-1.1,0-2-0.2-2.7-0.7c-0.7-0.5-1.1-1.2-1.1-2.3c0-0.4,0-0.8,0.1-1.2c0.1-0.5,0.3-0.9,0.6-1.3
		s0.8-0.7,1.4-1s1.5-0.4,2.5-0.4c1,0,1.9,0,2.5,0.1c0.7,0.1,1.2,0.2,1.6,0.3V142.5z"/>
	<path fill="#282561" d="M256.1,146.3c-0.8,0.4-1.7,0.6-2.8,0.6c-0.8,0-1.6-0.2-2.3-0.5s-1.3-0.8-1.8-1.4c-0.5-0.6-0.9-1.2-1.2-2
		c-0.3-0.8-0.4-1.6-0.4-2.4s0.1-1.7,0.4-2.4c0.3-0.8,0.7-1.4,1.2-2c0.5-0.6,1.1-1,1.8-1.4c0.7-0.3,1.5-0.5,2.3-0.5
		c1,0,1.9,0.2,2.7,0.5c0.7,0.4,1.3,0.9,1.8,1.5l1.1-0.8c-0.6-0.8-1.4-1.4-2.3-1.9c-0.9-0.5-2-0.7-3.3-0.7c-1,0-2,0.2-2.9,0.6
		c-0.9,0.4-1.7,0.9-2.3,1.6s-1.2,1.5-1.5,2.4c-0.4,0.9-0.5,1.9-0.5,3c0,1.1,0.2,2.1,0.5,3c0.4,0.9,0.9,1.7,1.5,2.4
		c0.6,0.7,1.4,1.2,2.3,1.6c0.9,0.4,1.9,0.6,2.9,0.6c1.3,0,2.4-0.2,3.3-0.7c1-0.5,1.8-1.1,2.4-1.8l-1-0.9
		C257.5,145.4,256.9,145.9,256.1,146.3z"/>
	<path fill="#282561" d="M273.5,146c0-0.4,0-0.8,0-1.2v-6.7c0-1.8-0.5-3.2-1.5-4c-1-0.8-2.5-1.2-4.3-1.2c-1.3,0-2.4,0.2-3.3,0.6
		c-0.9,0.4-1.5,0.8-1.9,1.2l0.8,1c0.4-0.3,0.9-0.6,1.6-1c0.7-0.3,1.6-0.5,2.8-0.5c0.7,0,1.3,0.1,1.9,0.2c0.5,0.1,1,0.3,1.4,0.7
		c0.4,0.3,0.7,0.7,0.8,1.3c0.2,0.5,0.3,1.2,0.3,2v0.8c-0.5-0.1-1.1-0.2-1.8-0.2s-1.5-0.1-2.4-0.1c-1.1,0-2.1,0.1-2.9,0.4
		s-1.4,0.6-1.9,1.1c-0.5,0.5-0.9,1-1.1,1.6c-0.2,0.6-0.3,1.3-0.3,2c0,0.9,0.2,1.6,0.5,2.1c0.3,0.6,0.7,1,1.2,1.3
		c0.5,0.3,1,0.5,1.6,0.7c0.6,0.1,1.2,0.2,1.8,0.2c0.4,0,0.8,0,1.3-0.1c0.5-0.1,1-0.2,1.4-0.4c0.5-0.2,1-0.5,1.4-0.9
		c0.5-0.4,0.9-0.8,1.2-1.4c0,0.4,0,0.7,0,1c0,0.3,0,0.5,0,0.8c0,0.2,0,0.4,0,0.6h1.4c0-0.3,0-0.5-0.1-0.9
		C273.5,146.7,273.5,146.3,273.5,146z M272.1,142.5c0,0.5-0.1,1.1-0.4,1.6c-0.3,0.5-0.6,1-1.1,1.4c-0.5,0.4-1,0.8-1.6,1
		c-0.6,0.3-1.3,0.4-2,0.4c-1.1,0-2-0.2-2.7-0.7c-0.7-0.5-1.1-1.2-1.1-2.3c0-0.4,0-0.8,0.1-1.2c0.1-0.5,0.3-0.9,0.6-1.3
		s0.8-0.7,1.4-1s1.5-0.4,2.5-0.4c1,0,1.9,0,2.5,0.1c0.7,0.1,1.2,0.2,1.6,0.3V142.5z"/>
	<rect x="277.8" y="126.9" fill="#282561" width="1.4" height="21"/>
	<path fill="#282561" d="M296.2,137.5c-0.3-1-0.8-1.8-1.4-2.5c-0.6-0.7-1.4-1.2-2.2-1.5s-1.8-0.5-2.8-0.5c-1,0-2,0.2-2.8,0.6
		c-0.9,0.4-1.6,0.9-2.2,1.6c-0.6,0.7-1.1,1.5-1.4,2.4c-0.3,0.9-0.5,1.9-0.5,3c0,1.1,0.2,2.2,0.5,3.1s0.9,1.7,1.5,2.4
		s1.4,1.2,2.3,1.6c0.9,0.4,1.9,0.5,3,0.5c1.1,0,2.2-0.2,3.3-0.7s1.9-1.1,2.6-1.9l-1-0.8c-0.3,0.3-0.6,0.6-0.9,0.8
		c-0.4,0.3-0.8,0.5-1.2,0.7c-0.4,0.2-0.9,0.3-1.4,0.4c-0.5,0.1-0.9,0.1-1.4,0.1c-0.9,0-1.6-0.2-2.3-0.5c-0.7-0.3-1.3-0.7-1.8-1.3
		c-0.5-0.5-0.9-1.2-1.2-1.9c-0.3-0.7-0.5-1.5-0.5-2.3h12.3C296.7,139.7,296.5,138.5,296.2,137.5z M284.4,139.7
		c0-0.8,0.2-1.5,0.5-2.1c0.3-0.7,0.7-1.2,1.1-1.7c0.5-0.5,1-0.9,1.6-1.2c0.6-0.3,1.3-0.4,2.1-0.4c1.5,0,2.7,0.5,3.7,1.4
		s1.5,2.3,1.7,4.1H284.4z"/>
	<path fill="#282561" d="M309.4,141c-0.5-0.3-1-0.5-1.6-0.7s-1.2-0.3-1.8-0.5c-0.5-0.1-1.1-0.3-1.6-0.4c-0.5-0.1-1-0.3-1.4-0.5
		c-0.4-0.2-0.8-0.5-1-0.8c-0.3-0.3-0.4-0.7-0.4-1.2c0-0.6,0.1-1,0.3-1.4c0.2-0.3,0.5-0.6,0.9-0.8c0.4-0.2,0.8-0.3,1.3-0.4
		c0.5-0.1,0.9-0.1,1.4-0.1c0.9,0,1.7,0.2,2.4,0.5c0.7,0.3,1.2,0.8,1.7,1.3l1-0.9c-0.5-0.6-1.3-1.2-2.1-1.6c-0.9-0.4-1.9-0.6-3-0.6
		c-0.7,0-1.4,0.1-2,0.2c-0.6,0.2-1.2,0.4-1.7,0.7c-0.5,0.3-0.9,0.7-1.2,1.2c-0.3,0.5-0.4,1.1-0.4,1.7c0,0.7,0.1,1.2,0.3,1.7
		c0.2,0.5,0.5,0.8,0.9,1.1c0.4,0.3,0.9,0.5,1.4,0.7c0.6,0.2,1.2,0.4,1.8,0.5c0.8,0.2,1.5,0.4,2.1,0.5c0.6,0.2,1.1,0.3,1.5,0.6
		c0.4,0.2,0.7,0.5,0.9,0.8c0.2,0.3,0.3,0.8,0.3,1.3c0,0.5-0.1,0.9-0.3,1.2c-0.2,0.3-0.5,0.6-0.9,0.8c-0.4,0.2-0.9,0.4-1.4,0.5
		c-0.5,0.1-1.1,0.2-1.7,0.2c-1.1,0-2-0.2-2.8-0.5s-1.5-0.8-2.1-1.4l-0.9,1c0.7,0.7,1.5,1.2,2.4,1.6c1,0.4,2.1,0.6,3.5,0.6
		c0.7,0,1.4-0.1,2.1-0.3c0.7-0.2,1.3-0.4,1.9-0.8s1-0.8,1.3-1.3c0.3-0.5,0.5-1.2,0.5-1.9c0-0.7-0.2-1.3-0.5-1.8
		S309.9,141.4,309.4,141z"/>
	<path fill="#282561" d="M321.5,146.6c-0.4,0.2-0.8,0.3-1.4,0.3c-0.4,0-0.7,0-1-0.1c-0.3-0.1-0.6-0.3-0.8-0.5
		c-0.2-0.3-0.4-0.6-0.6-1.2c-0.1-0.5-0.2-1.2-0.2-2.1v-8.4h4.8v-1.3h-4.8v-4.8h-1.4v4.8h-2.9v1.3h2.9v8.7c0,1,0.1,1.8,0.3,2.4
		s0.5,1.1,0.8,1.5c0.3,0.4,0.7,0.6,1.2,0.8c0.5,0.1,1,0.2,1.6,0.2c0.9,0,1.6-0.1,2.1-0.4c0.5-0.3,1-0.7,1.4-1.3l-0.9-0.8
		C322.3,146.1,321.9,146.4,321.5,146.6z"/>
	<path fill="#282561" d="M337.9,137.5c-0.3-1-0.8-1.8-1.4-2.5c-0.6-0.7-1.4-1.2-2.2-1.5s-1.8-0.5-2.8-0.5c-1,0-2,0.2-2.8,0.6
		c-0.9,0.4-1.6,0.9-2.2,1.6c-0.6,0.7-1.1,1.5-1.4,2.4c-0.3,0.9-0.5,1.9-0.5,3c0,1.1,0.2,2.2,0.5,3.1s0.9,1.7,1.5,2.4
		s1.4,1.2,2.3,1.6c0.9,0.4,1.9,0.5,3,0.5c1.1,0,2.2-0.2,3.3-0.7s1.9-1.1,2.6-1.9l-1-0.8c-0.3,0.3-0.6,0.6-0.9,0.8
		c-0.4,0.3-0.8,0.5-1.2,0.7c-0.4,0.2-0.9,0.3-1.4,0.4c-0.5,0.1-0.9,0.1-1.4,0.1c-0.9,0-1.6-0.2-2.3-0.5c-0.7-0.3-1.3-0.7-1.8-1.3
		c-0.5-0.5-0.9-1.2-1.2-1.9c-0.3-0.7-0.5-1.5-0.5-2.3h12.3C338.4,139.7,338.2,138.5,337.9,137.5z M326.1,139.7
		c0-0.8,0.2-1.5,0.5-2.1c0.3-0.7,0.7-1.2,1.1-1.7c0.5-0.5,1-0.9,1.6-1.2c0.6-0.3,1.3-0.4,2.1-0.4c1.5,0,2.7,0.5,3.7,1.4
		s1.5,2.3,1.7,4.1H326.1z"/>
	<path fill="#282561" d="M346.7,133.6c-0.6,0.2-1.1,0.5-1.5,0.8c-0.4,0.3-0.8,0.7-1.1,1.1s-0.5,0.7-0.7,1.1c0-0.4,0-0.7,0-1
		c0-0.3,0-0.6,0-0.8c0-0.2,0-0.5,0-0.7c0-0.2,0-0.4,0-0.7H342c0,0.2,0,0.4,0,0.6c0,0.2,0,0.4,0,0.6c0,0.2,0,0.5,0,0.8
		c0,0.3,0,0.6,0,1v11.4h1.4v-7.4c0-0.7,0.1-1.4,0.4-2.1c0.2-0.7,0.6-1.3,1-1.9c0.4-0.5,1-1,1.6-1.3c0.6-0.3,1.3-0.5,2-0.5
		c0.2,0,0.4,0,0.6,0c0.2,0,0.4,0.1,0.5,0.1l0.4-1.4c-0.3-0.1-0.7-0.2-1.2-0.2C348,133.2,347.3,133.3,346.7,133.6z"/>
	<path fill="#282561" d="M370.1,138.1c-0.6-0.5-1.2-0.8-2-1.1c-0.7-0.3-1.5-0.5-2.2-0.7c-0.7-0.2-1.4-0.4-2.1-0.6
		c-0.7-0.2-1.3-0.5-1.9-0.8c-0.6-0.3-1-0.7-1.4-1.2s-0.5-1.1-0.5-1.9c0-0.5,0.1-1,0.3-1.5c0.2-0.5,0.5-0.9,0.9-1.3
		c0.4-0.4,0.9-0.7,1.5-0.9c0.6-0.2,1.4-0.3,2.2-0.3c0.8,0,1.4,0.1,2,0.2c0.6,0.2,1.1,0.4,1.5,0.6c0.4,0.2,0.8,0.5,1.1,0.8
		c0.3,0.3,0.5,0.5,0.7,0.8l1.1-0.9c-0.2-0.3-0.5-0.6-0.9-1c-0.3-0.3-0.8-0.6-1.3-0.9c-0.5-0.3-1.1-0.5-1.8-0.7
		c-0.7-0.2-1.5-0.3-2.3-0.3c-1,0-1.9,0.1-2.8,0.4c-0.8,0.3-1.5,0.7-2,1.1c-0.6,0.5-1,1-1.3,1.7c-0.3,0.7-0.4,1.3-0.4,2
		c0,1,0.2,1.9,0.6,2.6c0.4,0.7,0.9,1.2,1.5,1.6c0.6,0.4,1.3,0.8,2.1,1c0.8,0.3,1.6,0.5,2.4,0.7c0.6,0.2,1.3,0.4,1.9,0.6
		s1.2,0.5,1.7,0.9c0.5,0.4,0.9,0.8,1.2,1.4c0.3,0.5,0.5,1.2,0.5,2c0,0.7-0.1,1.4-0.4,1.9c-0.3,0.6-0.7,1-1.1,1.4
		c-0.5,0.4-1.1,0.6-1.8,0.8c-0.7,0.2-1.4,0.3-2.2,0.3c-1.4,0-2.6-0.3-3.6-0.8s-1.8-1.2-2.6-2.1l-1.1,1.1c0.3,0.4,0.7,0.8,1.1,1.2
		c0.5,0.4,1,0.7,1.6,1c0.6,0.3,1.3,0.5,2.1,0.7s1.6,0.3,2.5,0.3c1,0,1.9-0.1,2.8-0.4c0.9-0.3,1.6-0.7,2.3-1.2
		c0.6-0.5,1.1-1.1,1.5-1.8c0.4-0.7,0.6-1.5,0.6-2.4c0-1-0.2-1.9-0.5-2.6C371.2,139.1,370.7,138.5,370.1,138.1z"/>
	<path fill="#282561" d="M387.7,135.2c-0.7-0.7-1.5-1.2-2.4-1.6c-0.9-0.4-1.9-0.6-2.9-0.6c-1,0-2,0.2-2.9,0.6
		c-0.9,0.4-1.7,0.9-2.4,1.6c-0.7,0.7-1.2,1.5-1.6,2.4c-0.4,0.9-0.6,1.9-0.6,3s0.2,2,0.6,3c0.4,0.9,0.9,1.7,1.6,2.4
		c0.7,0.7,1.5,1.2,2.4,1.6c0.9,0.4,1.9,0.6,2.9,0.6c1,0,2-0.2,2.9-0.6c0.9-0.4,1.7-0.9,2.4-1.6c0.7-0.7,1.2-1.5,1.6-2.4
		c0.4-0.9,0.6-1.9,0.6-3s-0.2-2-0.6-3C388.9,136.7,388.4,135.9,387.7,135.2z M387.9,143.1c-0.3,0.8-0.7,1.4-1.3,2
		c-0.5,0.6-1.2,1-1.9,1.4c-0.7,0.3-1.5,0.5-2.4,0.5c-0.8,0-1.6-0.2-2.3-0.5c-0.7-0.3-1.4-0.8-1.9-1.4c-0.5-0.6-1-1.3-1.3-2
		c-0.3-0.8-0.5-1.6-0.5-2.4c0-0.9,0.2-1.7,0.5-2.5c0.3-0.8,0.7-1.4,1.3-2c0.5-0.6,1.2-1,1.9-1.4c0.7-0.3,1.5-0.5,2.4-0.5
		c0.8,0,1.6,0.2,2.3,0.5s1.4,0.8,1.9,1.4c0.5,0.6,1,1.3,1.3,2c0.3,0.8,0.5,1.6,0.5,2.4C388.4,141.5,388.2,142.3,387.9,143.1z"/>
	<path fill="#282561" d="M396.1,132.3c0-0.9,0.1-1.7,0.2-2.3c0.2-0.6,0.4-1.1,0.7-1.4c0.3-0.3,0.6-0.6,1-0.7s0.8-0.2,1.3-0.2
		c0.6,0,1.1,0.1,1.5,0.3c0.4,0.2,0.9,0.5,1.3,1l0.9-0.9c-0.4-0.5-0.9-0.9-1.6-1.2c-0.6-0.3-1.4-0.5-2.3-0.5c-1.4,0-2.6,0.5-3.3,1.4
		c-0.8,0.9-1.1,2.2-1.1,4v1.7h-2.9v1.3h2.9v13.1h1.4v-13.1h4.8v-1.3h-4.8V132.3z"/>
	<path fill="#282561" d="M410,146.6c-0.4,0.2-0.8,0.3-1.4,0.3c-0.4,0-0.7,0-1-0.1s-0.6-0.3-0.8-0.5c-0.2-0.3-0.4-0.6-0.5-1.2
		c-0.1-0.5-0.2-1.2-0.2-2.1v-8.4h4.8v-1.3h-4.8v-4.8h-1.4v4.8h-2.9v1.3h2.9v8.7c0,1,0.1,1.8,0.3,2.4s0.5,1.1,0.8,1.5
		c0.3,0.4,0.7,0.6,1.2,0.8c0.5,0.1,1,0.2,1.6,0.2c0.9,0,1.6-0.1,2.1-0.4c0.5-0.3,1-0.7,1.4-1.3l-0.9-0.8
		C410.8,146.1,410.4,146.4,410,146.6z"/>
	<polygon fill="#282561" points="427.7,146.2 423.6,133.4 422.3,133.4 418.1,146 414.1,133.4 412.5,133.4 417.4,147.8 418.7,147.8 
		422.8,135.5 426.8,147.8 428.3,147.8 432.9,133.4 431.5,133.4 	"/>
	<path fill="#282561" d="M446.3,146c0-0.4,0-0.8,0-1.2v-6.7c0-1.8-0.5-3.2-1.5-4c-1-0.8-2.5-1.2-4.3-1.2c-1.3,0-2.4,0.2-3.3,0.6
		c-0.9,0.4-1.5,0.8-1.9,1.2l0.8,1c0.4-0.3,0.9-0.6,1.6-1s1.7-0.5,2.8-0.5c0.7,0,1.3,0.1,1.9,0.2c0.5,0.1,1,0.3,1.4,0.7
		c0.4,0.3,0.7,0.7,0.8,1.3c0.2,0.5,0.3,1.2,0.3,2v0.8c-0.5-0.1-1.1-0.2-1.8-0.2c-0.7-0.1-1.5-0.1-2.4-0.1c-1.1,0-2.1,0.1-2.9,0.4
		c-0.8,0.3-1.4,0.6-1.9,1.1c-0.5,0.5-0.9,1-1.1,1.6c-0.2,0.6-0.3,1.3-0.3,2c0,0.9,0.2,1.6,0.5,2.1c0.3,0.6,0.7,1,1.2,1.3
		c0.5,0.3,1,0.5,1.6,0.7c0.6,0.1,1.2,0.2,1.8,0.2c0.4,0,0.8,0,1.3-0.1c0.5-0.1,1-0.2,1.4-0.4c0.5-0.2,1-0.5,1.4-0.9
		c0.5-0.4,0.9-0.8,1.2-1.4c0,0.4,0,0.7,0,1c0,0.3,0,0.5,0,0.8c0,0.2,0,0.4,0,0.6h1.4c0-0.3,0-0.5-0.1-0.9
		C446.3,146.7,446.3,146.3,446.3,146z M444.9,142.5c0,0.5-0.1,1.1-0.4,1.6c-0.3,0.5-0.6,1-1.1,1.4s-1,0.8-1.7,1
		c-0.6,0.3-1.3,0.4-2,0.4c-1.1,0-2-0.2-2.7-0.7c-0.7-0.5-1.1-1.2-1.1-2.3c0-0.4,0-0.8,0.1-1.2c0.1-0.5,0.3-0.9,0.6-1.3
		s0.8-0.7,1.4-1c0.6-0.3,1.5-0.4,2.5-0.4c1,0,1.9,0,2.5,0.1c0.7,0.1,1.2,0.2,1.7,0.3V142.5z"/>
	<path fill="#282561" d="M455.3,133.6c-0.6,0.2-1.1,0.5-1.5,0.8c-0.4,0.3-0.8,0.7-1.1,1.1s-0.5,0.7-0.7,1.1c0-0.4,0-0.7,0-1
		c0-0.3,0-0.6,0-0.8c0-0.2,0-0.5,0-0.7c0-0.2,0-0.4,0-0.7h-1.3c0,0.2,0,0.4,0,0.6s0,0.4,0,0.6c0,0.2,0,0.5,0,0.8c0,0.3,0,0.6,0,1
		v11.4h1.4v-7.4c0-0.7,0.1-1.4,0.4-2.1c0.2-0.7,0.6-1.3,1-1.9c0.4-0.5,1-1,1.6-1.3c0.6-0.3,1.3-0.5,2-0.5c0.2,0,0.4,0,0.5,0
		s0.4,0.1,0.5,0.1l0.4-1.4c-0.3-0.1-0.7-0.2-1.2-0.2C456.6,133.2,455.9,133.3,455.3,133.6z"/>
	<path fill="#282561" d="M472.9,137.5c-0.3-1-0.8-1.8-1.4-2.5c-0.6-0.7-1.4-1.2-2.2-1.5s-1.8-0.5-2.8-0.5c-1,0-2,0.2-2.8,0.6
		c-0.9,0.4-1.6,0.9-2.2,1.6c-0.6,0.7-1.1,1.5-1.4,2.4c-0.3,0.9-0.5,1.9-0.5,3c0,1.1,0.2,2.2,0.6,3.1c0.4,0.9,0.9,1.7,1.5,2.4
		c0.6,0.7,1.4,1.2,2.3,1.6c0.9,0.4,1.9,0.5,3,0.5c1.1,0,2.2-0.2,3.3-0.7s1.9-1.1,2.6-1.9l-1-0.8c-0.3,0.3-0.6,0.6-0.9,0.8
		c-0.4,0.3-0.8,0.5-1.2,0.7c-0.4,0.2-0.9,0.3-1.4,0.4c-0.5,0.1-0.9,0.1-1.4,0.1c-0.9,0-1.6-0.2-2.3-0.5s-1.3-0.7-1.8-1.3
		c-0.5-0.5-0.9-1.2-1.2-1.9c-0.3-0.7-0.5-1.5-0.5-2.3h12.3C473.4,139.7,473.2,138.5,472.9,137.5z M461.1,139.7
		c0-0.8,0.2-1.5,0.5-2.1c0.3-0.7,0.7-1.2,1.1-1.7c0.5-0.5,1-0.9,1.7-1.2c0.6-0.3,1.3-0.4,2.1-0.4c1.5,0,2.7,0.5,3.7,1.4
		c0.9,0.9,1.5,2.3,1.7,4.1H461.1z"/>
	<path fill="#282561" d="M486.2,130.5c0.7-0.9,1.6-1.5,2.7-2c1.1-0.5,2.3-0.7,3.6-0.7c1.1,0,2,0.1,2.7,0.4c0.8,0.3,1.4,0.6,1.9,1
		s0.9,0.7,1.2,1.1c0.3,0.4,0.5,0.6,0.6,0.8l1.1-0.8c-0.1-0.2-0.4-0.5-0.7-1c-0.3-0.4-0.8-0.9-1.4-1.3c-0.6-0.5-1.4-0.8-2.3-1.2
		c-0.9-0.3-2-0.5-3.2-0.5c-1.5,0-2.9,0.3-4.1,0.8c-1.2,0.6-2.3,1.3-3.2,2.3c-0.9,1-1.6,2.2-2.1,3.5c-0.5,1.3-0.7,2.8-0.7,4.3
		c0,1.6,0.2,3,0.7,4.4c0.5,1.3,1.2,2.5,2.1,3.5c0.9,1,2,1.8,3.2,2.3c1.2,0.6,2.6,0.8,4.1,0.8c1.2,0,2.3-0.2,3.2-0.5
		c0.9-0.3,1.7-0.7,2.3-1.2c0.6-0.5,1.1-0.9,1.4-1.3c0.3-0.4,0.6-0.8,0.7-1l-1.1-0.8c-0.1,0.2-0.3,0.4-0.6,0.8s-0.7,0.7-1.2,1.1
		c-0.5,0.4-1.1,0.7-1.9,1c-0.7,0.3-1.6,0.4-2.6,0.4c-1.4,0-2.6-0.2-3.6-0.7c-1.1-0.5-2-1.2-2.7-2c-0.7-0.9-1.3-1.9-1.7-3
		c-0.4-1.2-0.6-2.4-0.6-3.8c0-1.3,0.2-2.6,0.6-3.8C484.9,132.4,485.5,131.4,486.2,130.5z"/>
	<path fill="#282561" d="M515.2,135.2c-0.7-0.7-1.5-1.2-2.4-1.6c-0.9-0.4-1.9-0.6-2.9-0.6s-2,0.2-2.9,0.6c-0.9,0.4-1.7,0.9-2.4,1.6
		s-1.2,1.5-1.6,2.4c-0.4,0.9-0.6,1.9-0.6,3s0.2,2,0.6,3s0.9,1.7,1.6,2.4s1.5,1.2,2.4,1.6c0.9,0.4,1.9,0.6,2.9,0.6s2-0.2,2.9-0.6
		c0.9-0.4,1.7-0.9,2.4-1.6c0.7-0.7,1.2-1.5,1.6-2.4s0.6-1.9,0.6-3s-0.2-2-0.6-3C516.4,136.7,515.9,135.9,515.2,135.2z M515.4,143.1
		c-0.3,0.8-0.7,1.4-1.3,2c-0.5,0.6-1.2,1-1.9,1.4s-1.5,0.5-2.4,0.5c-0.8,0-1.6-0.2-2.3-0.5s-1.4-0.8-1.9-1.4s-1-1.3-1.3-2
		c-0.3-0.8-0.5-1.6-0.5-2.4c0-0.9,0.2-1.7,0.5-2.5c0.3-0.8,0.7-1.4,1.3-2c0.5-0.6,1.2-1,1.9-1.4s1.5-0.5,2.4-0.5
		c0.8,0,1.6,0.2,2.3,0.5c0.7,0.3,1.4,0.8,1.9,1.4s1,1.3,1.3,2s0.5,1.6,0.5,2.4C515.9,141.5,515.7,142.3,515.4,143.1z"/>
	<rect x="521" y="126.9" fill="#282561" width="1.4" height="21"/>
	<rect x="526.7" y="126.9" fill="#282561" width="1.4" height="21"/>
	<path fill="#282561" d="M543.6,146c0-0.4,0-0.8,0-1.2v-6.7c0-1.8-0.5-3.2-1.5-4c-1-0.8-2.5-1.2-4.3-1.2c-1.3,0-2.4,0.2-3.3,0.6
		c-0.9,0.4-1.5,0.8-1.9,1.2l0.8,1c0.4-0.3,0.9-0.6,1.6-1s1.7-0.5,2.8-0.5c0.7,0,1.3,0.1,1.9,0.2c0.5,0.1,1,0.3,1.4,0.7
		c0.4,0.3,0.7,0.7,0.8,1.3c0.2,0.5,0.3,1.2,0.3,2v0.8c-0.5-0.1-1.1-0.2-1.8-0.2c-0.7-0.1-1.5-0.1-2.4-0.1c-1.1,0-2.1,0.1-2.9,0.4
		c-0.8,0.3-1.4,0.6-1.9,1.1c-0.5,0.5-0.9,1-1.1,1.6c-0.2,0.6-0.3,1.3-0.3,2c0,0.9,0.2,1.6,0.5,2.1c0.3,0.6,0.7,1,1.2,1.3
		c0.5,0.3,1,0.5,1.6,0.7c0.6,0.1,1.2,0.2,1.8,0.2c0.4,0,0.8,0,1.3-0.1c0.5-0.1,1-0.2,1.4-0.4c0.5-0.2,1-0.5,1.4-0.9
		c0.5-0.4,0.9-0.8,1.2-1.4c0,0.4,0,0.7,0,1c0,0.3,0,0.5,0,0.8c0,0.2,0,0.4,0,0.6h1.4c0-0.3,0-0.5-0.1-0.9
		C543.7,146.7,543.6,146.3,543.6,146z M542.3,142.5c0,0.5-0.1,1.1-0.4,1.6c-0.3,0.5-0.6,1-1.1,1.4s-1,0.8-1.7,1
		c-0.6,0.3-1.3,0.4-2,0.4c-1.1,0-2-0.2-2.7-0.7c-0.7-0.5-1.1-1.2-1.1-2.3c0-0.4,0-0.8,0.1-1.2c0.1-0.5,0.3-0.9,0.6-1.3
		s0.8-0.7,1.4-1c0.6-0.3,1.5-0.4,2.5-0.4c1,0,1.9,0,2.5,0.1c0.7,0.1,1.2,0.2,1.7,0.3V142.5z"/>
	<path fill="#282561" d="M559.6,135.2c-0.5-0.7-1.2-1.2-2-1.6c-0.8-0.4-1.8-0.6-2.9-0.6c-0.8,0-1.5,0.1-2.1,0.3s-1.1,0.4-1.5,0.7
		c-0.4,0.3-0.8,0.6-1.1,1s-0.5,0.7-0.7,1v-9.1H548v20.4c0.6,0.3,1.3,0.5,2.2,0.6c0.9,0.2,1.9,0.3,3,0.3c1.1,0,2.2-0.2,3.2-0.5
		c1-0.3,1.8-0.8,2.5-1.5c0.7-0.6,1.3-1.4,1.7-2.4c0.4-0.9,0.6-2,0.6-3.2c0-1.1-0.1-2.1-0.4-3C560.5,136.7,560.1,135.9,559.6,135.2z
		 M559.2,143.3c-0.3,0.8-0.8,1.4-1.4,2c-0.6,0.5-1.3,0.9-2.1,1.2c-0.8,0.3-1.6,0.4-2.6,0.4c-1.1,0-1.9-0.1-2.6-0.2
		c-0.6-0.1-1.1-0.3-1.3-0.3v-6.2c0-0.6,0.1-1.3,0.3-1.9c0.2-0.7,0.5-1.3,1-1.9c0.4-0.6,1-1,1.6-1.4c0.6-0.4,1.4-0.6,2.3-0.6
		c0.9,0,1.7,0.2,2.4,0.5s1.2,0.8,1.6,1.4c0.4,0.6,0.7,1.2,0.9,2s0.3,1.6,0.3,2.4C559.7,141.6,559.5,142.6,559.2,143.3z"/>
	<path fill="#282561" d="M576.8,135.2c-0.7-0.7-1.5-1.2-2.4-1.6c-0.9-0.4-1.9-0.6-2.9-0.6s-2,0.2-2.9,0.6c-0.9,0.4-1.7,0.9-2.4,1.6
		s-1.2,1.5-1.6,2.4c-0.4,0.9-0.6,1.9-0.6,3s0.2,2,0.6,3s0.9,1.7,1.6,2.4s1.5,1.2,2.4,1.6c0.9,0.4,1.9,0.6,2.9,0.6s2-0.2,2.9-0.6
		c0.9-0.4,1.7-0.9,2.4-1.6c0.7-0.7,1.2-1.5,1.6-2.4s0.6-1.9,0.6-3s-0.2-2-0.6-3C578,136.7,577.5,135.9,576.8,135.2z M577,143.1
		c-0.3,0.8-0.7,1.4-1.3,2c-0.5,0.6-1.2,1-1.9,1.4s-1.5,0.5-2.4,0.5c-0.8,0-1.6-0.2-2.3-0.5s-1.4-0.8-1.9-1.4s-1-1.3-1.3-2
		c-0.3-0.8-0.5-1.6-0.5-2.4c0-0.9,0.2-1.7,0.5-2.5c0.3-0.8,0.7-1.4,1.3-2c0.5-0.6,1.2-1,1.9-1.4s1.5-0.5,2.4-0.5
		c0.8,0,1.6,0.2,2.3,0.5c0.7,0.3,1.4,0.8,1.9,1.4s1,1.3,1.3,2s0.5,1.6,0.5,2.4C577.5,141.5,577.3,142.3,577,143.1z"/>
	<path fill="#282561" d="M587.3,133.6c-0.6,0.2-1.1,0.5-1.5,0.8c-0.4,0.3-0.8,0.7-1.1,1.1s-0.5,0.7-0.7,1.1c0-0.4,0-0.7,0-1
		c0-0.3,0-0.6,0-0.8c0-0.2,0-0.5,0-0.7c0-0.2,0-0.4,0-0.7h-1.3c0,0.2,0,0.4,0,0.6s0,0.4,0,0.6c0,0.2,0,0.5,0,0.8c0,0.3,0,0.6,0,1
		v11.4h1.4v-7.4c0-0.7,0.1-1.4,0.4-2.1c0.2-0.7,0.6-1.3,1-1.9c0.4-0.5,1-1,1.6-1.3c0.6-0.3,1.3-0.5,2-0.5c0.2,0,0.4,0,0.5,0
		s0.4,0.1,0.5,0.1l0.4-1.4c-0.3-0.1-0.7-0.2-1.2-0.2C588.6,133.2,587.9,133.3,587.3,133.6z"/>
	<path fill="#282561" d="M603.4,146c0-0.4,0-0.8,0-1.2v-6.7c0-1.8-0.5-3.2-1.5-4c-1-0.8-2.5-1.2-4.3-1.2c-1.3,0-2.4,0.2-3.3,0.6
		c-0.9,0.4-1.5,0.8-1.9,1.2l0.8,1c0.4-0.3,0.9-0.6,1.6-1s1.7-0.5,2.8-0.5c0.7,0,1.3,0.1,1.9,0.2c0.5,0.1,1,0.3,1.4,0.7
		c0.4,0.3,0.7,0.7,0.8,1.3c0.2,0.5,0.3,1.2,0.3,2v0.8c-0.5-0.1-1.1-0.2-1.8-0.2c-0.7-0.1-1.5-0.1-2.4-0.1c-1.1,0-2.1,0.1-2.9,0.4
		c-0.8,0.3-1.4,0.6-1.9,1.1c-0.5,0.5-0.9,1-1.1,1.6c-0.2,0.6-0.3,1.3-0.3,2c0,0.9,0.2,1.6,0.5,2.1c0.3,0.6,0.7,1,1.2,1.3
		c0.5,0.3,1,0.5,1.6,0.7c0.6,0.1,1.2,0.2,1.8,0.2c0.4,0,0.8,0,1.3-0.1c0.5-0.1,1-0.2,1.4-0.4c0.5-0.2,1-0.5,1.4-0.9
		c0.5-0.4,0.9-0.8,1.2-1.4c0,0.4,0,0.7,0,1c0,0.3,0,0.5,0,0.8c0,0.2,0,0.4,0,0.6h1.4c0-0.3,0-0.5-0.1-0.9
		C603.4,146.7,603.4,146.3,603.4,146z M602,142.5c0,0.5-0.1,1.1-0.4,1.6c-0.3,0.5-0.6,1-1.1,1.4s-1,0.8-1.7,1
		c-0.6,0.3-1.3,0.4-2,0.4c-1.1,0-2-0.2-2.7-0.7c-0.7-0.5-1.1-1.2-1.1-2.3c0-0.4,0-0.8,0.1-1.2c0.1-0.5,0.3-0.9,0.6-1.3
		s0.8-0.7,1.4-1c0.6-0.3,1.5-0.4,2.5-0.4c1,0,1.9,0,2.5,0.1c0.7,0.1,1.2,0.2,1.7,0.3V142.5z"/>
	<path fill="#282561" d="M614.4,146.6c-0.4,0.2-0.8,0.3-1.4,0.3c-0.4,0-0.7,0-1-0.1s-0.6-0.3-0.8-0.5c-0.2-0.3-0.4-0.6-0.5-1.2
		c-0.1-0.5-0.2-1.2-0.2-2.1v-8.4h4.8v-1.3h-4.8v-4.8H609v4.8h-2.9v1.3h2.9v8.7c0,1,0.1,1.8,0.3,2.4s0.5,1.1,0.8,1.5
		c0.3,0.4,0.7,0.6,1.2,0.8c0.5,0.1,1,0.2,1.6,0.2c0.9,0,1.6-0.1,2.1-0.4c0.5-0.3,1-0.7,1.4-1.3l-0.9-0.8
		C615.1,146.1,614.7,146.4,614.4,146.6z"/>
	<rect x="618.6" y="128.3" fill="#282561" width="2" height="2.1"/>
	<rect x="618.9" y="133.4" fill="#282561" width="1.4" height="14.5"/>
	<path fill="#282561" d="M636.7,135.2c-0.7-0.7-1.5-1.2-2.4-1.6c-0.9-0.4-1.9-0.6-2.9-0.6s-2,0.2-2.9,0.6c-0.9,0.4-1.7,0.9-2.4,1.6
		s-1.2,1.5-1.6,2.4c-0.4,0.9-0.6,1.9-0.6,3s0.2,2,0.6,3s0.9,1.7,1.6,2.4s1.5,1.2,2.4,1.6c0.9,0.4,1.9,0.6,2.9,0.6s2-0.2,2.9-0.6
		c0.9-0.4,1.7-0.9,2.4-1.6c0.7-0.7,1.2-1.5,1.6-2.4s0.6-1.9,0.6-3s-0.2-2-0.6-3C637.9,136.7,637.4,135.9,636.7,135.2z M637,143.1
		c-0.3,0.8-0.7,1.4-1.3,2c-0.5,0.6-1.2,1-1.9,1.4s-1.5,0.5-2.4,0.5c-0.8,0-1.6-0.2-2.3-0.5s-1.4-0.8-1.9-1.4s-1-1.3-1.3-2
		c-0.3-0.8-0.5-1.6-0.5-2.4c0-0.9,0.2-1.7,0.5-2.5c0.3-0.8,0.7-1.4,1.3-2c0.5-0.6,1.2-1,1.9-1.4s1.5-0.5,2.4-0.5
		c0.8,0,1.6,0.2,2.3,0.5c0.7,0.3,1.4,0.8,1.9,1.4s1,1.3,1.3,2s0.5,1.6,0.5,2.4C637.4,141.5,637.3,142.3,637,143.1z"/>
	<path fill="#282561" d="M653.9,134.7c-0.4-0.6-1-1-1.7-1.3c-0.7-0.3-1.6-0.4-2.6-0.4c-0.8,0-1.5,0.1-2.2,0.3
		c-0.6,0.2-1.2,0.5-1.6,0.9c-0.5,0.3-0.8,0.7-1.1,1.1s-0.5,0.8-0.7,1.1c0-0.4,0-0.7,0-1s0-0.5,0-0.8c0-0.2,0-0.4,0-0.6
		c0-0.2,0-0.4,0-0.6h-1.3c0,0.2,0,0.4,0,0.6s0,0.4,0,0.6c0,0.2,0,0.5,0,0.8c0,0.3,0,0.6,0,1v11.4h1.4v-7.4c0-0.7,0.1-1.4,0.3-2.1
		c0.2-0.7,0.6-1.4,1-1.9c0.4-0.6,1-1.1,1.7-1.4c0.7-0.4,1.5-0.6,2.4-0.6c0.7,0,1.3,0.1,1.8,0.3c0.5,0.2,1,0.5,1.4,0.9
		c0.4,0.4,0.6,1,0.8,1.7c0.2,0.7,0.3,1.6,0.3,2.7v8h1.4v-8.5c0-1-0.1-1.8-0.3-2.6S654.3,135.3,653.9,134.7z"/>
	<path fill="#282561" d="M676.8,138.1c-0.6-0.5-1.2-0.8-2-1.1c-0.7-0.3-1.5-0.5-2.2-0.7c-0.7-0.2-1.4-0.4-2.1-0.6
		c-0.7-0.2-1.3-0.5-1.9-0.8s-1-0.7-1.4-1.2s-0.5-1.1-0.5-1.9c0-0.5,0.1-1,0.3-1.5s0.5-0.9,0.9-1.3c0.4-0.4,0.9-0.7,1.5-0.9
		c0.6-0.2,1.4-0.3,2.2-0.3c0.8,0,1.4,0.1,2,0.2c0.6,0.2,1.1,0.4,1.5,0.6c0.4,0.2,0.8,0.5,1.1,0.8c0.3,0.3,0.5,0.5,0.7,0.8l1.1-0.9
		c-0.2-0.3-0.5-0.6-0.9-1c-0.3-0.3-0.8-0.6-1.3-0.9s-1.1-0.5-1.8-0.7c-0.7-0.2-1.5-0.3-2.3-0.3c-1,0-1.9,0.1-2.8,0.4
		c-0.8,0.3-1.5,0.7-2,1.1c-0.6,0.5-1,1-1.3,1.7c-0.3,0.7-0.4,1.3-0.4,2c0,1,0.2,1.9,0.6,2.6s0.9,1.2,1.5,1.6c0.6,0.4,1.3,0.8,2.1,1
		c0.8,0.3,1.6,0.5,2.4,0.7c0.6,0.2,1.3,0.4,1.9,0.6c0.6,0.2,1.2,0.5,1.7,0.9c0.5,0.4,0.9,0.8,1.2,1.4s0.5,1.2,0.5,2
		c0,0.7-0.1,1.4-0.4,1.9c-0.3,0.6-0.7,1-1.1,1.4c-0.5,0.4-1.1,0.6-1.8,0.8c-0.7,0.2-1.4,0.3-2.2,0.3c-1.4,0-2.6-0.3-3.6-0.8
		s-1.8-1.2-2.6-2.1l-1.1,1.1c0.3,0.4,0.7,0.8,1.1,1.2c0.5,0.4,1,0.7,1.6,1s1.3,0.5,2.1,0.7s1.6,0.3,2.5,0.3c1,0,1.9-0.1,2.8-0.4
		c0.9-0.3,1.6-0.7,2.3-1.2c0.6-0.5,1.1-1.1,1.5-1.8s0.6-1.5,0.6-2.4c0-1-0.2-1.9-0.6-2.6C677.9,139.1,677.4,138.5,676.8,138.1z"/>
	<path fill="#282561" d="M693.8,135.2c-0.5-0.7-1.2-1.2-2-1.6c-0.8-0.4-1.8-0.6-2.9-0.6c-0.9,0-1.6,0.1-2.3,0.4
		c-0.6,0.3-1.2,0.5-1.6,0.9c-0.4,0.3-0.8,0.7-1,1c-0.2,0.3-0.4,0.6-0.5,0.8c0-0.3,0-0.6,0-0.9s0-0.5,0-0.6c0-0.2,0-0.4,0-0.5
		c0-0.2,0-0.4,0-0.6h-1.3c0,0.2,0,0.4,0,0.6s0,0.4,0,0.6c0,0.2,0,0.5,0,0.8c0,0.3,0,0.6,0,1v17.7h1.4v-7.2c0.5,0.3,1.2,0.6,1.9,0.9
		c0.7,0.3,1.6,0.4,2.6,0.4c1,0,2-0.2,2.9-0.5c0.9-0.4,1.7-0.9,2.3-1.5s1.2-1.5,1.5-2.4c0.4-0.9,0.6-1.9,0.6-3.1c0-1.1-0.1-2.1-0.4-3
		C694.7,136.7,694.3,135.9,693.8,135.2z M693.4,143.3c-0.3,0.8-0.7,1.4-1.2,1.9c-0.5,0.5-1.1,0.9-1.9,1.2c-0.7,0.3-1.5,0.4-2.3,0.4
		c-0.6,0-1.2-0.1-1.7-0.2c-0.5-0.1-0.9-0.3-1.3-0.4s-0.7-0.3-0.9-0.5c-0.3-0.2-0.5-0.3-0.6-0.4v-4.5c0-0.5,0-1.1,0.1-1.6
		c0.1-0.5,0.2-1,0.3-1.4c0.2-0.5,0.4-0.9,0.7-1.3c0.3-0.4,0.6-0.8,1-1.1c0.4-0.3,0.9-0.6,1.4-0.8c0.5-0.2,1.1-0.3,1.7-0.3
		c0.9,0,1.7,0.2,2.4,0.5c0.6,0.3,1.2,0.8,1.6,1.4c0.4,0.6,0.7,1.3,0.9,2s0.3,1.6,0.3,2.4C693.9,141.7,693.7,142.6,693.4,143.3z"/>
	<path fill="#282561" d="M710.2,146c0-0.4,0-0.8,0-1.2v-6.7c0-1.8-0.5-3.2-1.5-4c-1-0.8-2.5-1.2-4.3-1.2c-1.3,0-2.4,0.2-3.3,0.6
		c-0.9,0.4-1.5,0.8-1.9,1.2l0.8,1c0.4-0.3,0.9-0.6,1.6-1s1.7-0.5,2.8-0.5c0.7,0,1.3,0.1,1.9,0.2c0.5,0.1,1,0.3,1.4,0.7
		c0.4,0.3,0.7,0.7,0.8,1.3c0.2,0.5,0.3,1.2,0.3,2v0.8c-0.5-0.1-1.1-0.2-1.8-0.2c-0.7-0.1-1.5-0.1-2.4-0.1c-1.1,0-2.1,0.1-2.9,0.4
		c-0.8,0.3-1.4,0.6-1.9,1.1c-0.5,0.5-0.9,1-1.1,1.6c-0.2,0.6-0.3,1.3-0.3,2c0,0.9,0.2,1.6,0.5,2.1c0.3,0.6,0.7,1,1.2,1.3
		c0.5,0.3,1,0.5,1.6,0.7c0.6,0.1,1.2,0.2,1.8,0.2c0.4,0,0.8,0,1.3-0.1c0.5-0.1,1-0.2,1.4-0.4c0.5-0.2,1-0.5,1.4-0.9
		c0.5-0.4,0.9-0.8,1.2-1.4c0,0.4,0,0.7,0,1c0,0.3,0,0.5,0,0.8c0,0.2,0,0.4,0,0.6h1.4c0-0.3,0-0.5-0.1-0.9
		C710.2,146.7,710.2,146.3,710.2,146z M708.8,142.5c0,0.5-0.1,1.1-0.4,1.6c-0.3,0.5-0.6,1-1.1,1.4s-1,0.8-1.7,1
		c-0.6,0.3-1.3,0.4-2,0.4c-1.1,0-2-0.2-2.7-0.7c-0.7-0.5-1.1-1.2-1.1-2.3c0-0.4,0-0.8,0.1-1.2c0.1-0.5,0.3-0.9,0.6-1.3
		s0.8-0.7,1.4-1c0.6-0.3,1.5-0.4,2.5-0.4c1,0,1.9,0,2.5,0.1c0.7,0.1,1.2,0.2,1.7,0.3V142.5z"/>
	<path fill="#282561" d="M723.8,146.3c-0.8,0.4-1.7,0.6-2.8,0.6c-0.8,0-1.6-0.2-2.3-0.5c-0.7-0.3-1.3-0.8-1.8-1.4
		c-0.5-0.6-0.9-1.2-1.2-2c-0.3-0.8-0.4-1.6-0.4-2.4s0.1-1.7,0.4-2.4c0.3-0.8,0.7-1.4,1.2-2c0.5-0.6,1.1-1,1.8-1.4s1.5-0.5,2.3-0.5
		c1,0,1.9,0.2,2.7,0.5c0.7,0.4,1.3,0.9,1.8,1.5l1.1-0.8c-0.6-0.8-1.4-1.4-2.3-1.9c-0.9-0.5-2-0.7-3.3-0.7c-1,0-2,0.2-2.9,0.6
		c-0.9,0.4-1.7,0.9-2.3,1.6c-0.7,0.7-1.2,1.5-1.5,2.4c-0.4,0.9-0.6,1.9-0.6,3c0,1.1,0.2,2.1,0.5,3c0.4,0.9,0.9,1.7,1.5,2.4
		c0.6,0.7,1.4,1.2,2.3,1.6s1.9,0.6,2.9,0.6c1.3,0,2.4-0.2,3.3-0.7c1-0.5,1.8-1.1,2.4-1.8l-1-0.9
		C725.2,145.4,724.6,145.9,723.8,146.3z"/>
	<path fill="#282561" d="M739.7,145.7c-0.4,0.3-0.8,0.5-1.2,0.7c-0.4,0.2-0.9,0.3-1.4,0.4c-0.5,0.1-0.9,0.1-1.4,0.1
		c-0.9,0-1.6-0.2-2.3-0.5s-1.3-0.7-1.8-1.3c-0.5-0.5-0.9-1.2-1.2-1.9c-0.3-0.7-0.5-1.5-0.5-2.3h12.3c0-1.3-0.2-2.4-0.5-3.4
		s-0.8-1.8-1.4-2.5c-0.6-0.7-1.4-1.2-2.2-1.5s-1.8-0.5-2.8-0.5c-1,0-2,0.2-2.8,0.6c-0.9,0.4-1.6,0.9-2.2,1.6
		c-0.6,0.7-1.1,1.5-1.4,2.4c-0.3,0.9-0.5,1.9-0.5,3c0,1.1,0.2,2.2,0.6,3.1c0.4,0.9,0.9,1.7,1.5,2.4c0.6,0.7,1.4,1.2,2.3,1.6
		c0.9,0.4,1.9,0.5,3,0.5c1.1,0,2.2-0.2,3.3-0.7s1.9-1.1,2.6-1.9l-1-0.8C740.4,145.1,740.1,145.4,739.7,145.7z M730.5,137.6
		c0.3-0.7,0.7-1.2,1.1-1.7c0.5-0.5,1-0.9,1.7-1.2c0.6-0.3,1.3-0.4,2.1-0.4c1.5,0,2.7,0.5,3.7,1.4c0.9,0.9,1.5,2.3,1.7,4.1H730
		C730.1,139,730.2,138.3,730.5,137.6z"/>
</g>
<g>
	<path fill="#282561" d="M175.4,103.5c-1.6-1.7-3.1-3.3-4.5-4.5c-8.3-6.6-17.9-10-27.9-10c-15.4,0-29.5,8.3-37.7,22.2
		C98.6,122.3,93,148.3,91.9,170h88v-61.9C178.4,106.8,176.9,105.1,175.4,103.5z"/>
	<path fill="#282561" d="M55.3,24.6c0.4,0.8,0.7,1.5,1,2.2c0.3,0.6,0.5,1.2,0.8,1.7c0.6,1.3,1.2,2.5,1.7,3.8
		c2.5,5.5,4.8,10.7,9.6,14.9c5,4.4,10.8,7.6,16,10.4c8,4.4,13.9,9.8,17.5,15.8c4.9,8.3,6.2,18.3,3.9,28.8
		c11.1-13.1,26.5-16.7,41.6-19.1c11.2-1.8,22.1-3.9,31.6-9.1c0.3-0.2,0.6-0.4,0.9-0.6V24.6H55.3z"/>
	<path fill="#282561" d="M98.6,76.1c-3.4-7.7-14.3-17.3-34.7-21.2c-3-0.6-6.1-1.1-9.1-1.5c-6.5-1-12.7-2-18.9-4V170h48.1
		c0.5-3.5,1-6.8,1.5-9.7c0.3-1.8,0.6-3.3,0.8-4.6c1.7-11.5,4.7-23.4,9.3-37.5C100.3,104,104.3,89.1,98.6,76.1z"/>
	<path fill="#282561" d="M143.7,86.2C143.7,86.2,143.7,86.2,143.7,86.2C143.6,86.2,143.6,86.2,143.7,86.2c-0.1,0.1-0.1,0.1-0.1,0.1
		c0,0,0,0.1,0.1,0.1c0,0,0.1,0,0.1,0c3-0.4,6.7-0.4,11.1,0c8.6,0.7,17.9,2.7,25.1,5.2v-0.2v-1.9v-0.5
		C168.5,86.1,153.6,84.9,143.7,86.2z"/>
	<path fill="#282561" d="M52.9,43.4c7.1,5.3,14.9,8.9,20.9,11.4c0,0,0,0,0.1,0c0,0,0,0,0,0c0,0,0.1,0,0.1-0.1c0,0,0-0.1,0-0.1
		c0-0.1-0.1-0.1-0.1-0.1c-7.8-3.3-14.4-7.2-20.1-12.1c-3.6-3.1-10.2-9.4-14.6-17.8H39h-2.5h-0.2v0.2C40.6,32.1,46,38.2,52.9,43.4z"
		/>
</g>
</svg>
