<?xml version="1.0" encoding="utf-8"?>
<!-- Generator: Adobe Illustrator 19.2.1, SVG Export Plug-In . SVG Version: 6.00 Build 0)  -->
<svg version="1.1" id="Layer_1" xmlns="http://www.w3.org/2000/svg" xmlns:xlink="http://www.w3.org/1999/xlink" x="0px" y="0px"
	 viewBox="0 0 144 145.4" enable-background="new 0 0 144 145.4" xml:space="preserve">
<g id="Layer_1_1_">
	<g>
		<path fill="#1A225C" d="M246.3,114.1l0.6,8.7H268V0h-21.7v36.3c-1.6-0.6-3-1.2-4.3-1.7c-1.2-0.5-2.6-0.9-4.1-1.2s-3.1-0.6-5-0.8
			s-4.2-0.3-7-0.3c-2.1,0-4.6,0.3-7.4,0.9c-2.8,0.6-5.8,1.5-8.8,2.8s-6,3-9,5c-3,2-5.7,4.5-8.1,7.6c-3,3.7-5.4,8.1-7.4,13.3
			s-3,11.3-3,18.2c0,7.3,1.1,13.8,3.3,19.5s5.1,10.5,8.7,14.4c3.6,3.9,7.6,6.9,12.2,8.9c4.6,2,9.2,3,13.9,3c3.3,0,6.3-0.4,9-1.1
			c2.7-0.8,5.1-1.7,7.2-2.8c2.2-1.1,4-2.4,5.6-3.8C243.8,116.7,245.2,115.4,246.3,114.1z M235.4,104.4c-2.6,1.4-5.7,2.2-9.4,2.2
			c-7,0-12.4-2.5-16.1-7.6c-3.7-5-5.6-11.3-5.6-18.9c0-3.7,0.5-7.1,1.6-10.5c1-3.3,2.5-6.3,4.3-8.8c2.1-2.8,4.6-5,7.4-6.7
			c2.8-1.7,6.4-2.6,10.7-2.6c4.3,0,7.9,0.3,10.6,1c2.8,0.7,5.2,1.9,7.3,3.7v27.2c0,2.5-0.4,5.1-1.1,7.8s-1.9,5.2-3.5,7.5
			C240.1,101.1,238,102.9,235.4,104.4z"/>
		<path fill="#1A225C" d="M363.7,110l-11.9-13.6c-0.7,0.8-1.8,1.7-3.2,2.9c-1.4,1.2-3.2,2.3-5.5,3.4c-2.2,1.1-4.9,2-8.1,2.8
			c-3.1,0.8-6.8,1.2-11,1.2c-2.8,0-5.7-0.5-8.6-1.5s-5.5-2.5-7.8-4.3c-2.3-1.9-4.1-4.2-5.6-6.8c-1.4-2.6-2.1-5.6-2.1-8.9h64.8V82
			c0-6.3-0.7-12.5-2.2-18.5s-3.9-11.5-7.2-16.2c-3.3-4.8-7.7-8.7-13.2-11.6c-5.5-3-12.2-4.4-20.1-4.4c-6.5,0-12.5,1.2-17.9,3.6
			c-5.4,2.4-10,5.7-13.9,9.8s-6.9,9-9.1,14.6s-3.2,11.7-3.2,18.2c0,7.2,1.1,13.7,3.2,19.6c2.2,5.9,5.2,11,9.3,15.2
			c4,4.2,8.9,7.5,14.5,9.9c5.7,2.4,12,3.6,18.9,3.6c6.8,0,12.6-0.8,17.5-2.3s8.9-3.2,12-5.1c3.1-1.9,5.6-3.7,7.2-5.4
			C362.3,111.4,363.3,110.3,363.7,110z M301.3,62.4c1-2.3,2.4-4.3,4.3-6.1c1.9-1.8,4.2-3.3,6.9-4.5c2.8-1.2,6-1.8,9.5-1.8
			c3.3,0,6.3,0.6,8.9,1.8c2.6,1.2,4.7,2.7,6.4,4.5c1.7,1.8,2.9,3.9,3.8,6.1c0.9,2.3,1.3,4.5,1.3,6.8h-42.6
			C299.8,66.9,300.3,64.6,301.3,62.4z"/>
		<polygon fill="#1A225C" points="460.1,34.2 436.2,34.2 412.9,97.7 389.6,34.2 364.4,34.2 401.2,122.8 423.4,122.8 		"/>
		<path fill="#1A225C" d="M476.9,111.8c3.8,4.2,8.4,7.4,13.8,9.7c5.4,2.3,11.3,3.4,17.7,3.4c4.4,0,8.4-0.3,11.9-0.9
			c3.5-0.6,6.7-1.5,9.5-2.6s5.3-2.3,7.5-3.6s4-2.6,5.5-4V80.2h-30.4v6.1h23.9v24.9c-2.9,2.1-6.5,3.9-11,5.4
			c-4.4,1.5-10.1,2.3-17,2.3c-5.6,0-10.7-1.1-15.3-3.2c-4.5-2.1-8.4-5-11.6-8.7c-3.2-3.7-5.6-8.1-7.3-13c-1.7-5-2.5-10.3-2.5-16.1
			c0-5.7,0.9-11.1,2.6-16.1s4.1-9.3,7.3-13c3.2-3.7,7.1-6.6,11.7-8.7c4.6-2.1,9.8-3.2,15.7-3.2c4.2,0,7.9,0.6,11,1.9
			c3.1,1.3,5.8,2.7,8,4.3s3.9,3.2,5.2,4.8c1.3,1.6,2.2,2.7,2.7,3.4l4.8-3.4c-0.5-0.9-1.5-2.3-3-4.2c-1.5-1.9-3.5-3.8-6.1-5.7
			c-2.6-1.9-5.8-3.6-9.6-5s-8.4-2.2-13.6-2.2c-6.5,0-12.4,1.2-17.7,3.6c-5.4,2.4-10,5.8-13.8,10c-3.8,4.3-6.8,9.2-8.9,14.9
			s-3.2,11.8-3.2,18.4c0,6.9,1.1,13.2,3.2,19C470.1,102.7,473.1,107.7,476.9,111.8z"/>
		<path fill="#1A225C" d="M590.4,33.1l-36.7,89.7h7l11.6-28.9h42.2l11.7,28.9h7.4l-36.7-89.7C596.9,33.1,590.4,33.1,590.4,33.1z
			 M574.7,87.8l18.7-46.5l18.7,46.5H574.7z"/>
		<path fill="#1A225C" d="M685.1,83.1c6.5-1.5,11.3-4.5,14.3-9.1c3-4.5,4.5-9.7,4.5-15.5c0-3.7-0.6-7.1-1.7-10.2
			c-1.1-3.1-2.9-5.8-5.4-8.1c-2.5-2.3-5.8-4.1-9.8-5.3c-4-1.3-9-1.9-14.8-1.9h-27v89.7h6.5V83.8h26.5l20.8,38.9h7.4L685.1,83.1z
			 M674.8,77.9h-23.3V39.2H674c7.5,0,13.2,1.6,17.1,4.8c3.9,3.2,5.8,8.1,5.8,14.5C697,71.4,689.6,77.9,674.8,77.9z"/>
		<path fill="#1A225C" d="M797.2,77.9c0-7.8-1.2-14.5-3.7-20.2c-2.5-5.6-5.9-10.3-10.4-13.9c-4.4-3.6-9.7-6.3-15.9-8.1
			c-6.1-1.7-12.9-2.6-20.2-2.6h-24.5v89.7H747c7.3,0,14.1-0.9,20.2-2.6c6.1-1.7,11.4-4.5,15.9-8.1c4.4-3.7,7.9-8.3,10.4-14
			C796,92.4,797.2,85.7,797.2,77.9z M787.4,95c-2,4.9-4.8,8.9-8.5,12.2c-3.7,3.2-8.1,5.6-13.2,7.2c-5.2,1.6-10.9,2.4-17.3,2.4H729
			V39.2h18.3c6.6,0,12.6,0.8,17.9,2.4c5.3,1.6,9.8,4,13.5,7.2s6.6,7.3,8.6,12.1c2,4.8,3,10.5,3,17.1C790.3,84.4,789.3,90.1,787.4,95
			z"/>
		<polygon fill="#1A225C" points="820,79.1 857,79.1 857,73 820,73 820,39.2 867.4,39.2 867.4,33.1 813.6,33.1 813.6,122.8 
			870.9,122.8 870.9,116.7 820,116.7 		"/>
		<polygon fill="#1A225C" points="956.4,122.8 956.4,33.1 950.1,33.1 950.1,113.1 892.5,33.1 885.8,33.1 885.8,122.8 892.1,122.8 
			892.1,43.9 949.7,122.8 		"/>
	</g>
	<g>
		<g>
			<path fill="#1A225C" d="M139.4,78.9c-1.6-1.7-3.1-3.3-4.5-4.5c-8.3-6.6-17.9-10-27.9-10c-15.4,0-29.5,8.3-37.7,22.2
				c-6.6,11.1-12.2,37.1-13.3,58.8h88V83.5C142.4,82.2,140.9,80.5,139.4,78.9z"/>
			<path fill="#1A225C" d="M19.4,0c0.4,0.8,0.7,1.5,1,2.2c0.3,0.6,0.5,1.2,0.8,1.7c0.6,1.3,1.2,2.5,1.7,3.8
				c2.5,5.5,4.8,10.7,9.6,14.9c5,4.4,10.8,7.6,16,10.4c8,4.4,13.9,9.8,17.5,15.8c4.9,8.3,6.2,18.3,3.9,28.8
				C81,64.5,96.4,60.9,111.5,58.5c11.2-1.8,22.1-3.9,31.6-9.1c0.3-0.2,0.6-0.4,0.9-0.6V0H19.4z"/>
			<path fill="#1A225C" d="M62.7,51.5C59.3,43.8,48.4,34.2,28,30.3c-3-0.6-6.1-1.1-9.1-1.5c-6.5-1-12.7-2-18.9-4v120.6h48.2
				c0.5-3.5,1-6.8,1.5-9.7c0.3-1.8,0.6-3.3,0.8-4.6c1.7-11.5,4.7-23.4,9.3-37.5C64.4,79.4,68.4,64.5,62.7,51.5z"/>
		</g>
		<g>
			<path fill="none" stroke="#FFFFFF" stroke-width="3" stroke-linecap="square" stroke-miterlimit="10" d="M144,83.5
				c-1.6-1.3-3.1-3-4.5-4.6c-1.6-1.7-3.1-3.3-4.5-4.5c-8.3-6.6-17.9-10-27.9-10c-15.4,0-29.5,8.3-37.7,22.2
				c-6.6,11.1-12.2,37.1-13.3,58.8"/>
			<path fill="none" stroke="#FFFFFF" stroke-width="3" stroke-linecap="square" stroke-miterlimit="10" d="M19.4,0
				c0.4,0.8,0.7,1.5,1,2.2c0.3,0.6,0.5,1.2,0.8,1.7c0.6,1.3,1.2,2.5,1.7,3.8c2.5,5.5,4.8,10.7,9.6,14.9c5,4.4,10.8,7.6,16,10.4
				c8,4.4,13.9,9.8,17.5,15.8c4.9,8.3,6.2,18.3,3.9,28.8C81,64.5,96.4,60.9,111.5,58.5c11.2-1.8,22.1-3.9,31.6-9.1
				c0.3-0.2,0.6-0.4,0.9-0.6"/>
			<path fill="none" stroke="#FFFFFF" stroke-width="3" stroke-linecap="square" stroke-miterlimit="10" d="M48.2,145.4
				c0.5-3.5,1-6.8,1.5-9.7c0.3-1.8,0.6-3.3,0.8-4.6c1.7-11.5,4.7-23.4,9.3-37.5c4.6-14.1,8.6-29,2.9-42C59.3,43.9,48.4,34.3,28,30.4
				c-3-0.6-6.1-1.1-9.1-1.5c-6.5-1-12.7-2-18.9-4"/>
		</g>
		<path fill="#1A225C" stroke="#1A225C" stroke-miterlimit="10" enable-background="new    " d="M107.8,61.6L107.8,61.6v0.2
			c3-0.4,6.7-0.4,11.1,0c8.6,0.7,17.9,2.7,25.1,5.2v-0.2v-1.9v-0.5C132.5,61.5,117.6,60.3,107.8,61.6z"/>
		<path fill="#1A225C" stroke="#1A225C" stroke-miterlimit="10" enable-background="new    " d="M17,18.8
			c7.1,5.3,14.9,8.9,20.9,11.4c0,0,0,0,0.1,0l0,0c0,0,0.1-0.1,0.1-0.2c0-0.1-0.1-0.1-0.1-0.1c-7.8-3.3-14.4-7.2-20.1-12.1
			C14.3,14.7,7.7,8.4,3.3,0H3.1H0.6H0.4v0.2C4.6,7.5,10,13.6,17,18.8z"/>
	</g>
</g>
</svg>
