<?xml version="1.0" standalone="no"?>
<!DOCTYPE svg PUBLIC "-//W3C//DTD SVG 20010904//EN"
 "http://www.w3.org/TR/2001/REC-SVG-20010904/DTD/svg10.dtd">
<svg version="1.0" xmlns="http://www.w3.org/2000/svg"
 width="2048.000000pt" height="2048.000000pt" viewBox="0 0 2048.000000 2048.000000"
 preserveAspectRatio="xMidYMid meet">
<metadata>
Created by potrace 1.11, written by Peter Selinger 2001-2013
</metadata>
<g transform="translate(0.000000,2048.000000) scale(0.100000,-0.100000)"
fill="#000000" stroke="none">
<path d="M0 20444 c0 -94 494 -821 830 -1224 251 -300 627 -686 910 -934 717
-629 1621 -1209 2630 -1686 473 -224 976 -440 1025 -440 46 0 69 35 70 104 0
60 25 45 -290 182 -590 257 -1218 597 -1728 937 -1166 777 -2226 1894 -2841
2995 l-57 102 -275 0 -274 0 0 -36z"/>
<path d="M3003 20468 c19 -48 181 -405 187 -413 14 -19 181 -379 235 -505 122
-290 357 -777 487 -1009 230 -411 490 -755 750 -993 480 -439 1111 -864 2003
-1348 105 -57 264 -143 355 -193 1135 -618 2030 -1423 2553 -2297 426 -713
671 -1534 728 -2440 14 -221 6 -709 -15 -915 -8 -77 -14 -141 -13 -142 1 -1
45 37 97 84 486 435 968 762 1570 1063 943 472 2009 782 3580 1041 883 145
1112 184 1385 235 1137 214 2006 462 2752 785 267 116 547 260 691 354 l132
87 0 3309 0 3309 -8741 0 c-6989 0 -8740 -3 -8736 -12z"/>
<path d="M0 8373 l0 -8373 3319 0 3319 0 6 38 c3 20 29 190 56 377 58 388 150
955 210 1285 23 124 61 351 85 505 180 1132 426 2216 790 3485 164 570 279
941 574 1849 430 1323 632 2185 718 3056 22 228 25 921 5 1115 -41 385 -110
720 -212 1030 -179 539 -413 913 -835 1336 -441 442 -967 805 -1635 1128 -953
461 -1991 744 -3543 966 -1211 174 -1975 323 -2655 519 l-202 58 0 -8374z"/>
<path d="M16165 11939 c-319 -11 -760 -48 -847 -70 -21 -5 -42 -18 -48 -29
-15 -28 -12 -82 6 -108 18 -27 40 -27 249 -7 240 22 547 28 830 16 1147 -51
2382 -255 3517 -581 165 -48 532 -163 596 -187 10 -4 12 46 10 253 l-3 258
-140 33 c-1294 305 -2897 467 -4170 422z"/>
<path d="M14990 11190 c-1896 -76 -3648 -1078 -4741 -2712 -309 -462 -510
-867 -746 -1508 -629 -1707 -1144 -4348 -1287 -6605 -9 -132 -18 -268 -20
-302 l-5 -63 6144 0 6145 0 0 4223 0 4222 -112 90 c-158 128 -342 307 -561
550 -104 116 -305 325 -446 466 -210 209 -285 277 -418 377 -944 707 -1982
1120 -3108 1237 -125 13 -616 38 -650 33 -5 -1 -93 -4 -195 -8z"/>
</g>
</svg>
