<?xml version="1.0" encoding="utf-8"?>
<svg version="1.1" xmlns="http://www.w3.org/2000/svg" viewBox="-10 -10 1064 1064">
<path d="M512,0C229,0,0,229,0,512s229,512,512,512s512-229,512-512S794,0,512,0z M924,686c-0,0-0,1-1,2
c-1,0-3,1-5,2c-23,11-56,22-95,32c-29,6-60,12-94,17c8-53,14-111,16-171
c43-6,84-13,120-23c37-9,69-20,94-32C959,573,947,631,924,686z M924,337
c14,34,24,69,30,105c-4,3-10,6-17,10c-24,12-58,23-99,33c-28,6-58,12-91,17
c-0-60-3-119-10-174c39-5,76-12,110-21c20-5,39-11,56-17C910,306,918,321,924,337z
M828,195c13,13,25,26,36,41c-14,4-31,9-49,13c-27,6-57,12-90,16c-8-46-18-88-30-126
c-5-15-10-30-16-43c2,0,4,1,6,2C739,121,787,154,828,195z M512,521c-58,0-116-2-171-8
c0-0,0-0,0-0c0-60,3-119,10-174c51,5,105,7,160,7c55,0,109-2,160-7c6,54,10,113,10,174
c0,0,0,0,0,0C628,518,570,521,512,521z M680,577c-2,60-8,118-17,171c-48,4-99,6-150,6
c-52,0-103-2-151-6c-9-52-15-110-17-171c54,5,111,7,169,7C570,585,627,582,680,577z
M595,71c13,20,26,48,39,88c11,34,20,72,27,114c-48,4-99,6-150,6c-52,0-103-2-151-7
c7-41,16-80,27-114c12-39,26-67,39-88c27-5,55-7,84-7C540,64,568,66,595,71z M337,99
c1-0,3-1,5-2c-5,13-10,27-15,43c-12,38-22,80-30,126c-31-4-61-10-89-16
c-17-4-34-8-49-13c11-14,23-28,36-41C236,154,284,121,337,99z M100,688
c-0-0-0-1-1-2C76,631,64,573,64,513c25,12,56,23,94,32c36,9,76,17,119,23
c2,59,7,117,16,171c-33-4-64-10-93-17c-39-9-72-20-95-32C103,690,101,689,100,688z
M121,291c16,6,35,11,56,17c33,8,70,15,109,21c-6,55-10,114-10,174
c-32-4-62-10-90-17c-40-9-75-21-99-33c-7-3-13-7-17-10c5-36,15-71,30-105
C105,321,113,306,121,291z M195,828c-16-16-31-34-45-52c6,2,14,4,21,5
c40,10,86,18,135,25c6,27,13,53,20,76c5,15,10,30,15,43c-1-0-3-1-5-2
C284,902,236,869,195,828z M427,952c-13-20-26-48-39-88c-5-15-9-32-14-50
c44,3,90,5,137,5c46,0,92-1,137-5c-4,17-9,34-14,50c-12,39-26,68-39,88
c-27,5-55,7-83,7C483,960,455,957,427,952z M686,924c-2,0-4,1-6,2c5-13,10-27,16-43
c7-23,14-49,20-76c49-6,95-14,135-25c7-1,14-3,21-5c-13,18-28,36-45,52
C787,869,739,902,686,924z"/>
</svg>
