<?xml version="1.0" encoding="utf-8"?>
<svg version="1.1" xmlns="http://www.w3.org/2000/svg" viewBox="0 0 1600 1600"><path d="M799,043c-428,0-776,347-776,776 c0,342,222,633,530,736c038,007,053-016,053-037c0-018-000-067-001-132 c-215,046-261-104-261-104c-035-089-086-113-086-113c-070-048,005-047,005-047 c077,005,118,08,118,08c069,118,181,084,225,064c007-050,027-084,049-103 C486,1142,304,1076,304,778c0-084,030-154,079-208C376,550,350,471,392,365 c0,0,065-020,213,079C667,427,734,418,800,418c065,000,132,008,194,026 c148-100,213-079,213-079c042,106,015,185,007,205c049,054,079,123,079,208 c0,298-181,363-354,382c027,024,052,071,052,143c0,103-001,187-001,212 c0,020,014,044,053,037c308-102,530-393,530-736C1576,390,1228,043,799,043z"/></svg>
