<?xml version="1.0" encoding="UTF-8"?>
<svg version="1.1" xmlns="http://www.w3.org/2000/svg" viewBox="224 0 2079 1980"><path d="M1572,1627L1306,1000C1200,1207 1084,1422 984,1626C983,1627 935,1627 935,1626C783,1270 624,916 471,559C435,472 311,332 225,333C225,323 225,300 225,287L750,287L750,332C688,335 582,375 609,443C683,603 946,1223 1017,1380C1066,1283 1204,1025 1261,916C1217,824 1069,483 1025,396C992,340 908,333 844,333C844,318 844,307 844,287L1306,289L1306,331C1244,333 1184,356 1211,416C1273,545 1310,637 1367,756C1385,721 1479,529 1523,428C1550,361 1510,336 1397,333C1399,322 1398,299 1399,289C1542,288 1759,288 1798,287L1798,331C1725,334 1649,373 1609,433L1417,832C1438,885 1623,1295 1642,1341L2040,424C2011,349 1921,333 1886,332C1886,320 1886,302 1886,287L2301,290L2302,292L2301,332C2210,335 2154,383 2120,463C2037,650 1785,1241 1616,1627C1616,1627 1572,1627 1572,1627z"/></svg>
